<?xml version="1.0" encoding="UTF-8"?>
<svg width="64px" height="64px" viewBox="0 0 64 64" version="1.1" xmlns="http://www.w3.org/2000/svg" xmlns:xlink="http://www.w3.org/1999/xlink">
    <!-- Generator: Sketch 60.1 (88133) - https://sketch.com -->
    <title>folder tree</title>
    <desc>Created with Sketch.</desc>
    <g id="folder-tree" stroke="none" stroke-width="1" fill="none" fill-rule="evenodd">
        <path d="M17.404,11 L21.915,15.766 L57,15.766 C58.104,15.766 59,16.661 59,17.766 L59,17.766 L59,51 C59,52.104 58.104,53 57,53 L57,53 L7,53 C5.896,53 5,52.104 5,51 L5,51 L5,13 C5,11.896 5.896,11 7,11 L7,11 L17.404,11 Z M16.543,13 L7,13 L7,51 L57,51 L57,17.766 L21.054,17.766 L20.462,17.141 L16.543,13 Z M32.4998,26.5086 C36.3658,26.5086 39.4998,29.6426 39.4998,33.5086 C39.4998,37.3746 36.3658,40.5086 32.4998,40.5086 C28.6338,40.5086 25.4998,37.3746 25.4998,33.5086 C25.4998,29.6426 28.6338,26.5086 32.4998,26.5086 Z M21,35.5088 C21.827,35.5088 22.5,36.1818 22.5,37.0088 L22.5,37.0088 L22.5,37.6618 C22.794,37.8368 23,38.1428 23,38.5088 L23,38.5088 L23,39.5088 C23,40.0608 22.553,40.5088 22,40.5088 L22,40.5088 L20,40.5088 C19.447,40.5088 19,40.0608 19,39.5088 L19,39.5088 L19,38.5088 C19,38.1428 19.206,37.8368 19.5,37.6618 L19.5,37.6618 L19.5,37.0088 C19.5,36.1818 20.173,35.5088 21,35.5088 Z M18.8725,26.5083 C18.8725,26.5083 20.7585,27.9023 20.6675,31.3343 C20.6675,31.3343 21.1705,32.4973 20.2345,33.5243 C20.2345,33.5243 20.0805,33.9803 19.8185,34.5083 L19.8185,34.5083 L18.6795,34.5083 C18.9765,34.0253 19.2095,33.4383 19.2855,33.2093 L19.2855,33.2093 L19.3525,33.0073 L19.4955,32.8503 C19.9535,32.3483 19.7825,31.8153 19.7435,31.7133 L19.7435,31.7133 L19.6715,31.5283 L19.6685,31.3083 C19.7175,29.4243 19.1005,28.2903 18.6685,27.7323 C18.1185,27.9393 17.6145,27.9733 17.2035,27.9733 C17.0305,27.9733 16.8585,27.9663 16.6895,27.9593 C16.5515,27.9533 16.4155,27.9473 16.2825,27.9473 C16.1745,27.9473 16.0695,27.9513 15.9635,27.9653 C15.4935,28.0283 14.6165,28.1443 14.1345,28.7833 C13.7485,29.2973 13.6335,30.1063 13.7935,31.1883 L13.7935,31.1883 L13.8355,31.4693 L13.7225,31.7313 C13.6915,31.8153 13.5205,32.3483 13.9775,32.8503 L13.9775,32.8503 L14.1045,32.9893 L14.1715,33.1663 C14.3605,33.6533 14.8165,34.5823 15.2415,35.0023 L15.2415,35.0023 L15.4445,35.2023 L15.5105,35.4793 C15.6625,36.1073 15.6555,37.3393 14.6745,37.9723 C14.4645,38.1073 14.2195,38.1943 13.9085,38.3043 C13.2805,38.5263 12.4255,38.8283 12.0245,39.4953 L12.0245,39.4953 L18.0125,39.5083 L18.0125,40.5083 L18.0125,40.5083 L12.0105,40.5083 C11.2745,40.5073 10.7605,39.7183 11.1145,39.0723 C11.8765,37.6773 13.6925,37.4163 14.1325,37.1323 C14.7795,36.7153 14.5385,35.7133 14.5385,35.7133 C13.7965,34.9813 13.2385,33.5243 13.2385,33.5243 C12.3025,32.4973 12.8045,31.3343 12.8045,31.3343 C12.2295,27.4593 14.8935,27.0993 15.8315,26.9743 C15.9815,26.9543 16.1305,26.9473 16.2825,26.9473 C16.5815,26.9473 16.8885,26.9733 17.2035,26.9733 C17.7325,26.9733 18.2845,26.9003 18.8725,26.5083 Z M46,31.5088 L46,32.5088 L44,32.5088 L44,39.5088 L52,39.5088 L52,32.5088 L50,32.5088 L50,31.5088 L52,31.5088 C52.553,31.5088 53,31.9568 53,32.5088 L53,32.5088 L53,39.5088 C53,40.0608 52.553,40.5088 52,40.5088 L52,40.5088 L44,40.5088 C43.447,40.5088 43,40.0608 43,39.5088 L43,39.5088 L43,32.5088 C43,31.9568 43.447,31.5088 44,31.5088 L44,31.5088 L46,31.5088 Z M34.4078,36.6266 C33.7798,36.6966 33.1408,36.7336 32.4998,36.7336 C31.8598,36.7336 31.2198,36.6966 30.5918,36.6266 C30.8008,37.6546 31.1188,38.6086 31.5448,39.4256 C31.8568,39.4756 32.1738,39.5086 32.4998,39.5086 C32.8258,39.5086 33.1438,39.4756 33.4548,39.4256 C33.8808,38.6086 34.1988,37.6546 34.4078,36.6266 Z M38.0708,35.7256 C37.2688,36.0546 36.3878,36.3036 35.4608,36.4706 C35.2938,37.3966 35.0458,38.2776 34.7168,39.0796 C36.2428,38.4696 37.4608,37.2526 38.0708,35.7256 Z M26.9298,35.7256 C27.5388,37.2526 28.7568,38.4696 30.2828,39.0796 C29.9548,38.2776 29.7058,37.3966 29.5388,36.4706 C28.6128,36.3036 27.7318,36.0546 26.9298,35.7256 Z M21,36.5088 C20.725,36.5088 20.5,36.7338 20.5,37.0088 L20.5,37.0088 L20.5,37.5088 L21.5,37.5088 L21.5,37.0088 C21.5,36.7338 21.275,36.5088 21,36.5088 Z M34.5798,31.4296 C33.2168,31.2526 31.7828,31.2526 30.4198,31.4296 C30.2438,32.7916 30.2428,34.2256 30.4198,35.5886 C31.7828,35.7656 33.2168,35.7656 34.5798,35.5886 C34.7568,34.2256 34.7568,32.7916 34.5798,31.4296 Z M48.0004,26.5089 L51.1814,29.6909 C51.3774,29.8859 51.3774,30.2029 51.1814,30.3979 C50.9864,30.5929 50.6704,30.5929 50.4744,30.3979 L50.4744,30.3979 L48.5004,28.4229 L48.5004,35.5089 L47.5004,35.5089 L47.5004,28.4229 L45.5254,30.3979 C45.3304,30.5929 45.0134,30.5929 44.8184,30.3979 C44.6234,30.2029 44.6234,29.8859 44.8184,29.6909 L44.8184,29.6909 L48.0004,26.5089 Z M35.6168,31.6006 C35.7578,32.8576 35.7578,34.1606 35.6168,35.4176 C36.6458,35.2076 37.5998,34.8896 38.4168,34.4636 C38.4668,34.1526 38.4998,33.8346 38.4998,33.5086 C38.4998,33.1836 38.4668,32.8656 38.4168,32.5536 C37.5998,32.1286 36.6458,31.8096 35.6168,31.6006 Z M29.3828,31.6006 C28.3548,31.8096 27.4008,32.1286 26.5828,32.5536 C26.5328,32.8656 26.4998,33.1836 26.4998,33.5086 C26.4998,33.8346 26.5328,34.1526 26.5828,34.4636 C27.4008,34.8896 28.3548,35.2076 29.3828,35.4176 C29.2418,34.1606 29.2418,32.8576 29.3828,31.6006 Z M30.2828,27.9386 C28.7568,28.5486 27.5388,29.7656 26.9298,31.2916 C27.7318,30.9636 28.6128,30.7146 29.5388,30.5476 C29.7058,29.6216 29.9548,28.7406 30.2828,27.9386 Z M34.7168,27.9386 C35.0458,28.7406 35.2938,29.6216 35.4608,30.5476 C36.3878,30.7146 37.2688,30.9636 38.0708,31.2916 C37.4608,29.7656 36.2428,28.5486 34.7168,27.9386 Z M32.4998,27.5086 C32.1738,27.5086 31.8568,27.5416 31.5448,27.5926 C31.1188,28.4096 30.8008,29.3636 30.5918,30.3916 C31.8488,30.2506 33.1518,30.2506 34.4078,30.3916 C34.1988,29.3636 33.8808,28.4096 33.4548,27.5926 C33.1438,27.5416 32.8258,27.5086 32.4998,27.5086 Z" fill="#A9A9A9"></path>
    </g>
</svg>