<?xml version="1.0" encoding="UTF-8"?>
<svg width="64px" height="64px" viewBox="0 0 64 64" version="1.1" xmlns="http://www.w3.org/2000/svg" xmlns:xlink="http://www.w3.org/1999/xlink">
    <!-- Generator: Sketch 60.1 (88133) - https://sketch.com -->
    <title>event planning</title>
    <desc>Created with Sketch.</desc>
    <g id="event-planning" stroke="none" stroke-width="1" fill="none" fill-rule="evenodd">
        <path d="M15,7.9999 L15,11.4999 L49,11.4999 L49,7.9999 L51,7.9999 L51,11.4999 L58,11.4999 C59.104,11.4999 60,12.3959 60,13.4999 L60,13.4999 L60,53.4999 C60,54.6049 59.104,55.4999 58,55.4999 L58,55.4999 L6,55.4999 C4.895,55.4999 4,54.6049 4,53.4999 L4,53.4999 L4,13.4999 C4,12.3959 4.895,11.4999 6,11.4999 L6,11.4999 L13,11.4999 L13,7.9999 L15,7.9999 Z M58,26.4999 L6,26.4999 L6,53.4999 L58,53.4999 L58,26.4999 Z M20,43.4999 L20,45.4999 L16,45.4999 L16,43.4999 L20,43.4999 Z M26.998,43.4999 L26.998,45.4999 L22.998,45.4999 L22.998,43.4999 L26.998,43.4999 Z M33.996,43.4999 L33.996,45.4999 L29.996,45.4999 L29.996,43.4999 L33.996,43.4999 Z M40.995,43.4999 L40.995,45.4999 L36.995,45.4999 L36.995,43.4999 L40.995,43.4999 Z M20,38.4999 L20,40.4999 L16,40.4999 L16,38.4999 L20,38.4999 Z M26.998,38.4999 L26.998,40.4999 L22.998,40.4999 L22.998,38.4999 L26.998,38.4999 Z M33.996,38.4999 L33.996,40.4999 L29.996,40.4999 L29.996,38.4999 L33.996,38.4999 Z M40.995,38.4999 L40.995,40.4999 L36.995,40.4999 L36.995,38.4999 L40.995,38.4999 Z M47.993,38.4999 L47.993,40.4999 L43.993,40.4999 L43.993,38.4999 L47.993,38.4999 Z M26.998,33.4999 L26.998,35.4999 L22.998,35.4999 L22.998,33.4999 L26.998,33.4999 Z M33.996,33.4999 L33.996,35.4999 L29.996,35.4999 L29.996,33.4999 L33.996,33.4999 Z M40.995,33.4999 L40.995,35.4999 L36.995,35.4999 L36.995,33.4999 L40.995,33.4999 Z M47.993,33.4999 L47.993,35.4999 L43.993,35.4999 L43.993,33.4999 L47.993,33.4999 Z M58,13.4999 L6,13.4999 L6,24.4999 L58,24.4999 L58,13.4999 Z" fill="#A9A9A9"></path>
    </g>
</svg>