<?xml version="1.0" encoding="UTF-8"?>
<svg width="64px" height="64px" viewBox="0 0 64 64" version="1.1" xmlns="http://www.w3.org/2000/svg" xmlns:xlink="http://www.w3.org/1999/xlink">
    <!-- Generator: Sketch 60.1 (88133) - https://sketch.com -->
    <title>top menu bar</title>
    <desc>Created with Sketch.</desc>
    <g id="top-menu-bar" stroke="none" stroke-width="1" fill="none" fill-rule="evenodd">
        <path d="M62,41 L62,43 L2,43 L2,41 L62,41 Z M47,29.5 C48.104,29.5 49,30.396 49,31.5 C49,32.604 48.104,33.5 47,33.5 C45.896,33.5 45,32.604 45,31.5 C45,30.396 45.896,29.5 47,29.5 Z M27,29.5 C28.104,29.5 29,30.396 29,31.5 C29,32.604 28.104,33.5 27,33.5 C25.896,33.5 25,32.604 25,31.5 C25,30.396 25.896,29.5 27,29.5 Z M6.75,29.5 C7.854,29.5 8.75,30.396 8.75,31.5 C8.75,32.604 7.854,33.5 6.75,33.5 C5.646,33.5 4.75,32.604 4.75,31.5 C4.75,30.396 5.646,29.5 6.75,29.5 Z M60,30.5 C60.553,30.5 61,30.948 61,31.5 C61,32.052 60.553,32.5 60,32.5 L60,32.5 L52,32.5 C51.447,32.5 51,32.052 51,31.5 C51,30.948 51.447,30.5 52,30.5 L52,30.5 Z M40,30.5 C40.553,30.5 41,30.948 41,31.5 C41,32.052 40.553,32.5 40,32.5 L40,32.5 L32,32.5 C31.447,32.5 31,32.052 31,31.5 C31,30.948 31.447,30.5 32,30.5 L32,30.5 Z M19.75,30.5 C20.303,30.5 20.75,30.948 20.75,31.5 C20.75,32.052 20.303,32.5 19.75,32.5 L19.75,32.5 L11.75,32.5 C11.197,32.5 10.75,32.052 10.75,31.5 C10.75,30.948 11.197,30.5 11.75,30.5 L11.75,30.5 Z M62,20 L62,22 L2,22 L2,20 L62,20 Z" fill="#A9A9A9"></path>
    </g>
</svg>