<svg xmlns="http://www.w3.org/2000/svg" xmlns:xlink="http://www.w3.org/1999/xlink" width="234" height="196" viewBox="0 0 234 196">
    <defs>
        <linearGradient id="prefix__a" x1="16.353%" x2="121.915%" y1="42.792%" y2="67.428%">
            <stop offset="0%" stop-color="#D9DCF1" stop-opacity="0"/>
            <stop offset="100%" stop-color="#D9DCF1" stop-opacity=".8"/>
        </linearGradient>
        <linearGradient id="prefix__b" x1="89.887%" x2="-37.459%" y1="59.725%" y2="47.893%">
            <stop offset="0%" stop-color="#F9F9FE"/>
            <stop offset="56.68%" stop-color="#D0D4EF"/>
            <stop offset="100%" stop-color="#BFB5F4"/>
        </linearGradient>
        <linearGradient id="prefix__c" x1="100.029%" x2=".058%" y1="49.975%" y2="49.975%">
            <stop offset="0%" stop-color="#F1F0FB"/>
            <stop offset="100%" stop-color="#FCFCFF"/>
        </linearGradient>
        <linearGradient id="prefix__e" x1="-84.435%" x2="58.617%" y1="46.611%" y2="50%">
            <stop offset="0%" stop-color="#6A6EA6"/>
            <stop offset="100%" stop-color="#9397D3" stop-opacity="0"/>
        </linearGradient>
        <linearGradient id="prefix__g" x1="37.309%" x2="105.148%" y1="50%" y2="50%">
            <stop offset="0%" stop-color="#D9DCF1" stop-opacity=".8"/>
            <stop offset="100%" stop-color="#D9DCF1" stop-opacity="0"/>
        </linearGradient>
        <linearGradient id="prefix__l" x1="5.627%" x2="81.998%" y1="50.065%" y2="50.065%">
            <stop offset="0%" stop-color="#90D6FF"/>
            <stop offset="54%" stop-color="#E2F5FF"/>
            <stop offset="100%" stop-color="#90C6FF"/>
        </linearGradient>
        <linearGradient id="prefix__m" x1="0%" x2="100%" y1="50%" y2="50%">
            <stop offset="0%" stop-color="#F1F0FB"/>
            <stop offset="100%" stop-color="#FCFCFF"/>
        </linearGradient>
        <linearGradient id="prefix__n" x1="35.328%" x2="40.485%" y1="64.844%" y2="59.344%">
            <stop offset="0%" stop-color="#FFF" stop-opacity=".6"/>
            <stop offset="100%" stop-color="#FFF" stop-opacity="0"/>
        </linearGradient>
        <linearGradient id="prefix__o" x1="63.162%" x2="59.304%" y1="66.424%" y2="58.071%">
            <stop offset="0%" stop-color="#FFF" stop-opacity=".6"/>
            <stop offset="100%" stop-color="#FFF" stop-opacity="0"/>
        </linearGradient>
        <linearGradient id="prefix__p" x1="-20.139%" x2="116.8%" y1="93.832%" y2="93.832%">
            <stop offset="0%" stop-color="#90C4FF"/>
            <stop offset="53.999%" stop-color="#E2F5FF"/>
            <stop offset="100%" stop-color="#90C6FF"/>
        </linearGradient>
        <linearGradient id="prefix__q" x1="36.805%" x2="63.124%" y1="64.196%" y2="36.065%">
            <stop offset="0%" stop-color="#FFF" stop-opacity=".6"/>
            <stop offset="2%" stop-color="#FFF" stop-opacity=".5"/>
            <stop offset="4%" stop-color="#FFF" stop-opacity=".35"/>
            <stop offset="7%" stop-color="#FFF" stop-opacity=".22"/>
            <stop offset="10%" stop-color="#FFF" stop-opacity=".12"/>
            <stop offset="13%" stop-color="#FFF" stop-opacity=".05"/>
            <stop offset="16%" stop-color="#FFF" stop-opacity=".01"/>
            <stop offset="20%" stop-color="#FFF" stop-opacity="0"/>
        </linearGradient>
        <linearGradient id="prefix__r" x1="62.15%" x2="49.34%" y1="64.951%" y2="47.841%">
            <stop offset="0%" stop-color="#FFF" stop-opacity=".3"/>
            <stop offset="100%" stop-color="#FFF" stop-opacity="0"/>
        </linearGradient>
        <linearGradient id="prefix__s" x1="74.012%" x2="2.816%" y1="50.296%" y2="48.206%">
            <stop offset="0%" stop-color="#FFF"/>
            <stop offset="100%" stop-color="#FFF" stop-opacity="0"/>
        </linearGradient>
        <linearGradient id="prefix__t" x1="74.012%" x2="2.816%" y1="50.444%" y2="47.309%">
            <stop offset="0%" stop-color="#FFF"/>
            <stop offset="100%" stop-color="#FFF" stop-opacity="0"/>
        </linearGradient>
        <linearGradient id="prefix__u" x1="65.632%" x2="17.249%" y1="40.161%" y2="39.066%">
            <stop offset="0%" stop-color="#F7E2D8"/>
            <stop offset="47.716%" stop-color="#F9ECE5"/>
            <stop offset="100%" stop-color="#F9EDE7"/>
        </linearGradient>
        <linearGradient id="prefix__v" x1="73.208%" x2="1.375%" y1="40.161%" y2="39.066%">
            <stop offset="0%" stop-color="#F7E2D8"/>
            <stop offset="47.716%" stop-color="#F9ECE5"/>
            <stop offset="100%" stop-color="#F9EDE7"/>
        </linearGradient>
        <linearGradient id="prefix__w" x1="74.622%" x2="-1.587%" y1="40.161%" y2="39.066%">
            <stop offset="0%" stop-color="#F7E2D8"/>
            <stop offset="47.716%" stop-color="#F9ECE5"/>
            <stop offset="100%" stop-color="#F9EDE7"/>
        </linearGradient>
        <linearGradient id="prefix__x" x1="56.654%" x2="36.06%" y1="40.161%" y2="39.066%">
            <stop offset="0%" stop-color="#F7E2D8"/>
            <stop offset="47.716%" stop-color="#F9ECE5"/>
            <stop offset="100%" stop-color="#F9EDE7"/>
        </linearGradient>
        <linearGradient id="prefix__y" x1="55.761%" x2="37.93%" y1="40.161%" y2="39.066%">
            <stop offset="0%" stop-color="#F7E2D8"/>
            <stop offset="47.716%" stop-color="#F9ECE5"/>
            <stop offset="100%" stop-color="#F9EDE7"/>
        </linearGradient>
        <linearGradient id="prefix__z" x1="24.934%" x2="88.311%" y1="-72.083%" y2="114.327%">
            <stop offset="0%" stop-color="#FF5858"/>
            <stop offset="100%" stop-color="#FF7575"/>
        </linearGradient>
        <linearGradient id="prefix__G" x1="88.343%" x2="-30.334%" y1="48.174%" y2="47.971%">
            <stop offset="0%" stop-color="#F7E2D8"/>
            <stop offset="47.716%" stop-color="#F9ECE5"/>
            <stop offset="100%" stop-color="#F9EDE7"/>
        </linearGradient>
        <linearGradient id="prefix__H" x1="69.385%" x2="9.385%" y1="40.161%" y2="39.066%">
            <stop offset="0%" stop-color="#F7E2D8"/>
            <stop offset="47.716%" stop-color="#F9ECE5"/>
            <stop offset="100%" stop-color="#F9EDE7"/>
        </linearGradient>
        <linearGradient id="prefix__I" x1="0%" x2="106.302%" y1="48.823%" y2="51.915%">
            <stop offset="0%" stop-color="#F7E2D8"/>
            <stop offset="47.716%" stop-color="#F9ECE5"/>
            <stop offset="100%" stop-color="#F9EDE7"/>
        </linearGradient>
        <linearGradient id="prefix__J" x1="67.476%" x2="46.926%" y1="107.718%" y2="35.279%">
            <stop offset=".005%" stop-color="#5F40FD" stop-opacity=".796"/>
            <stop offset="100%" stop-color="#82AFFF" stop-opacity="0"/>
        </linearGradient>
        <linearGradient id="prefix__M" x1="0%" x2="100%" y1="50%" y2="50%">
            <stop offset="0%" stop-color="#F1F0FB"/>
            <stop offset="100%" stop-color="#FCFCFF"/>
        </linearGradient>
        <linearGradient id="prefix__O" x1="36.08%" x2="69.947%" y1="74.57%" y2="70.958%">
            <stop offset="0%" stop-color="#FF5858"/>
            <stop offset="100%" stop-color="#E31C1C"/>
        </linearGradient>
        <linearGradient id="prefix__U" x1="45.857%" x2="50.827%" y1="-158.918%" y2="97.683%">
            <stop offset=".005%" stop-color="#5F40FD" stop-opacity=".796"/>
            <stop offset="100%" stop-color="#82AFFF" stop-opacity="0"/>
        </linearGradient>
        <linearGradient id="prefix__V" x1="90.186%" x2="76.816%" y1="23.169%" y2="72.623%">
            <stop offset="0%" stop-color="#ABD8FF" stop-opacity="0"/>
            <stop offset="35.944%" stop-color="#FFEFEB" stop-opacity="0"/>
            <stop offset="100%" stop-color="#FFF"/>
        </linearGradient>
        <linearGradient id="prefix__X" x1="18.073%" x2="86.708%" y1="68.875%" y2="29.949%">
            <stop offset=".066%" stop-color="#5BE1F4" stop-opacity="0"/>
            <stop offset="72.12%" stop-color="#FF3889" stop-opacity=".739"/>
            <stop offset="100%" stop-color="#6038FF" stop-opacity=".177"/>
        </linearGradient>
        <linearGradient id="prefix__Z" x1="46.77%" x2="55.222%" y1="54.363%" y2="45.464%">
            <stop offset="0%" stop-color="#FFF" stop-opacity="0"/>
            <stop offset="19.686%" stop-color="#FFF" stop-opacity=".261"/>
            <stop offset="41.317%" stop-color="#FFF" stop-opacity=".521"/>
            <stop offset="60.968%" stop-color="#FFF" stop-opacity=".727"/>
            <stop offset="77.912%" stop-color="#FFF" stop-opacity=".876"/>
            <stop offset="91.489%" stop-color="#FFF" stop-opacity=".967"/>
            <stop offset="100%" stop-color="#FFF"/>
        </linearGradient>
        <linearGradient id="prefix__ac" x1="38.409%" x2="52.313%" y1="-158.918%" y2="97.683%">
            <stop offset=".005%" stop-color="#5F40FD" stop-opacity=".796"/>
            <stop offset="100%" stop-color="#82AFFF" stop-opacity="0"/>
        </linearGradient>
        <linearGradient id="prefix__ad" x1="62.944%" x2="37.056%" y1="98.308%" y2="1.692%">
            <stop offset="0%" stop-color="#ABD8FF"/>
            <stop offset="35.944%" stop-color="#FFEFEB"/>
            <stop offset="64.132%" stop-color="#FFF"/>
            <stop offset="100%" stop-color="#FFF"/>
        </linearGradient>
        <linearGradient id="prefix__af" x1="23.341%" x2="80.565%" y1="94.091%" y2="3.288%">
            <stop offset=".066%" stop-color="#5BE1F4" stop-opacity="0"/>
            <stop offset="72.12%" stop-color="#FF3889" stop-opacity=".739"/>
            <stop offset="100%" stop-color="#6038FF" stop-opacity=".177"/>
        </linearGradient>
        <linearGradient id="prefix__ah" x1="46.77%" x2="55.222%" y1="62.207%" y2="37.309%">
            <stop offset="0%" stop-color="#FFF" stop-opacity="0"/>
            <stop offset="19.686%" stop-color="#FFF" stop-opacity=".261"/>
            <stop offset="41.317%" stop-color="#FFF" stop-opacity=".521"/>
            <stop offset="60.968%" stop-color="#FFF" stop-opacity=".727"/>
            <stop offset="77.912%" stop-color="#FFF" stop-opacity=".876"/>
            <stop offset="91.489%" stop-color="#FFF" stop-opacity=".967"/>
            <stop offset="100%" stop-color="#FFF"/>
        </linearGradient>
        <linearGradient id="prefix__ai" x1="52.932%" x2="65.991%" y1="55.513%" y2="46.866%">
            <stop offset="0%" stop-color="#FFF" stop-opacity="0"/>
            <stop offset="100%" stop-color="#FFF"/>
        </linearGradient>
        <linearGradient id="prefix__ap" x1="85.321%" x2="21.783%" y1="45.266%" y2="54.679%">
            <stop offset="0%" stop-color="#B2F1FF"/>
            <stop offset="100%" stop-color="#405CFF"/>
        </linearGradient>
        <linearGradient id="prefix__aq" x1="148.473%" x2="-33.969%" y1="62.469%" y2="40.806%">
            <stop offset="0%" stop-color="#4539FF"/>
            <stop offset="100%" stop-color="#8E3EC3"/>
        </linearGradient>
        <linearGradient id="prefix__ar" x1="100.242%" x2="7.158%" y1="74.44%" y2="31.98%">
            <stop offset="0%" stop-color="#4539FF"/>
            <stop offset="100%" stop-color="#8E3EC3"/>
        </linearGradient>
        <linearGradient id="prefix__as" x1="85.321%" x2="21.783%" y1="45.266%" y2="54.679%">
            <stop offset="0%" stop-color="#B2F1FF"/>
            <stop offset="100%" stop-color="#405CFF"/>
        </linearGradient>
        <linearGradient id="prefix__at" x1="148.473%" x2="-33.969%" y1="62.469%" y2="40.806%">
            <stop offset="0%" stop-color="#4539FF"/>
            <stop offset="100%" stop-color="#8E3EC3"/>
        </linearGradient>
        <linearGradient id="prefix__au" x1="100.242%" x2="7.158%" y1="74.44%" y2="31.98%">
            <stop offset="0%" stop-color="#4539FF"/>
            <stop offset="100%" stop-color="#8E3EC3"/>
        </linearGradient>
        <linearGradient id="prefix__ax" x1="148.473%" x2="-33.969%" y1="74.44%" y2="31.98%">
            <stop offset="0%" stop-color="#4539FF"/>
            <stop offset="100%" stop-color="#8E3EC3"/>
        </linearGradient>
        <linearGradient id="prefix__ay" x1="148.473%" x2="-33.969%" y1="57.98%" y2="44.116%">
            <stop offset="0%" stop-color="#4539FF"/>
            <stop offset="100%" stop-color="#8E3EC3"/>
        </linearGradient>
        <linearGradient id="prefix__az" x1="148.473%" x2="-33.969%" y1="74.44%" y2="31.98%">
            <stop offset="0%" stop-color="#4539FF"/>
            <stop offset="100%" stop-color="#8E3EC3"/>
        </linearGradient>
        <linearGradient id="prefix__aA" x1="148.473%" x2="-33.969%" y1="60.187%" y2="42.489%">
            <stop offset="0%" stop-color="#4539FF"/>
            <stop offset="100%" stop-color="#8E3EC3"/>
        </linearGradient>
        <path id="prefix__d" d="M43.62 63.252c-1.983 1.078-4.377 1.078-6.36 0L1.8 42.792c-.99-.566-1.6-1.62-1.6-2.76 0-1.14.61-2.193 1.6-2.76L65.88.852c1.968-1.136 4.392-1.136 6.36 0l35.46 20.46c.99.567 1.6 1.62 1.6 2.76 0 1.14-.61 2.194-1.6 2.76l-64.08 36.42z"/>
        <path id="prefix__h" d="M136.08 73.693c-.05 1.869-1.045 3.585-2.64 4.56l-60 34.56c-3.253 1.937-7.307 1.937-10.56 0l-60-34.56c-1.595-.975-2.59-2.691-2.64-4.56L.36 40.8c.05-1.869 1.045-3.585 2.64-4.56L63 1.68c3.253-1.937 7.307-1.937 10.56 0l60 34.56c1.595.975 2.59 2.691 2.64 4.56l-.12 32.893z"/>
        <path id="prefix__j" d="M3.84 47.94L83.04 2.1c4.353-2.633 9.807-2.633 14.16 0l79.44 45.84c2.191 1.208 3.566 3.498 3.6 6 0 2.574-1.37 4.953-3.6 6.24L97.2 106.02c-4.353 2.633-9.807 2.633-14.16 0L3.84 60.18C1.532 58.973.13 56.542.24 53.94c-.076-2.532 1.33-4.875 3.6-6z"/>
        <path id="prefix__A" d="M36.772 3.7C33.97-3.473 10.228 1.991 10.228 1.991S2.55 3.098.967 5.312C-.616 7.526.01 11.812.96 18.928c.95 7.115 2.533 16.602 2.533 16.602s1.28 2.045 5.396-.485c0 0 .626-1.58 1.05-4.75.415-3.095.636-7.704-.107-13.836.763-.263 1.553-.441 2.356-.53-.076 4.06.136 8.122.634 12.154.95 7.115 2.533 16.602 2.533 16.602s1.28 2.045 5.395-.485c0 0 3.074-13.271 1.57-25.683 1.058-.412 2.19-.6 3.324-.554 0 0 7.747-1.51 9.33-3.288.933-1.05 4.707-3.53 1.798-10.976z"/>
        <path id="prefix__C" d="M36.772 3.7C33.97-3.473 10.228 1.991 10.228 1.991S2.55 3.098.967 5.312C-.616 7.526.01 11.812.96 18.928c.95 7.115 2.533 16.602 2.533 16.602s1.28 2.045 5.396-.485c0 0 .626-1.58 1.05-4.75.415-3.095.636-7.704-.107-13.836.763-.263 1.553-.441 2.356-.53-.076 4.06.136 8.122.634 12.154.95 7.115 2.533 16.602 2.533 16.602s1.28 2.045 5.395-.485c0 0 3.074-13.271 1.57-25.683 1.058-.412 2.19-.6 3.324-.554 0 0 7.747-1.51 9.33-3.288.933-1.05 4.707-3.53 1.798-10.976z"/>
        <path id="prefix__E" d="M36.772 3.7C33.97-3.473 10.228 1.991 10.228 1.991S2.55 3.098.967 5.312C-.616 7.526.01 11.812.96 18.928c.95 7.115 2.533 16.602 2.533 16.602s1.28 2.045 5.396-.485c0 0 .626-1.58 1.05-4.75.415-3.095.636-7.704-.107-13.836.763-.263 1.553-.441 2.356-.53-.076 4.06.136 8.122.634 12.154.95 7.115 2.533 16.602 2.533 16.602s1.28 2.045 5.395-.485c0 0 3.074-13.271 1.57-25.683 1.058-.412 2.19-.6 3.324-.554 0 0 7.747-1.51 9.33-3.288.933-1.05 4.707-3.53 1.798-10.976z"/>
        <path id="prefix__K" d="M.6 13.2c2.6-.8 4.9-.6 6.9.6s5.9 1.1 11.7-.3L18 1.8 0 0l.6 13.2z"/>
        <path id="prefix__S" d="M2.197 15.507c2.747 0 5.677.323 8.79.97 2.572.534 5.588.393 10.162-.324 4.574-.716 6.866.324 8.514.324 1.648 0 3.296-.324 3.845-3.393.367-2.046-.366-4.415-2.197-7.107L21.15 0 4.119.646C1.374 1.938 0 2.8 0 3.231c0 .43.732 4.523 2.197 12.276z"/>
        <path id="prefix__aa" d="M2.4 28.8c3 0 6.2.6 9.6 1.8 2.81.992 6.104.73 11.1-.6 4.996-1.33 7.5.6 9.3.6 1.8 0 3.6-.6 4.2-6.3.4-3.8-.4-8.2-2.4-13.2L23.1 0 4.5 1.2C1.5 3.6 0 5.2 0 6c0 .8.8 8.4 2.4 22.8z"/>
        <path id="prefix__aj" d="M11.7 11.831c-2.92-5.215-2.124-3.53-3.654-1.904-1.531 1.626-7.27 1.052-7.27 1.052S-1.522 3.23 2.975.934C7.471-1.362 11.816.108 14.4 10.631c0 0 .744 2.73 1.7 3.688 0 0-3.06-.096-4.4-2.488z"/>
        <path id="prefix__al" d="M11.7 11.831c-2.92-5.215-2.124-3.53-3.654-1.904-1.531 1.626-7.27 1.052-7.27 1.052S-1.522 3.23 2.975.934C7.471-1.362 11.816.108 14.4 10.631c0 0 .744 2.73 1.7 3.688 0 0-3.06-.096-4.4-2.488z"/>
        <path id="prefix__an" d="M12 8.7s-.718.6-4.2.9c-1.898.164-6.09.136-7.2-.6-.608-.403-.51-.727.3-1.5.668-.639.521-1.091.6-1.8C1.883 2.256 6.883-.305 9.179.269c2.296.574 6.122 3.444 7.079 4.209.957.765 2.207 1.87 1.442 5.122-.765 3.253-1.61 4.315-2.565 6.95-.095.261-1.335-1.265-1.335-2.15s.9-2.1.3-3c-.6-.9-1.5.3-1.8-.6-.3-.9.2-2.057-.3-2.1z"/>
        <path id="prefix__av" d="M0 16.2c4.4-1.3 8-1.3 10.8 0 2.8 1.3 5.95.15 9.45-3.45V0L3 1.35 0 16.2z"/>
        <rect id="prefix__N" width="9.6" height="12" x="0" y="0" rx="4.8"/>
        <rect id="prefix__Q" width="9.6" height="12" x="0" y="0" rx="4.8"/>
        <ellipse id="prefix__W" cx="12.364" cy="7.42" rx="12.234" ry="7.314"/>
        <circle id="prefix__ae" cx="13.509" cy="13.561" r="13.367"/>
    </defs>
    <g fill="none" fill-rule="evenodd">
        <g>
            <path fill="url(#prefix__a)" fill-rule="nonzero" d="M43.65 97.2c-1.983 1.078-4.407 1.822-6.39.744-2.84-.72-4.76-1.368-5.76-1.944-1.394-.804-1.664-2.34-3.34-3.307-1.107-.638-3.878-.611-5.06-1.793-1.254-1.254-3.175-3.108-6-4.95-1.108-.722-5.187-.442-7.35-1.65-1.776-.992-4.426-3.264-7.95-6.816-.99-.566-1.6-1.62-1.6-2.76 0-1.14.61-2.193 1.6-2.76l66.38-38.412c1.967-1.136 4.392-1.136 6.36 0L110 54.012c.99.567 1.6 1.62 1.6 2.76 0 1.14-.61 2.194-1.6 2.76l-4.679 2.707c-1.441.834-3.978 1.34-5.571 2.261-1.54.891-2.35 2.323-4.47 3.55-1.43.828-4.16 1.407-6.48 2.75-1.295.75-2.192 2.268-4.395 3.543-1.489.862-5.06 1.56-7.905 3.207-1.284.743-1.648 2.321-3.901 3.625-1.693.98-5.222 2.376-8.849 4.475-1.647.953-7.218 3.302-10.95 6.15-1.465 1.118-1.028 2.76-2.4 3.75-1.8 1.3-4.05 1.85-6.75 1.65z" transform="translate(-1) matrix(-1 0 0 1 241.8 24.6)"/>
            <g>
                <path fill="url(#prefix__b)" fill-rule="nonzero" d="M109.26 27.54c.034 1.139-.567 2.202-1.56 2.76L43.62 66.72c-1.968 1.136-4.392 1.136-6.36 0L1.8 46.26C.826 45.683.232 44.632.24 43.5v-3.24c-.008-1.132.586-2.183 1.56-2.76L65.88 1.08c1.968-1.136 4.392-1.136 6.36 0l35.46 20.46c.993.558 1.594 1.621 1.56 2.76v3.24z" transform="translate(-1) matrix(-1 0 0 1 241.8 24.6) translate(6.6)"/>
                <g transform="translate(-1) matrix(-1 0 0 1 241.8 24.6) translate(6.6) translate(0 .228)">
                    <path fill="url(#prefix__c)" fill-rule="nonzero" d="M43.62 63.252c-1.983 1.078-4.377 1.078-6.36 0L1.8 42.792c-.99-.566-1.6-1.62-1.6-2.76 0-1.14.61-2.193 1.6-2.76L65.88.852c1.968-1.136 4.392-1.136 6.36 0l35.46 20.46c.99.567 1.6 1.62 1.6 2.76 0 1.14-.61 2.194-1.6 2.76l-64.08 36.42z"/>
                    <mask id="prefix__f" fill="#fff">
                        <use xlink:href="#prefix__d"/>
                    </mask>
                    <path fill="url(#prefix__e)" fill-rule="nonzero" d="M39.978 30.192c19.68-.96 31.68.24 36 3.6 6.48 5.04 12.24 2.16 9.36 7.2-2.88 5.04-9.36 6.48-12.96 9.36-.877.702-17.674-3.592-19.98-3.18-8.4 1.5-9.3 3.6-13.8 2.1-4.41-1.47-8.41-3.77-12-6.9l13.38-12.18z" mask="url(#prefix__f)" transform="matrix(-1 0 0 1 112.698 0)"/>
                </g>
                <path fill="#FFF" fill-rule="nonzero" d="M107.64 25.98L43.62 62.46c-1.968 1.136-4.392 1.136-6.36 0L1.8 42C.989 41.498.44 40.664.3 39.72c-.256 1.307.347 2.633 1.5 3.3l35.46 20.46c1.983 1.078 4.377 1.078 6.36 0L107.64 27c1.127-.666 1.86-1.74 1.56-3.24-.154.94-.729 1.757-1.56 2.22z" transform="translate(-1) matrix(-1 0 0 1 241.8 24.6) translate(6.6)"/>
            </g>
        </g>
        <g transform="translate(-1) translate(7.2 68.1)">
            <path fill="url(#prefix__g)" fill-rule="nonzero" d="M95.097 113.939c1.894 0 3.754-.498 5.394-1.445 7.3-2.35 12.202-4.247 14.709-5.694 4.27-2.465 6.813-7.69 9.6-9.3 4.241-2.448 15.268-4.62 21.6-8.1 3.15-1.731 4.68-4.015 9-8.1.625-.591 2.326-1.741 5.103-3.45 1.669-.964 2.697-2.745 2.697-4.672 0-1.927.92-8.26-2.4-10.178-3.32-1.917-7.5-3.6-19.2-7.2s-11.686-4.847-16.8-7.8c-2.5-1.443-4.836-6.009-6.9-7.2-3.556-2.053-9.359-4.367-17.409-6.942-1.64-.947-3.5-1.445-5.395-1.445H68.104c-1.894 0-3.754.498-5.393 1.445L2.697 68.506C1.028 69.47 0 71.251 0 73.178c0 1.927 1.028 3.708 2.697 4.672l60.014 34.644c1.64.947 3.5 1.445 5.394 1.445h26.992z"/>
            <mask id="prefix__i" fill="#fff">
                <use xlink:href="#prefix__h"/>
            </mask>
            <g mask="url(#prefix__i)">
                <g>
                    <g transform="translate(-22.8 12) translate(0 23.113)">
                        <path fill="#90B7F4" fill-rule="nonzero" d="M3.84 47.94L83.04 2.1c4.353-2.633 9.807-2.633 14.16 0l79.44 45.84c2.191 1.208 3.566 3.498 3.6 6 0 2.574-1.37 4.953-3.6 6.24L97.2 106.02c-4.353 2.633-9.807 2.633-14.16 0L3.84 60.18C1.532 58.973.13 56.542.24 53.94c-.076-2.532 1.33-4.875 3.6-6z"/>
                        <mask id="prefix__k" fill="#fff">
                            <use xlink:href="#prefix__j"/>
                        </mask>
                        <g mask="url(#prefix__k)" opacity=".7">
                            <g fill-rule="nonzero" opacity=".314">
                                <path fill="#A2C6FF" d="M24.36 75.498L0.12 75.498 0.12 87.988 24.36 87.988z" transform="translate(4.2 -4.8)"/>
                                <path fill="#D0FEFF" d="M24.36 62.885L0.12 62.885 0.12 75.498 24.36 75.498z" transform="translate(4.2 -4.8)"/>
                                <path fill="#A2C6FF" d="M24.36 50.395L0.12 50.395 0.12 62.885 24.36 62.885z" transform="translate(4.2 -4.8)"/>
                                <path fill="#D0FEFF" d="M24.36 37.905L0.12 37.905 0.12 50.395 24.36 50.395z" transform="translate(4.2 -4.8)"/>
                                <path fill="#A2C6FF" d="M24.36 25.292L0.12 25.292 0.12 37.905 24.36 37.905z" transform="translate(4.2 -4.8)"/>
                                <path fill="#D0FEFF" d="M24.36 12.802L0.12 12.802 0.12 25.292 24.36 25.292z" transform="translate(4.2 -4.8)"/>
                                <path fill="#A2C6FF" d="M24.36 0.189L0.12 0.189 0.12 12.802 24.36 12.802z" transform="translate(4.2 -4.8)"/>
                                <path fill="#D0FEFF" d="M48.84 0.189L24.36 0.189 24.36 12.802 48.84 12.802z" transform="translate(4.2 -4.8)"/>
                                <path fill="#A2C6FF" d="M48.84 12.802L24.36 12.802 24.36 25.292 48.84 25.292z" transform="translate(4.2 -4.8)"/>
                                <path fill="#D0FEFF" d="M48.84 25.292L24.36 25.292 24.36 37.905 48.84 37.905z" transform="translate(4.2 -4.8)"/>
                                <path fill="#A2C6FF" d="M48.84 37.905L24.36 37.905 24.36 50.395 48.84 50.395z" transform="translate(4.2 -4.8)"/>
                                <path fill="#D0FEFF" d="M48.84 50.395L24.36 50.395 24.36 62.885 48.84 62.885z" transform="translate(4.2 -4.8)"/>
                                <path fill="#A2C6FF" d="M48.84 62.885L24.36 62.885 24.36 75.498 48.84 75.498z" transform="translate(4.2 -4.8)"/>
                                <path fill="#D0FEFF" d="M48.84 75.498L24.36 75.498 24.36 87.988 48.84 87.988z" transform="translate(4.2 -4.8)"/>
                                <path fill="#A2C6FF" d="M73.08 75.498L48.84 75.498 48.84 87.988 73.08 87.988z" transform="translate(4.2 -4.8)"/>
                                <path fill="#D0FEFF" d="M73.08 62.885L48.84 62.885 48.84 75.498 73.08 75.498z" transform="translate(4.2 -4.8)"/>
                                <path fill="#A2C6FF" d="M73.08 50.395L48.84 50.395 48.84 62.885 73.08 62.885z" transform="translate(4.2 -4.8)"/>
                                <path fill="#D0FEFF" d="M73.08 37.905L48.84 37.905 48.84 50.395 73.08 50.395z" transform="translate(4.2 -4.8)"/>
                                <path fill="#A2C6FF" d="M73.08 25.292L48.84 25.292 48.84 37.905 73.08 37.905z" transform="translate(4.2 -4.8)"/>
                                <path fill="#D0FEFF" d="M73.08 12.802L48.84 12.802 48.84 25.292 73.08 25.292z" transform="translate(4.2 -4.8)"/>
                                <path fill="#A2C6FF" d="M73.08 0.189L48.84 0.189 48.84 12.802 73.08 12.802z" transform="translate(4.2 -4.8)"/>
                                <path fill="#D0FEFF" d="M97.32 0.189L73.08 0.189 73.08 12.802 97.32 12.802z" transform="translate(4.2 -4.8)"/>
                                <path fill="#A2C6FF" d="M97.32 12.802L73.08 12.802 73.08 25.292 97.32 25.292z" transform="translate(4.2 -4.8)"/>
                                <path fill="#D0FEFF" d="M97.32 25.292L73.08 25.292 73.08 37.905 97.32 37.905z" transform="translate(4.2 -4.8)"/>
                                <path fill="#A2C6FF" d="M97.32 37.905L73.08 37.905 73.08 50.395 97.32 50.395z" transform="translate(4.2 -4.8)"/>
                                <path fill="#D0FEFF" d="M97.32 50.395L73.08 50.395 73.08 62.885 97.32 62.885z" transform="translate(4.2 -4.8)"/>
                                <path fill="#A2C6FF" d="M97.32 62.885L73.08 62.885 73.08 75.498 97.32 75.498z" transform="translate(4.2 -4.8)"/>
                                <path fill="#D0FEFF" d="M97.32 75.498L73.08 75.498 73.08 87.988 97.32 87.988z" transform="translate(4.2 -4.8)"/>
                                <path fill="#A2C6FF" d="M121.8 75.498L97.32 75.498 97.32 87.988 121.8 87.988z" transform="translate(4.2 -4.8)"/>
                                <path fill="#D0FEFF" d="M121.8 62.885L97.32 62.885 97.32 75.498 121.8 75.498z" transform="translate(4.2 -4.8)"/>
                                <path fill="#A2C6FF" d="M121.8 50.395L97.32 50.395 97.32 62.885 121.8 62.885z" transform="translate(4.2 -4.8)"/>
                                <path fill="#D0FEFF" d="M121.8 37.905L97.32 37.905 97.32 50.395 121.8 50.395z" transform="translate(4.2 -4.8)"/>
                                <path fill="#A2C6FF" d="M121.8 25.292L97.32 25.292 97.32 37.905 121.8 37.905z" transform="translate(4.2 -4.8)"/>
                                <path fill="#D0FEFF" d="M121.8 12.802L97.32 12.802 97.32 25.292 121.8 25.292z" transform="translate(4.2 -4.8)"/>
                                <path fill="#A2C6FF" d="M121.8 0.189L97.32 0.189 97.32 12.802 121.8 12.802z" transform="translate(4.2 -4.8)"/>
                                <path fill="#D0FEFF" d="M146.04 0.189L121.8 0.189 121.8 12.802 146.04 12.802z" transform="translate(4.2 -4.8)"/>
                                <path fill="#A2C6FF" d="M146.04 12.802L121.8 12.802 121.8 25.292 146.04 25.292z" transform="translate(4.2 -4.8)"/>
                                <path fill="#D0FEFF" d="M146.04 25.292L121.8 25.292 121.8 37.905 146.04 37.905z" transform="translate(4.2 -4.8)"/>
                                <path fill="#A2C6FF" d="M146.04 37.905L121.8 37.905 121.8 50.395 146.04 50.395z" transform="translate(4.2 -4.8)"/>
                                <path fill="#D0FEFF" d="M146.04 50.395L121.8 50.395 121.8 62.885 146.04 62.885z" transform="translate(4.2 -4.8)"/>
                                <path fill="#A2C6FF" d="M146.04 62.885L121.8 62.885 121.8 75.498 146.04 75.498z" transform="translate(4.2 -4.8)"/>
                                <path fill="#D0FEFF" d="M146.04 75.498L121.8 75.498 121.8 87.988 146.04 87.988z" transform="translate(4.2 -4.8)"/>
                                <path fill="#A2C6FF" d="M170.52 75.498L146.04 75.498 146.04 87.988 170.52 87.988z" transform="translate(4.2 -4.8)"/>
                                <path fill="#D0FEFF" d="M170.52 62.885L146.04 62.885 146.04 75.498 170.52 75.498z" transform="translate(4.2 -4.8)"/>
                                <path fill="#A2C6FF" d="M170.52 50.395L146.04 50.395 146.04 62.885 170.52 62.885z" transform="translate(4.2 -4.8)"/>
                                <path fill="#D0FEFF" d="M170.52 37.905L146.04 37.905 146.04 50.395 170.52 50.395z" transform="translate(4.2 -4.8)"/>
                                <path fill="#A2C6FF" d="M170.52 25.292L146.04 25.292 146.04 37.905 170.52 37.905z" transform="translate(4.2 -4.8)"/>
                                <path fill="#D0FEFF" d="M170.52 12.802L146.04 12.802 146.04 25.292 170.52 25.292z" transform="translate(4.2 -4.8)"/>
                                <path fill="#A2C6FF" d="M170.52 0.189L146.04 0.189 146.04 12.802 170.52 12.802z" transform="translate(4.2 -4.8)"/>
                                <path fill="#D0FEFF" d="M194.76 0.189L170.52 0.189 170.52 12.802 194.76 12.802z" transform="translate(4.2 -4.8)"/>
                                <path fill="#A2C6FF" d="M194.76 12.802L170.52 12.802 170.52 25.292 194.76 25.292z" transform="translate(4.2 -4.8)"/>
                                <path fill="#D0FEFF" d="M194.76 25.292L170.52 25.292 170.52 37.905 194.76 37.905z" transform="translate(4.2 -4.8)"/>
                                <path fill="#A2C6FF" d="M194.76 37.905L170.52 37.905 170.52 50.395 194.76 50.395z" transform="translate(4.2 -4.8)"/>
                                <path fill="#D0FEFF" d="M194.76 50.395L170.52 50.395 170.52 62.885 194.76 62.885z" transform="translate(4.2 -4.8)"/>
                                <path fill="#A2C6FF" d="M194.76 62.885L170.52 62.885 170.52 75.498 194.76 75.498z" transform="translate(4.2 -4.8)"/>
                                <path fill="#D0FEFF" d="M194.76 75.498L170.52 75.498 170.52 87.988 194.76 87.988z" transform="translate(4.2 -4.8)"/>
                                <path fill="#A2C6FF" d="M219 75.498L194.76 75.498 194.76 87.988 219 87.988z" transform="translate(4.2 -4.8)"/>
                                <path fill="#D0FEFF" d="M219 62.885L194.76 62.885 194.76 75.498 219 75.498z" transform="translate(4.2 -4.8)"/>
                                <path fill="#A2C6FF" d="M219 50.395L194.76 50.395 194.76 62.885 219 62.885z" transform="translate(4.2 -4.8)"/>
                                <path fill="#D0FEFF" d="M219 37.905L194.76 37.905 194.76 50.395 219 50.395z" transform="translate(4.2 -4.8)"/>
                                <path fill="#A2C6FF" d="M219 25.292L194.76 25.292 194.76 37.905 219 37.905z" transform="translate(4.2 -4.8)"/>
                                <path fill="#D0FEFF" d="M219 12.802L194.76 12.802 194.76 25.292 219 25.292z" transform="translate(4.2 -4.8)"/>
                                <path fill="#A2C6FF" d="M219 0.189L194.76 0.189 194.76 12.802 219 12.802z" transform="translate(4.2 -4.8)"/>
                                <path fill="#D0FEFF" d="M243.48 0.189L219 0.189 219 12.802 243.48 12.802z" transform="translate(4.2 -4.8)"/>
                                <path fill="#A2C6FF" d="M243.48 12.802L219 12.802 219 25.292 243.48 25.292z" transform="translate(4.2 -4.8)"/>
                                <path fill="#D0FEFF" d="M243.48 25.292L219 25.292 219 37.905 243.48 37.905z" transform="translate(4.2 -4.8)"/>
                                <path fill="#A2C6FF" d="M243.48 37.905L219 37.905 219 50.395 243.48 50.395z" transform="translate(4.2 -4.8)"/>
                                <path fill="#D0FEFF" d="M243.48 50.395L219 50.395 219 62.885 243.48 62.885z" transform="translate(4.2 -4.8)"/>
                                <path fill="#A2C6FF" d="M243.48 62.885L219 62.885 219 75.498 243.48 75.498z" transform="translate(4.2 -4.8)"/>
                                <path fill="#D0FEFF" d="M243.48 75.498L219 75.498 219 87.988 243.48 87.988z" transform="translate(4.2 -4.8)"/>
                                <path fill="#A2C6FF" d="M267.72 75.498L243.48 75.498 243.48 87.988 267.72 87.988z" transform="translate(4.2 -4.8)"/>
                                <path fill="#D0FEFF" d="M267.72 62.885L243.48 62.885 243.48 75.498 267.72 75.498z" transform="translate(4.2 -4.8)"/>
                                <path fill="#A2C6FF" d="M267.72 50.395L243.48 50.395 243.48 62.885 267.72 62.885z" transform="translate(4.2 -4.8)"/>
                                <path fill="#D0FEFF" d="M267.72 37.905L243.48 37.905 243.48 50.395 267.72 50.395z" transform="translate(4.2 -4.8)"/>
                                <path fill="#A2C6FF" d="M267.72 25.292L243.48 25.292 243.48 37.905 267.72 37.905z" transform="translate(4.2 -4.8)"/>
                                <path fill="#D0FEFF" d="M267.72 12.802L243.48 12.802 243.48 25.292 267.72 25.292z" transform="translate(4.2 -4.8)"/>
                                <path fill="#A2C6FF" d="M267.72 0.189L243.48 0.189 243.48 12.802 267.72 12.802z" transform="translate(4.2 -4.8)"/>
                            </g>
                        </g>
                    </g>
                    <g fill-rule="nonzero" opacity=".6">
                        <path fill="url(#prefix__l)" d="M3.84 49.74l9.36-5.52c4.08-2.4 7.68-8.64 12.96-11.76 5.28-3.12 10.32-1.2 18.24-7.68 3.12-2.64 11.04-4.8 19.2-9.6 2.64-1.68 6.24-5.28 12-8.64l7.2-4.56C85.144.67 87.795.007 90.48.06c2.4 0 4.8 2.64 6.72 3.84l12.96 7.44c3.36 1.92 7.92 1.2 12.24 3.6 4.32 2.4 9.36 8.88 16.56 12.96l8.16 4.8c2.16 1.2 6.72 1.2 11.04 3.84 4.32 2.64 6 6 10.56 8.64l7.92 4.56c2.191 1.208 3.566 3.498 3.6 6 0 2.574-1.37 4.953-3.6 6.24L97.2 107.82c-4.353 2.633-9.807 2.633-14.16 0L3.84 61.98C1.532 60.773.13 58.342.24 55.74c-.076-2.532 1.33-4.875 3.6-6z" transform="translate(-22.8 12) translate(0 5.713)"/>
                        <path fill="url(#prefix__m)" d="M94.5 39.345c1.781 0 3.076.971 3.886 2.914l.845 1.843c1.26 3.95-.801 7.153-4.731 7.153-3.93 0-5.991-3.202-4.73-7.153l.98-1.843c.719-1.295 1.969-2.267 3.75-2.914z" transform="translate(-22.8 12) translate(0 5.713)"/>
                    </g>
                    <path fill="url(#prefix__n)" fill-rule="nonzero" d="M96.72 79.693c-1.5.9-3.396.805-4.8-.24-3.912-1.938-8.014-3.466-12.24-4.56l-2.88-.48-7.2-4.08-4.08-2.88-2.16-1.68c-4.348-3.27-9.217-5.786-14.4-7.44-1.583-.923-3.036-2.053-4.32-3.36-4.594-4.657-10.422-7.905-16.8-9.36l-1.44-.48c-1.613-1.009-2.593-2.777-2.593-4.68 0-1.903.98-3.671 2.593-4.68l59.76-34.32c3.253-1.937 7.307-1.937 10.56 0l60 34.32c1.613 1.009 2.593 2.777 2.593 4.68 0 1.903-.98 3.671-2.593 4.68l-60 34.56z" transform="translate(-22.8 12)"/>
                    <path fill="url(#prefix__o)" fill-rule="nonzero" d="M156 45.373l-8.64 5.04c-6.594 1.933-12.72 5.2-18 9.6h-.24c-1.625 1.44-3.495 2.577-5.52 3.36-8.186 2.689-15.654 7.203-21.84 13.2l-5.28 3.12c-1.612.78-3.51.69-5.04-.24-3.831-2.118-7.957-3.655-12.24-4.56l-2.88-.48-6.96-4.08-4.08-2.88-2.4-1.68c-4.317-3.32-9.194-5.84-14.4-7.44l-4.32-3.36c-4.544-4.597-10.278-7.838-16.56-9.36l-1.68-.48c-1.613-1.009-2.593-2.777-2.593-4.68 0-1.903.98-3.671 2.593-4.68l59.76-34.32c3.342-1.93 7.458-1.93 10.8 0L156 35.773c1.727.98 2.794 2.814 2.794 4.8 0 1.986-1.067 3.82-2.794 4.8z" transform="translate(-22.8 12)"/>
                    <path fill="url(#prefix__p)" fill-rule="nonzero" d="M156.24 64.573l-60 34.56c-3.253 1.937-7.307 1.937-10.56 0l-60-34.56c-1.312-.878-2.186-2.276-2.4-3.84-.507 2.168.468 4.412 2.4 5.52l60 34.56c3.253 1.937 7.307 1.937 10.56 0L156 66.253c2.024-1.034 3.105-3.295 2.64-5.52-.214 1.564-1.088 2.962-2.4 3.84z" transform="translate(-22.8 12)"/>
                </g>
            </g>
            <path fill="url(#prefix__q)" fill-rule="nonzero" d="M133.92 57.133l-60 34.56c-1.5.9-3.396.805-4.8-.24-3.912-1.938-8.014-3.466-12.24-4.56l-2.88-.48-7.2-4.08-4.08-2.88-2.16-1.68c-4.348-3.27-9.217-5.786-14.4-7.44-1.583-.923-3.036-2.053-4.32-3.36-4.594-4.657-10.422-7.905-16.8-9.36l-1.44-.48c-1.613-1.009-2.593-2.777-2.593-4.68 0-1.903.98-3.671 2.593-4.68l59.76-34.32c3.253-1.937 7.307-1.937 10.56 0l60 34.32c1.613 1.009 2.593 2.777 2.593 4.68 0 1.903-.98 3.671-2.593 4.68z"/>
            <path fill="url(#prefix__r)" fill-rule="nonzero" d="M133.2 57.373l-8.64 5.04c-6.594 1.933-12.72 5.2-18 9.6h-.24c-1.625 1.44-3.495 2.577-5.52 3.36-8.186 2.689-15.654 7.203-21.84 13.2l-5.28 3.12c-1.612.78-3.51.69-5.04-.24-3.831-2.118-7.957-3.655-12.24-4.56l-2.88-.48-6.96-4.08-4.08-2.88-2.4-1.68c-4.317-3.32-9.194-5.84-14.4-7.44l-4.32-3.36c-4.544-4.597-10.278-7.838-16.56-9.36l-1.68-.48C1.507 56.124.527 54.356.527 52.453c0-1.903.98-3.671 2.593-4.68l59.76-34.32c3.342-1.93 7.458-1.93 10.8 0l59.52 34.32c1.727.98 2.794 2.814 2.794 4.8 0 1.986-1.067 3.82-2.794 4.8z"/>
            <g fill-rule="nonzero" opacity=".75">
                <path fill="url(#prefix__s)" d="M26.4 5.288c-8.64-3.36-13.2-2.88-13.2-2.88-4.56-.047-9.074.937-13.2 2.88 7.537-6.668 18.863-6.668 26.4 0" transform="translate(76.2 29.713)"/>
                <path fill="url(#prefix__t)" d="M26.4 4.98C19.8 2.451 14.2 1.587 9.6 2.387L5.7.887C8.973.397 11.393.162 12.96.18c4.912-.07 9.684 1.634 13.44 4.8z" transform="translate(76.2 29.713)"/>
                <path fill="#FFF" d="M50.04 21.18c3.673.014 7.23 1.284 10.08 3.6-3.198-1.336-6.615-2.068-10.08-2.16-3.542.09-7.039.821-10.32 2.16 2.96-2.285 6.581-3.548 10.32-3.6z" transform="translate(76.2 29.713)"/>
            </g>
        </g>
        <g>
            <path fill="url(#prefix__u)" fill-rule="nonzero" d="M96.288 30.943s-1.148 3.646-.898 8.181c.047.849.655 1.855.71 2.757.47 7.77 1.422 13.733-1.42 13.71-2.78-.027-5.72 2.185-8.717.659-2.549-1.298-3.985-3.728-4.022-4.47l.004.186c.49-4.522.705-7.998.646-10.429-.032-1.306-.385-3.436-1.057-6.389-.244-.028-2.063 7.126-2.298 7.057-1.058-.305-2.383-1.676-2.846-2.304-.577-.782.647-9.747.647-9.747.633-4.405 1.766-8.898 3.724-9.553.26-.222.55-.406.86-.55 1.977-.542 3.344.104 6.26-.097l5.11.602 6.842 2.339-3.545 8.048z" transform="translate(-1) rotate(-4 211.827 -1006.316)"/>
            <path fill="url(#prefix__v)" fill-rule="nonzero" d="M93.41 21.54l-.526-4.215h-.01c-.046-.569-.363-1.08-.852-1.374-1.064-.767-2.709-.936-3.672-.403-.376.186-.624.558-.65.977h-.013l-.504 4.046c-.094.597.24 1.276 1.018 1.825 1.278.92 3.255 1.147 4.41.492.52-.24.835-.778.79-1.348h.01z" transform="translate(-1) rotate(-4 211.827 -1006.316)"/>
            <path fill="url(#prefix__w)" fill-rule="nonzero" d="M94.663 11.458c-.74-2.245.096-3.886-2.374-4.104-5.303-.47-5.902-1.525-6.41-2.282-.17-.266-.438-.455-.746-.528-.197-.045-.402-.038-.595.02-.827 1.429-1.125 4.222-1.372 5.854-.035.671.204 1.563.153 2.115-.146 1.323-.016 1.407.515 2.627.3.681.546.874 1.067 1.406.405.505.784 1.03 1.136 1.573 1.007 1.648 2.75 1.646 5.97.045.044-.03.095-.062.153-.096 1.14-.535 2.11-1.373 2.806-2.42.215-1.409.111-2.847-.303-4.21z" transform="translate(-1) rotate(-4 211.827 -1006.316)"/>
            <path fill="#745E75" fill-rule="nonzero" d="M87.462 11.759c.467-.488.858-.746 1.175-.774.35-.031.897.063 1.206.42.3.347-.494.465-2.38.354zM85.88 11.694c.31-.05-.243-.825-.703-.949-.34-.091-.895-.094-1.261.204-.316.257.45.248 1.088.383.44.094.75.383.876.362z" opacity=".8" transform="translate(-1) rotate(-4 211.827 -1006.316)"/>
            <path stroke="#3F3F3F" stroke-linecap="round" stroke-width="1.022" d="M88.526 13.081l.265.003M84.936 12.814l.262.035" opacity=".8" transform="translate(-1) rotate(-4 211.827 -1006.316)"/>
            <g fill-rule="nonzero">
                <path fill="#FF4F4F" d="M1.035 5.13C-.015 6.397-.032 7.04.013 9.27c.003.735.08 1.468.234 2.187.155 1.163.875 1.471 1.605 1.312.934-.205 1.08-2.507 1.576-4.053.331-1.032.928-2.466.03-3.44-.696-.752-.964-1.02-2.102-.524-.107.046-.243.284-.321.379z" transform="translate(-1) rotate(-4 211.827 -1006.316) translate(67.826 78.93)"/>
                <path fill="url(#prefix__x)" d="M.061.641S.49 4.463.538 5.014c.123 1.353.117 1.4.263 2.303.121.749.905.758 1.547-.32.527-.886.204-.933.38-2.187C2.956 3.167 3.33 0 3.33 0" transform="translate(-1) rotate(-4 211.827 -1006.316) translate(67.826 78.93)"/>
            </g>
            <path fill="#FF4F4F" fill-rule="nonzero" d="M81.171 91.51c-1.342 1.334-1.653 1.512-2.329 3.694-.234.715-.395 1.452-.478 2.2-.225 1.18.376 1.711 1.136 1.792.973.102 1.859-2.089 2.84-3.43.655-.897 1.953-2.082 1.394-3.317-.432-.955-.862-1.319-2.128-1.203-.164.052-.313.142-.435.264z" transform="translate(-1) rotate(-4 211.827 -1006.316)"/>
            <path fill="url(#prefix__y)" fill-rule="nonzero" d="M80.058 87.921s.307 3.557.22 4.665c-.094 1.181-.096 1.494.109 1.705.32.247.773.229 1.072-.044.832-.67 1.252-.955 1.358-1.938.16-1.502-.453-5.029-.453-5.029" transform="translate(-1) rotate(-4 211.827 -1006.316)"/>
            <g transform="translate(-1) rotate(-4 211.827 -1006.316) translate(63.163 45.392)">
                <path fill="url(#prefix__z)" fill-rule="nonzero" d="M36.772 3.7C33.97-3.473 10.228 1.991 10.228 1.991S2.55 3.098.967 5.312C-.616 7.526.01 11.812.96 18.928c.95 7.115 2.533 16.602 2.533 16.602s1.28 2.045 5.396-.485c0 0 .626-1.58 1.05-4.75.415-3.095.636-7.704-.107-13.836.763-.263 1.553-.441 2.356-.53-.076 4.06.136 8.122.634 12.154.95 7.115 2.533 16.602 2.533 16.602s1.28 2.045 5.395-.485c0 0 3.074-13.271 1.57-25.683 1.058-.412 2.19-.6 3.324-.554 0 0 7.747-1.51 9.33-3.288.933-1.05 4.707-3.53 1.798-10.976z"/>
                <mask id="prefix__B" fill="#fff">
                    <use xlink:href="#prefix__A"/>
                </mask>
                <path fill="#FF4F4F" fill-rule="nonzero" d="M35.078 15.768c.987-1.004 2.367-3.477 2.86-4.795-1.92 1.67-5.015 2.232-7.154 3.41-3.97 2.215-10.002 1.104-10.002 1.104s-2.807.923-.94 10.135c1.869 9.212-.116 12.243-.7 14.459-.38 1.719-.647 3.46-.8 5.213.85-.246 1.662-.614 2.407-1.094 0 0 3.074-13.271 1.57-25.683 1.058-.412 2.19-.6 3.324-.554 0 0 7.853-.417 9.435-2.195z" mask="url(#prefix__B)"/>
                <g>
                    <mask id="prefix__D" fill="#fff">
                        <use xlink:href="#prefix__C"/>
                    </mask>
                    <path fill="#FF4F4F" fill-rule="nonzero" d="M20.536 2.659c-1.93-.6-3.43-.946-4.498-1.036-1.069-.09-2.28.025-3.633.347-.471.133-4.036 1.537-2.242 1.948.723.166.745.284 1.455.704 1.155.682 1.426 2.204 1.832 2.748.823-.959 3.186-1.724 4.09-1.432.05.016 1.882.613 2.053.745.856.661 1.915 1.515 2.373 1.723.578.261 1.25.206 1.779-.146 1.554-1.018 2.257-1.242 3.991-1.91-.598.139 4.462-.657 6.71-1.335 2.248-.677.437-2.31-.132-2.415-4.007-.738-13.778.059-13.778.059z" mask="url(#prefix__D)"/>
                </g>
                <g>
                    <mask id="prefix__F" fill="#fff">
                        <use xlink:href="#prefix__E"/>
                    </mask>
                    <path fill="#FF4F4F" fill-rule="nonzero" d="M9.832 16.46c.763-.264 1.553-.442 2.356-.532.023-1.178.073-2.3.152-3.332-2.002.414-3.923 1.15-5.689 2.18 0 0 .117 1.284 1.168 7.114 1.05 5.83-.7 12.71-1.635 14.11-.63.943-.993 4.905-1.164 7.388 1.163-.158 2.273-.584 3.242-1.245 0 0 3.074-13.272 1.57-25.684z" mask="url(#prefix__F)"/>
                </g>
            </g>
            <path fill="#FFF" fill-rule="nonzero" d="M83.798 19.97c-.042-.285-.391-.359-.657-.366-.438-.013-1.33.24-2.078.775-.451.323-.32 3.73-.377 5.387-.06 1.773-.365 3.345-.634 4.768-.954 5.045 1.781 4.635 2.045 9.465.263 4.83-1.056 4.676-.98 5.753 0 0-.297 3.518 4.221 3.797 1.25.077 1.796.684 3.25.828 1.625.162 3.924.257 6.285.44 2.362.183 3.797-.11 4.893-1.162.528-.506-.33-2.053-.41-2.735-.324-2.732-5.482-7.919-1.237-12.416.82-1.347 5.312-7.147 3.426-10.287-1.092-1.58-1.918-2.318-3.53-2.71-.544-.136-1.115.08-1.432.54-1.815 2.611-7.146 7.71-9.236 7.622-2.571-.107-3.139-6.965-3.549-9.7z" transform="translate(-1) rotate(-4 211.827 -1006.316)"/>
            <path fill="url(#prefix__G)" fill-rule="nonzero" d="M81.495 37.42c-.276-1.69-1.732-2.049-4.134-2.333-2.402-.284-5.787-.755-7.206-.852-.931-.064.473 2.04.99 2.014.518-.026 8.848 3.008 8.901 3.013 0 0 1.68-.721 1.449-1.841z" transform="translate(-1) rotate(-4 211.827 -1006.316) scale(1 -1) rotate(-71 24.162 0)"/>
            <g transform="translate(-1) rotate(-4 211.827 -1006.316) translate(.02 .07)">
                <path fill="#424242" fill-rule="nonzero" d="M83.913 52.388c-.599-.042-1.097-.544-1.156-.682-10.482-24.83-22.844-41.608-36.937-47.86-11.984-5.316-25.582-1.7-40.797 10.85-.18.149-.445.123-.593-.056-.063-.076-.097-.17-.097-.268 0 0 20.113-21.136 42.324-11.701C59.07 7.943 73.652 24.704 84.545 50.637c.071.169.07.296.188.609.118.312-.222 1.184-.82 1.142z"/>
                <path stroke="#D8E8EB" stroke-width=".5" d="M.173 116.437l5.069-101.7c3.988 3.8 7.54 4.3 10.655 1.5 3.115-2.8 4.673-6.5 4.673-11.1 3.49 7.6 7.726 10.7 12.71 9.3 4.986-1.4 8.6-5 10.843-10.8 1.993 10.6 4.984 17 8.972 19.2 3.988 2.2 8.474 2.2 13.459 0 .623 10.8 5.296 19.2 14.019 25.2"/>
                <circle cx="20.518" cy="4.217" r="1" fill="#424242" fill-rule="nonzero"/>
                <circle cx="5.679" cy="14.306" r="1" fill="#424242" fill-rule="nonzero"/>
                <circle cx="44.071" cy="2.856" r="1" fill="#424242" fill-rule="nonzero"/>
                <circle cx="67.355" cy="22.528" r="1" fill="#424242" fill-rule="nonzero"/>
                <ellipse cx="79.562" cy="45.62" fill="#646464" fill-rule="nonzero" rx="2.756" ry="3.675" transform="rotate(-42 79.562 45.62)"/>
            </g>
            <path fill="url(#prefix__H)" fill-rule="nonzero" d="M102.795 41.258c-.204-.549-.058-6.869-1.57-13.16-.55-2.282-2.253-6.27-4.495-6.713-1.494-.296-2.083 1.26-1.767 4.67.527 1.425.832 2.382.917 2.872.637 3.7 2.722 10.738 2.465 10.957-2.193 1.866-7.581 7.63-8.555 7.774-.897.133-2.308-.624-3.8-.716-.947.064-1.886.213-2.806.446-.27.085-.535.188-.791.308-.088.047-.15.132-.167.23-.018.098.01.199.077.274.027.027.056.053.086.076l-.103.046c-.435.192-.705.331-.912.402-.1.12-.093.297.017.409.125.153.328.22.52.17.063-.017.137-.047.228-.075 2.157-.68 2.548-.336 2.548-.336-.375.077-.85.094-1.192.152-.343.058-1.606.47-1.606.47s-.179.059-.37.144c-.211.094-.173.144-.147.27.105.222.347.348.59.306.576-.143 1.161-.244 1.752-.302.6.027.375-.025 1.634-.01-.253.052-.829.315-1.028.356-.2.042-1.599.741-1.638.965-.04.224.142.363.48.365.337.002 1.744-.591 2.525-.592.71-.074 1.427-.017 2.116.17 1.32.293 2.381-1.08 2.899-1.106.517-.026 10.716-6.398 10.769-6.393 0 0 1.554-1.308 1.324-2.429z" transform="translate(-1) rotate(-4 211.827 -1006.316) rotate(16 92.06 36.479)"/>
            <path fill="url(#prefix__I)" fill-rule="nonzero" d="M74.707 27.453c-.898.133-2.78-.796-4.272-.887-.947.063-3.032.798-3.001.821-.034.015-.075.027-.104.046-.514.333-.514.333-.75.517-.237.185-.71.554-.525.79.185.237.421.053.658-.132.472-.37 1.039-.474 1.13-.503.811-.255.544-.253.942-.108.399.145 0 0-.355.171-.356.171-.688.928-.688.928l-.126.319c-.126.318-.003.399.023.524.184.236.42.051.42.051.474-.37.48-1 1.07-1.059.443.02.527.06.834.172.11.04.253.198.447.215-.254.052-.9.252-1.136.437-.236.185-.434.4-.36.745.075.344.232.382.469.198.236-.185.417-.526 1.087-.508.71-.074 1.07.164 2.284-.071 1.214-.236 1.36-.634 3.244-.851.422-.049 1.506-1.57-.09-1.613-.67-.019-.933-.242-1.201-.202z" transform="translate(-1) rotate(-4 211.827 -1006.316) scale(1 -1) rotate(-69 29.643 0)"/>
        </g>
        <g transform="translate(-1) translate(70.8 117.9)">
            <rect width="6.6" height="12" x="11.048" y="5.102" fill="url(#prefix__J)" fill-rule="nonzero" rx="3.3" transform="rotate(85 14.348 11.102)"/>
            <mask id="prefix__L" fill="#fff">
                <use xlink:href="#prefix__K"/>
            </mask>
            <g mask="url(#prefix__L)">
                <g transform="translate(3.6 3.9)">
                    <rect width="9.6" height="12" fill="url(#prefix__M)" rx="4.8"/>
                    <mask id="prefix__P" fill="#fff">
                        <use xlink:href="#prefix__N"/>
                    </mask>
                    <rect width="12" height="15" x="-1.2" y="-7.5" fill="url(#prefix__O)" mask="url(#prefix__P)" rx="6"/>
                    <g>
                        <mask id="prefix__R" fill="#fff">
                            <use xlink:href="#prefix__Q"/>
                        </mask>
                        <circle cx="4.8" cy="-.3" r="2.4" fill="#F8F7FD" mask="url(#prefix__R)"/>
                    </g>
                </g>
            </g>
        </g>
        <g>
            <g opacity=".283" transform="translate(-1) translate(26.4 92.1) matrix(1 0 0 -1 10.2 43.2)">
                <mask id="prefix__T" fill="#fff">
                    <use xlink:href="#prefix__S"/>
                </mask>
                <g mask="url(#prefix__T)">
                    <g transform="translate(2.1 1.8)">
                        <ellipse cx="18.409" cy="13.628" fill="url(#prefix__U)" fill-rule="nonzero" rx="3.447" ry="13.179" transform="rotate(-89.654 18.41 13.628)"/>
                        <g transform="translate(.12 .222)">
                            <ellipse cx="12.364" cy="7.42" fill="url(#prefix__V)" fill-rule="nonzero" rx="12.234" ry="7.314"/>
                            <mask id="prefix__Y" fill="#fff">
                                <use xlink:href="#prefix__W"/>
                            </mask>
                            <path fill="url(#prefix__X)" fill-rule="nonzero" d="M14.18.24l-.153-.153.396.04.094.037c.166.158.291.33.373.51l.016.04.104.008c.105.009.209.02.313.032l.155.02.23.035c.751.116 1.428.298 1.912.51l.13.06.205-.025c.244-.027.49-.046.737-.056l.247-.008h.308l.076.014.485.202-.45-.005c-.345-.003-.689.01-1.03.036l-.262.024.046.033c.15.114.237.23.253.344l.002.049-.006.049-.014.041c-.013.03-.03.058-.053.085l-.038.04-.024.02.107.085c.832.687 1.486 1.444 1.94 2.247l.1.186.094.187.078.153c1.087 2.175 1.232 4.735-.037 7.72l-.094.214-.044.042-.434.218.112-.251c1.354-3.044 1.24-5.704.155-7.882l-.077-.15c-.436-.91-1.131-1.769-2.055-2.536l-.108-.088-.036.014c-.141.051-.315.091-.517.12l-.124.016-.13.013c-.2.017-.4.025-.601.025-.523-.003-1.043-.045-1.548-.125-.132-.02-.262-.042-.39-.067l-.045-.01-.076.18c-.034.08-.074.168-.117.264l-.199.424-.051.107c-.35.722-.784 1.54-1.309 2.448-1.395 2.414-3.2 5.057-5.463 7.87l-.358.442-.32-.094.06-.074c2.406-2.956 4.31-5.728 5.763-8.246l.253-.444c.41-.728.756-1.393 1.044-1.99l.12-.253c.058-.122.11-.237.16-.345l.155-.36-.018-.005c-1.009-.235-1.72-.578-1.849-.906l-.014-.044-.005-.034h-.13c-1.368-.003-2.726.126-4.024.383l-.298.061-.296.066c-3.19.734-5.745 2.203-7.095 4.634l-.081.15-.3.578L.048 6.6l.04-.078c1.364-2.588 4.04-4.15 7.393-4.92 1.51-.35 3.117-.527 4.736-.524l.207.001.003-.003c.136-.163.45-.28.9-.341l.115-.015.121-.012c.308-.02.617-.027.926-.017h.032l-.044-.078c-.04-.066-.084-.13-.134-.192L14.265.33l-.086-.09zm-.023.658L13.975.9c-.122.004-.243.01-.364.02-.523.047-.832.156-.892.295-.13.304.853.754 2.244.986l.14.023c.655.108 1.337.14 2.007.095.45-.04.745-.128.852-.237l.022-.028.017-.03c.134-.313-.919-.784-2.383-1.008-.397-.063-.804-.1-1.214-.113l-.247-.005z" mask="url(#prefix__Y)"/>
                        </g>
                        <path fill="url(#prefix__Z)" fill-rule="nonzero" d="M8.126.057C5.125.056 2.24.752.08 1.998c3.052 2.59 8.02 4.13 13.318 4.13 2.135-.012 4.248-.26 6.232-.73C18.433 2.32 13.637.057 8.126.057z" opacity=".4" transform="translate(4.203 .59)"/>
                    </g>
                </g>
            </g>
            <g transform="translate(-1) translate(26.4 92.1) translate(8.4)">
                <mask id="prefix__ab" fill="#fff">
                    <use xlink:href="#prefix__aa"/>
                </mask>
                <g mask="url(#prefix__ab)">
                    <g transform="translate(2.1 4.8)">
                        <ellipse cx="20.142" cy="24.607" fill="url(#prefix__ac)" fill-rule="nonzero" rx="6.3" ry="14.4" transform="rotate(-89.654 20.142 24.607)"/>
                        <g transform="translate(.158 .106)">
                            <circle cx="13.509" cy="13.561" r="13.367" fill="url(#prefix__ad)" fill-rule="nonzero"/>
                            <mask id="prefix__ag" fill="#fff">
                                <use xlink:href="#prefix__ae"/>
                            </mask>
                            <path fill="url(#prefix__af)" fill-rule="nonzero" d="M15.492.437L15.326.16l.432.07.103.069c.181.29.318.604.408.933l.017.073.113.015c.115.016.23.036.342.059l.17.036.25.064c.822.21 1.561.544 2.09.932l.143.11.223-.046c.267-.05.535-.085.805-.103l.27-.014.337-.002.083.027.53.369-.492-.008c-.376-.006-.752.016-1.124.065l-.287.044.05.06c.163.209.26.42.276.63l.003.088-.007.09-.015.075c-.014.054-.033.105-.058.155l-.041.073-.027.036.117.156c.91 1.255 1.624 2.64 2.119 4.107l.11.34.103.342.085.28c1.188 3.975 1.346 8.653-.041 14.108l-.102.391-.048.076-.474.4.122-.46c1.48-5.562 1.354-10.424.17-14.404l-.085-.276c-.476-1.663-1.236-3.23-2.245-4.634l-.119-.16-.038.026c-.155.093-.345.166-.565.219l-.136.029-.143.024c-.217.03-.436.046-.656.045-.571-.006-1.14-.083-1.69-.228-.145-.037-.287-.078-.426-.122l-.05-.017-.083.327c-.038.146-.08.307-.128.482l-.217.776-.056.194c-.383 1.32-.857 2.817-1.43 4.476-1.525 4.41-3.497 9.242-5.97 14.382l-.39.808-.35-.172.065-.134c2.63-5.403 4.709-10.469 6.297-15.07l.276-.813c.448-1.33.827-2.546 1.141-3.636l.132-.463c.063-.223.12-.433.173-.63l.171-.66-.02-.007c-1.103-.43-1.879-1.056-2.02-1.656l-.015-.081-.006-.061-.142-.002c-1.495-.005-2.979.232-4.396.7l-.326.113-.324.12C4.826 4.636 2.033 7.322.558 11.765l-.089.274-.327 1.055-.09-1.03.045-.142C1.586 7.192 4.51 4.338 8.173 2.93c1.652-.639 3.407-.964 5.175-.958l.226.002.004-.006c.149-.298.491-.51.983-.624l.126-.026.132-.022c.336-.038.674-.049 1.011-.032l.036.002-.049-.145c-.043-.119-.091-.235-.146-.35l-.085-.169-.094-.165zm-.024 1.204l-.199.005c-.133.005-.266.018-.398.037-.57.084-.909.284-.974.538-.142.554.932 1.377 2.452 1.802l.153.041c.715.198 1.46.256 2.192.174.493-.073.815-.233.931-.433l.025-.05.018-.055c.146-.573-1.004-1.433-2.603-1.843-.435-.114-.88-.184-1.328-.207l-.27-.009z" mask="url(#prefix__ag)"/>
                        </g>
                        <path fill="url(#prefix__ah)" fill-rule="nonzero" d="M8.879.104C5.599.102 2.447 1.374.087 3.652c3.335 4.732 8.763 7.547 14.552 7.546 2.332-.02 4.64-.473 6.809-1.334C20.14 4.241 14.9.104 8.878.104z" opacity=".4" transform="translate(4.62 .78)"/>
                    </g>
                </g>
            </g>
            <path fill="url(#prefix__ai)" fill-rule="nonzero" d="M19.233 30.368l.13-.016c1.976-.245 3.486-.362 4.53-.35 3.986-.053 7.859 1.225 10.907 3.598-5.357-1.896-9.901-2.544-13.635-1.944l-.533-.19c.124.11.247.22.368.334-6.873-2.822-10.5-2.419-10.5-2.419-3.628-.04-7.218.787-10.5 2.419 5.431-5.073 13.336-5.55 19.233-1.432z" opacity=".654" transform="translate(-1) translate(26.4 92.1)"/>
        </g>
        <g>
            <g transform="translate(-1) translate(151.5) translate(12.9 .169)">
                <path fill="#513951" fill-rule="nonzero" d="M11.7 11.831c-2.92-5.215-2.124-3.53-3.654-1.904-1.531 1.626-7.27 1.052-7.27 1.052S-1.522 3.23 2.975.934C7.471-1.362 11.816.108 14.4 10.631c0 0 .744 2.73 1.7 3.688 0 0-3.06-.096-4.4-2.488z"/>
                <mask id="prefix__ak" fill="#fff">
                    <use xlink:href="#prefix__aj"/>
                </mask>
                <path fill="#5D465E" fill-rule="nonzero" d="M2.975.933C7.02-1.133 11.4.43 13.8 8.23c-.788-.265-.486-.344-1.5-1.2-1.172-.988-3.36-3.463-5.1-2.7-1.961.861-2.16 1.363-2.974 2.582-.59.885-2.507 1.975-2.754 4.116-.426-.026-.697-.052-.697-.052S-1.521 3.228 2.975.933z" mask="url(#prefix__ak)"/>
                <g>
                    <mask id="prefix__am" fill="#fff">
                        <use xlink:href="#prefix__al"/>
                    </mask>
                    <path fill="#EBA200" fill-rule="nonzero" d="M0 6.131c1.748.748 2.948 1.448 3.6 2.1.515.515 1.144 1.41 1.889 2.686-1.124.145-2.259.193-3.391.143L.419 9.382C.274 8.565.134 7.482 0 6.132z" mask="url(#prefix__am)"/>
                </g>
            </g>
            <path fill="#513951" fill-rule="nonzero" d="M12 14.7s-.718.6-4.2.9c-1.898.164-6.09.136-7.2-.6-.608-.403-.51-.727.3-1.5.668-.639.521-1.091.6-1.8.383-3.444 5.383-6.005 7.679-5.431 2.296.574 6.122 3.444 7.079 4.209.957.765 2.207 1.87 1.442 5.122-.765 3.253-1.61 4.315-2.565 6.95-.095.261-1.335-1.265-1.335-2.15s.9-2.1.3-3c-.6-.9-1.5.3-1.8-.6-.3-.9.2-2.057-.3-2.1z" transform="translate(-1) translate(151.5)"/>
            <g transform="translate(-1) translate(151.5) translate(0 6)">
                <mask id="prefix__ao" fill="#fff">
                    <use xlink:href="#prefix__an"/>
                </mask>
                <path fill="#5D465E" fill-rule="nonzero" d="M9.179.269c2.296.574 6.122 3.444 7.079 4.209.848.605 1.52 1.423 1.95 2.372-.443.2-.9.367-1.369.498-.86.215-3.228-1.22-4.807-1.626-1.578-.407-1.722-1.388-2.941-2.464-1.22-1.076-1.938-.071-4.807 1.794-1.319.857-1.558 2.182-1.436 3.365-.945-.5-1.474-1.54-1.322-2.6C1.908 2.373 6.883-.305 9.179.27z" mask="url(#prefix__ao)"/>
            </g>
        </g>
        <g fill-rule="nonzero" opacity=".223">
            <g>
                <path fill="url(#prefix__ap)" d="M2.855 3.162l5.22-2.122c3.266-1.171 8.563-1.171 11.83 0 3.267 1.172 3.267 3.071 0 4.243-3.267 1.172-8.564 1.172-11.83 0l-5.22-2.121z" transform="translate(-1) rotate(19 -384.268 489.312) rotate(-51 28.171 -8.528)"/>
                <path fill="url(#prefix__aq)" d="M.212.153h1.435c1.527 0 2.765 1.238 2.765 2.765v.235H2.977C1.45 3.153.212 1.915.212.388V.153z" transform="translate(-1) rotate(19 -384.268 489.312) rotate(-51 28.171 -8.528)"/>
                <path fill="url(#prefix__ar)" d="M.924 2.551h.235c1.527 0 2.765 1.238 2.765 2.765V6.75h-.235C2.162 6.751.924 5.513.924 3.986V2.551z" transform="translate(-1) rotate(19 -384.268 489.312) rotate(-51 28.171 -8.528) rotate(-90 2.424 4.651)"/>
            </g>
            <g>
                <path fill="url(#prefix__as)" d="M2.279 2.533L6.454.836c2.613-.938 6.85-.938 9.464 0 2.614.937 2.614 2.457 0 3.394-2.613.937-6.85.937-9.464 0L2.279 2.533z" transform="translate(-1) rotate(19 -384.268 489.312) rotate(-51 37.625 17.734)"/>
                <path fill="url(#prefix__at)" d="M.164.126h1.148c1.222 0 2.212.99 2.212 2.212v.188H2.376C1.154 2.526.164 1.536.164.314V.126z" transform="translate(-1) rotate(19 -384.268 489.312) rotate(-51 37.625 17.734)"/>
                <path fill="url(#prefix__au)" d="M.733 2.044h.188c1.222 0 2.212.99 2.212 2.212v1.148h-.188c-1.221 0-2.212-.99-2.212-2.212V2.044z" transform="translate(-1) rotate(19 -384.268 489.312) rotate(-51 37.625 17.734) rotate(-90 1.933 3.724)"/>
            </g>
            <g>
                <path fill="url(#prefix__ap)" d="M2.855 3.162l5.22-2.122c3.266-1.171 8.563-1.171 11.83 0 3.267 1.172 3.267 3.071 0 4.243-3.267 1.172-8.564 1.172-11.83 0l-5.22-2.121z" transform="translate(-1) rotate(19 -384.268 489.312) rotate(-51 45.095 -3.108)"/>
                <path fill="url(#prefix__aq)" d="M.212.153h1.435c1.527 0 2.765 1.238 2.765 2.765v.235H2.977C1.45 3.153.212 1.915.212.388V.153z" transform="translate(-1) rotate(19 -384.268 489.312) rotate(-51 45.095 -3.108)"/>
                <path fill="url(#prefix__ar)" d="M.924 2.551h.235c1.527 0 2.765 1.238 2.765 2.765V6.75h-.235C2.162 6.751.924 5.513.924 3.986V2.551z" transform="translate(-1) rotate(19 -384.268 489.312) rotate(-51 45.095 -3.108) rotate(-90 2.424 4.651)"/>
            </g>
        </g>
        <g fill-rule="nonzero" opacity=".223">
            <path fill="url(#prefix__as)" d="M2.28 2.533L6.454.836c2.613-.938 6.85-.938 9.464 0 2.614.937 2.614 2.457 0 3.394-2.613.937-6.85.937-9.464 0L2.279 2.533z" transform="translate(-1) rotate(157 -1.867 56.73)"/>
            <path fill="url(#prefix__at)" d="M.165.126h1.148c1.222 0 2.212.99 2.212 2.212v.188H2.377C1.155 2.526.165 1.536.165.314V.126z" transform="translate(-1) rotate(157 -1.867 56.73)"/>
            <path fill="url(#prefix__au)" d="M.734 2.044h.188c1.222 0 2.212.99 2.212 2.212v1.148h-.188c-1.222 0-2.212-.99-2.212-2.212V2.044z" transform="translate(-1) rotate(157 -1.867 56.73) rotate(-90 1.934 3.724)"/>
        </g>
        <g fill-rule="nonzero" opacity=".223">
            <path fill="url(#prefix__as)" d="M2.28 2.533L6.454.836c2.613-.938 6.85-.938 9.464 0 2.614.937 2.614 2.457 0 3.394-2.613.937-6.85.937-9.464 0L2.279 2.533z" transform="translate(-1) rotate(153 -1.24 47.844)"/>
            <path fill="url(#prefix__at)" d="M.165.126h1.148c1.222 0 2.212.99 2.212 2.212v.188H2.377C1.155 2.526.165 1.536.165.314V.126z" transform="translate(-1) rotate(153 -1.24 47.844)"/>
            <path fill="url(#prefix__au)" d="M.734 2.044h.188c1.222 0 2.212.99 2.212 2.212v1.148h-.188c-1.222 0-2.212-.99-2.212-2.212V2.044z" transform="translate(-1) rotate(153 -1.24 47.844) rotate(-90 1.934 3.724)"/>
        </g>
        <g fill-rule="nonzero" opacity=".223">
            <path fill="url(#prefix__ap)" d="M2.855 3.162l5.22-2.122c3.266-1.171 8.563-1.171 11.83 0 3.267 1.172 3.267 3.071 0 4.243-3.267 1.172-8.564 1.172-11.83 0l-5.22-2.121z" transform="translate(-1) rotate(-37 315.642 -145.24)"/>
            <path fill="url(#prefix__aq)" d="M.212.153h1.435c1.527 0 2.765 1.238 2.765 2.765v.235H2.977C1.45 3.153.212 1.915.212.388V.153z" transform="translate(-1) rotate(-37 315.642 -145.24)"/>
            <path fill="url(#prefix__ar)" d="M.924 2.551h.235c1.527 0 2.765 1.238 2.765 2.765V6.75h-.235C2.162 6.751.924 5.513.924 3.986V2.551z" transform="translate(-1) rotate(-37 315.642 -145.24) rotate(-90 2.424 4.651)"/>
        </g>
        <g fill-rule="nonzero" opacity=".223">
            <path fill="url(#prefix__ap)" d="M2.85 3.166l5.218-2.121c3.267-1.172 8.564-1.172 11.831 0 3.267 1.171 3.267 3.07 0 4.242-3.267 1.172-8.564 1.172-11.83 0l-5.22-2.121z" transform="translate(-1) rotate(168 17.81 50.398)"/>
            <path fill="url(#prefix__aq)" d="M.206.157h1.435c1.527 0 2.765 1.238 2.765 2.765v.235H2.971C1.444 3.157.206 1.92.206.393V.157z" transform="translate(-1) rotate(168 17.81 50.398)"/>
            <path fill="url(#prefix__ar)" d="M.918 2.555h.235c1.527 0 2.765 1.238 2.765 2.765v1.435h-.236C2.155 6.755.918 5.518.918 3.991V2.555z" transform="translate(-1) rotate(168 17.81 50.398) rotate(-90 2.418 4.655)"/>
        </g>
        <path stroke="#FFA5A5" stroke-width=".6" d="M159.625 23.4c-.304.06-1.074-.125-.9-.3.175-.175.6-.3 1.2-.3s.005.54-.3.6z" transform="translate(-1)"/>
        <g transform="translate(-1) matrix(-1 0 0 1 204 129.3)">
            <mask id="prefix__aw" fill="#fff">
                <use xlink:href="#prefix__av"/>
            </mask>
            <g mask="url(#prefix__aw)">
                <g fill-rule="nonzero">
                    <path fill="url(#prefix__ax)" d="M14.688 0h1.728c1.909 0 3.456 1.547 3.456 3.456v1.728h-1.728c-1.909 0-3.456-1.547-3.456-3.456V0z" transform="rotate(73 7.56 13.605)"/>
                    <path fill="url(#prefix__ay)" d="M3.456 9.504l6.475-4.888c4.053-2.699 10.624-2.699 14.677 0 4.053 2.7 4.053 7.076 0 9.776-4.053 2.699-10.624 2.699-14.677 0L3.456 9.504z" transform="rotate(73 7.56 13.605)"/>
                    <path fill="#FFF" d="M19.608 10.296v.864c0 1.432-1.16 2.592-2.592 2.592h-.864v-.864c0-1.432 1.16-2.592 2.592-2.592h.864z" opacity=".376" transform="rotate(73 7.56 13.605)"/>
                    <path fill="url(#prefix__ax)" d="M0 4.32h1.728c1.909 0 3.456 1.547 3.456 3.456v1.728H3.456C1.547 9.504 0 7.957 0 6.048V4.32z" transform="rotate(73 7.56 13.605)"/>
                    <path fill="url(#prefix__ax)" d="M0 9.504h1.728c1.909 0 3.456 1.547 3.456 3.456v1.728H3.456C1.547 14.688 0 13.141 0 11.232V9.504z" transform="rotate(73 7.56 13.605) rotate(-90 2.592 12.096)"/>
                </g>
            </g>
        </g>
        <g fill-rule="nonzero" opacity=".165">
            <g fill="url(#prefix__az)" transform="translate(-1) scale(-1 1) rotate(73 -182.012 -59.74) translate(11.812 .145)">
                <path d="M5.106.111l.614.534c1.44 1.252 1.593 3.435.34 4.876l-.533.613-.614-.533C3.473 4.349 3.32 2.166 4.573.725l.533-.614zM4.317 12.825l.155.798c.364 1.873-.86 3.688-2.733 4.052l-.798.155-.156-.798c-.364-1.874.86-3.688 2.734-4.052l.798-.155z"/>
            </g>
            <path fill="url(#prefix__aA)" d="M3.456 9.204l6.475-4.888c.564-.375 1.072-1.066 1.825-.97 3.466.444 6.18.803 8.136 3.127 2.779 3.3 3.625 4.855-.428 7.555-1.692 1.126-3.043 1.372-4.045 1.43-1.398.08-2.425-.429-5.488-1.366-.3-.227-.525-.396-.674-.51-1.29-.972-3.223-2.432-5.801-4.378z" transform="translate(-1) scale(-1 1) rotate(73 -182.012 -59.74)"/>
            <path fill="url(#prefix__ax)" d="M0 4.02h1.728c1.909 0 3.456 1.547 3.456 3.456v1.728H3.456C1.547 9.204 0 7.657 0 5.748V4.02z" transform="translate(-1) scale(-1 1) rotate(73 -182.012 -59.74)"/>
            <path fill="url(#prefix__ax)" d="M0 9.204h1.728c1.909 0 3.456 1.547 3.456 3.456v1.728H3.456C1.547 14.388 0 12.841 0 10.932V9.204z" transform="translate(-1) scale(-1 1) rotate(73 -182.012 -59.74) rotate(-90 2.592 11.796)"/>
        </g>
    </g>
</svg>
