<?xml version="1.0" encoding="UTF-8" standalone="no"?>
<svg width="92px" height="93px" viewBox="0 0 92 93" version="1.1" xmlns="http://www.w3.org/2000/svg" xmlns:xlink="http://www.w3.org/1999/xlink">
	<!-- Generator: Sketch 3.8.2 (29753) - http://www.bohemiancoding.com/sketch -->
	<title>Touch ID</title>
	<desc>Created with Sketch.</desc>
	<defs></defs>
	<g id="Page-1" stroke="none" stroke-width="1" fill="none" fill-rule="evenodd" stroke-linecap="round">
		<g id="Sign-In-Touch-ID-OK" transform="translate(-593.000000, -281.000000)" stroke="#008BCF" stroke-width="2.4">
			<g id="Group-3" transform="translate(594.000000, 283.000000)">
				<path d="M89.5842697,44.7546365 C89.5842697,22.6942212 73.7226499,4.36141816 52.8486511,0.67262674 M44.5103172,3.95822329e-14 C27.2915939,0.225519063 12.4325799,10.2948035 5.23748533,24.870809 M2.33032247,32.4137518 C1.21517953,36.3338648 0.617977528,40.474077 0.617977528,44.7546365 C0.617977528,49.9469292 1.4966732,54.932721 3.11260386,59.5696757 M81.3152604,37.0934901 C77.8048632,20.2086612 62.9248393,7.52720054 45.1011236,7.52720054 C40.1680059,7.52720054 35.4603843,8.49863998 31.1569023,10.2617693 M23.727576,14.3637665 C14.273134,21.1077787 5.38099142,35.4165234 8.95325155,52.7136056 M8.60391163,69.9887231 C9.27800574,66.9633932 9.63368208,63.8169872 9.63368208,60.5869944 C9.63368208,57.8345536 9.37540385,55.1428103 8.88190292,52.5349629 M73.9229398,38.3330401 C72.1449328,30.2172611 67.0674167,23.3473492 60.1779629,19.220084 M52.8235433,16.085166 C50.3620722,15.4155291 47.7730626,15.058268 45.1011236,15.058268 C28.8011713,15.058268 15.5874492,28.3537851 15.5874492,44.7546365 C15.5874492,44.7546365 15.4173416,46.0383412 16.2678798,51.5154812 M62.5130765,30.739448 C58.4276693,25.6633064 52.1835624,22.4181749 45.1861774,22.4181749 C32.8790089,22.4181749 22.9020775,32.456865 22.9020775,44.8402168 C22.9020775,44.8402168 23.0721851,48.9480718 23.7526156,51.3443206 M59.7864975,42.2993987 C58.6222457,35.1961133 52.4905166,29.7780818 45.1011236,29.7780818 C43.3474412,29.7780818 41.664594,30.0832406 40.1021701,30.643663 M33.7586895,35.0563017 C31.5496733,37.6693232 30.2167057,41.0553507 30.2167057,44.7546365 C30.2167057,44.7546365 30.3868133,48.9480722 31.2373515,51.3443209 M52.1867596,43.2262498 C51.5228499,39.9474804 48.6408604,37.48031 45.1861774,37.48031 C41.2403676,37.48031 38.0416568,40.6988213 38.0416568,44.6690562 C38.0416568,44.6690562 38.0416568,46.0383412 38.3818721,47.7499475 M83.8654942,66.340566 C83.9358056,64.7167609 83.9713248,63.0839289 83.9713248,61.4427975 C83.9713248,60.690708 83.9638652,59.9403615 83.949016,59.1918281 M83.4759212,50.8485789 C83.0376984,46.1808495 82.3128613,41.5970727 81.3193079,37.1152575 M75.1690951,77.812094 C76.0355963,72.4274408 76.4859819,66.902461 76.4859819,61.2716369 C76.4859819,53.3919916 75.6040117,45.7196167 73.9339827,38.3490051 M65.9557759,83.937504 C68.0513767,76.3428751 69.1713537,68.3397957 69.1713537,60.0735125 C69.1713537,52.5940038 68.2544269,45.3299806 66.527507,38.3890383 M56.7593286,87.8507154 C59.8409923,78.9949407 61.5165102,69.474366 61.5165102,59.5600306 C61.5165102,53.6690938 60.9249614,47.9171759 59.7983724,42.3611354 M48.4467735,89.1794872 C51.0267234,82.7798346 52.7764219,75.9520961 53.5614079,68.8315649 M54.0317743,60.2446731 C54.0317743,54.3882269 53.3821719,48.6844427 52.1515125,43.2022903 M40.5546993,89.1429675 C40.5546993,89.1429675 41.9262136,85.7003973 42.5204143,83.9347162 M44.6402593,76.3777857 C45.8881027,70.85959 46.5470385,65.1160774 46.5470385,59.2177094 C46.5470385,54.3029871 46.089553,49.4957776 45.2150931,44.8368429 M32.9451721,87.4872414 C36.9802157,78.7370218 39.2324103,68.9852669 39.2324103,58.7042275 C39.2324103,54.9634177 38.9342408,51.2926803 38.3605108,47.7147639 M25.9640149,84.891802 C29.7063828,77.5318951 31.917782,68.9190976 31.917782,60.0735125 C31.917782,57.0795741 31.6631246,54.1454823 31.1744155,51.2919705 M24.2184842,64.4714603 C24.3604807,62.9105266 24.4330462,61.3293857 24.4330462,59.7311912 C24.4330462,56.7890027 24.1871161,53.9046097 23.7148116,51.097689 M19.7603348,81.2255734 C21.0061874,78.5096358 22.0232391,75.6656115 22.7866204,72.7185241 M13.9684371,76.2650008 C15.9990882,71.2704205 17.1184179,65.8034924 17.1184179,60.0735125 C17.1184179,57.1202253 16.8210712,54.2368171 16.2548576,51.4519441" id="Touch-ID"></path>
			</g>
		</g>
	</g>
</svg>