<?xml version="1.0" encoding="UTF-8"?>
<svg width="40px" height="40px" viewBox="0 0 40 40" version="1.1" xmlns="http://www.w3.org/2000/svg" xmlns:xlink="http://www.w3.org/1999/xlink">
    <!-- Generator: Sketch 55.2 (78181) - https://sketchapp.com -->
    <title>lite plan_ico</title>
    <desc>Created with Sketch.</desc>
    <g id="lite-plan_ico" stroke="none" stroke-width="1" fill="none" fill-rule="evenodd">
        <g id="lite">
            <g id="Group-4-Copy-6">
                <g>
                    <g id="Group-4">
                        <circle id="Oval" fill="#9E8CF5" cx="20" cy="20" r="20"></circle>
                        <g id="DigitallySignedEmail_1-Copy-2" transform="translate(11.500000, 9.500000)" fill="#FFFFFF" fill-rule="nonzero">
                            <path d="M11.8125,5 C11.8125,3.16666667 10.29375,1.66666667 8.4375,1.66666667 C6.58125,1.66666667 5.0625,3.16666667 5.0625,5 C5.0625,6.83333333 6.58125,8.33333333 8.4375,8.33333333 C10.29375,8.33333333 11.8125,6.83333333 11.8125,5 M8.4375,0 C11.23875,0 13.5,2.23333333 13.5,5 C13.5,7.76666667 11.23875,10 8.4375,10 C5.63625,10 3.375,7.76666667 3.375,5 C3.375,2.23333333 5.63625,0 8.4375,0 M15.1875,17.9166667 L15.1875,16.4833333 C15.1875,14.75 13.753125,13.3333333 11.998125,13.3333333 L4.876875,13.3333333 C3.121875,13.3333333 1.6875,14.75 1.6875,16.4833333 L1.6875,17.9166667 C1.6875,18.15 1.873125,18.3333333 2.109375,18.3333333 L14.765625,18.3333333 C15.001875,18.3333333 15.1875,18.15 15.1875,17.9166667 M16.875,16.4833333 L16.875,17.9166667 C16.875,19.0666667 15.93,20 14.765625,20 L2.109375,20 C0.945,20 0,19.0666667 0,17.9166667 L0,16.4833333 C0,13.8166667 2.176875,11.6666667 4.876875,11.6666667 L11.998125,11.6666667 C14.698125,11.6666667 16.875,13.8166667 16.875,16.4833333" id="Shape"></path>
                        </g>
                    </g>
                </g>
            </g>
        </g>
    </g>
</svg>