<?xml version="1.0" encoding="UTF-8"?>
<svg width="40px" height="40px" viewBox="0 0 40 40" version="1.1" xmlns="http://www.w3.org/2000/svg" xmlns:xlink="http://www.w3.org/1999/xlink">
    <!-- Generator: Sketch 55.2 (78181) - https://sketchapp.com -->
    <title>proffessional plan_ico</title>
    <desc>Created with Sketch.</desc>
    <g id="proffessional-plan_ico" stroke="none" stroke-width="1" fill="none" fill-rule="evenodd">
        <g id="profi">
            <g>
                <circle id="Oval" fill="#FFBA4A" cx="20" cy="20" r="20"></circle>
                <path d="M23.0625,15 C23.0625,13.1666667 21.54375,11.6666667 19.6875,11.6666667 C17.83125,11.6666667 16.3125,13.1666667 16.3125,15 C16.3125,16.8333333 17.83125,18.3333333 19.6875,18.3333333 C21.54375,18.3333333 23.0625,16.8333333 23.0625,15 M19.6875,10 C22.48875,10 24.75,12.2333333 24.75,15 C24.75,17.7666667 22.48875,20 19.6875,20 C16.88625,20 14.625,17.7666667 14.625,15 C14.625,12.2333333 16.88625,10 19.6875,10 M26.4375,27.9166667 L26.4375,26.4833333 C26.4375,24.75 25.003125,23.3333333 23.248125,23.3333333 L16.126875,23.3333333 C14.371875,23.3333333 12.9375,24.75 12.9375,26.4833333 L12.9375,27.9166667 C12.9375,28.15 13.123125,28.3333333 13.359375,28.3333333 L26.015625,28.3333333 C26.251875,28.3333333 26.4375,28.15 26.4375,27.9166667 M28.125,26.4833333 L28.125,27.9166667 C28.125,29.0666667 27.18,30 26.015625,30 L13.359375,30 C12.195,30 11.25,29.0666667 11.25,27.9166667 L11.25,26.4833333 C11.25,23.8166667 13.426875,21.6666667 16.126875,21.6666667 L23.248125,21.6666667 C25.948125,21.6666667 28.125,23.8166667 28.125,26.4833333" id="Shape" fill="#FFFFFF" fill-rule="nonzero"></path>
            </g>
        </g>
    </g>
</svg>