<?xml version="1.0" encoding="utf-8"?><svg xmlns="http://www.w3.org/2000/svg" xmlns:xlink="http://www.w3.org/1999/xlink"><symbol viewBox="0 0 24 30" id="audio" xmlns="http://www.w3.org/2000/svg"><path fill="#6B6B6B" d="M21 1c1.05 0 1.918.82 1.994 1.851L23 3v24c0 1.05-.82 1.918-1.851 1.994L21 29H3c-1.05 0-1.918-.82-1.994-1.851L1 27V9l6-8h14zm0 1.5H8V10H2.5v17c0 .249.174.45.41.492L3 27.5h18c.249 0 .45-.174.492-.41L21.5 27V3c0-.28-.22-.5-.5-.5zm-7 11c2.481 0 4.5 2.019 4.5 4.5s-2.019 4.5-4.5 4.5a.5.5 0 010-1c1.93 0 3.5-1.57 3.5-3.5s-1.57-3.5-3.5-3.5a.5.5 0 010-1zm-2.339.127a.498.498 0 01.832.373v8a.497.497 0 01-.5.5.495.495 0 01-.332-.127l-2.67-2.375h-2.99a.499.499 0 01-.5-.5v-2.996a.5.5 0 01.5-.5h2.99l2.67-2.375zm-.168 1.488l-1.979 1.76a.498.498 0 01-.333.127h-2.68v1.996h2.68c.123 0 .242.045.333.127l1.98 1.76v-5.77zM14 15.75A2.252 2.252 0 0116.249 18 2.252 2.252 0 0114 20.249a.5.5 0 010-1c.688 0 1.249-.561 1.249-1.249 0-.688-.561-1.249-1.249-1.249a.5.5 0 010-1zM6.5 4.17L3.25 8.5H6.5V4.17z"/></symbol><symbol viewBox="0 0 22 26" id="document" xmlns="http://www.w3.org/2000/svg"><path fill="#2A579A" fill-rule="evenodd" d="M6.145.13L.661 5.613v19.829h20.251V.129H6.145zM1.927 9.105V7.233h5.787V1.394h11.931v22.782H1.927V9.105zM6.45 1.614v4.353H2.095L6.45 1.614zm7.66 12.86l-1.3 4.387-1.299-4.388H10.06l-1.298 4.388-1.155-4.388H5.724l2.025 6.75h1.737l1.3-3.881 1.156 3.88h1.738l2.168-6.749h-1.737z"/></symbol><symbol viewBox="0 0 21 26" id="generic" xmlns="http://www.w3.org/2000/svg"><path fill="#747F8D" fill-rule="evenodd" d="M6.449 6.39V2.036L2.095 6.39H6.45zm13.196 18.208V1.817H7.715v5.839h-5.79v16.942h17.72zM20.911.551v25.313H.66V6.036L6.145.55h14.766z"/></symbol><symbol viewBox="0 0 18 22" id="image" xmlns="http://www.w3.org/2000/svg"><path fill="#6B6B6B" d="M16.46 0H6L2.32 3.68.85 5.15 0 6v14.46C0 21.31.69 22 1.54 22h14.92c.85 0 1.54-.69 1.54-1.54V1.54C18 .69 17.31 0 16.46 0zM4.56 2.86L6 1.41v4.02a.538.538 0 01-.5.57H1.41l3.15-3.14zM17 20.46a.544.544 0 01-.157.383.544.544 0 01-.383.157H1.54a.544.544 0 01-.383-.157A.544.544 0 011 20.46V7h4.5A1.533 1.533 0 007 5.43V1h9.46c.143 0 .281.056.383.157.1.102.158.24.157.383v18.92zM10.5 12a1.5 1.5 0 10.001 3.001A1.5 1.5 0 0010.5 12zm0 2a.5.5 0 110-1 .5.5 0 010 1zm3.34-4H4.16C3.52 10 3 10.52 3 11.16v6.68c.003.3.121.586.33.8.215.23.516.36.83.36h9.68c.32 0 .625-.134.84-.37.202-.214.316-.496.32-.79v-6.68c0-.64-.52-1.16-1.16-1.16zm-4.96 8H5.25l2.25-2.51 1.81 2.01-.43.5zm2.22 0h-.9l.45-.5.85-.98L12.8 18h-1.7zm2.9-.16c0 .003-.001.005-.003.007s-.004.003-.007.003L11.5 15l-1.53 1.75L7.5 14l-3.49 3.87c0-.01-.01-.02-.01-.03v-6.68c0-.043.016-.084.046-.114S4.117 11 4.16 11h9.68a.156.156 0 01.16.16v6.68z"/></symbol><symbol viewBox="0 0 20 25" id="pdf" xmlns="http://www.w3.org/2000/svg"><g fill="#EA1C0F" fill-rule="evenodd"><path d="M5.455 0L0 5.357V25h20V0H5.455zM1.818 7.143h5.455V1.786h10.909v21.428H1.818V7.143zm3.637-5.357v3.571H1.818l3.637-3.571z"/><path d="M9.273 9.821c-.182 0-.182.179-.364.358-.182.535-.182 1.607.364 2.678.182-.536.182-.893.182-1.071.181-1.607 0-1.965-.182-1.965zm.363 4.822c-.363.714-.727 1.428-1.09 2.321.909-.178 1.818-.357 2.363-.357h.182c-.364-.536-.727-.893-1.091-1.428-.182-.358-.364-.536-.364-.536zm3.273 2.5c.727.536 1.091.893 1.636 1.071h.364c.364 0 .546-.178.546-.178v-.179c-.182-.178-.728-.714-2.546-.714zm-6.182 1.25c-.545.357-1.09.536-1.454.893-.728.714-.728 1.25-.728 1.25h.182c.182 0 .364 0 .546-.179.182-.178.727-.893 1.454-1.964zm-2.182 3.036c-.363 0-.727-.179-.909-.536-.181-.536.182-1.429.91-2.143.727-.714 1.636-1.071 2.727-1.607.545-1.072 1.272-2.322 1.636-3.393-.909-1.429-1.09-3.036-.727-3.929.182-.535.545-.892.727-.892.364-.179.727 0 .91.178.363.357.545 1.25.363 2.5 0 .536-.182 1.25-.546 1.964.182.179.364.536.546.715.545.535 1.09 1.25 1.636 1.785h.546c2 0 3.272.358 3.636 1.072.182.357.182.714 0 .893-.182.357-.727.714-1.273.714h-.545c-.727-.179-1.637-.714-2.727-1.786h-.91c-.545 0-1.818.179-2.909.536-.545.893-1.636 2.679-2.363 3.214 0 .536-.364.715-.728.715z"/></g></symbol><symbol viewBox="0 0 22 26" id="presentation" xmlns="http://www.w3.org/2000/svg"><path fill="#B54628" fill-rule="evenodd" d="M6.449 7.234H1.926v16.942h17.72V1.396H7.713v5.838H6.45zM.66 5.614L6.145.129h14.766v25.313H.66V5.614zm5.788.354V1.614L2.095 5.968H6.45zm6.125 12.96H10.01v2.295H8.254v-6.75h4.32c.81 0 1.485.27 1.89.675.405.405.54.945.54 1.485 0 .675-.135 1.08-.405 1.485-.405.54-1.08.81-2.025.81zm-.405-1.215c.405 0 .675-.135.945-.27 0-.27.135-.405.135-.675s-.135-.54-.27-.675-.405-.27-.81-.27h-2.025v1.89h2.025z"/></symbol><symbol viewBox="0 0 22 27" id="spreadsheet" xmlns="http://www.w3.org/2000/svg"><path fill="#227346" fill-rule="evenodd" d="M1.412 25.442H20.91V.129H5.724C3.58 2.264 2.803 3.05.661 5.192v20.25h.75zM6.989 6.458V1.395h12.656v22.781H1.926V6.458H6.99zM5.723 5.192H2.45l3.274-3.274v3.274zM9.604 17.68l-2.53-3.207h2.53l1.182 1.688 1.349-1.688h2.531l-2.699 3.207 3.037 3.543h-2.53l-1.688-2.194-1.688 2.194H6.567l3.037-3.543z"/></symbol><symbol viewBox="0 0 24 30" id="video" xmlns="http://www.w3.org/2000/svg"><path fill="#6B6B6B" d="M21 1c1.1 0 2 .9 2 2v24c0 1.1-.9 2-2 2H3c-1.1 0-2-.9-2-2V9l6-8h14zm0 1.5H8V10H2.5v17c0 .28.22.5.5.5h18c.28 0 .5-.22.5-.5V3c0-.28-.22-.5-.5-.5zm-6.716 11.98c.827 0 1.5.673 1.5 1.5v.647l1.91-1.476a.5.5 0 11.806.396v5.887a.502.502 0 01-.5.5.502.502 0 01-.306-.105l-1.91-1.475V21c0 .827-.673 1.5-1.5 1.5H7c-.827 0-1.5-.673-1.5-1.5v-5.02c0-.827.673-1.5 1.5-1.5h7.284zm0 1H7c-.275 0-.5.225-.5.5V21c0 .275.225.5.5.5h7.284a.5.5 0 00.5-.5v-5.02a.5.5 0 00-.5-.5zm3.216 1.084l-1.716 1.327v1.199l1.716 1.326v-3.852zM6.5 4.17L3.25 8.5H6.5V4.17z"/></symbol></svg>