<?xml version="1.0" encoding="utf-8"?><svg xmlns="http://www.w3.org/2000/svg" xmlns:xlink="http://www.w3.org/1999/xlink"><symbol viewBox="0 0 14 13" id="error" xmlns="http://www.w3.org/2000/svg"><path fill="#D51414" d="M7.5 10.5A.5.5 0 117 10h.005c.273 0 .495.222.495.495v.005zM1 12.99l11.99.01a1.003 1.003 0 00.867-1.505l.003.005-6-11A1 1 0 006.133.495L6.13.5l-6 11a.997.997 0 00.867 1.49H1zM12.99 12l-11.98-.03L6.99 1H7l5.99 11zM6.5 8.5a.5.5 0 101 0v-4a.5.5 0 10-1 0v4z"/></symbol><symbol viewBox="0 0 6 8" id="locked" xmlns="http://www.w3.org/2000/svg"><path fill="#333" d="M.504 2.56A2.57 2.57 0 012.744.01a2.26 2.26 0 01.26-.01 2.5 2.5 0 012.5 2.5v1.01a.495.495 0 01.5.5V7.5a.495.495 0 01-.5.5h-5a.495.495 0 01-.5-.5V4a.495.495 0 01.5-.5v-.94zm2.5-1.58c-.101 0-.202.01-.3.03-.7.16-1.199.782-1.2 1.5v1h3V2.48a1.498 1.498 0 00-1.5-1.5z"/></symbol></svg>