<svg xmlns="http://www.w3.org/2000/svg">

	<symbol id="arrow" viewBox="0 0 28 18">
		<path d="M24.5.24L28 3.8 14 17.75 0 3.8 3.5.25 14 10.75"/>
	</symbol>

	<symbol id="error" viewBox="0 0 31 28">
		<path d="M15.5 9C14.9 9 14.5 9.4 14.5 10L14.5 17C14.5 17.6 14.9 18 15.5 18 16.2 18 16.6 17.6 16.6 17L16.6 10C16.6 9.4 16.2 9 15.5 9L15.5 9 15.5 9Z"/>
		<ellipse cx="15.6" cy="20.4" rx="1.2" ry="1.2"/>
		<path d="M30.3 20.9L19.6 2.4C18.8 1 17.2 0.1 15.5 0.1 13.9 0.1 12.5 1 11.5 2.4L0.8 20.9C-0.1 22.4-0.1 24.2 0.8 25.6 1.5 27 3.2 27.9 4.8 27.9L26.3 27.9C28.1 27.9 29.6 27 30.3 25.6 31.2 24.2 31.2 22.4 30.3 20.9L30.3 20.9 30.3 20.9ZM28.2 24.4C27.9 25.2 27 25.7 26 25.7L5.3 25.7C4.4 25.7 3.6 25.2 3.1 24.4 2.5 23.5 2.5 22.5 3.1 21.6L13.3 4C13.6 3.1 14.5 2.6 15.6 2.6 16.6 2.6 17.5 3.1 18 4L28.2 21.6C28.7 22.5 28.7 23.5 28.2 24.4L28.2 24.4 28.2 24.4Z"/>
	</symbol>

	<symbol id="success" viewBox="0 0 82 82">
		<path fill-rule="evenodd" d="M34.3 56.8c-.2-.04-.4-.13-.54-.28L20.42 43.18c-.37-.37-.38-.98 0-1.36l4.3-4.3c.37-.37.98-.37 1.35 0l8.73 8.74 21.03-21.02c.37-.37.98-.37 1.35 0l4.3 4.3c.37.37.37.98 0 1.35L35.6 56.75c-.34.35-.92.37-1.3.03zM41 82c22.64 0 41-18.36 41-41S63.64 0 41 0 0 18.36 0 41s18.36 41 41 41z"/>
	</symbol>

	<symbol id="facebook" viewBox="0 0 330 330">
		<path d="M165 0c-91.080 0-165 73.92-165 165s73.92 165 165 165c91.080 0 165-73.92 165-165s-73.92-165-165-165zM203.94 138.6l-1.98 19.8h-30.36v92.4h-33v-92.4h-19.8v-19.8h19.8v-21.12c0-7.92 1.32-19.8 6.6-27.060 5.94-7.92 14.52-13.2 29.040-13.2 23.1 0 33 3.3 33 3.3l-4.62 27.060c0 0-9.24-1.98-16.5-1.98s-15.18 2.64-15.18 9.9v23.76h33z"/>
	</symbol>

	<symbol id="hint" viewBox="0 0 28 28">
		<circle cx="14" cy="14" r="14"/>
		<path d="M12.44 17.19C12.44 16.26 12.6 15.48 12.83 14.93 13.07 14.39 13.53 13.84 14.23 13.14 14.93 12.52 15.4 12.06 15.56 11.74 15.87 11.36 16.02 10.89 16.02 10.34 16.02 9.72 15.87 9.18 15.48 8.87 15.17 8.56 14.7 8.32 14 8.32 13.38 8.32 12.91 8.48 12.52 8.87 12.13 9.18 11.98 9.64 11.98 10.19L9.33 10.19C9.33 9.02 9.8 8.01 10.66 7.31 11.51 6.61 12.6 6.22 14 6.22 15.48 6.22 16.57 6.61 17.42 7.31 18.2 8.01 18.59 9.02 18.59 10.27 18.59 11.43 18.04 12.52 16.96 13.61L15.63 14.86C15.17 15.4 14.93 16.18 14.93 17.19L12.44 17.19 12.44 17.19ZM12.29 20.46C12.29 19.99 12.44 19.68 12.68 19.44 12.91 19.21 13.3 19.06 13.77 19.06 14.23 19.06 14.62 19.21 14.86 19.44 15.09 19.68 15.24 20.07 15.24 20.46 15.24 20.84 15.09 21.16 14.86 21.39 14.62 21.62 14.23 21.78 13.77 21.78 13.3 21.78 12.91 21.62 12.68 21.39 12.44 21.16 12.29 20.84 12.29 20.46L12.29 20.46 12.29 20.46Z" fill="#FFFFFF"/>
	</symbol>

	<symbol id="icewarp" viewBox="0 0 32 27">
		<path d="M5.69 12.56L5.69 0.1 0.49 0.1 0.49 23.59C0.49 24.28 0.76 24.9 1.2 25.37L5.69 12.56Z"/>
		<path d="M14.38 0.1C12.94 0.1 11.41 1.27 10.97 2.71L2.99 26.19C3.03 26.19 5.01 26.2 5.01 26.2 6.45 26.2 7.97 25.03 8.42 23.59L16.52 0.1 14.38 0.1Z"/>
		<path d="M18.51 0.35L14.81 10.9 14.81 23.59C14.81 24.34 15.12 25.01 15.63 25.49L20.01 13.01 20.01 2.71C20.01 1.66 19.4 0.77 18.51 0.35"/>
		<path d="M26.53 0.1L17.32 26.19C17.35 26.19 19.33 26.2 19.33 26.2 20.77 26.2 22.3 25.03 22.74 23.59L31.73 0.1 26.53 0.1Z"/>
	</symbol>

	<symbol id="information" viewBox="0 0 28 28">
		<g stroke="none" stroke-width="1" fill-rule="evenodd">
			<path d="M13.61 12C12.94 12 12.55 12.4 12.55 13L12.55 20C12.55 20.6 12.94 21 13.61 21 14.19 21 14.58 20.6 14.58 20L14.58 13C14.58 12.4 14.19 12 13.61 12L13.61 12 13.61 12Z"/>
			<ellipse cx="13.61" cy="9.4" rx="1.16" ry="1.2"/>
			<path d="M14 28C21.66 28 28 21.74 28 13.95 28 6.26 21.66 0 14 0 6.23 0 0 6.26 0 13.95 0 21.74 6.23 28 14 28L14 28ZM14 26C20.63 26 26 20.63 26 14 26 7.37 20.63 2 14 2 7.37 2 2 7.37 2 14 2 20.63 7.37 26 14 26L14 26Z"/>
		</g>
	</symbol>

	<symbol id="linkedin" viewBox="0 0 330 330">
		<path d="M165 0c-91.080 0-165 73.92-165 165s73.92 165 165 165 165-73.92 165-165c0-91.080-73.92-165-165-165zM118.8 250.8h-39.6v-118.8h39.6v118.8zM99 125.4v0c-12.54 0-21.12-10.56-21.12-21.78s8.58-20.46 21.12-20.46c12.54 0 20.46 9.9 21.12 21.12 0 10.56-7.92 21.12-21.12 21.12zM250.8 250.8h-39.6v-62.7c0-15.18-3.96-25.080-17.16-25.080-10.56 0-13.86 6.6-17.16 13.2-1.32 2.64 1.32 5.94 1.32 9.24v65.34h-40.26c0 0 0.66-105.6 0-118.8h40.26v19.8c0-7.92 11.88-18.48 31.68-18.48 24.42 0 40.92 15.84 40.92 50.16v67.32z"/>
	</symbol>

	<symbol id="monitor" viewBox="0 0 31 28">
		<path d="M31 21.55V0H0v21.55h13.26v4.33h-4.4V28h13.27v-2.12h-4.4v-4.33H31zM2.24 4.33h26.52v12.9H2.24V4.32z"/>
	</symbol>

	<symbol id="planet" viewBox="0 0 28 28">
		<path d="M14 26.6C9.21 26.6 5.03 23.91 2.9 19.95 3.26 19.26 3.95 17.71 3.63 16.36 3.65 16.22 3.88 15.89 4.02 15.7 4.4 15.16 4.87 14.49 4.52 13.78 4.28 13.28 3.62 12.94 2.33 12.65 2.03 12.59 1.74 12.53 1.49 12.49 2.24 6.25 7.56 1.4 14 1.4 16.21 1.4 18.29 1.97 20.09 2.98 19.64 2.78 19.24 2.75 18.92 2.75 18.74 2.75 18.56 2.76 18.39 2.77 18.22 2.78 18.05 2.79 17.88 2.79 17.48 2.79 16.99 2.74 16.32 2.39 15.31 1.85 14.55 1.62 13.79 1.62 12.84 1.62 11.88 1.99 10.58 2.85 9.45 3.59 8.6 4.73 8.19 6.05 7.78 7.34 7.83 8.66 8.31 9.77 8.88 11.07 9.63 11.65 10.75 11.65 11.02 11.65 11.29 11.62 11.58 11.59 11.86 11.55 12.16 11.52 12.47 11.52 12.85 11.52 13.18 11.57 13.52 11.68 14.13 11.89 14.59 12.58 14.9 13.79 15.22 15 15.34 16.54 15.45 17.9 15.54 19.03 15.63 20.1 15.81 20.91 15.93 21.4 16.07 21.77 16.26 22.05 16.54 22.46 16.94 22.69 17.4 22.69 18.63 22.69 19.62 22.29 20.33 21.5 20.93 20.85 21.23 20.04 21.47 19.39 21.61 19.01 21.76 18.61 21.91 18.45 23.5 16.66 23.34 15.19 23.21 14.11 23.13 13.32 23.13 13.04 23.44 12.75 23.74 12.48 24.01 12.24 24.25 12.03 24.76 11.57 25.12 11.24 25.38 10.96 25.56 10.77 25.97 10.32 25.86 9.75 25.86 9.75 25.86 9.74 25.86 9.74 26.34 11.07 26.6 12.5 26.6 14 26.6 20.95 20.95 26.6 14 26.6L14 26.6 14 26.6ZM1.4 13.89C1.55 13.92 1.72 13.95 1.88 13.99 2.67 14.15 3.04 14.31 3.2 14.39 3.12 14.53 2.98 14.75 2.88 14.89 2.53 15.38 2.1 15.99 2.26 16.66 2.37 17.12 2.28 17.68 2.12 18.19 1.65 16.88 1.4 15.47 1.4 14 1.4 13.96 1.4 13.93 1.4 13.89L1.4 13.89 1.4 13.89ZM21.83 14.27C21.93 15.22 22.04 16.2 20.87 17.52 20.55 17.88 20.36 18.37 20.16 18.9 19.71 20.12 19.28 21.27 17.44 21.29 17.39 21.23 17.24 20.99 17.11 20.26 16.99 19.59 16.92 18.71 16.85 17.79 16.74 16.37 16.61 14.77 16.26 13.43 15.81 11.73 15.06 10.72 13.96 10.36 13.48 10.2 12.99 10.12 12.47 10.12 12.08 10.12 11.73 10.16 11.42 10.2 11.17 10.22 10.94 10.25 10.75 10.25 10.42 10.25 10.05 10.25 9.59 9.21 8.94 7.7 9.42 5.29 11.35 4.02 12.41 3.32 13.14 3.02 13.79 3.02 14.31 3.02 14.87 3.2 15.67 3.63 16.61 4.13 17.35 4.19 17.88 4.19 18.1 4.19 18.29 4.18 18.48 4.17 18.63 4.16 18.78 4.15 18.92 4.15 19.22 4.15 19.47 4.19 19.77 4.39 20.31 4.76 20.59 5.57 20.88 6.43 21.33 7.74 21.84 9.21 23.45 9.76 23.67 9.84 24.04 9.96 24.3 10.07 24.08 10.31 23.7 10.65 23.32 10.98 23.08 11.2 22.81 11.44 22.51 11.72 21.63 12.51 21.74 13.45 21.83 14.27L21.83 14.27 21.83 14.27ZM25.76 9.47C25.48 8.97 24.8 8.74 23.9 8.44 22.94 8.11 22.6 7.12 22.21 5.97 21.86 4.98 21.51 3.95 20.67 3.32 22.97 4.75 24.77 6.91 25.76 9.47L25.76 9.47 25.76 9.47ZM23.9 4.1C21.25 1.46 17.74 0 14 0 10.26 0 6.75 1.46 4.1 4.1 1.46 6.75 0 10.26 0 14 0 17.74 1.46 21.25 4.1 23.9 6.75 26.54 10.26 28 14 28 17.74 28 21.25 26.54 23.9 23.9 26.54 21.25 28 17.74 28 14 28 10.26 26.54 6.75 23.9 4.1L23.9 4.1 23.9 4.1Z"/>
	</symbol>

	<symbol id="teamchat" viewBox="0 0 28 31">
		<path d="M27.26.6C27 .24 26.6.07 26.1 0H7.6c-1 .17-1.73 1-1.73 2.1v5.2h2.3V2.42h17.38v13.4h-2.3v2.43h2.7c.5 0 1-.25 1.33-.67.4-.34.66-.93.66-1.5v-14c0-.6-.25-1.1-.66-1.5zM19.02 9.7H1.9c-.58 0-1 .17-1.32.6-.42.4-.58.82-.58 1.4V24.8c0 .6.16 1 .58 1.42.33.34.74.6 1.3.6l7.43-.1 5.77 3.7.08-3.6h3.87c.58 0 1-.26 1.32-.6.4-.4.58-.83.58-1.42V11.73c0-.6-.17-1-.58-1.42-.33-.4-.74-.58-1.32-.58zm-.24 14.66h-6.02v1.43l-2.3-1.42h-.18l-7.97-.08V12.15H18.62v12.23h.18zm-3.38-4.94H8.98c-.5 0-.83.58-.83 1.25 0 .66.33 1.25.83 1.25h6.42c.5 0 .9-.6.9-1.26 0-.68-.4-1.26-.9-1.26zm-10.8-3.6c0 .67.34 1.25.84 1.25h10.04c.4 0 .83-.6.83-1.26 0-.76-.4-1.26-.82-1.26H5.44c-.5 0-.83.5-.83 1.26z"/>
	</symbol>

	<symbol id="twitter" viewBox="0 0 330 330">
		<path d="M165 0c-91.080 0-165 73.92-165 165s73.92 165 165 165c91.080 0 165-73.92 165-165s-73.92-165-165-165zM249.48 132c0 1.98 0 3.3 0 5.28 0 54.12-40.92 116.16-116.16 116.16-23.1 0-44.22-6.6-62.7-18.48 3.3 0.66 6.6 0.66 9.9 0.66 19.14 0 36.96-6.6 50.82-17.16-17.82-0.66-33-11.88-38.28-28.38 2.64 0.66 5.28 0.66 7.92 0.66 3.96 0 7.26-0.66 10.56-1.32-18.48-3.96-32.34-20.46-32.34-40.26 0 0 0-0.66 0-0.66 6.6 3.3 11.88 4.62 18.48 5.28-11.22-7.26-18.48-19.8-18.48-33.66 0-7.26 1.98-14.52 5.28-20.46 19.8 24.42 50.16 40.92 83.82 42.24-0.66-3.3-1.32-5.94-1.32-9.24 0-22.44 18.48-40.92 40.92-40.92 11.88 0 22.44 4.62 29.7 12.54 9.24-1.98 17.82-5.28 25.74-9.9-3.3 9.24-9.24 17.82-17.82 22.44 7.92-0.66 15.84-3.3 23.1-6.6-4.62 9.24-11.22 16.5-19.14 21.78z"/>
	</symbol>

	<symbol id="xmark" viewBox="0 0 28 28">
		<polygon points="28 24.59 17.29 13.98 27.89 3.27 24.59 0 13.98 10.71 3.28 0.11 0 3.38 10.72 14.01 0.11 24.72 3.38 28 14.02 17.28 24.73 27.89"/>
	</symbol>

	<symbol id="microphone" viewBox="0 0 24 24">
		<path d="M11.44 17c2.45 0 4.44-2.1 4.44-4.7V5.7c0-2.6-2-4.7-4.44-4.7S7 3.1 7 5.7v6.6c0 2.6 1.98 4.7 4.44 4.7zM8.77 5.7c0-1.56 1.2-2.82 2.67-2.82s2.66 1.26 2.66 2.8v6.63c0 1.56-1.2 2.82-2.66 2.82s-2.67-1.26-2.67-2.8V5.68zm10.34 6.05c-.48 0-.88.42-.88.94 0 3.6-3.3 6.38-6.72 6.38s-6.72-2.77-6.72-6.4c0-.5-.4-.93-.9-.93-.48 0-.88.42-.88.94 0 4.33 3 7.85 7 8.32l.03.95c0 .52.48 1.03.97 1.03h1.02c.64 0 1-.55 1-.94v-1.04c4-.47 6.98-4 6.98-8.33 0-.53-.4-.95-.9-.95z"/>
	</symbol>

	<symbol id="microphone-off" viewBox="0 0 24 24">
		<path d="M12.15 15c-.23.08-.47.12-.7.12-1.48 0-2.68-1.26-2.68-2.8v-.7L7 9.86v2.46c0 2.6 1.98 4.7 4.44 4.7.77 0 1.48-.23 2.1-.6l-.47-.47-.92-.92zm7.05 1.43c.5-1.13.8-2.4.8-3.74 0-.6-.4-1-.9-1s-.88.4-.88.9c0 .8-.17 1.5-.47 2.3l.55.5.9.9z"/>
		<path d="M15.2 18.06c-1.1.75-2.4 1.02-3.73 1.02-3.43 0-6.7-2.77-6.7-6.4 0-.5-.4-.93-.88-.93-.5 0-.9.42-.9.94 0 4.3 3 7.8 7 8.3v.9c0 .5.5 1 .9 1h1c.6 0 1-.6 1-1v-1c1.33-.16 2.6-.7 3.63-1.48L15.1 18zM8.77 6v-.3c0-1.56 1.2-2.82 2.67-2.82s2.66 1.26 2.66 2.8v5.65l1.7 1.7c.05-.23.08-.47.08-.72V5.7c0-2.6-2-4.7-4.44-4.7C9.4 1 7.7 2.45 7.18 4.4L8.78 6zm6.75 8.16c-.26.64-.66 1.2-1.15 1.65L16 17.5c.5-.44.93-.95 1.28-1.52l-1-1-.76-.76zm-1.46-1.46l-.52-.52L8.77 7.4v2.82l4.3 4.3c.53-.44.9-1.08 1-1.8zm3.4 6.2l.74.74c.27.27.6.42.93.42.24 0 .47-.1.64-.25.38-.3.3-1-.17-1.5l-.9-.9c-.36.6-.77 1.1-1.25 1.6zM7 5.64L4.83 3.47c-.27-.27-.62-.4-.94-.4-.3 0-.5.07-.7.24-.4.4-.3 1.1.1 1.6L7 8.5V5.7z"/>
		<path d="M16 17.44l1.45 1.46c.48-.46.9-1 1.25-1.56l-1.42-1.42c-.35.57-.8 1.08-1.28 1.52zM8.3 6.94L7 5.64v2.8l1.77 1.77V7.4l-.47-.47zm7.22 7.22l-1.45-1.45c-.1.8-.47 1.4-1 1.9l1.3 1.3c.5-.4.9-1 1.15-1.6z"/>
	</symbol>

	<symbol id="speaker" viewBox="0 0 24 24">
		<path d="M11.77 1h-1.4L6 6H2c-.7 0-1 .3-1 1v10c0 .7.3 1 1 1h4l4.38 5h1.4c.68 0 1.22-.3 1.22-1V2c0-.7-.54-1-1.23-1zM11 20.97L7 16H3V8h4l4-4.97v17.94zm8.64-14.7c-.2-.18-.43-.27-.67-.27s-.48.1-.66.27c-.36.37-.36.96 0 1.33 1.18 1.18 1.82 2.74 1.82 4.4s-.64 3.22-1.8 4.4c-.38.37-.38.96 0 1.33.17.18.4.27.65.27s.48-.1.67-.28C21.16 16.2 22 14.15 22 12s-.84-4.2-2.36-5.72zm-2.96 2.38c-.17-.15-.4-.22-.6-.22-.27 0-.53.1-.72.33-.33.4-.28 1 .12 1.32.57.48.9 1.18.9 1.92s-.33 1.44-.9 1.92c-.4.33-.45.92-.12 1.32.2.22.45.33.72.33.2 0 .43-.07.6-.22 1-.83 1.57-2.05 1.57-3.35s-.57-2.52-1.57-3.35z"/>
	</symbol>

	<symbol id="speaker-off" viewBox="0 0 24 24">
		<path d="M12 3.03v6.1l2 1.98V2c0-.7-.54-1-1.23-1h-1.4l-3.4 4.1 1.5 1.48L12 3.03zm8.6 14.7h.04C22.16 16.2 23 14.13 23 12s-.84-4.2-2.36-5.72c-.2-.2-.43-.28-.67-.28s-.48.1-.66.27c-.34.37-.34.96 0 1.33 1.2 1.18 1.84 2.74 1.84 4.4s-.64 3.22-1.8 4.4h-.02l1.23 1.23.1.1zM12 20.98L8 16H4V8h1.1l-2-2H3c-.7 0-1 .3-1 1v10c0 .7.3 1 1 1h4l4.38 5h1.4c.68 0 1.22-.3 1.22-1v-5.1l-2-2v6.07z"/>
		<path d="M19.25 12c0-1.3-.57-2.52-1.57-3.35-.17-.15-.4-.22-.6-.22-.27 0-.53.1-.72.33-.33.4-.28 1 .12 1.32.57.48.9 1.18.9 1.92 0 .66-.28 1.28-.75 1.75l1.32 1.32c.82-.82 1.3-1.9 1.3-3.07zm-3.1 2.75L14 12.58v2.85l4.35 4.35c.3.3.7.47 1.04.47.2 0 .42-.07.6-.23.4-.4.3-1.13-.24-1.65l-2.82-2.82c-.22-.03-.44-.12-.6-.3-.12-.16-.17-.33-.2-.5zM7.23 5.8L4.65 3.24c-.3-.3-.7-.48-1.05-.48-.24 0-.46.08-.62.24-.4.4-.28 1.13.24 1.65L4.57 6H7l.22-.2zm1.5 1.5l-.7.7H6.57L12 13.44V10.6z"/>
		<path d="M16.36 15.24c.16.2.38.28.6.3l-.8-.8c.03.18.08.35.2.5zM8.72 7.3l-1.5-1.5L7 6H4.57l2 2H8zM12 10.6v2.83l2 2V12.6z"/>
	</symbol>


	<symbol id="paper-plane" viewBox="0 0 24 24">
		<path d="M1.6 12.4c-.83.4-.8 1.02.08 1.36l2.6.98c.86.33 2.18.15 2.93-.4L18.46 5.8c.73-.55.8-.47.17.2l-8.88 9.14c-.65.66-.46 1.47.42 1.8l.3.1 3.18 1.22 2.87 1.13c.88.33 1.6.6 1.6.62v.02s.22-.7.46-1.6L22.94 3c.24-.88-.24-1.25-1.07-.83L1.6 12.4zM8.7 22c-.04.15 1.78-2.54 1.78-2.54.5-.75.22-1.65-.65-2l-2-.78c-.86-.34-1.28.06-.9.9 0 0 1.83 4.27 1.78 4.42z"/>
	</symbol>

	<symbol id="phone" viewBox="0 0 24 24">
		<path d="M21.84 16.74s2.04-2.26.7-4.84c-.22-.45-.55-.9-1-1.36-.04-.06-.08-.12-.14-.18-4.32-4.8-15.44-3.43-18.53 0-3.1 3.45-1.7 5.02-.45 6.4l5.3-1.98c.03-.05.07-2.32.06-3.03h.02s4.38-2.07 8.67-.02c0 .58.07 3.05.07 3.05l5.3 1.96z"/>
	</symbol>

	<symbol id="fullscreen" viewBox="0 0 18 18">
		<path d="M0 0h1.43v6H0m1.43-6H5.7v1.5H1.44M12.3 0H18v1.5h-5.7"/>
		<path d="M16.57 0H18v6h-1.43m0 6H18v6h-1.43"/>
		<path d="M12.3 16.5H18V18h-5.7M0 16.5h5.7V18H0"/>
		<path d="M0 12h1.43v6H0"/>
	</symbol>

	<symbol id="fullscreen-off" viewBox="0 0 18 18">
		<path d="M6 6H4.57V0H6M4.57 6H.3V4.5h4.27M17.7 6H12V4.5h5.7"/>
		<path d="M13.43 6H12V0h1.43m0 18H12v-6h1.43"/>
		<path d="M17.7 13.5H12V12h5.7M6 13.5H.3V12H6"/>
		<path d="M6 18H4.57v-6H6"/>
	</symbol>

</svg>
