<?xml version="1.0" encoding="utf-8"?><svg xmlns="http://www.w3.org/2000/svg" xmlns:xlink="http://www.w3.org/1999/xlink"><symbol viewBox="0 0 33 32" id="conference" xmlns="http://www.w3.org/2000/svg"><g fill="none" transform="translate(2 6)"><path fill="#5586FF" d="M17.084 11.242l11.092 5.593A1.217 1.217 0 0030 15.782V4.218a1.215 1.215 0 00-1.824-1.053L17.084 9.136a1.216 1.216 0 000 2.106z"/><rect width="24" height="20" fill="#3DD8B4" rx="2.202"/><rect width="4" height="4" x="4" y="8" fill="#2AA689" rx="2"/><rect width="4" height="4" x="10" y="8" fill="#2AA689" rx="2"/><rect width="4" height="4" x="16" y="8" fill="#2AA689" rx="2"/></g></symbol><symbol viewBox="0 0 28 28" id="sad" xmlns="http://www.w3.org/2000/svg"><path fill="#6B6B6B" d="M14 0c7.732 0 14 6.268 14 14s-6.268 14-14 14S0 21.732 0 14 6.268 0 14 0zm0 1.5C7.107 1.5 1.5 7.107 1.5 14S7.107 26.5 14 26.5 26.5 20.893 26.5 14 20.893 1.5 14 1.5zm0 14.75c2.3 0 4.483 1.111 5.841 2.973a.751.751 0 01-.606 1.191.747.747 0 01-.607-.309A5.749 5.749 0 0014 17.75a5.749 5.749 0 00-4.628 2.355.752.752 0 01-1.048.166.751.751 0 01-.165-1.048A7.253 7.253 0 0114 16.25zM7.618 8.569l.084.072.884.884.884-.884a.75.75 0 011.133.977l-.072.084-.884.884.884.883a.75.75 0 01-.969 1.14l-.092-.079-.884-.884-.884.884a.747.747 0 01-1.06 0 .75.75 0 01-.073-.977l.073-.084.884-.883-.884-.884a.75.75 0 01.976-1.133zm9.851.073a.75.75 0 011.061 0l.884.884.883-.884a.75.75 0 111.061 1.06l-.884.884.884.884a.75.75 0 11-1.06 1.06l-.884-.883-.884.884a.749.749 0 01-1.06 0 .75.75 0 010-1.061l.883-.884-.884-.883a.75.75 0 010-1.061z"/></symbol></svg>