<?xml version="1.0" encoding="UTF-8"?>
<svg width="76px" height="76px" viewBox="0 0 76 76" version="1.1" xmlns="http://www.w3.org/2000/svg" xmlns:xlink="http://www.w3.org/1999/xlink">
    <!-- Generator: Sketch 43.2 (39069) - http://www.bohemiancoding.com/sketch -->
    <title>basic_cal.icon</title>
    <desc>Created with Sketch.</desc>
    <defs>
        <path d="M48.75,1.0909148e-15 C58,1.0909148e-15 64,6 64,15.25 L64,48.75 C64,58 58,64 48.75,64 L15.25,64 C6,64 7.10542736e-15,58 7.10542736e-15,48.75 L7.10542736e-15,15.25 C7.10542736e-15,6 6,1.0909148e-15 15.25,1.0909148e-15 L48.75,1.0909148e-15 Z" id="path-1"></path>
        <filter x="-15.6%" y="-12.5%" width="131.2%" height="131.2%" filterUnits="objectBoundingBox" id="filter-2">
            <feOffset dx="0" dy="2" in="SourceAlpha" result="shadowOffsetOuter1"></feOffset>
            <feGaussianBlur stdDeviation="3" in="shadowOffsetOuter1" result="shadowBlurOuter1"></feGaussianBlur>
            <feColorMatrix values="0 0 0 0 0.501960784   0 0 0 0 0.556862745   0 0 0 0 0.584313725  0 0 0 0.16 0" type="matrix" in="shadowBlurOuter1"></feColorMatrix>
        </filter>
        <polygon id="path-3" points="0 17.2816392 0 34.5609756 40 34.5609756 40 17.2816392 40 0.0023027439 0 0.0023027439 0 17.2816392"></polygon>
        <linearGradient x1="50%" y1="1.53061224%" x2="50%" y2="98.4928155%" id="linearGradient-5">
            <stop stop-color="#F1F1F1" offset="0%"></stop>
            <stop stop-color="#E5E5E5" offset="100%"></stop>
        </linearGradient>
        <polygon id="path-6" points="0 38.9999207 40 38.9999207 40 0 0 0"></polygon>
    </defs>
    <g id="Page-1" stroke="none" stroke-width="1" fill="none" fill-rule="evenodd">
        <g id="utility" transform="translate(-234.000000, -2211.000000)">
            <g id="basic_cal_box" transform="translate(192.000000, 2151.000000)">
                <g id="basic_cal.icon" transform="translate(48.000000, 64.000000)">
                    <g id="bg">
                        <use fill="black" fill-opacity="1" filter="url(#filter-2)" xlink:href="#path-1"></use>
                        <use fill="#FFFFFF" fill-rule="evenodd" xlink:href="#path-1"></use>
                    </g>
                    <g id="Page-1" transform="translate(12.000000, 12.000000)">
                        <g id="Group-3" transform="translate(0.000000, 4.438945)">
                            <mask id="mask-4" fill="white">
                                <use xlink:href="#path-3"></use>
                            </mask>
                            <g id="Clip-2"></g>
                            <path d="M35.9126984,0.0023027439 L4.08730159,0.0023027439 C1.82996032,0.0023027439 0,1.85337197 0,4.13675205 L0,30.8678534 C0,33.1512737 1.82996032,35.0023027 4.08730159,35.0023027 L35.9126984,35.0023027 C38.1700794,35.0023027 40,33.1512737 40,30.8678534 L40,4.13675205 C40,1.85337197 38.1700794,0.0023027439 35.9126984,0.0023027439" id="Fill-1" fill="url(#linearGradient-5)" mask="url(#mask-4)"></path>
                        </g>
                        <path d="M40,13 L40,8.91497287 C40,6.75280557 38.1700794,5.09331319 35.9126984,5 L4.08730159,5 C1.82996032,5.09331319 0,6.75280557 0,8.91497287 L0,13 L40,13 Z" id="Fill-4" fill="#F01D2C"></path>
                        <path d="M8,2.142286 L8,5 L5,5 L5,2.142286 C5,1.51142286 5.53727593,1 6.20003,1 L6.79997,1 C7.46272407,1 8,1.51142286 8,2.142286" id="Fill-6" fill="#F01D2C"></path>
                        <path d="M35,5 L32,5 L32,2.142286 C32,1.51142286 32.5372826,1 33.200045,1 L33.799955,1 C34.4627549,1 35,1.51142286 35,2.142286 L35,5 Z" id="Fill-8" fill="#F01D2C"></path>
                        <mask id="mask-7" fill="white">
                            <use xlink:href="#path-6"></use>
                        </mask>
                        <g id="Clip-11"></g>
                        <polygon id="Fill-13" fill="#000000" mask="url(#mask-7)" points="24 22 26 22 26 20 24 20"></polygon>
                        <polygon id="Fill-13" fill="#000000" mask="url(#mask-7)" points="19 22 21 22 21 20 19 20"></polygon>
                        <polygon id="Fill-13" fill="#000000" mask="url(#mask-7)" points="14 22 16 22 16 20 14 20"></polygon>
                        <polygon id="Fill-14" fill="#000000" mask="url(#mask-7)" points="29 22 31 22 31 20 29 20"></polygon>
                        <polygon id="Fill-14" fill="#000000" mask="url(#mask-7)" points="29 27 31 27 31 25 29 25"></polygon>
                        <polygon id="Fill-14" fill="#000000" mask="url(#mask-7)" points="24 32 26 32 26 30 24 30"></polygon>
                        <polygon id="Fill-14" fill="#000000" mask="url(#mask-7)" points="19 32 21 32 21 30 19 30"></polygon>
                        <polygon id="Fill-14" fill="#000000" mask="url(#mask-7)" points="14 32 16 32 16 30 14 30"></polygon>
                        <polygon id="Fill-14" fill="#000000" mask="url(#mask-7)" points="9 32 11 32 11 30 9 30"></polygon>
                        <polygon id="Fill-14" fill="#000000" mask="url(#mask-7)" points="24 27 26 27 26 25 24 25"></polygon>
                        <polygon id="Fill-14" fill="#000000" mask="url(#mask-7)" points="19 27 21 27 21 25 19 25"></polygon>
                        <polygon id="Fill-14" fill="#000000" mask="url(#mask-7)" points="14 27 16 27 16 25 14 25"></polygon>
                        <polygon id="Fill-14" fill="#000000" mask="url(#mask-7)" points="9 27 11 27 11 25 9 25"></polygon>
                    </g>
                </g>
            </g>
        </g>
    </g>
</svg>