<?xml version="1.0" encoding="UTF-8"?>
<svg width="76px" height="76px" viewBox="0 0 76 76" version="1.1" xmlns="http://www.w3.org/2000/svg" xmlns:xlink="http://www.w3.org/1999/xlink">
    <!-- Generator: Sketch 43.2 (39069) - http://www.bohemiancoding.com/sketch -->
    <title>desktopclient.icon</title>
    <desc>Created with Sketch.</desc>
    <defs>
        <path d="M48.75,-8.51560368e-13 C58,-8.51560368e-13 64,6 64,15.25 L64,48.75 C64,58 58,64 48.75,64 L15.25,64 C6,64 1.48858703e-12,58 1.48858703e-12,48.75 L1.48858703e-12,15.25 C1.48858703e-12,6 6,-8.51560368e-13 15.25,-8.51560368e-13 L48.75,-8.51560368e-13 Z" id="path-1"></path>
        <filter x="-15.6%" y="-12.5%" width="131.2%" height="131.2%" filterUnits="objectBoundingBox" id="filter-2">
            <feOffset dx="0" dy="2" in="SourceAlpha" result="shadowOffsetOuter1"></feOffset>
            <feGaussianBlur stdDeviation="3" in="shadowOffsetOuter1" result="shadowBlurOuter1"></feGaussianBlur>
            <feColorMatrix values="0 0 0 0 0.501960784   0 0 0 0 0.556862745   0 0 0 0 0.584313725  0 0 0 0.16 0" type="matrix" in="shadowBlurOuter1"></feColorMatrix>
        </filter>
    </defs>
    <g id="Page-1" stroke="none" stroke-width="1" fill="none" fill-rule="evenodd">
        <g id="utility" transform="translate(-234.000000, -316.000000)">
            <g id="desktop_client_box" transform="translate(192.000000, 256.000000)">
                <g id="desktopclient.icon" transform="translate(48.000000, 64.000000)">
                    <g id="bg">
                        <use fill="black" fill-opacity="1" filter="url(#filter-2)" xlink:href="#path-1"></use>
                        <use fill="#FFFFFF" fill-rule="evenodd" xlink:href="#path-1"></use>
                    </g>
                    <g id="Desktopclient" transform="translate(9.593839, 9.598397)" fill-rule="nonzero">
                        <g id="Vrstva_1">
                            <g id="Group">
                                <circle id="Oval" fill="#28B0FC" cx="22.406161" cy="22.4016032" r="22"></circle>
                                <path d="M31.213913,13.4886957 L13.586087,13.4886957 C11.2973913,13.4886957 9.49565217,15.3391304 9.49565217,17.5791304 L9.49565217,23.0330435 C9.49565217,28.7304348 14.0730435,33.3078261 19.7704348,33.3078261 L25.0782609,33.3078261 C30.7756522,33.3078261 35.3530435,28.7304348 35.3530435,23.0330435 L35.3530435,17.5791304 C35.3043478,15.3391304 33.5026087,13.4886957 31.213913,13.4886957 Z M33.6973913,23.0817391 C33.6973913,24.5913043 33.3078261,26.0521739 32.626087,27.2695652 L26.9773913,23.4226087 L33.746087,18.8452174 L33.746087,23.0817391 L33.6973913,23.0817391 Z M13.586087,15.1443478 L31.213913,15.1443478 C32.333913,15.1443478 33.3078261,15.9234783 33.6,16.946087 L22.4486957,24.493913 L11.2,16.8973913 C11.5408696,15.8747826 12.466087,15.1443478 13.586087,15.1443478 Z M11.1026087,23.0817391 L11.1026087,18.7965217 L17.92,23.4226087 L12.2226087,27.2695652 C11.5408696,26.0034783 11.1026087,24.5913043 11.1026087,23.0817391 Z M25.0295652,31.7008696 L19.7217391,31.7008696 C16.8,31.7008696 14.1704348,30.24 12.6121739,27.9513043 L18.6504348,23.8608696 L22.4486957,26.4417391 L26.1982609,23.9095652 L32.1391304,27.9513043 C30.5808696,30.1913043 28,31.7008696 25.0295652,31.7008696 Z" id="Shape" fill="#FFFFFF"></path>
                            </g>
                        </g>
                    </g>
                </g>
            </g>
        </g>
    </g>
</svg>