<?xml version="1.0" encoding="UTF-8"?>
<svg width="76px" height="76px" viewBox="0 0 76 76" version="1.1" xmlns="http://www.w3.org/2000/svg" xmlns:xlink="http://www.w3.org/1999/xlink">
    <!-- Generator: Sketch 43.2 (39069) - http://www.bohemiancoding.com/sketch -->
    <title>freebusy.icon</title>
    <desc>Created with Sketch.</desc>
    <defs>
        <path d="M48.75,1.0909148e-15 C58,1.0909148e-15 64,6 64,15.25 L64,48.75 C64,58 58,64 48.75,64 L15.25,64 C6,64 7.10542736e-15,58 7.10542736e-15,48.75 L7.10542736e-15,15.25 C7.10542736e-15,6 6,1.0909148e-15 15.25,1.0909148e-15 L48.75,1.0909148e-15 Z" id="path-1"></path>
        <filter x="-15.6%" y="-12.5%" width="131.2%" height="131.2%" filterUnits="objectBoundingBox" id="filter-2">
            <feOffset dx="0" dy="2" in="SourceAlpha" result="shadowOffsetOuter1"></feOffset>
            <feGaussianBlur stdDeviation="3" in="shadowOffsetOuter1" result="shadowBlurOuter1"></feGaussianBlur>
            <feColorMatrix values="0 0 0 0 0.501960784   0 0 0 0 0.556862745   0 0 0 0 0.584313725  0 0 0 0.16 0" type="matrix" in="shadowBlurOuter1"></feColorMatrix>
        </filter>
        <linearGradient x1="-1.25364513e-05%" y1="50.000014%" x2="100%" y2="50.000014%" id="linearGradient-3">
            <stop stop-color="#333333" offset="0%"></stop>
            <stop stop-color="#373737" offset="40.695%"></stop>
            <stop stop-color="#393939" offset="48.995%"></stop>
            <stop stop-color="#424242" offset="100%"></stop>
        </linearGradient>
        <linearGradient x1="50.0000063%" y1="100%" x2="50.0000063%" y2="0%" id="linearGradient-4">
            <stop stop-color="#373737" stop-opacity="0" offset="0%"></stop>
            <stop stop-color="#363636" stop-opacity="0.1155" offset="6.434%"></stop>
            <stop stop-color="#313131" stop-opacity="0.60416" offset="39.468%"></stop>
            <stop stop-color="#2E2E2E" stop-opacity="0.89958" offset="71.171%"></stop>
            <stop stop-color="#2D2D2D" offset="99.864%"></stop>
        </linearGradient>
        <linearGradient x1="0%" y1="50.0000006%" x2="100.000002%" y2="50.0000006%" id="linearGradient-5">
            <stop stop-color="#E8E8E8" offset="0%"></stop>
            <stop stop-color="#EFEFEF" offset="44.731%"></stop>
            <stop stop-color="#FFFFFF" offset="100%"></stop>
        </linearGradient>
        <linearGradient x1="-10.9407985%" y1="85.8933004%" x2="110.940799%" y2="14.1066996%" id="linearGradient-6">
            <stop stop-color="#373737" offset="0%"></stop>
            <stop stop-color="#3E3E3E" offset="73.628%"></stop>
            <stop stop-color="#424242" offset="100%"></stop>
        </linearGradient>
        <linearGradient x1="-10.9407837%" y1="85.8933065%" x2="110.940799%" y2="14.1067024%" id="linearGradient-7">
            <stop stop-color="#424242" offset="0%"></stop>
            <stop stop-color="#393939" offset="51.005%"></stop>
            <stop stop-color="#373737" offset="59.305%"></stop>
            <stop stop-color="#333333" offset="100%"></stop>
        </linearGradient>
        <linearGradient x1="-2.08772298e-14%" y1="50.0000016%" x2="100%" y2="50.0000016%" id="linearGradient-8">
            <stop stop-color="#333333" offset="0%"></stop>
            <stop stop-color="#373737" offset="82.68%"></stop>
            <stop stop-color="#393939" offset="85.104%"></stop>
            <stop stop-color="#424242" offset="100%"></stop>
        </linearGradient>
        <linearGradient x1="37609.697%" y1="26748.343%" x2="64837.172%" y2="26748.343%" id="linearGradient-9">
            <stop stop-color="#424242" offset="0%"></stop>
            <stop stop-color="#393939" offset="51.005%"></stop>
            <stop stop-color="#373737" offset="59.305%"></stop>
            <stop stop-color="#333333" offset="100%"></stop>
        </linearGradient>
        <linearGradient x1="37609.698%" y1="62921.213%" x2="64837.17%" y2="62921.213%" id="linearGradient-10">
            <stop stop-color="#333333" offset="0%"></stop>
            <stop stop-color="#373737" offset="82.68%"></stop>
            <stop stop-color="#393939" offset="85.104%"></stop>
            <stop stop-color="#424242" offset="100%"></stop>
        </linearGradient>
        <linearGradient x1="14.62682%" y1="85.3375222%" x2="85.3731841%" y2="14.6624737%" id="linearGradient-11">
            <stop stop-color="#FFFFFF" stop-opacity="0.2" offset="0%"></stop>
            <stop stop-color="#FFFCFB" stop-opacity="0.22018" offset="0.922%"></stop>
            <stop stop-color="#FFDEDA" stop-opacity="0.40164" offset="9.997%"></stop>
            <stop stop-color="#FFC4BD" stop-opacity="0.56238" offset="19.651%"></stop>
            <stop stop-color="#FFADA5" stop-opacity="0.69785" offset="29.752%"></stop>
            <stop stop-color="#FF9B91" stop-opacity="0.80809" offset="40.414%"></stop>
            <stop stop-color="#FF8D81" stop-opacity="0.89329" offset="51.839%"></stop>
            <stop stop-color="#FF8476" stop-opacity="0.95355" offset="64.381%"></stop>
            <stop stop-color="#FF7E70" stop-opacity="0.98904" offset="78.9%"></stop>
            <stop stop-color="#FF7C6E" offset="100%"></stop>
        </linearGradient>
        <linearGradient x1="14.62682%" y1="85.3375263%" x2="85.3731841%" y2="14.6624778%" id="linearGradient-12">
            <stop stop-color="#FFFFFF" stop-opacity="0.2" offset="0%"></stop>
            <stop stop-color="#FCFEFF" stop-opacity="0.22018" offset="0.922%"></stop>
            <stop stop-color="#DFF3FF" stop-opacity="0.40164" offset="9.997%"></stop>
            <stop stop-color="#C6E9FF" stop-opacity="0.56238" offset="19.651%"></stop>
            <stop stop-color="#B1E1FF" stop-opacity="0.69785" offset="29.752%"></stop>
            <stop stop-color="#9FDAFF" stop-opacity="0.80809" offset="40.414%"></stop>
            <stop stop-color="#92D5FF" stop-opacity="0.89329" offset="51.839%"></stop>
            <stop stop-color="#88D1FF" stop-opacity="0.95355" offset="64.381%"></stop>
            <stop stop-color="#83CFFF" stop-opacity="0.98904" offset="78.9%"></stop>
            <stop stop-color="#81CEFF" offset="100%"></stop>
        </linearGradient>
        <linearGradient x1="37609.697%" y1="62520.341%" x2="64837.172%" y2="62520.341%" id="linearGradient-13">
            <stop stop-color="#424242" offset="0%"></stop>
            <stop stop-color="#393939" offset="51.005%"></stop>
            <stop stop-color="#373737" offset="59.305%"></stop>
            <stop stop-color="#333333" offset="100%"></stop>
        </linearGradient>
        <radialGradient cx="50%" cy="49.879792%" fx="50%" fy="49.879792%" r="50%" gradientTransform="translate(0.500000,0.498798),scale(1.000000,0.982463),translate(-0.500000,-0.498798)" id="radialGradient-14">
            <stop stop-color="#FFFFFF" stop-opacity="0.2" offset="0%"></stop>
            <stop stop-color="#FAFCFF" stop-opacity="0.21285" offset="26.202%"></stop>
            <stop stop-color="#ECF2FF" stop-opacity="0.25293" offset="47.835%"></stop>
            <stop stop-color="#D4E0FF" stop-opacity="0.32043" offset="67.842%"></stop>
            <stop stop-color="#B2C9FF" stop-opacity="0.4148" offset="86.761%"></stop>
            <stop stop-color="#94B3FF" stop-opacity="0.5" offset="100%"></stop>
        </radialGradient>
        <radialGradient cx="50%" cy="49.732299%" fx="50%" fy="49.732299%" r="50%" gradientTransform="translate(0.500000,0.497323),scale(1.000000,0.982463),translate(-0.500000,-0.497323)" id="radialGradient-15">
            <stop stop-color="#FFFFFF" stop-opacity="0.2" offset="0%"></stop>
            <stop stop-color="#FFF7F7" stop-opacity="0.21243" offset="26.908%"></stop>
            <stop stop-color="#FFDFDE" stop-opacity="0.2515" offset="48.355%"></stop>
            <stop stop-color="#FFB7B3" stop-opacity="0.3174" offset="67.92%"></stop>
            <stop stop-color="#FF7E78" stop-opacity="0.40957" offset="86.25%"></stop>
            <stop stop-color="#FF473E" stop-opacity="0.5" offset="100%"></stop>
        </radialGradient>
        <radialGradient cx="50%" cy="49.8727843%" fx="50%" fy="49.8727843%" r="50%" gradientTransform="translate(0.500000,0.498728),scale(1.000000,0.982463),translate(-0.500000,-0.498728)" id="radialGradient-16">
            <stop stop-color="#FFFFFF" stop-opacity="0.3" offset="0.135%"></stop>
            <stop stop-color="#FFFFFF" stop-opacity="0.28098" offset="12.748%"></stop>
            <stop stop-color="#FFFFFF" stop-opacity="0.22561" offset="27.443%"></stop>
            <stop stop-color="#FFFFFF" stop-opacity="0.13391" offset="43.174%"></stop>
            <stop stop-color="#FFFFFF" stop-opacity="0.00659" offset="59.539%"></stop>
            <stop stop-color="#FFFFFF" stop-opacity="0" offset="60.291%"></stop>
        </radialGradient>
        <radialGradient cx="52224.444%" cy="67163.74%" fx="52224.444%" fy="67163.74%" r="12812.929%" gradientTransform="translate(522.244440,671.637400),scale(1.000000,0.982463),translate(-522.244440,-671.637400)" id="radialGradient-17">
            <stop stop-color="#FFFFFF" stop-opacity="0.3" offset="0.135%"></stop>
            <stop stop-color="#FFFFFF" stop-opacity="0.28098" offset="12.748%"></stop>
            <stop stop-color="#FFFFFF" stop-opacity="0.22561" offset="27.443%"></stop>
            <stop stop-color="#FFFFFF" stop-opacity="0.13391" offset="43.174%"></stop>
            <stop stop-color="#FFFFFF" stop-opacity="0.00659" offset="59.539%"></stop>
            <stop stop-color="#FFFFFF" stop-opacity="0" offset="60.291%"></stop>
        </radialGradient>
        <linearGradient x1="50%" y1="100%" x2="50%" y2="-0.148429546%" id="linearGradient-18">
            <stop stop-color="#81CEFF" stop-opacity="0" offset="7.128%"></stop>
            <stop stop-color="#597588" stop-opacity="0.31609" offset="58.224%"></stop>
            <stop stop-color="#424242" stop-opacity="0.5" offset="100%"></stop>
        </linearGradient>
        <linearGradient x1="50%" y1="100%" x2="50%" y2="-0.148429546%" id="linearGradient-19">
            <stop stop-color="#FF7C6E" stop-opacity="0" offset="7.128%"></stop>
            <stop stop-color="#885752" stop-opacity="0.31609" offset="58.224%"></stop>
            <stop stop-color="#424242" stop-opacity="0.5" offset="100%"></stop>
        </linearGradient>
        <linearGradient x1="38.1792288%" y1="37.8668855%" x2="83.8318323%" y2="84.2337855%" id="linearGradient-20">
            <stop stop-color="#FFFFFF" stop-opacity="0" offset="7.128%"></stop>
            <stop stop-color="#FFFFFF" stop-opacity="0.17202" offset="31.171%"></stop>
            <stop stop-color="#FFFFFF" stop-opacity="0.37561" offset="62.896%"></stop>
            <stop stop-color="#FFFFFF" stop-opacity="0.5023" offset="86.828%"></stop>
            <stop stop-color="#FFFFFF" stop-opacity="0.55" offset="100%"></stop>
        </linearGradient>
        <linearGradient x1="80202.81%" y1="-3539.67%" x2="80202.81%" y2="-16009.678%" id="linearGradient-21">
            <stop stop-color="#FFFFFF" stop-opacity="0" offset="7.128%"></stop>
            <stop stop-color="#FFFFFF" stop-opacity="0.17202" offset="31.171%"></stop>
            <stop stop-color="#FFFFFF" stop-opacity="0.37561" offset="62.896%"></stop>
            <stop stop-color="#FFFFFF" stop-opacity="0.5023" offset="86.828%"></stop>
            <stop stop-color="#FFFFFF" stop-opacity="0.55" offset="100%"></stop>
        </linearGradient>
        <radialGradient cx="38939.343%" cy="29023.244%" fx="38939.343%" fy="29023.244%" r="463.159%" gradientTransform="translate(389.393430,290.232440),scale(1.000000,0.498665),translate(-389.393430,-290.232440)" id="radialGradient-22">
            <stop stop-color="#FFFFFF" stop-opacity="0.3" offset="0.135%"></stop>
            <stop stop-color="#FFFFFF" stop-opacity="0.28098" offset="12.748%"></stop>
            <stop stop-color="#FFFFFF" stop-opacity="0.22561" offset="27.443%"></stop>
            <stop stop-color="#FFFFFF" stop-opacity="0.13391" offset="43.174%"></stop>
            <stop stop-color="#FFFFFF" stop-opacity="0.00659" offset="59.539%"></stop>
            <stop stop-color="#FFFFFF" stop-opacity="0" offset="60.291%"></stop>
        </radialGradient>
        <radialGradient cx="51228.723%" cy="29209.644%" fx="51228.723%" fy="29209.644%" r="12009.644%" gradientTransform="translate(512.287230,292.096440),scale(1.000000,0.983454),translate(-512.287230,-292.096440)" id="radialGradient-23">
            <stop stop-color="#FFFFFF" stop-opacity="0.3" offset="0.135%"></stop>
            <stop stop-color="#FFFFFF" stop-opacity="0.28098" offset="12.748%"></stop>
            <stop stop-color="#FFFFFF" stop-opacity="0.22561" offset="27.443%"></stop>
            <stop stop-color="#FFFFFF" stop-opacity="0.13391" offset="43.174%"></stop>
            <stop stop-color="#FFFFFF" stop-opacity="0.00659" offset="59.539%"></stop>
            <stop stop-color="#FFFFFF" stop-opacity="0" offset="60.291%"></stop>
        </radialGradient>
        <radialGradient cx="38939.343%" cy="65103.957%" fx="38939.343%" fy="65103.957%" r="463.159%" gradientTransform="translate(389.393430,651.039570),scale(1.000000,0.498665),translate(-389.393430,-651.039570)" id="radialGradient-24">
            <stop stop-color="#FFFFFF" stop-opacity="0.3" offset="0.135%"></stop>
            <stop stop-color="#FFFFFF" stop-opacity="0.28098" offset="12.748%"></stop>
            <stop stop-color="#FFFFFF" stop-opacity="0.22561" offset="27.443%"></stop>
            <stop stop-color="#FFFFFF" stop-opacity="0.13391" offset="43.174%"></stop>
            <stop stop-color="#FFFFFF" stop-opacity="0.00659" offset="59.539%"></stop>
            <stop stop-color="#FFFFFF" stop-opacity="0" offset="60.291%"></stop>
        </radialGradient>
        <radialGradient cx="51228.723%" cy="65290.356%" fx="51228.723%" fy="65290.356%" r="12009.644%" gradientTransform="translate(512.287230,652.903560),scale(1.000000,0.983454),translate(-512.287230,-652.903560)" id="radialGradient-25">
            <stop stop-color="#FFFFFF" stop-opacity="0.3" offset="0.135%"></stop>
            <stop stop-color="#FFFFFF" stop-opacity="0.28098" offset="12.748%"></stop>
            <stop stop-color="#FFFFFF" stop-opacity="0.22561" offset="27.443%"></stop>
            <stop stop-color="#FFFFFF" stop-opacity="0.13391" offset="43.174%"></stop>
            <stop stop-color="#FFFFFF" stop-opacity="0.00659" offset="59.539%"></stop>
            <stop stop-color="#FFFFFF" stop-opacity="0" offset="60.291%"></stop>
        </radialGradient>
    </defs>
    <g id="Page-1" stroke="none" stroke-width="1" fill="none" fill-rule="evenodd">
        <g id="utility" transform="translate(-234.000000, -2499.000000)">
            <g id="freebusy_box" transform="translate(192.000000, 2439.000000)">
                <g id="freebusy.icon" transform="translate(48.000000, 64.000000)">
                    <g id="bg">
                        <use fill="black" fill-opacity="1" filter="url(#filter-2)" xlink:href="#path-1"></use>
                        <use fill="#FFFFFF" fill-rule="evenodd" xlink:href="#path-1"></use>
                    </g>
                    <g id="FreeBusy-icon-01" transform="translate(22.000000, 13.000000)" fill-rule="nonzero">
                        <g id="Group">
                            <path d="M8.92431096,31.8140236 L8.92431096,37.3931186 C8.92431228,38.2805748 9.63183436,38.9999996 10.5046069,39 L10.5046093,39 C10.9237301,39.0000003 11.3256848,38.8307043 11.6220479,38.5293551 C11.918411,38.2280059 12.084906,37.8192887 12.0849057,37.3931166 L12.0849057,31.8140216 L8.92431096,31.8140236 Z" id="Shape" fill="url(#linearGradient-3)"></path>
                            <rect id="Rectangle-path" fill="url(#linearGradient-4)" x="8.92431175" y="34.5568682" width="3.16059391" height="1.46172685"></rect>
                            <path d="M16.3404269,0 L4.66887215,0 C2.09545845,0 0.00929903774,2.03909284 0.00929903774,4.55444417 L0.00929903774,30.2450516 C0.00929903774,32.7604029 2.09545885,34.7994982 4.66887215,34.7994982 L16.3404269,34.7994982 C18.9138378,34.7994982 21,32.7604029 21,30.2450516 L21,4.55444417 C21,2.03909284 18.9138378,0 16.3404269,0 Z" id="Shape" fill="#E8E8E8"></path>
                            <path d="M16.2310411,0.125478471 L4.69626249,0.125478471 C2.153004,0.125478471 0.0912937358,2.14986855 0.0912937358,4.64707925 L0.0912937358,30.1524189 C0.0912937358,32.64963 2.15300598,34.6740197 4.69626249,34.6740197 L16.2310411,34.6740197 C18.7742952,34.6740197 20.8360098,32.6496296 20.8360098,30.1524189 L20.8360098,4.64707965 C20.8360102,2.14986855 18.7742952,0.125478471 16.2310411,0.125478471 Z" id="Shape" fill="url(#linearGradient-5)"></path>
                            <path d="M15.6257692,1.45334346 L5.3928,1.45334346 C3.1354388,1.45450245 1.30640941,3.316181 1.30754717,5.61152024 L1.30754717,29.0668672 C1.30640941,31.3622064 3.1354388,33.223885 5.3928,33.225044 L15.6257692,33.225044 C17.8831304,33.223885 19.7121597,31.3622064 19.711022,29.0668672 L19.711022,5.61152024 C19.7121597,3.316181 17.8831304,1.45450245 15.6257692,1.45334346 Z" id="Shape" fill="#333333"></path>
                            <path d="M15.625768,1.45334185 L5.39280238,1.45334185 C3.13543956,1.45449973 1.30640853,3.31617976 1.30754717,5.61152064 L1.30754717,29.0668664 C1.30640962,31.3622064 3.1354404,33.2238851 5.39280238,33.2250428 L15.625768,33.2250428 C17.8831301,33.2238853 19.7121611,31.3622066 19.7110236,29.0668664 L19.7110236,5.61152064 C19.7115704,4.50925901 19.2814679,3.45192228 18.5153339,2.67211248 C17.7491998,1.89230268 16.7097919,1.45389778 15.625768,1.45334185 L15.625768,1.45334185 Z" id="Shape" fill="url(#linearGradient-6)"></path>
                            <path d="M15.6304494,1.45041322 L5.39748142,1.45041322 C3.14011802,1.4515711 1.31108597,3.31325055 1.31222264,5.60859201 L1.31222264,29.0639402 C1.31108663,31.3592802 3.14011865,33.2209576 5.39748062,33.2221137 L15.6304494,33.2221137 C16.7144723,33.2215582 17.7538794,32.7831541 18.5200129,32.0033453 C19.2861465,31.2235364 19.7162488,30.1662008 19.7157022,29.0639402 L19.7157022,5.60859201 C19.7168402,3.31325236 17.887811,1.45157311 15.6304494,1.45041322 L15.6304494,1.45041322 Z M19.3987211,29.0639402 C19.3975029,31.1802782 17.7117685,32.896248 15.6304494,32.8997997 L5.39748142,32.8997997 C3.31616044,32.8962505 1.63042316,31.1802801 1.62920457,29.0639402 L1.62920457,5.60859201 C1.63042228,3.49225088 3.31615924,1.77627851 5.39748142,1.77272727 L15.6304494,1.77272727 C17.7117695,1.77628139 19.3975034,3.49225293 19.3987211,5.60859201 L19.3987211,29.0639402 Z" id="Shape" fill="url(#linearGradient-7)"></path>
                            <path d="M10.5092852,3.51229649 C7.53019387,3.51229649 5.11516296,5.9619304 5.11516296,8.98370681 L5.11516296,10.6365288 C5.11516296,13.6583036 7.53019387,16.1079391 10.5092852,16.1079391 C13.4883765,16.1079391 15.9034074,13.6583052 15.9034074,10.6365288 L15.9034074,8.9837064 C15.9034078,5.9619304 13.4883765,3.51229649 10.5092852,3.51229649 Z" id="Shape" fill="#333333"></path>
                            <path d="M10.509284,3.51229649 C7.53019308,3.51229649 5.11516336,5.9619296 5.11516336,8.98370479 L5.11516336,10.6365284 C5.11516336,13.6583032 7.53019268,16.1079391 10.509284,16.1079391 C13.4883753,16.1079391 15.903407,13.6583036 15.903407,10.6365284 L15.903407,8.98370479 C15.903407,5.9619296 13.4883792,3.51229649 10.509284,3.51229649 Z" id="Shape" fill="url(#linearGradient-8)"></path>
                            <ellipse id="Oval" fill="#81CEFF" cx="10.5092852" cy="10.6175304" rx="5.07682092" ry="5.16744319"></ellipse>
                            <path d="M10.5092852,3.51224693 C13.3086525,3.51224693 15.5861061,5.8303751 15.5861061,8.67973726 L15.5861061,10.6365288 C15.5808585,13.4837746 13.309426,15.7890976 10.509285,15.7890976 C7.70914399,15.7890976 5.43771146,13.4837746 5.43246385,10.6365288 L5.43246385,8.67973767 C5.43246385,5.83037551 7.70991742,3.51224733 10.5092848,3.51224733 L10.5092852,3.51224693 Z M10.5092848,3.18928221 C7.53019347,3.18928221 5.11516257,5.6579661 5.11516257,8.67973767 L5.11516257,10.6365288 C5.11516257,13.6583036 7.53019387,16.1079367 10.5092848,16.1079367 C13.4883757,16.1079367 15.9034078,13.6583028 15.9034078,10.6365288 L15.9034078,8.67973767 C15.9034078,5.65796287 13.4883765,3.18928221 10.5092856,3.18928221 L10.5092848,3.18928221 Z" id="Shape" fill="url(#linearGradient-9)"></path>
                            <path d="M10.5092852,17.9245692 C7.53019387,17.9245692 5.11516296,20.3742031 5.11516296,23.3959795 L5.11516296,25.0488015 C5.11516296,28.0705763 7.53019387,30.5202119 10.5092852,30.5202119 C13.4883765,30.5202119 15.9034078,28.0705763 15.9034078,25.0487999 L15.9034078,23.3959783 C15.9034078,20.3742019 13.4883765,17.9245692 10.5092852,17.9245692 Z" id="Shape" fill="#333333"></path>
                            <path d="M10.509284,17.9245692 C7.53019308,17.9245692 5.11516336,20.3742023 5.11516336,23.3959775 L5.11516336,25.0488011 C5.11516336,28.0705759 7.53019268,30.5202119 10.509284,30.5202119 C13.4883753,30.5202119 15.903407,28.0705751 15.903407,25.0487999 L15.903407,23.3959763 C15.903407,20.3742011 13.4883792,17.9245692 10.509284,17.9245692 Z" id="Shape" fill="url(#linearGradient-10)"></path>
                            <ellipse id="Oval" fill="#FF7C6E" cx="10.5092852" cy="25.0298023" rx="5.07682092" ry="5.16744319"></ellipse>
                            <ellipse id="Oval" fill="url(#linearGradient-11)" cx="10.5092852" cy="25.0298023" rx="4.83884496" ry="4.92521895"></ellipse>
                            <ellipse id="Oval" fill="url(#linearGradient-12)" cx="10.5092852" cy="10.6174805" rx="4.83884496" ry="4.92521895"></ellipse>
                            <path d="M10.5092852,17.9245189 C13.3086525,17.9245189 15.5861061,20.242647 15.5861061,23.0920092 L15.5861061,25.0488003 C15.5808585,27.8960461 13.309426,30.2013691 10.509285,30.2013691 C7.70914399,30.2013691 5.43771146,27.8960461 5.43246385,25.0488003 L5.43246385,23.0920092 C5.43246385,20.242647 7.70991742,17.9245189 10.5092848,17.9245189 L10.5092852,17.9245189 Z M10.5092848,17.6015537 C7.53019347,17.6015537 5.11516257,20.0702376 5.11516257,23.0920092 L5.11516257,25.0488003 C5.11516257,28.0705751 7.53019387,30.5202082 10.5092848,30.5202082 C13.4883757,30.5202082 15.903407,28.0705743 15.903407,25.0488003 L15.903407,23.0920092 C15.903407,20.0702344 13.4883757,17.6015537 10.5092848,17.6015537 Z" id="Shape" fill="url(#linearGradient-13)"></path>
                            <ellipse id="Oval" fill="url(#radialGradient-14)" cx="10.5092852" cy="10.6174805" rx="4.83884496" ry="4.92521895"></ellipse>
                            <ellipse id="Oval" fill="url(#radialGradient-15)" cx="10.5092852" cy="25.0298023" rx="4.83884496" ry="4.92521895"></ellipse>
                            <ellipse id="Oval" fill="url(#radialGradient-16)" cx="10.9059118" cy="11.9131765" rx="5.07682092" ry="5.16744319"></ellipse>
                            <ellipse id="Oval" fill="url(#radialGradient-17)" cx="10.9059118" cy="25.9583271" rx="5.07682092" ry="5.16744319"></ellipse>
                            <path d="M10.5092852,7.38782882 C12.9472043,7.38903838 15.0404662,9.15124479 15.4966184,11.5864008 C15.8785467,9.54550027 15.0200634,7.47066367 13.3181103,6.32124525 C11.6161571,5.17182683 9.4024132,5.17182683 7.70046008,6.32124525 C5.99850696,7.47066367 5.14002362,9.54550027 5.52195198,11.5864008 C5.97810487,9.15124522 8.07136627,7.38903918 10.5092852,7.38782882 Z" id="Shape" fill="url(#linearGradient-18)"></path>
                            <path d="M10.5092852,21.8001011 C12.9472043,21.8013107 15.0404662,23.5635171 15.4966184,25.9986731 C15.8785467,23.9577726 15.0200634,21.882936 13.3181103,20.7335176 C11.6161571,19.5840992 9.4024132,19.5840992 7.70046008,20.7335176 C5.99850696,21.882936 5.14002362,23.9577726 5.52195198,25.9986731 C5.97810487,23.5635175 8.07136627,21.8013115 10.5092852,21.8001011 Z" id="Shape" fill="url(#linearGradient-19)"></path>
                            <g transform="translate(7.449057, 7.372934)" id="Shape">
                                <path d="M5.43526517,5.38769408 C4.01482067,6.81360118 1.79841818,7.01227934 0.154541377,5.86105779 C1.08721161,7.27310291 2.76146154,7.97905221 4.40315853,7.65249182 C6.04485552,7.32593144 7.33406341,6.0305019 7.67468367,4.36517847 C8.01530394,2.69985504 7.34095604,0.989178234 5.96344211,0.024123595 C7.07602394,1.70920368 6.85433985,3.96037777 5.43526517,5.38769408 Z" fill="url(#linearGradient-20)"></path>
                                <path d="M5.31639725,19.8918263 C3.89595274,21.3177334 1.67955026,21.5164116 0.0356734528,20.36519 C0.968343686,21.7772351 2.64259362,22.4831844 4.28429061,22.1566241 C5.9259876,21.8300637 7.21519548,20.5346341 7.55581575,18.8693107 C7.89643601,17.2039873 7.22208811,15.4933105 5.84457419,14.5282558 C6.95715602,16.2133359 6.73547193,18.46451 5.31639725,19.8918263 Z" fill="url(#linearGradient-21)"></path>
                            </g>
                        </g>
                        <g id="Group" transform="translate(5.507547, 5.801653)" fill="url(#radialGradient-23)">
                            <path d="M9.36301681,4.81575707 L9.75556625,5.21491079 C9.75787625,5.18459836 9.76061457,5.15441687 9.76237183,5.12395215 L9.41114643,4.76681771 L9.75274908,4.41946791 C9.75022274,4.38934968 9.74846983,4.3590159 9.7454074,4.32905439 L9.36301681,4.71787835 L8.62830804,3.97080877 L9.46350142,3.12156403 C9.45473451,3.09801093 9.44539862,3.0747455 9.43628066,3.05136564 L8.58018,3.92186941 L7.84547123,3.17479983 L8.92368809,2.07844215 C8.91056706,2.05920685 8.89707238,2.04026727 8.88368547,2.02123906 L7.79733962,3.12586048 L7.06263085,2.3787909 L8.19044972,1.23199751 C8.17353521,1.21653933 8.15600179,1.20178057 8.13887134,1.18656452 L7.01449964,2.32985275 L6.27979245,1.58278237 L7.27283292,0.573034091 C7.25190068,0.561504917 7.23029564,0.55110344 7.20917677,0.539882479 L6.23166362,1.53384139 L5.49695485,0.786771818 L6.14242075,0.130447345 C6.11647783,0.123991798 6.090315,0.118115207 6.06421002,0.112095186 L5.44882642,0.73783407 L4.72319915,0 C4.68172138,0.00247577479 4.64054275,0.00603291322 4.59935581,0.00957756198 L3.88314883,0.73783407 L3.41997957,0.266872407 C3.39625947,0.275385124 3.37239277,0.283543295 3.34885296,0.292427882 L3.83501921,0.78677343 L3.10031043,1.53384301 L2.37530762,0.796642686 C2.35602923,0.809650475 2.33677143,0.822650207 2.31769234,0.8359372 L3.05218081,1.58278277 L2.31747204,2.32985235 L1.5275083,1.52659739 C1.51199842,1.54344998 1.4957987,1.55962652 1.48052536,1.57670272 L2.26934242,2.3787909 L1.53463364,3.12586048 L0.863398358,2.44333227 C0.851769113,2.46410541 0.839585151,2.48451071 0.828253075,2.50547402 L1.48650402,3.17479943 L0.751795245,3.92186901 L0.406461736,3.57072558 C0.399639509,3.5964414 0.392518132,3.62201823 0.386098868,3.64789884 L0.703665623,3.97080837 L0.259750189,4.42219308 C0.256818113,4.45742321 0.254016396,4.49269122 0.25182566,4.52812844 L0.751794057,4.01974853 L1.48650283,4.76681811 L0.751794057,5.51388769 L0.245294264,4.9988665 C0.246395377,5.03259666 0.246769415,5.06650048 0.248543321,5.10004894 L0.703664434,5.56282705 L0.360571981,5.91169171 C0.366492792,5.93823589 0.372272151,5.96483888 0.378620491,5.99121827 L0.751795642,5.61176479 L1.48650442,6.35883437 L0.781282415,7.07592149 C0.792317717,7.09739566 0.802546698,7.11936459 0.813885509,7.1406486 L1.53463404,6.40777413 L2.26934281,7.15484371 L1.41726226,8.02125852 C1.43222813,8.03867718 1.44674151,8.05650558 1.46194353,8.07370466 L2.31747085,7.20378387 L3.05217962,7.95085345 L2.23812611,8.77860267 C2.25683949,8.79221479 2.2754657,8.80593691 2.29438274,8.8192783 L3.10031043,7.99979442 L3.83501921,8.746864 L3.25121009,9.34049517 C3.27420311,9.34976854 3.2970836,9.3592615 3.320247,9.36817388 L3.88314883,8.79580175 L4.6178576,9.54287132 L4.50775857,9.65482268 C4.53722474,9.65793623 4.56705662,9.65971903 4.59667613,9.66228787 L4.66598723,9.59181068 L4.74670726,9.67388876 C4.77970104,9.67569291 4.81304349,9.67607284 4.84621557,9.67719248 L4.71411645,9.54287092 L5.44882642,8.79580134 L6.17483208,9.53402138 C6.20028447,9.52749452 6.22543811,9.52025293 6.25072845,9.51331593 L5.49695485,8.74686198 L6.23166362,7.99979442 L7.29835228,9.08442914 C7.31896874,9.072904 7.33903642,9.06051707 7.35946585,9.04869257 L6.27979245,7.95085305 L7.01450123,7.20378347 L8.2117564,8.42117975 C8.22855045,8.40564945 8.24445894,8.38917719 8.2610327,8.37340636 L7.06263125,7.15484411 L7.79733962,6.40777494 L8.94026542,7.56992941 C8.95333257,7.55052933 8.96611681,7.53094754 8.97890977,7.5113448 L7.84546964,6.35883558 L8.58017842,5.611766 L9.47478198,6.52142045 C9.48351957,6.497483 9.49154236,6.47321597 9.49991462,6.44909721 L8.62830804,5.56282664 L9.36301681,4.81575707 Z M8.53205077,3.97081079 L7.79733962,4.71787835 L7.06263085,3.97080877 L7.79733962,3.2237396 L8.53205077,3.97081079 Z M4.61785919,4.76681972 L3.88315042,5.5138893 L3.14844164,4.76681972 L3.88315042,4.01975014 L4.61785919,4.76681972 Z M3.93127925,3.97080877 L4.66598802,3.22373919 L5.40069679,3.97080877 L4.66598802,4.71787835 L3.93127925,3.97080877 Z M4.66598802,4.81575505 L5.40069679,5.56282463 L4.66598802,6.3098942 L3.93127925,5.56282664 L4.66598802,4.81575505 Z M4.71411764,4.76681569 L5.44882642,4.01974813 L6.18353519,4.76681771 L5.44882642,5.51388728 L4.71411764,4.76681569 Z M5.49695604,3.97080676 L6.23166481,3.22373718 L6.96637358,3.97080877 L6.23166481,4.71787835 L5.49695604,3.97080676 Z M5.44882642,3.9218674 L4.71411764,3.17479782 L5.44882642,2.42773066 L6.18353519,3.17480024 L5.44882642,3.9218674 Z M4.66598802,3.12585846 L3.93127925,2.3787913 L4.66598802,1.63172173 L5.40069679,2.3787913 L4.66598802,3.12585846 Z M4.6178584,3.17479782 L3.88314962,3.9218674 L3.14844085,3.17479782 L3.88314962,2.42772824 L4.6178584,3.17479782 Z M3.83502,3.97080676 L3.10031123,4.71787633 L2.36560245,3.97080676 L3.10031123,3.22373718 L3.83502,3.97080676 Z M3.0521816,4.76681569 L2.31747283,5.51388527 L1.58276406,4.76681569 L2.31747283,4.01974612 L3.0521816,4.76681569 Z M3.10031123,4.81575505 L3.83502,5.56282463 L3.10031123,6.3098942 L2.36560245,5.56282463 L3.10031123,4.81575505 Z M3.88314962,5.61176399 L4.6178584,6.35883356 L3.88314843,7.10590475 L3.14843966,6.35883518 L3.88314962,5.61176399 Z M4.66598802,6.40777292 L5.40069679,7.1548425 L4.66598802,7.90191208 L3.93127925,7.15484411 L4.66598802,6.40777292 Z M4.71411764,6.35883356 L5.44882642,5.611766 L6.18353519,6.35883558 L5.44882642,7.10590475 L4.71411764,6.35883356 Z M5.49695604,5.56282463 L6.23166481,4.81575505 L6.96637358,5.56282664 L6.23166481,6.30989622 L5.49695604,5.56282463 Z M6.27979245,4.76681771 L7.01450123,4.01974813 L7.74921,4.76681771 L7.01450123,5.51388728 L6.27979245,4.76681771 Z M7.7492096,3.17480024 L7.01450083,3.92186981 L6.27979245,3.17480024 L7.01450123,2.42773066 L7.7492096,3.17480024 Z M6.96637358,2.3787913 L6.23166481,3.12586088 L5.49695604,2.3787913 L6.23166481,1.63172173 L6.96637358,2.3787913 Z M6.18353519,1.58278237 L5.44882642,2.32985194 L4.71411764,1.58278237 L5.44882642,0.835712789 L6.18353519,1.58278237 Z M4.66598802,0.0397038533 L5.40069679,0.78677343 L4.66598802,1.53384301 L3.93127925,0.78677343 L4.66598802,0.0397038533 Z M3.88314962,0.835712789 L4.6178584,1.58278237 L3.88314962,2.32985194 L3.14844085,1.58278237 L3.88314962,0.835712789 Z M3.10031123,1.63172173 L3.83502,2.3787913 L3.10031123,3.12586088 L2.36560245,2.3787913 L3.10031123,1.63172173 Z M2.31747283,2.42773066 L3.0521816,3.17480024 L2.31747283,3.92186981 L1.58276406,3.17480024 L2.31747283,2.42773066 Z M0.79992566,3.97080917 L1.53463443,3.2237396 L2.26934321,3.97080917 L1.53463443,4.71787875 L0.79992566,3.97080917 Z M0.79992566,5.56282664 L1.53463443,4.81575707 L2.26934321,5.56282664 L1.53463443,6.30989622 L0.79992566,5.56282664 Z M1.58276406,6.35883558 L2.31747283,5.611766 L3.0521816,6.35883558 L2.31747204,7.10590475 L1.58276406,6.35883558 Z M2.36560245,7.15484451 L3.10031123,6.40777494 L3.83502,7.15484451 L3.10031123,7.90191409 L2.36560245,7.15484451 Z M3.14844085,7.95085345 L3.88314962,7.20378387 L4.6178584,7.95085345 L3.88314843,8.69792262 L3.14844085,7.95085345 Z M4.66598802,9.49393196 L3.93127925,8.74686198 L4.66598683,7.99979442 L5.4006956,8.746864 L4.66598802,9.49393196 Z M5.44882642,8.69792262 L4.71411764,7.95085305 L5.44882642,7.20378347 L6.18353519,7.95085305 L5.44882642,8.69792262 Z M6.23166481,7.90191369 L5.49695485,7.15484411 L6.23166362,6.40777454 L6.96637358,7.15484411 L6.23166481,7.90191369 Z M7.01450321,7.10590475 L6.27979245,6.35883518 L7.01450123,5.6117656 L7.74921,6.35883518 L7.01450321,7.10590475 Z M7.79733962,6.30989582 L7.06263085,5.56282624 L7.79733962,4.81575707 L8.5320484,5.56282664 L7.79733962,6.30989582 Z M7.84546925,4.7668173 L8.58017802,4.01974773 L9.31488679,4.76681771 L8.58017802,5.51388728 L7.84546925,4.7668173 Z" id="Shape"></path>
                        </g>
                        <g id="Group" transform="translate(5.507547, 20.305785)" fill="url(#radialGradient-25)">
                            <path d="M9.36301681,4.84827573 L9.75556625,5.24742945 C9.75787625,5.21711702 9.76061457,5.18693554 9.76237183,5.15647082 L9.41114643,4.79933637 L9.75274908,4.45198658 C9.75022274,4.42186835 9.74846983,4.39153457 9.7454074,4.36157306 L9.36301681,4.75039701 L8.62830804,4.00332744 L9.46350142,3.15408471 C9.45473451,3.13053161 9.44539862,3.10726618 9.43628066,3.08388632 L8.58018,3.95439009 L7.84547123,3.20732052 L8.92368968,2.11096202 C8.91056864,2.09172673 8.89707396,2.07278715 8.88368706,2.05375894 L7.79733962,3.15837914 L7.06263085,2.41130957 L8.19044972,1.26451618 C8.17353521,1.249058 8.15600179,1.23429924 8.13887134,1.21908319 L7.01449964,2.36237142 L6.27979245,1.61530103 L7.27283253,0.605553967 C7.25190028,0.594024793 7.23029525,0.583623316 7.20917638,0.572402355 L6.23166362,1.56636167 L5.49695485,0.819292097 L6.14242075,0.162966012 C6.11647783,0.156510465 6.090315,0.150633874 6.06421002,0.144613853 L5.44882642,0.770352738 L4.72320034,0.0325186674 C4.68172257,0.0349944421 4.64054394,0.0385515806 4.599357,0.0420962293 L3.88315002,0.770352738 L3.41997957,0.299389463 C3.39625947,0.30790218 3.37239277,0.316060351 3.34885296,0.324944938 L3.83501921,0.819290486 L3.10031043,1.56636167 L2.37530762,0.829161353 C2.35602923,0.842169143 2.33677143,0.855168874 2.31769234,0.868455868 L3.05218081,1.61530144 L2.31747204,2.36237101 L1.5275083,1.55911605 C1.51199842,1.57596865 1.4957987,1.59214519 1.48052536,1.60922138 L2.26934242,2.41130957 L1.53463364,3.15837914 L0.863398358,2.47585094 C0.851769113,2.49662408 0.839585151,2.51702938 0.828253075,2.53799269 L1.48650402,3.2073181 L0.751795245,3.95438768 L0.406461736,3.60324425 C0.399639509,3.62896007 0.392518132,3.6545369 0.386098868,3.68041751 L0.703665623,4.00332704 L0.259750189,4.45471134 C0.256818113,4.48994148 0.254016396,4.52520948 0.25182566,4.5606467 L0.751794057,4.0522668 L1.48650402,4.79933678 L0.751795245,5.54640635 L0.245295453,5.03138517 C0.246396566,5.06511533 0.246770604,5.09901914 0.248544509,5.1325676 L0.703665623,5.59534571 L0.36057317,5.94421038 C0.366493981,5.97075456 0.37227334,5.99735755 0.378621679,6.02373694 L0.75179683,5.64428346 L1.4865056,6.39135304 L0.781284,7.10843935 C0.792319302,7.12991352 0.802548283,7.15188245 0.813887094,7.17316646 L1.53463562,6.44029199 L2.26934242,7.18736157 L1.41726226,8.05377679 C1.43222813,8.07119544 1.44674151,8.08902384 1.46194353,8.10622292 L2.31747085,7.23630214 L3.05217962,7.98337171 L2.23812611,8.81112093 C2.25683949,8.82473306 2.2754657,8.83845518 2.29438274,8.85179656 L3.10030964,8.03231067 L3.83501842,8.77938025 L3.2512097,9.37301343 C3.27420272,9.38228681 3.29708321,9.39177976 3.3202466,9.40069215 L3.88314843,8.82832001 L4.61785721,9.57538959 L4.50775817,9.68734094 C4.53722434,9.69045449 4.56705623,9.69223729 4.59667574,9.69480614 L4.66598683,9.62432895 L4.74670687,9.70640702 C4.77970064,9.70821118 4.81304309,9.70859111 4.84621517,9.70971074 L4.71411606,9.57538918 L5.44882642,8.82832001 L6.17483208,9.56654005 C6.20028447,9.56001319 6.22543811,9.5527716 6.25072845,9.5458346 L5.49695723,8.77938186 L6.231666,8.03231228 L7.29835466,9.116947 C7.31897111,9.10542186 7.33903879,9.09303493 7.35946823,9.08121043 L6.27979245,7.98337171 L7.01450123,7.23630214 L8.2117556,8.45369923 C8.22854966,8.43816893 8.24445815,8.42169666 8.26103191,8.40592584 L7.06263125,7.18736157 L7.79733962,6.4402932 L8.94026542,7.60244768 C8.95333257,7.58304759 8.96611681,7.56346581 8.97890977,7.54386307 L7.84546964,6.39135384 L8.58017842,5.64428306 L9.47478198,6.55393751 C9.48351957,6.53000005 9.49154236,6.50573303 9.49991462,6.48161427 L8.62830804,5.5953437 L9.36301681,4.84827573 Z M8.53205077,4.00332945 L7.79733962,4.75039701 L7.06263085,4.00332744 L7.79733962,3.25625826 L8.53205077,4.00332945 Z M4.61785721,4.79933678 L3.88314843,5.54640635 L3.14844006,4.79933678 L3.88314883,4.0522672 L4.61785721,4.79933678 Z M3.93127925,4.00332744 L4.66598683,3.25625826 L5.4006956,4.00332784 L4.66598683,4.75039742 L3.93127925,4.00332744 Z M4.66598802,4.84827372 L5.40069679,5.5953433 L4.66598683,6.34241529 L3.93127925,5.59534531 L4.66598802,4.84827372 Z M4.71411764,4.79933436 L5.44882642,4.0522668 L6.1835336,4.79933678 L5.44882642,5.54640595 L4.71411764,4.79933436 Z M5.49695604,4.00332542 L6.23166362,3.25625826 L6.96637358,4.00332744 L6.23166481,4.75039701 L5.49695604,4.00332542 Z M5.44882642,3.95438606 L4.71411764,3.20731649 L5.44882642,2.46024933 L6.18353519,3.2073189 L5.44882642,3.95438606 Z M4.66598802,3.15837713 L3.93127925,2.41130997 L4.66598802,1.66424039 L5.40069679,2.41130997 L4.66598802,3.15837713 Z M4.6178584,3.20731649 L3.88314962,3.95438606 L3.14844085,3.20731649 L3.88314962,2.46024691 L4.6178584,3.20731649 Z M3.83502,4.00332542 L3.10031123,4.750395 L2.36560245,4.00332542 L3.10031043,3.25625826 L3.83502,4.00332542 Z M3.05218042,4.79933678 L2.31747164,5.54640635 L1.58276326,4.79933678 L2.31747204,4.0522672 L3.05218042,4.79933678 Z M3.10031004,4.84827614 L3.83501881,5.59534571 L3.10031043,6.34241529 L2.36560166,5.59534571 L3.10031004,4.84827614 Z M3.88314843,5.64428306 L4.61785721,6.39135263 L3.88314843,7.13842221 L3.14843966,6.39135263 L3.88314843,5.64428306 Z M4.66598683,6.44029199 L5.4006956,7.18736157 L4.66598683,7.93443115 L3.93127925,7.18736157 L4.66598683,6.44029199 Z M4.71411645,6.39135263 L5.44882642,5.64428306 L6.18353519,6.39135263 L5.44882642,7.13842342 L4.71411645,6.39135263 Z M5.49695485,5.5953437 L6.23166362,4.84827412 L6.96637358,5.59534531 L6.23166362,6.34241529 L5.49695485,5.5953437 Z M6.27979245,4.79933678 L7.01450123,4.0522672 L7.7492104,4.79933678 L7.01450162,5.54640635 L6.27979245,4.79933678 Z M7.7492096,3.20731931 L7.01450083,3.95438888 L6.27979245,3.2073185 L7.01450123,2.46024893 L7.7492096,3.20731931 Z M6.96637358,2.41130997 L6.23166481,3.15837955 L5.49695604,2.41130997 L6.23166481,1.66424039 L6.96637358,2.41130997 Z M6.1835336,1.61530103 L5.44882642,2.36237061 L4.71411645,1.61530103 L5.44882642,0.868233471 L6.1835336,1.61530103 Z M4.66598643,0.0722225207 L5.40069521,0.819292097 L4.66598683,1.56636167 L3.93127925,0.819292097 L4.66598643,0.0722225207 Z M3.88314843,0.868233471 L4.61785721,1.61530305 L3.88314843,2.36237262 L3.14844006,1.61530103 L3.88314843,0.868233471 Z M3.10031043,1.66424039 L3.83501921,2.41130997 L3.10031043,3.15837955 L2.36560166,2.41130997 L3.10031043,1.66424039 Z M2.31747204,2.46024933 L3.05218081,3.2073189 L2.31747204,3.95438848 L1.58276326,3.2073189 L2.31747204,2.46024933 Z M0.799924868,4.00332784 L1.53463364,3.25625826 L2.26934242,4.00332784 L1.53463364,4.75039742 L0.799924868,4.00332784 Z M0.799924868,5.59534531 L1.53463364,4.84827573 L2.26934242,5.59534531 L1.53463364,6.34241529 L0.799924868,5.59534531 Z M1.58276326,6.39135425 L2.31747204,5.64428306 L3.05218081,6.39135263 L2.31747204,7.13842221 L1.58276326,6.39135425 Z M2.36560166,7.18736157 L3.10031043,6.44029199 L3.83501881,7.18736157 L3.10031004,7.93443115 L2.36560166,7.18736157 Z M3.14844006,7.98337051 L3.88314883,7.23630093 L4.6178576,7.98337051 L3.88314843,8.73044008 L3.14844006,7.98337051 Z M4.66598723,9.52644902 L3.93127925,8.77938065 L4.66598802,8.03231107 L5.40069679,8.77938065 L4.66598723,9.52644902 Z M5.44882642,8.73044008 L4.71411764,7.98337051 L5.44882642,7.23630214 L6.18353519,7.98337171 L5.44882642,8.73044008 Z M6.23166481,7.93443115 L5.49695485,7.18736157 L6.23166362,6.44029199 L6.96637358,7.18736157 L6.23166481,7.93443115 Z M7.01450321,7.13842221 L6.27979245,6.39135384 L7.01450162,5.64428306 L7.7492104,6.39135263 L7.01450321,7.13842221 Z M7.79733962,6.34241529 L7.06263085,5.59534571 L7.79733962,4.84827573 L8.5320484,5.59534531 L7.79733962,6.34241529 Z M7.84546925,4.79933678 L8.58017802,4.0522672 L9.31488679,4.79933678 L8.58017802,5.54640635 L7.84546925,4.79933678 Z" id="Shape"></path>
                        </g>
                    </g>
                </g>
            </g>
        </g>
    </g>
</svg>