<?xml version="1.0" encoding="UTF-8"?>
<svg width="76px" height="76px" viewBox="0 0 76 76" version="1.1" xmlns="http://www.w3.org/2000/svg" xmlns:xlink="http://www.w3.org/1999/xlink">
    <!-- Generator: Sketch 43.2 (39069) - http://www.bohemiancoding.com/sketch -->
    <title>inet_calendar.icon</title>
    <desc>Created with Sketch.</desc>
    <defs>
        <path d="M48.75,1.0909148e-15 C58,1.0909148e-15 64,6 64,15.25 L64,48.75 C64,58 58,64 48.75,64 L15.25,64 C6,64 7.10542736e-15,58 7.10542736e-15,48.75 L7.10542736e-15,15.25 C7.10542736e-15,6 6,1.0909148e-15 15.25,1.0909148e-15 L48.75,1.0909148e-15 Z" id="path-1"></path>
        <filter x="-15.6%" y="-12.5%" width="131.2%" height="131.2%" filterUnits="objectBoundingBox" id="filter-2">
            <feOffset dx="0" dy="2" in="SourceAlpha" result="shadowOffsetOuter1"></feOffset>
            <feGaussianBlur stdDeviation="3" in="shadowOffsetOuter1" result="shadowBlurOuter1"></feGaussianBlur>
            <feColorMatrix values="0 0 0 0 0.501960784   0 0 0 0 0.556862745   0 0 0 0 0.584313725  0 0 0 0.16 0" type="matrix" in="shadowBlurOuter1"></feColorMatrix>
        </filter>
        <polygon id="path-3" points="0 18.5011502 0 37 40 37 40 18.5011502 40 0.00230040609 0 0.00230040609 0 18.5011502"></polygon>
        <linearGradient x1="50%" y1="1.01444955%" x2="50%" y2="99.4160555%" id="linearGradient-5">
            <stop stop-color="#F1F1F1" offset="0%"></stop>
            <stop stop-color="#E5E5E5" offset="100%"></stop>
        </linearGradient>
    </defs>
    <g id="Page-1" stroke="none" stroke-width="1" fill="none" fill-rule="evenodd">
        <g id="utility" transform="translate(-234.000000, -1923.000000)">
            <g id="internet_calendar_box" transform="translate(192.000000, 1863.000000)">
                <g id="inet_calendar.icon" transform="translate(48.000000, 64.000000)">
                    <g id="bg">
                        <use fill="black" fill-opacity="1" filter="url(#filter-2)" xlink:href="#path-1"></use>
                        <use fill="#FFFFFF" fill-rule="evenodd" xlink:href="#path-1"></use>
                    </g>
                    <g id="Page-1" transform="translate(12.000000, 11.000000)">
                        <g id="Group-10" transform="translate(0.000000, 0.039515)">
                            <g id="Group-3" transform="translate(0.000000, 5.434518)">
                                <mask id="mask-4" fill="white">
                                    <use xlink:href="#path-3"></use>
                                </mask>
                                <g id="Clip-2"></g>
                                <path d="M35.9126984,0.00230040609 L4.08730159,0.00230040609 C1.82996032,0.00230040609 0,1.85336963 0,4.13674972 L0,30.8678511 C0,33.1512713 1.82996032,35.0023004 4.08730159,35.0023004 L35.9126984,35.0023004 C38.1700794,35.0023004 40,33.1512713 40,30.8678511 L40,4.13674972 C40,1.85336963 38.1700794,0.00230040609 35.9126984,0.00230040609" id="Fill-1" fill="url(#linearGradient-5)" mask="url(#mask-4)"></path>
                            </g>
                            <path d="M40,12.9604853 L40,8.87545815 C40,6.71329085 38.1700794,5.05379847 35.9126984,4.96048528 L4.08730159,4.96048528 C1.82996032,5.05379847 0,6.71329085 0,8.87545815 L0,12.9604853 L40,12.9604853 Z" id="Fill-4" fill="#F01D2C"></path>
                            <path d="M8,2.10277128 L8,4.96048528 L5,4.96048528 L5,2.10277128 C5,1.47190814 5.53727593,0.960485279 6.20003,0.960485279 L6.79997,0.960485279 C7.46272407,0.960485279 8,1.47190814 8,2.10277128" id="Fill-6" fill="#F01D2C"></path>
                            <path d="M35,2.10277128 L35,4.96048528 L32,4.96048528 L32,2.10277128 C32,1.47190814 32.5372826,0.960485279 33.200045,0.960485279 L33.799955,0.960485279 C34.4627549,0.960485279 35,1.47190814 35,2.10277128" id="Fill-8" fill="#F01D2C"></path>
                        </g>
                        <g id="Group-15" transform="translate(10.825397, 16.183677)">
                            <circle id="Oval-2" stroke="#000000" stroke-width="1.2" cx="9.17460317" cy="9.81632284" r="9"></circle>
                            <path d="M9.19976907,17.8037172 C9.19789629,17.8058504 9.1964389,17.8058148 9.19533482,17.8057941 C9.19888284,17.804041 9.19905285,17.8039789 9.19976907,17.8037172 Z M8.60172745,17.3542087 C8.26283295,16.9642278 8.19471947,16.4201784 8.24452015,15.3145892 C8.27255678,14.5248359 8.25998567,14.1775604 8.15842395,13.8317172 C8.07959908,13.5512384 7.94469515,13.347658 7.70060317,13.0958726 C7.66277309,13.0568502 7.62580797,13.0198488 7.55255907,12.9468893 C7.26590708,12.6709837 7.14702896,12.5301711 7.04782541,12.2938355 C6.9268307,12.0099105 6.88935157,11.6953264 6.88935157,11.2159449 C6.88935157,10.827457 6.88042811,10.6598892 6.83675375,10.4546905 C6.75818196,10.0535285 6.5918081,9.85620334 6.26503848,9.68300576 C6.21694147,9.65751292 6.18538277,9.64199178 6.08582494,9.59407651 C5.87090396,9.49428828 5.77562025,9.4445956 5.67892464,9.37380809 C5.51067171,9.27255109 5.38623154,9.16551536 5.12261653,8.91111453 C5.01335381,8.79277541 4.88775668,8.6769136 4.7692664,8.58519603 C4.60343597,8.4617027 4.46009295,8.3877818 4.27942884,8.32419693 C4.23260963,8.30771887 4.18523152,8.2924079 4.11451488,8.27054846 C4.07073943,8.25706586 4.07073943,8.25706586 3.9848171,8.22601656 C3.93295168,8.21952368 3.89925784,8.21176556 3.8611636,8.19804046 C3.41090124,8.05182498 3.23915025,7.76816251 3.04744006,7.01539431 C2.81091682,6.14007415 2.72545193,5.45612366 2.76832323,4.76695919 C2.76555631,4.79093334 2.7487629,4.7754713 2.68890728,4.76735543 C2.66735111,4.76444302 2.66500051,4.76651543 2.66329611,4.77815111 C2.61583699,5.49794699 2.72265308,6.23062594 2.94322454,7.02699969 C3.01726724,7.28760267 3.02391386,7.31031556 3.05798066,7.41179612 C3.2250697,7.90953264 3.44381715,8.18108882 3.87304575,8.30096565 C3.88189144,8.30415699 3.89296957,8.30665417 3.92467761,8.31237104 C3.98003777,8.32235231 4.00765347,8.32857435 4.025888,8.33633191 C4.35079409,8.41756833 4.49113571,8.47757165 4.68989374,8.63602226 C4.78442466,8.69453992 4.86137797,8.75921247 4.97945891,8.87083121 C5.03830202,8.92677307 5.0644619,8.95145405 5.09143269,8.97581806 C5.28427381,9.16126189 5.46422351,9.31229695 5.6358627,9.43114941 C5.80334943,9.5319453 5.95115772,9.61197844 6.08034949,9.6719364 C6.51921165,9.87989569 6.67070952,10.0257594 6.75703496,10.4251018 C6.81522925,10.6352822 6.82564539,10.8007811 6.82564539,11.1949422 C6.82564539,11.7117068 6.86507609,12.0184292 6.99826966,12.3232507 C7.09264386,12.5568441 7.21866875,12.7128388 7.51948514,13.0089759 C7.56511849,13.0538865 7.56511849,13.0538865 7.6110572,13.0996904 C7.86437416,13.3540443 8.00245466,13.5489286 8.09300161,13.8437176 C8.18475092,14.1815624 8.19126282,14.4881207 8.1610906,15.2725737 L8.15944412,15.3188661 C8.14920592,15.6068628 8.14564326,15.7523795 8.14663431,15.9205009 C8.15209359,16.8466144 8.34138605,17.3948692 8.88014847,17.6746 L8.60172745,17.3542087 Z M7.30315461,10.3371991 C7.35720181,10.5908987 7.36763075,10.786737 7.36763075,11.2159449 C7.36763075,11.6222978 7.39746722,11.8727326 7.48075858,12.0681937 C7.5423133,12.2148308 7.6300937,12.3188078 7.86927417,12.5490845 C7.94524971,12.6246922 7.98528462,12.6647665 8.02617404,12.7069447 C8.32582747,13.0160427 8.50706779,13.2895483 8.61407167,13.6703679 C8.73892899,14.0954525 8.75282386,14.4792967 8.72231562,15.338296 C8.71297722,15.5456668 8.70825857,15.7289981 8.70873065,15.8914477 C8.7134246,15.8847407 8.71820349,15.877994 8.72306831,15.8712874 C8.93977439,15.5726356 9.20540515,15.4068347 9.65472975,15.2244765 C9.87434815,15.1293026 9.9984494,15.0620934 10.0843713,14.9849603 C10.3036285,14.8068723 10.3552232,14.6865204 10.4444942,14.1700561 L10.4585012,14.1270254 C10.5589466,13.6917797 10.7682791,13.4747131 11.1887797,13.2090804 C11.3258319,13.1200182 11.3838153,13.0803458 11.4245324,13.0483236 C11.7830995,12.7056071 12.1544254,12.045359 12.1544254,11.6771074 C12.1544254,11.6032551 12.1445596,11.5543357 12.1263869,11.518802 C12.1228045,11.5118707 12.1115136,11.4935137 12.0980645,11.4769419 C12.0542648,11.428872 11.9845354,11.4033332 11.8018195,11.3674173 C11.6023732,11.3282128 11.5481864,11.3160445 11.4436044,11.2811669 C11.2216627,11.2071854 11.090346,11.1434608 10.9347808,11.0014527 C10.8933414,10.9636103 10.8572818,10.9253394 10.8249332,10.8850032 C10.7807174,10.8298695 10.7461656,10.7750902 10.7077346,10.7034466 C10.7043762,10.6971858 10.6362464,10.5653917 10.6124189,10.5226656 C10.5706545,10.447776 10.5244288,10.3746178 10.4646057,10.2914452 C10.3424808,10.1217236 10.2823771,10.0525909 10.1971437,9.98080311 C10.1162405,9.91262709 10.004974,9.88074079 9.72830087,9.84000047 C9.67137305,9.83166032 9.67137305,9.83166032 9.61590372,9.8232305 C9.55055143,9.81438287 9.50062945,9.80728715 9.39140575,9.79149966 C9.28288542,9.77581515 9.23442286,9.76892687 9.14719694,9.75578092 C8.98954953,9.716391 8.83137396,9.66276959 8.62921806,9.5844381 C8.57483946,9.56336745 8.51139192,9.53821721 8.40352621,9.49542342 C8.34029363,9.47051517 8.13362252,9.38706743 8.09519454,9.37183997 C7.98349956,9.32757976 7.8979133,9.29590851 7.82195395,9.27113041 C7.73511822,9.24548777 7.64654345,9.23045471 7.55346769,9.22497518 C7.33259414,9.21197199 7.19297715,9.23331968 6.69982628,9.34384234 C7.01418263,9.56773831 7.21115301,9.86730111 7.30315461,10.3371991 Z M4.06125531,7.70506107 C4.11867962,7.71636912 4.15103879,7.72534825 4.15373176,7.73163268 C4.19821837,7.74534859 4.19821837,7.74534859 4.24281632,7.75908483 C4.31852738,7.78248811 4.37062599,7.79932459 4.42397735,7.81810164 C4.64593024,7.89621813 4.83019225,7.99124064 5.03922319,8.14695561 C5.18307585,8.25824306 5.32886216,8.39272914 5.44630372,8.52056399 C5.67359795,8.7393928 5.77920938,8.83023321 5.92324509,8.91787377 C6.00370345,8.97593886 6.08263073,9.01710128 6.27422833,9.10608103 C6.3813644,9.1576383 6.41578867,9.17456877 6.47111828,9.2038951 C6.55332026,9.24746459 6.62950994,9.29376049 6.69982628,9.34384234 C6.67867546,9.34858257 6.65687431,9.35348683 6.63438855,9.35855945 C5.81131729,9.54295781 5.43977847,9.39141444 5.2343418,8.52323964 C5.2314964,8.51246133 5.17907561,8.48028747 4.95601741,8.41131121 C4.47611782,8.26684722 4.14240947,8.05637076 4.01020127,7.69354191 C3.92751217,7.46661203 3.92364647,7.18008452 4.01213625,6.81283513 C4.14967827,6.19214537 4.60382692,5.70024298 5.18050005,5.53233348 C5.50922533,5.41990222 5.85036877,5.41944001 6.18344476,5.52037041 L6.81219062,5.71178489 C6.81786964,5.66606938 6.82416273,5.62078391 6.83109982,5.57605674 C6.94905906,4.81590614 7.24354632,4.35573638 7.72326287,4.27978515 C8.15214297,4.2120414 8.56362343,4.46865397 8.87974354,5.11604491 C8.99694266,5.3560293 9.0829919,5.6048437 9.12934839,5.78311836 C9.25372188,6.09769922 9.38707004,6.45146243 9.47601432,6.72397984 C9.54008454,6.92022116 9.60055015,7.01082463 9.47837046,6.99488598 C9.44704704,6.99780728 9.61649824,6.65651509 9.63462776,6.30167372 C9.63271195,6.27956151 9.60000789,6.15178157 9.53897631,5.92929665 C9.50138344,5.79223416 9.48372613,5.7272106 9.46188388,5.64442907 C9.38317759,5.34613438 9.32739333,5.10004589 9.28833312,4.85998066 C9.16722268,4.11563229 9.23078238,3.54355056 9.57513732,3.1619416 C9.65522125,3.07318451 9.65587256,3.07058697 9.64674302,2.94379107 C9.60740804,2.39696228 9.83908694,2.06212598 10.4314876,1.92319248 C10.4141835,1.85737681 10.380839,1.7466028 10.3271066,1.63145383 C10.2089478,1.37829105 10.2846747,1.06918398 10.4991881,0.911810229 C10.7550293,0.724280492 11.1042572,0.82224761 11.244573,1.12442876 C11.2694774,1.17807482 11.2928126,1.23204189 11.3142776,1.28618394 C11.4850426,1.71619235 11.5187142,2.09925947 11.3968413,2.41928601 C11.2837902,2.71617918 11.0482184,2.93932678 10.6802565,3.01950537 C10.6815514,3.36623185 10.5917027,3.64063187 10.3076612,3.95538404 C10.1850965,4.09119654 10.2777562,4.70165164 10.5255046,5.60452867 C10.6437519,6.03580105 10.6694672,6.15309532 10.6630834,6.30834198 C10.6267661,7.19158795 10.2120976,8.01656399 9.61266211,8.11318476 C9.57121688,8.11981331 9.53030311,8.12315485 9.48995657,8.12315485 C9.01680407,8.12315485 8.70676061,7.718818 8.50611795,7.10404028 C8.47909433,7.02124045 8.44469522,6.92255188 8.40439695,6.81155628 C8.3914374,6.77595155 8.3914374,6.77595155 8.37838961,6.7404375 C8.3035581,6.5371946 8.22890351,6.34439664 8.17788231,6.21600596 L8.15875457,6.16138495 C8.06282922,5.78589443 7.84638398,5.40057267 7.87042532,5.39677412 C7.9149782,5.38973443 7.79183293,5.93612781 7.80031587,6.42817937 L7.81332423,7.1814151 L7.50559662,7.08888866 C7.31327689,7.03106265 7.31327689,7.03106265 6.73623248,6.85758419 C6.15931593,6.68419648 6.15931593,6.68419648 5.97222453,6.6279521 C5.76278468,6.57126471 5.61237742,6.5624394 5.4755265,6.60599217 C5.24213486,6.68499778 5.09146802,6.84818045 5.03886192,7.06094442 C4.99962358,7.252228 4.92943339,7.16583554 5.24319292,7.25124594 C5.43515743,7.31620157 5.4582797,7.32439044 5.5443233,7.36142776 C5.9162949,7.52154229 6.16632685,7.76872787 6.27617623,8.19401188 C6.36605781,8.19908907 6.36605781,8.19908907 6.42624776,8.18767783 C6.47594554,8.1772708 6.47594554,8.1772708 6.52590115,8.16668702 C6.62665482,8.1453027 6.67309835,8.13556248 6.72881947,8.12433777 C7.27993416,8.01331879 7.65238804,8.0012405 8.07563443,8.12777003 C8.31403891,8.19235505 8.53981136,8.2792934 8.75700872,8.38704738 C8.80329721,8.40528033 8.84044831,8.42059883 8.92093707,8.45428637 C9.00014647,8.48743042 9.03396663,8.50137592 9.07639717,8.51808807 C9.18923224,8.56253051 9.27690669,8.59059064 9.35420741,8.60585095 C9.52620416,8.63689836 9.60592995,8.65071075 9.71089044,8.66702364 C9.93638909,8.69577652 10.0168495,8.70786289 10.1391339,8.73583613 C10.4117898,8.79820773 10.6381609,8.90263119 10.8387429,9.07915248 C11.1262169,9.33219719 11.0345724,9.24833039 11.1266407,9.36109702 C11.1836309,9.43089954 11.2352016,9.50609105 11.2807279,9.58791289 C11.3429431,9.69969324 11.3604496,9.74417554 11.4215839,9.92078248 C11.4383168,9.96912094 11.448808,9.99503721 11.4613488,10.0184516 C11.4725588,10.0393812 11.4860158,10.0589664 11.5045381,10.0803102 C11.5507165,10.1335329 11.607557,10.1636702 11.8555031,10.2629968 C11.9522808,10.3017656 12.0396114,10.3313193 12.1293344,10.3569991 C12.1833903,10.3724706 12.3573139,10.4170284 12.339207,10.4122204 C12.4751921,10.4483291 12.5621127,10.4831097 12.6555744,10.5486007 C12.6925217,10.5744907 12.7282395,10.6041998 12.7636636,10.6384739 C12.8931034,10.7637899 12.967662,10.8884564 13.0414426,11.0559156 C13.0414679,11.0559729 12.611858,11.2893155 12.611858,11.2893155 C12.5636816,11.1799501 12.5202216,11.1072642 12.449354,11.0386543 C12.4321277,11.0219873 12.4160428,11.0086082 12.4002732,10.9975581 C12.3601669,10.9694546 12.3173228,10.9523108 12.2279394,10.9285765 C12.2421942,10.9323616 12.1810369,10.9167458 12.1171941,10.8999979 C12.0773246,10.8895389 12.0364078,10.8786383 12.0121564,10.8717457 C11.9061755,10.8414149 11.8045773,10.8070329 11.6931521,10.7623964 C11.3710142,10.6333487 11.2771619,10.5835874 11.1600712,10.4486351 C11.1160658,10.3979265 11.0802421,10.3457892 11.0502435,10.28978 C11.0208699,10.2349376 11.0007684,10.1852816 10.9751313,10.1112203 C10.9248572,9.96598681 10.9149673,9.94085742 10.8738276,9.86694283 C10.8441543,9.81361272 10.8102318,9.76415271 10.7722537,9.71763659 C10.7074793,9.63829989 10.7903783,9.71416347 10.5415966,9.49517702 C10.4060135,9.37585773 10.2473632,9.3026734 10.0426017,9.25583305 C9.93933469,9.23221013 9.86694515,9.22133613 9.65667474,9.19452498 C9.53530139,9.17583872 9.45284761,9.1615537 9.27402797,9.12924649 C9.16307891,9.10738406 9.05202172,9.0718403 8.91646489,9.01844843 C8.87010848,9.00018999 8.83286598,8.98483331 8.75222082,8.95107925 C8.67317566,8.91800493 8.63943733,8.90409361 8.58010321,8.87990083 C8.37114384,8.77704826 8.17214824,8.70042089 7.95678639,8.64200247 C7.610363,8.53850158 7.3018033,8.54850784 6.81421806,8.64672917 C6.76049714,8.65755095 6.71585473,8.66691344 6.61561569,8.68818627 C6.56530882,8.69884464 6.56530882,8.69884464 6.508735,8.71060564 C6.45207664,8.72137119 6.45207664,8.72137119 6.38501467,8.73519743 C6.22394146,8.76842237 6.17681687,8.7769273 6.12196944,8.7769273 L5.95514083,8.70166036 C5.88776367,8.62883453 5.86797326,8.56454011 5.81465984,8.33313274 C5.75378272,8.09766458 5.61648755,7.96193239 5.3714075,7.85643811 C5.30136084,7.82628665 5.2812681,7.8191707 5.11678532,7.76307006 C4.59064182,7.62057855 4.46521019,7.46619307 4.57501015,6.93202608 C4.67473342,6.52694396 4.94997697,6.22883606 5.33981543,6.09690951 C5.57445711,6.02216998 5.80256466,6.03555444 6.08339565,6.11157611 C6.28692739,6.17245711 6.28692739,6.17245711 6.8609978,6.34504361 C7.08961518,6.41377348 7.22760791,6.45525862 7.32291129,6.48391046 C7.30858453,5.65296881 7.4730385,4.92328948 7.80302776,4.87114871 C8.14218612,4.81756144 8.45467962,5.37387093 8.61407878,5.99754768 C8.66803852,6.13398861 8.74432386,6.33099807 8.82111791,6.53957125 C8.83458368,6.5762229 8.83458368,6.5762229 8.84800394,6.61309329 C8.89025354,6.72946355 8.92659644,6.8337287 8.95579528,6.92319335 C9.09479614,7.34909797 9.28122978,7.59223159 9.48995657,7.59223159 C9.50716984,7.59223159 9.52530957,7.59075006 9.54419617,7.5877296 C9.8601149,7.53680775 10.1581767,6.94381865 10.1853017,6.28413321 C10.1880227,6.217961 10.1651486,6.11362617 10.0679645,5.7591754 C9.93882984,5.28856621 9.87120281,5.00953673 9.82280984,4.69071697 C9.7444374,4.1743883 9.76745939,3.80380623 9.96976658,3.57963208 C10.1817602,3.34471757 10.2175919,3.18500473 10.1968862,2.89737548 C10.1937033,2.85042159 10.1937033,2.85042159 10.1928329,2.83296376 L10.1847326,2.65092074 L10.334868,2.57713264 C10.39259,2.5487636 10.4731131,2.52278152 10.5830245,2.49962035 C10.7939178,2.45507272 10.9031093,2.3522681 10.9563047,2.21256695 C11.0197638,2.04592963 10.9988606,1.80812369 10.8765764,1.50019609 C10.8591439,1.4562255 10.8400116,1.41197848 10.8194369,1.36765874 C10.810309,1.34800119 10.7826675,1.34024706 10.7628112,1.35480156 C10.8968176,1.69804658 10.9578379,2.00553461 10.8866487,2.19152075 C10.8394357,2.31560358 10.7367279,2.39870745 10.5668488,2.43452498 C10.175271,2.51717991 10.1030317,2.61691956 10.1235032,2.90151095 C10.1429116,3.17106529 10.1040727,3.32596299 9.91305314,3.53767009 C9.70886031,3.76395351 9.66307353,4.17606655 9.7589969,4.76561441 C9.79453815,4.98405203 9.84652784,5.21340103 9.92087986,5.49519315 C9.94209547,5.57559974 9.95919509,5.63856959 9.99651635,5.7746496 C10.0792626,6.07629322 10.1039409,6.17271528 10.1115233,6.2892213 C10.0839531,6.91528091 9.79453782,7.49819318 9.45349344,7.52015669 C9.29199073,7.48588813 9.1433074,7.26309663 9.02634723,6.90485813 C8.9421068,6.64675291 8.81162945,6.30060575 8.68132801,5.96612676 C8.6335128,5.78931317 8.55831506,5.57187626 8.45926938,5.36906401 C8.23459541,4.9089481 8.01240751,4.77038451 7.79071729,4.80540158 C7.55906366,4.8420782 7.38910993,5.10765017 7.3024406,5.66616299 C7.28247408,5.7948978 7.26838516,5.93114566 7.25950363,6.06948054 L7.23878504,6.39218443 L6.95772013,6.30661743 L6.05722019,6.03247034 C5.80968744,5.95746183 5.56084695,5.95779898 5.31166976,6.04277802 C4.8913861,6.16532817 4.5713416,6.51197821 4.47537523,6.94482382 C4.33330587,7.53456689 4.52187535,7.73052282 5.08277455,7.89937654 C5.46655906,8.01804306 5.62504632,8.11531643 5.69511639,8.38111318 C5.8247036,8.92848867 5.9352277,8.97356927 6.53888206,8.83832911 C7.13140654,8.70466003 7.29123007,8.67786744 7.57879724,8.69479699 C7.70413237,8.70217568 7.82537912,8.72275389 7.95063939,8.75982832 C8.04267011,8.78974523 8.13632702,8.82440303 8.25598745,8.87181962 C8.29637646,8.88782415 8.50248093,8.97104311 8.56215059,8.99454796 C8.6729275,9.03848864 8.73436473,9.06284201 8.78683946,9.08317495 C8.97323936,9.15540129 9.11580515,9.203731 9.22866089,9.23328958 C9.29401318,9.24213722 9.34393516,9.24923294 9.45315886,9.26502043 C9.56167919,9.28070494 9.61014174,9.28759322 9.67785788,9.29679993 C9.73418989,9.30533443 9.73418989,9.30533443 9.79119368,9.31368752 C10.1522404,9.36685191 10.3149091,9.41346882 10.4862845,9.5578847 C10.6076002,9.66006272 10.6935575,9.75893287 10.8383345,9.96013485 C10.9103213,10.0602188 10.9674795,10.1506791 11.0190801,10.2432064 C11.0479698,10.2950099 11.1190258,10.4324644 11.1186761,10.4318126 C11.142818,10.4768183 11.1608339,10.5053811 11.1821624,10.5319762 C11.1977474,10.5514094 11.2159363,10.5707137 11.2385983,10.5914086 C11.3326178,10.6772345 11.4154989,10.7174546 11.5811865,10.7726845 C11.660887,10.7992642 11.7061666,10.8094323 11.885214,10.8446271 C11.9313407,10.8536941 11.9734334,10.8625817 12.0121564,10.8717457 C12.0502137,10.8807521 12.085016,10.8900253 12.1171941,10.8999979 C12.2496843,10.9410589 12.3376842,10.9939757 12.4252097,11.0889365 C12.4401119,11.1054958 12.4401119,11.1054958 12.453409,11.1215786 C12.4931811,11.1705854 12.522226,11.217807 12.5417685,11.2556243 C12.6048278,11.3789074 12.6327046,11.5171337 12.6327046,11.6771074 C12.6327046,12.2303904 12.1903071,13.0170095 11.7217411,13.4637594 C11.6481261,13.5235266 11.5824003,13.5684964 11.4278784,13.6688882 C11.1088662,13.8704273 10.9807944,14.0032309 10.9164732,14.2786746 C10.8052189,14.9040094 10.7043752,15.1392416 10.3764838,15.4051353 C10.2495665,15.5197322 10.0932702,15.6043772 9.82383666,15.7210726 C9.44539929,15.8747167 9.24308867,16.0009945 9.09556757,16.2042996 C8.96657883,16.3821232 8.94460058,16.6797374 9.00990459,17.1274785 L9.13196859,17.9643805 L8.88014847,17.6746 C8.94878694,17.7102378 9.0230976,17.7415172 9.10342296,17.7686643 C9.14731152,17.7829909 9.16496469,17.7883922 9.18289539,17.7936094 L9.2892638,17.86039 C9.25914732,17.8277717 9.23156205,17.8139635 9.20614335,17.8081081 C9.18457123,17.791632 9.18316726,17.7880302 9.12399663,17.9097227 C9.09564402,17.9683162 9.0787251,18.0035234 9.05852071,18.0455676 C9.06899147,18.0607892 9.07893134,18.075239 9.08837367,18.0889514 C9.2653901,18.345516 9.26923249,18.3426772 9.31446714,18.3092574 C9.35477659,18.3015998 9.35477659,18.3015998 9.35099595,18.3028589 L7.92778401,18.8163228 L9.13596883,17.8360771 C9.13629553,17.8132072 9.13312237,17.7956023 9.12993258,17.7774036 C9.11688919,17.7029871 9.10356795,17.6186418 9.07921205,17.4599597 C9.07358954,17.4173699 9.06603569,17.3652066 9.04943899,17.251316 C9.03714018,17.164341 9.03212198,17.1270754 9.02561485,17.072866 C8.97993547,16.6923215 8.98631719,16.4677369 9.11684064,16.3028179 C9.24999246,16.1346269 9.45605135,16.0128757 9.79956213,15.8580238 C9.88141195,15.8180302 9.88141195,15.8180302 9.96127509,15.7789492 C10.15879,15.6815086 10.277311,15.6120918 10.3735058,15.5310968 C10.7341551,15.2342193 10.8428215,14.9958912 10.9671272,14.3587387 L10.9832859,14.3070026 C11.0410676,14.0879033 11.1495889,13.9850568 11.4140636,13.8159273 C11.468723,13.7687127 11.7096812,13.5899718 11.6540005,13.6322897 C11.6958016,13.6005205 11.7292848,13.5732783 11.7569458,13.5483179 C12.2233224,13.1189956 12.6820528,12.3065448 12.6964108,11.7190701 C12.6964108,11.5585805 12.6677864,11.4160471 12.6119338,11.2894876 L13.0414426,11.0559156 C13.1300106,11.2566071 13.1746899,11.4790849 13.174603,11.7262259 C13.1558398,12.4986229 12.6247948,13.4391492 12.0604971,13.9585971 C12.0195463,13.9955726 11.9759914,14.0310092 11.924195,14.0703749 C11.9620792,14.0415826 11.7464854,14.2015083 11.7092471,14.2336732 C11.4976806,14.374064 11.4527149,14.4166785 11.4391062,14.4673572 C11.2885245,15.2212702 11.1297118,15.5695797 10.6604898,15.9558117 C10.5290789,16.0664856 10.3846449,16.1510796 10.1555122,16.2641181 C10.0729575,16.3045184 10.0729575,16.3045184 9.99410203,16.3430439 C9.70899251,16.4718531 9.54130644,16.5709315 9.47612616,16.6532641 C9.47894218,16.649706 9.47480468,16.7953123 9.49970373,17.0027406 C9.50559605,17.0518282 9.51009859,17.0852645 9.52178781,17.1679679 C9.53806258,17.2795757 9.54625163,17.3361254 9.55155177,17.3767841 C9.58002477,17.5618763 9.59274695,17.6411196 9.60813456,17.7244829 C9.64637462,17.9312295 9.5711722,18.1405965 9.41819158,18.2647154 L9.2770802,18.0503962 L9.20316446,17.7979336 C9.21905214,17.7923151 9.21905214,17.7923151 9.23862939,17.7867219 C9.2510792,17.7835023 9.2510792,17.7835023 9.27850345,17.7798372 C9.32990534,17.7432844 9.32990534,17.7432844 9.53679803,18.0440899 C9.47573609,18.1522429 9.43811534,18.2188769 9.41416572,18.258601 C9.37572899,18.3223541 9.37250504,18.3167953 9.36410695,18.3023153 C9.33833542,18.3127824 9.31064699,18.3216274 9.28202884,18.3277408 C9.25513712,18.3334853 9.22742449,18.3368179 9.19971003,18.3368179 C9.17506509,18.3370431 9.17506509,18.3370431 9.12272104,18.3307802 C9.08824911,18.3245724 9.05527995,18.3139068 9.0240271,18.2959315 C9.00006295,18.2821483 8.9771079,18.2640672 8.95525825,18.2404025 L9.12226103,18.0503962 L9.06162666,18.307183 C9.04899256,18.3035069 9.03645957,18.2997564 9.0240271,18.2959315 C8.91369933,18.2619884 8.8112877,18.2221855 8.71638029,18.176505 C7.95293478,17.8090464 7.67506951,17.0612657 7.66836537,15.9239751 C7.6673116,15.7452136 7.67101815,15.5938198 7.68153692,15.2979308 C7.71077999,14.5340878 7.70482589,14.2537891 7.63773942,14.0061511 C7.5816746,13.82396 7.48867788,13.6927061 7.29021827,13.4934342 C7.24733369,13.4506746 7.24733369,13.4506746 7.20212881,13.4061823 C6.85260496,13.0620954 6.69255611,12.8639855 6.56494295,12.5478201 C6.39557178,12.1605609 6.34736621,11.7855808 6.34736621,11.1949422 C6.34736621,10.8553755 6.33899905,10.7224322 6.29597861,10.5653492 C6.24920362,10.3501256 6.20645287,10.3089647 5.89423106,10.1610071 C5.75061856,10.0943655 5.58867066,10.0066762 5.39573581,9.89004178 C5.18850644,9.74719879 4.98882052,9.57959876 4.79032846,9.3883222 C4.75795359,9.3590767 4.72731106,9.33016649 4.66937589,9.2750544 C4.5737403,9.18465264 4.5166554,9.13667775 4.43504449,9.08437477 C4.27423631,8.95772291 4.18933272,8.92142222 3.89951612,8.84780108 C3.89069409,8.84462261 3.87962752,8.84212922 3.84800051,8.83642697 C3.79249458,8.82641941 3.76482901,8.82018317 3.74108139,8.81095042 C3.1519913,8.64732167 2.82682597,8.24365682 2.60980831,7.59718945 C2.57156536,7.48326868 2.56439474,7.45876519 2.48658007,7.18486321 C2.2495474,6.3290816 2.13381799,5.53526391 2.18760049,4.72498008 C2.22380907,4.41180677 2.46194878,4.20185027 2.74679444,4.24033521 C3.03731621,4.27972717 3.28086426,4.5039669 3.24410652,4.81880327 C3.20686643,5.42335607 3.28453452,6.0449111 3.50661471,6.86689685 C3.65903641,7.46529755 3.7449365,7.60716942 4.00873351,7.69302074 C4.01834522,7.69638085 4.02592628,7.69806569 4.06125531,7.70506107 Z" id="Fill-13" fill="#000000" fill-rule="nonzero"></path>
                        </g>
                    </g>
                </g>
            </g>
        </g>
    </g>
</svg>