<?xml version="1.0" encoding="UTF-8"?>
<svg width="76px" height="76px" viewBox="0 0 76 76" version="1.1" xmlns="http://www.w3.org/2000/svg" xmlns:xlink="http://www.w3.org/1999/xlink">
    <!-- Generator: Sketch 43.2 (39069) - http://www.bohemiancoding.com/sketch -->
    <title>notifier.icon</title>
    <desc>Created with Sketch.</desc>
    <defs>
        <path d="M48.75,1.0909148e-15 C58,1.0909148e-15 64,6 64,15.25 L64,48.75 C64,58 58,64 48.75,64 L15.25,64 C6,64 7.10542736e-15,58 7.10542736e-15,48.75 L7.10542736e-15,15.25 C7.10542736e-15,6 6,1.0909148e-15 15.25,1.0909148e-15 L48.75,1.0909148e-15 Z" id="path-1"></path>
        <filter x="-15.6%" y="-12.5%" width="131.2%" height="131.2%" filterUnits="objectBoundingBox" id="filter-2">
            <feOffset dx="0" dy="2" in="SourceAlpha" result="shadowOffsetOuter1"></feOffset>
            <feGaussianBlur stdDeviation="3" in="shadowOffsetOuter1" result="shadowBlurOuter1"></feGaussianBlur>
            <feColorMatrix values="0 0 0 0 0.501960784   0 0 0 0 0.556862745   0 0 0 0 0.584313725  0 0 0 0.16 0" type="matrix" in="shadowBlurOuter1"></feColorMatrix>
        </filter>
        <linearGradient x1="49.9999861%" y1="100%" x2="49.9999861%" y2="-371.317873%" id="linearGradient-3">
            <stop stop-color="#FFFFFF" offset="0%"></stop>
            <stop stop-color="#FAFAFA" offset="29.441%"></stop>
            <stop stop-color="#F2F2F2" offset="52.032%"></stop>
        </linearGradient>
        <linearGradient x1="18023.66%" y1="75652.277%" x2="18023.66%" y2="43550.072%" id="linearGradient-4">
            <stop stop-color="#FFFFFF" offset="0%"></stop>
            <stop stop-color="#FAFAFA" offset="29.441%"></stop>
            <stop stop-color="#F2F2F2" offset="52.032%"></stop>
        </linearGradient>
        <linearGradient x1="51008.99%" y1="75652.277%" x2="51008.99%" y2="43550.072%" id="linearGradient-5">
            <stop stop-color="#FFFFFF" offset="0%"></stop>
            <stop stop-color="#FAFAFA" offset="29.441%"></stop>
            <stop stop-color="#F2F2F2" offset="52.032%"></stop>
        </linearGradient>
    </defs>
    <g id="Page-1" stroke="none" stroke-width="1" fill="none" fill-rule="evenodd">
        <g id="utility" transform="translate(-234.000000, -892.000000)">
            <g id="notifier_box" transform="translate(192.000000, 832.000000)">
                <g id="notifier.icon" transform="translate(48.000000, 64.000000)">
                    <g id="bg">
                        <use fill="black" fill-opacity="1" filter="url(#filter-2)" xlink:href="#path-1"></use>
                        <use fill="#FFFFFF" fill-rule="evenodd" xlink:href="#path-1"></use>
                    </g>
                    <g id="Notifier" transform="translate(12.800000, 12.800000)" fill-rule="nonzero">
                        <g id="Vrstva_1">
                            <g id="Group">
                                <g id="Shape">
                                    <path d="M35.4333464,1.52141674e-17 L4.03332028,1.52141674e-17 C1.80577971,1.72990522e-06 1.72990522e-06,1.80577971 -2.28212511e-16,4.03332028 L-2.28212511e-16,35.4333464 C-1.14225735e-06,36.5030498 0.424936371,37.5289412 1.1813309,38.2853358 C1.93772542,39.0417303 2.96361688,39.4666678 4.03332028,39.4666667 L35.4333464,39.4666667 C36.5030498,39.4666678 37.5289412,39.0417303 38.2853358,38.2853358 C39.0417303,37.5289412 39.4666678,36.5030498 39.4666667,35.4333464 L39.4666667,4.03332028 C39.4666649,1.80577971 37.660887,1.72990521e-06 35.4333464,-2.28212511e-16 L35.4333464,1.52141674e-17 Z M33.2782103,12.5650136 L33.2781911,12.5650281 L33.2781911,26.6404381 L33.278208,26.6404503 L33.278208,28.0746912 C33.2762187,28.7545831 32.7255527,29.3052506 32.0456608,29.3072415 L7.27144908,29.3072415 C6.59155726,29.3052506 6.04089118,28.7545831 6.03890195,28.0746912 L6.03890195,27.898379 L6.03888511,27.8977169 L6.03888511,11.7353973 L6.0389043,11.7346397 L6.0389043,11.5584206 C6.04089418,10.8785296 6.59156039,10.3278634 7.27145143,10.3258735 L32.0456632,10.3258735 C32.7255542,10.3278634 33.2762204,10.8785296 33.2782103,11.5584206 L33.2782103,12.5650136 Z" fill="#FD6F5C"></path>
                                    <polygon fill="#E6E6E6" points="33.2781915 26.6404307 33.2781915 12.5650434 24.0938127 19.755455"></polygon>
                                    <polygon fill="#E6E6E6" points="15.2232988 19.7554433 6.0389043 12.5650136 6.0389043 11.7346381 6.03888511 11.7353957 6.03888511 27.8977169 6.03890195 27.898379 6.03890195 26.6404503"></polygon>
                                    <path d="M31.8686677,29.3072407 L32.0456612,29.3072407 C32.7255531,29.3052498 33.2762191,28.7545823 33.2782084,28.0746905 L33.2782084,26.6404503 L33.2781915,26.6404381 L33.2781915,27.8977165 C33.2781916,28.2715456 33.1296887,28.6300636 32.8653517,28.8944006 C32.6010147,29.1587377 32.2424967,29.3072407 31.8686677,29.3072407 L31.8686677,29.3072407 Z" fill="#FD6F5C"></path>
                                    <path d="M31.8686677,29.3072407 L32.0456612,29.3072407 C32.7255531,29.3052498 33.2762191,28.7545823 33.2782084,28.0746905 L33.2782084,26.6404503 L33.2781915,26.6404381 L33.2781915,27.8977165 C33.2781916,28.2715456 33.1296887,28.6300636 32.8653517,28.8944006 C32.6010147,29.1587377 32.2424967,29.3072407 31.8686677,29.3072407 L31.8686677,29.3072407 Z" fill="url(#linearGradient-3)"></path>
                                    <path d="M6.03890195,27.8983786 L6.03890195,28.0746909 C6.04089118,28.7545827 6.59155726,29.3052502 7.27144908,29.3072411 L7.44840892,29.3072411 C6.67021311,29.3072369 6.03926208,28.6765743 6.03890195,27.8983786 L6.03890195,27.8983786 Z" fill="#FD6F5C"></path>
                                    <path d="M6.03890195,27.8983786 L6.03890195,28.0746909 C6.04089118,28.7545827 6.59155726,29.3052502 7.27144908,29.3072411 L7.44840892,29.3072411 C6.67021311,29.3072369 6.03926208,28.6765743 6.03890195,27.8983786 L6.03890195,27.8983786 Z" fill="url(#linearGradient-4)"></path>
                                    <path d="M20.4183584,22.6329439 C19.9720739,22.982337 19.3450384,22.982337 18.8987539,22.6329439 L15.2232988,19.7554433 L6.03890195,26.6404503 L6.03890195,27.8983786 C6.03926251,28.676574 6.67021342,29.3072361 7.44840892,29.3072403 L31.8686677,29.3072403 C32.6471262,29.3072403 33.2781915,28.676175 33.2781915,27.8977165 L33.2781915,26.6404381 L24.0938127,19.7554433 L20.4183584,22.6329439 Z" fill="#E6E6E6"></path>
                                    <path d="M20.4183584,22.6329439 C19.9720739,22.982337 19.3450384,22.982337 18.8987539,22.6329439 L15.2232988,19.7554433 L6.03890195,26.6404503 L6.03890195,27.8983786 C6.03926251,28.676574 6.67021342,29.3072361 7.44840892,29.3072403 L31.8686677,29.3072403 C32.6471262,29.3072403 33.2781915,28.676175 33.2781915,27.8977165 L33.2781915,26.6404381 L24.0938127,19.7554433 L20.4183584,22.6329439 Z" fill="url(#linearGradient-5)"></path>
                                    <path d="M32.0456632,10.3258735 L7.27145143,10.3258735 C6.59156039,10.3278634 6.04089418,10.8785296 6.0389043,11.5584206 L6.0389043,12.5650132 L15.2232988,19.7554433 L18.8987539,22.6329439 C19.3450384,22.982337 19.9720739,22.982337 20.4183584,22.6329439 L24.0938127,19.7554433 L33.2781915,12.5650277 L33.2782107,12.5650132 L33.2782107,11.5584206 C33.2762208,10.8785294 32.7255544,10.3278631 32.0456632,10.3258735 L32.0456632,10.3258735 Z" fill="#FFFFFF"></path>
                                </g>
                                <g transform="translate(24.431746, 20.085714)" id="Shape">
                                    <path d="M5.9765591,1.22741412 C3.3569804,1.22741758 1.23339443,3.35100728 1.23339559,5.97058598 C1.23339674,8.59016469 3.35698457,10.7137525 5.97656328,10.7137537 C8.59614198,10.7137548 10.7197317,8.59016886 10.7197351,5.97059016 C10.7167782,3.35223214 8.59491712,1.23037105 5.9765591,1.22741412 L5.9765591,1.22741412 Z" fill="#04A2FD"></path>
                                    <path d="M5.9765591,0.0174181905 C2.6887181,0.0174216503 0.0233985081,2.68274498 0.0233996614,5.97058598 C0.0234008147,9.25842698 2.68872228,11.9237484 5.97656328,11.9237496 C9.26440428,11.9237508 11.9297276,9.25843116 11.9297311,5.97059016 C11.9297348,4.39170964 11.3025286,2.87749488 10.1860915,1.76105776 C9.06965438,0.64462064 7.55543962,0.0174144522 5.9765591,0.0174181905 Z M5.9765591,10.7137537 C3.35697897,10.7137502 1.23339242,8.59015828 1.23339559,5.97057815 C1.23339876,3.35099802 3.35699046,1.22741123 5.97657059,1.22741412 C8.59615072,1.227417 10.7197377,3.35100846 10.7197351,5.97058859 C10.7167791,8.58894518 8.5949157,10.7108036 5.9765591,10.7137537 L5.9765591,10.7137537 Z" fill="#FFFFFF"></path>
                                </g>
                            </g>
                        </g>
                    </g>
                </g>
            </g>
        </g>
    </g>
</svg>