<?xml version="1.0" encoding="UTF-8"?>
<svg width="76px" height="76px" viewBox="0 0 76 76" version="1.1" xmlns="http://www.w3.org/2000/svg" xmlns:xlink="http://www.w3.org/1999/xlink">
    <!-- Generator: Sketch 43.2 (39069) - http://www.bohemiancoding.com/sketch -->
    <title>otherapps.icon</title>
    <desc>Created with Sketch.</desc>
    <defs>
        <path d="M48.75,1.0909148e-15 C58,1.0909148e-15 64,6 64,15.25 L64,48.75 C64,58 58,64 48.75,64 L15.25,64 C6,64 7.10542736e-15,58 7.10542736e-15,48.75 L7.10542736e-15,15.25 C7.10542736e-15,6 6,1.0909148e-15 15.25,1.0909148e-15 L48.75,1.0909148e-15 Z" id="path-1"></path>
        <filter x="-15.6%" y="-12.5%" width="131.2%" height="131.2%" filterUnits="objectBoundingBox" id="filter-2">
            <feOffset dx="0" dy="2" in="SourceAlpha" result="shadowOffsetOuter1"></feOffset>
            <feGaussianBlur stdDeviation="3" in="shadowOffsetOuter1" result="shadowBlurOuter1"></feGaussianBlur>
            <feColorMatrix values="0 0 0 0 0.501960784   0 0 0 0 0.556862745   0 0 0 0 0.584313725  0 0 0 0.16 0" type="matrix" in="shadowBlurOuter1"></feColorMatrix>
        </filter>
        <linearGradient x1="49.9151164%" y1="100.492444%" x2="49.9151164%" y2="0.493454281%" id="linearGradient-3">
            <stop stop-color="#00A2FF" offset="0%"></stop>
            <stop stop-color="#00A0FB" offset="2%"></stop>
            <stop stop-color="#0299EF" offset="5%"></stop>
            <stop stop-color="#058DDB" offset="7%"></stop>
            <stop stop-color="#087DC0" offset="10%"></stop>
            <stop stop-color="#0D689C" offset="12%"></stop>
            <stop stop-color="#124F70" offset="15%"></stop>
            <stop stop-color="#19313D" offset="17%"></stop>
            <stop stop-color="#1D1D1B" offset="18%"></stop>
            <stop stop-color="#1D1D1B" offset="100%"></stop>
        </linearGradient>
        <path d="M15.9762025,0.503732554 L3.02360759,0.503732554 C1.41177215,0.503732554 0.105063291,1.83012009 0.105063291,3.46614735 L0.105063291,14.7502759 C0.105063291,16.3861084 1.41177215,17.7128854 3.02360759,17.7128854 L5.47506329,17.7128854 L5.47506329,19.7824083 L10.425443,17.7126907 L15.9762025,17.7126907 C17.588038,17.7126907 18.8947468,16.3863031 18.8947468,14.7500811 L18.8947468,3.46614735 C18.8947468,1.83012009 17.588038,0.503732554 15.9762025,0.503732554 Z" id="path-4"></path>
        <filter x="-16.0%" y="-15.6%" width="131.9%" height="131.1%" filterUnits="objectBoundingBox" id="filter-5">
            <feOffset dx="0" dy="0" in="SourceAlpha" result="shadowOffsetOuter1"></feOffset>
            <feGaussianBlur stdDeviation="1" in="shadowOffsetOuter1" result="shadowBlurOuter1"></feGaussianBlur>
            <feColorMatrix values="0 0 0 0 0   0 0 0 0 0   0 0 0 0 0  0 0 0 0.12 0" type="matrix" in="shadowBlurOuter1"></feColorMatrix>
        </filter>
        <linearGradient x1="50%" y1="100%" x2="50%" y2="0%" id="linearGradient-6">
            <stop stop-color="#00B2FF" offset="0%"></stop>
            <stop stop-color="#00A4FF" offset="0%"></stop>
            <stop stop-color="#0099FF" offset="0%"></stop>
            <stop stop-color="#0092FF" offset="0%"></stop>
            <stop stop-color="#0090FF" offset="0%"></stop>
            <stop stop-color="#0095FF" offset="6%"></stop>
            <stop stop-color="#00A5FF" offset="32%"></stop>
            <stop stop-color="#00AFFF" offset="61%"></stop>
            <stop stop-color="#00B2FF" offset="100%"></stop>
        </linearGradient>
        <linearGradient x1="50%" y1="0%" x2="50%" y2="84.6301774%" id="linearGradient-7">
            <stop stop-color="#2CB1FC" offset="0%"></stop>
            <stop stop-color="#00A2FF" offset="100%"></stop>
        </linearGradient>
        <polygon id="path-8" points="3.08877214 6.14341421 4.9701599 0.487110521 17.9316291 3.59881284 16.1882065 8.6941057 5.30285966 6.68663116"></polygon>
        <filter x="-20.2%" y="-36.6%" width="140.4%" height="173.1%" filterUnits="objectBoundingBox" id="filter-9">
            <feOffset dx="0" dy="0" in="SourceAlpha" result="shadowOffsetOuter1"></feOffset>
            <feGaussianBlur stdDeviation="1" in="shadowOffsetOuter1" result="shadowBlurOuter1"></feGaussianBlur>
            <feColorMatrix values="0 0 0 0 0.325490196   0 0 0 0 0.325490196   0 0 0 0 0.325490196  0 0 0 0.2 0" type="matrix" in="shadowBlurOuter1"></feColorMatrix>
        </filter>
        <polygon id="path-10" points="1.69299507 5.67870599 2.84942075 2.17654077 16.3015575 5.4237231 15.1407397 8.84413562 5.50347672 6.00421225"></polygon>
        <filter x="-24.0%" y="-67.5%" width="147.9%" height="205.0%" filterUnits="objectBoundingBox" id="filter-11">
            <feOffset dx="0" dy="-1" in="SourceAlpha" result="shadowOffsetOuter1"></feOffset>
            <feGaussianBlur stdDeviation="1" in="shadowOffsetOuter1" result="shadowBlurOuter1"></feGaussianBlur>
            <feColorMatrix values="0 0 0 0 0   0 0 0 0 0   0 0 0 0 0  0 0 0 0.1 0" type="matrix" in="shadowBlurOuter1"></feColorMatrix>
        </filter>
        <linearGradient x1="50%" y1="20.0450893%" x2="50%" y2="100%" id="linearGradient-12">
            <stop stop-color="#2CB1FC" offset="0%"></stop>
            <stop stop-color="#00A2FF" offset="100%"></stop>
        </linearGradient>
    </defs>
    <g id="Page-1" stroke="none" stroke-width="1" fill="none" fill-rule="evenodd">
        <g id="utility" transform="translate(-234.000000, -1180.000000)">
            <g id="notifier_box" transform="translate(192.000000, 1120.000000)">
                <g id="otherapps.icon" transform="translate(48.000000, 64.000000)">
                    <g id="bg">
                        <use fill="black" fill-opacity="1" filter="url(#filter-2)" xlink:href="#path-1"></use>
                        <use fill="#FFFFFF" fill-rule="evenodd" xlink:href="#path-1"></use>
                    </g>
                    <g id="dekstop_suite.icon" transform="translate(11.000000, 11.000000)" fill-rule="nonzero">
                        <path d="M18.9488462,1.34795604 L18.9488462,4.96589011 C18.6555175,4.68952692 18.2724009,4.53583351 17.8746154,4.53494505 L14.6373077,4.53494505 L14.6373077,0.117758242 L17.7528205,0.117758242 C18.4128114,0.119136617 18.9475061,0.66910832 18.9488462,1.34795604 L18.9488462,1.34795604 Z" id="Shape" fill="#6E93CE"></path>
                        <rect id="Rectangle-path" fill="#8FC996" x="9.77525641" y="0.117758242" width="4.31153846" height="4.41718681"></rect>
                        <path d="M9.22230769,0.117758242 L9.22230769,4.53494505 L8.57679487,4.53494505 L7.79487179,3.53274725 C7.07299474,2.65877009 6.02518315,2.13992131 4.91076923,2.10461538 L4.91076923,0.10021978 L9.22230769,0.117758242 Z" id="Shape" fill="#FFD16E"></path>
                        <path d="M4.36025641,0.117758242 L4.36025641,2.10461538 L1.12051282,2.10461538 C0.723523758,2.10588604 0.341299596,2.25956994 0.0487179487,2.53556044 L0.0487179487,1.34795604 C0.0500580358,0.66910832 0.584752747,0.119136617 1.24474359,0.117758242 L4.36025641,0.117758242 Z" id="Shape" fill="#FF847B"></path>
                        <path d="M18.9464103,6.19107692 C18.9464103,5.5822285 18.4665513,5.08865934 17.8746154,5.08865934 L8.31858974,5.08865934 L7.37589744,3.88852747 C6.72950325,3.10973278 5.78452202,2.66035187 4.78897436,2.65832967 L1.12051282,2.65832967 C0.836255147,2.65832967 0.563639927,2.7744769 0.362639399,2.9812203 C0.16163887,3.18796371 0.0487179487,3.46836793 0.0487179487,3.76074725 L0.0487179487,16.8168791 C0.0487179487,17.4257275 0.528576858,17.9192967 1.12051282,17.9192967 L17.8794872,17.9192967 C18.1641674,17.9192975 18.4371524,17.8028064 18.6382231,17.5955207 C18.8392938,17.3882351 18.9519291,17.1071868 18.9512821,16.8143736 L18.9464103,6.19107692 Z M6.50384615,13.9581099 L6.50384615,8.3909011 L7.70961538,8.3909011 L7.70961538,11.3423736 L6.66948718,14.3765275 C6.5639933,14.263156 6.50471994,14.112532 6.50384615,13.9556044 L6.50384615,13.9581099 Z M7.55128205,14.576967 L7.08358974,14.576967 L8.93,9.01476923 C9.04625968,8.66260711 9.35828528,8.41793942 9.71923077,8.39591209 L10.2064103,8.39591209 L8.33076923,13.9606154 C8.2134821,14.3066201 7.90672247,14.5472073 7.55128205,14.571956 L7.55128205,14.576967 Z M9.81910256,13.9581099 L9.81910256,10.9515165 L10.6765385,8.44602198 C10.888554,8.54656617 11.0244932,8.76461215 11.0248718,9.00474725 L11.0248718,11.4450989 L10.0115385,14.4015824 C9.88933871,14.2870955 9.81877559,14.1256068 9.81666667,13.9556044 L9.81910256,13.9581099 Z M11.6557692,13.9581099 C11.5395095,14.310272 11.227484,14.5549397 10.8665385,14.576967 L10.4012821,14.576967 L12.5302564,8.39591209 L13.7335897,8.39591209 L11.6557692,13.9581099 Z" id="Shape" fill="#51AAFF"></path>
                        <path d="M9.71679487,8.3909011 C9.35584938,8.41292843 9.04382379,8.65759612 8.9275641,9.00975824 L7.08115385,14.571956 L7.55128205,14.571956 C7.91222754,14.5499287 8.22425314,14.305261 8.34051282,13.9530989 L10.2161538,8.3883956 L9.71679487,8.3909011 Z" id="Shape" fill="#FFFFFF"></path>
                        <path d="M10.3988462,14.571956 L10.8641026,14.571956 C11.2250481,14.5499287 11.5370736,14.305261 11.6533333,13.9530989 L13.7335897,8.3883956 L12.5302564,8.3883956 L10.3988462,14.571956 Z" id="Shape" fill="#FFFFFF"></path>
                        <path d="M11.0224359,9.01978022 C11.0220573,8.77964512 10.8861181,8.56159913 10.6741026,8.46105495 L9.81666667,10.9665495 L9.81666667,13.9731429 C9.81616876,14.1441299 9.88503045,14.3075818 10.0066667,14.4241319 L11.02,11.4676484 L11.0224359,9.01978022 Z" id="Shape" fill="#FFFFFF"></path>
                        <path d="M7.70717949,8.3909011 L6.50384615,8.3909011 L6.50384615,13.9556044 C6.50343927,14.1130527 6.56186745,14.2646421 6.66705128,14.379033 L7.70717949,11.3448791 L7.70717949,8.3909011 Z" id="Shape" fill="#FFFFFF"></path>
                    </g>
                    <g id="teamchat.icon" transform="translate(11.000000, 35.000000)" fill-rule="nonzero">
                        <g id="Shape">
                            <use fill="black" fill-opacity="1" filter="url(#filter-5)" xlink:href="#path-4"></use>
                            <use fill="url(#linearGradient-3)" fill-rule="evenodd" xlink:href="#path-4"></use>
                        </g>
                        <path d="M15.9921519,0.481726712 L3.00822785,0.481726712 C1.39240506,0.481726712 0.0826582278,1.81434599 0.0826582278,3.45835768 L0.0826582278,14.7966245 C0.0826582278,16.4406362 1.39278481,17.7734502 3.00822785,17.7734502 L15.9921519,17.7734502 C17.6077848,17.7734502 18.9177215,16.4406362 18.9177215,14.7966245 L18.9177215,3.45835768 C18.9177215,1.81434599 17.6077848,0.481726712 15.9921519,0.481726712 Z" id="Shape" fill="url(#linearGradient-6)"></path>
                        <path d="M13.8803797,10.0349886 C14.4757345,9.61765123 14.8304114,8.92454522 14.8270886,8.18493995 C14.8270886,6.96059721 13.8849367,5.9679974 12.7229114,5.9679974 C11.5608861,5.9679974 10.6187342,6.96118143 10.6187342,8.18493995 C10.6157914,8.91140745 10.9579671,9.59383337 11.5358228,10.0139565 C10.6741772,10.3565076 10.0633544,10.8053879 9.72974684,11.3382019 C9.20455696,10.7977929 8.47658228,10.4246673 7.8593038,10.1853294 C8.62286255,9.70877501 9.08814523,8.85766392 9.08626582,7.94092827 C9.08626582,6.49496917 7.97360759,5.32281727 6.60101266,5.32281727 C5.22841772,5.32281727 4.11708861,6.49496917 4.11708861,7.94092827 C4.11449137,8.86220804 4.58381959,9.71719913 5.35316456,10.1927296 C3.68702532,10.8205777 2.77373418,11.7701396 2.77373418,12.9321649 L3.53474684,12.9321649 C3.53474684,11.9602077 4.65234177,11.1220383 6.60139241,10.6312885 L6.60974684,10.6293411 C7.53424051,10.8386887 9.66670886,11.603051 9.66670886,12.9321649 L10.428481,12.9321649 C10.4263828,12.7523976 10.4008397,12.5737267 10.3525316,12.4009088 C10.3222694,12.2814717 10.2815993,12.1650669 10.2310127,12.0530996 C10.4326582,11.3886401 11.3153797,10.8199935 12.7238608,10.4632262 C13.1877215,10.5911717 15.4268987,11.2982798 15.4637342,12.8951639 C15.4637342,12.9084064 15.4701899,12.9191172 15.4701899,12.9325544 L16.2310127,12.9325544 C16.2310127,11.3678027 14.8863291,10.4803635 13.8803797,10.0349886 Z M12.7221519,6.76994482 C13.4626582,6.76994482 14.0658861,7.40499838 14.0658861,8.18571892 C14.0658861,8.96643947 13.463038,9.60168776 12.7221519,9.60168776 C11.9812658,9.60168776 11.3784177,8.96643947 11.3784177,8.18571892 C11.3784177,7.40499838 11.9820253,6.76994482 12.7229114,6.76994482 L12.7221519,6.76994482 Z M6.60120253,6.12379098 C7.55227848,6.12379098 8.32601266,6.93898085 8.32601266,7.94092827 C8.32601266,8.94287569 7.55246835,9.75806556 6.60120253,9.75806556 C5.64993671,9.75806556 4.87658228,8.94287569 4.87658228,7.94092827 C4.87658228,6.93898085 5.65031646,6.12379098 6.60120253,6.12379098 Z" id="Shape" fill="#FFFFFF"></path>
                    </g>
                    <g id="icechat.icon" transform="translate(34.000000, 35.000000)">
                        <path d="M4.20187346,17.055916 L4.0101304,17.5130048 L3.40903814,18.9459253 L7.70067964,17.0841126 L14.2789585,17.0841126 C16.8940724,17.0841126 19,14.973792 19,12.3705796 L19,4.713533 C19,2.11198233 16.8863177,0 14.2789585,0 L4.72104153,0 C2.10592759,0 0,2.11032061 0,4.713533 L0,12.3705796 C0,14.7970651 1.83878315,16.797654 4.20187346,17.055916 Z" id="Combined-Shape" fill="url(#linearGradient-7)"></path>
                        <g id="Group" transform="translate(5.177249, 4.441558)" fill="#FFFFFF">
                            <path d="M3.37608313,1.07283504 L0.86956814,8.82000092 C0.880361026,8.82055096 1.49619689,8.82000092 1.49619689,8.82000092 C1.95060508,8.82000092 2.45075455,8.37425097 2.59216904,7.90479156 L5.04709312,0.0259207352 C4.942655,0.0259207352 4.42046437,0.0259207352 4.42046437,0.0259207352 C3.96605618,0.0259207352 3.51749761,0.602550575 3.37608313,1.07283504 Z" id="Fill-11"></path>
                            <path d="M8.33266692,0.0259207352 L5.38941068,8.82024538 C5.41798805,8.82024538 6.23034104,8.82024538 6.02010845,8.82024538 C6.4771888,8.82024538 6.90900329,8.37448304 7.05105751,7.90501058 L10.0145276,0.0259207352 L8.33266692,0.0259207352 Z" id="Fill-13"></path>
                            <path d="M4.59950116,3.75957471 L4.59950116,7.96871112 C4.59950116,8.21278127 4.64754772,8.21795864 4.80464746,8.37307633 L6.24067153,4.39531323 L6.24067153,1.08584082 C6.24094332,0.744856433 5.90083667,0.161271221 5.62523264,0.0259207352 L4.59950116,3.75957471 Z" id="Fill-15"></path>
                            <path d="M1.6901534,4.19949853 L1.6901534,0.0259207352 L0.0489828754,0.0259207352 L0.0489828754,7.95571855 C0.0930658018,7.95571855 0.22080291,8.22177561 0.35670235,8.37307633 L1.6901534,4.19949853 Z" id="Fill-17"></path>
                        </g>
                    </g>
                    <g id="filesync.icon" transform="translate(34.000000, 10.000000)">
                        <path d="M0.183397683,8.08660456 L0.183397683,8.08660456 C0.183397683,8.19455798 0.648076415,8.28207151 1.24793462,8.28207151 L17.9171233,8.28207151 C18.5050508,8.28207151 18.9816602,7.81871866 18.9816602,7.21893035 L18.9816602,6.1354248 C18.9816602,5.58667978 18.5396159,5.14130025 17.9862518,5.14063203 L6.56137962,5.12683589 C6.56137962,5.12683589 5.87984088,4.57203828 5.31019656,4.10133744 C4.74055224,3.6306366 4.2115968,3.1770765 4.2115968,3.1770765 L1.17913254,3.1770765 C0.629203364,3.1770765 0.183397683,3.63015307 0.183397683,4.17059276 L0.183397683,8.08660456 Z" id="Path-515" fill="#96D6FA"></path>
                        <g id="Path-829" transform="translate(10.510201, 4.590608) rotate(3.000000) translate(-10.510201, -4.590608) ">
                            <use fill="black" fill-opacity="1" filter="url(#filter-9)" xlink:href="#path-8"></use>
                            <use fill="#FFFFFF" fill-rule="evenodd" xlink:href="#path-8"></use>
                        </g>
                        <g id="Path-829" transform="translate(8.997276, 5.510338) rotate(3.000000) translate(-8.997276, -5.510338) ">
                            <use fill="black" fill-opacity="1" filter="url(#filter-11)" xlink:href="#path-10"></use>
                            <use fill="#FFFFFF" fill-rule="evenodd" xlink:href="#path-10"></use>
                        </g>
                        <path d="M0.183397683,9.28355506 L0.183397683,17.9027304 C0.183397683,18.4508213 0.62953526,18.8951368 1.18080151,18.8951368 L17.9842564,18.8951368 C18.5351073,18.8951368 18.9816602,18.4406128 18.9816602,17.8930238 L18.9816602,6.12421281 C18.9816602,6.12421281 17.2518237,6.1194704 16.380115,6.12421281 C15.738699,6.12770234 14.9534611,6.12421281 14.1562134,6.12421281 L6.39353799,6.12421281 C6.39353799,6.12421281 6.19670553,5.51285505 5.62706121,5.0354586 C5.55017559,4.97102379 5.44196541,4.87553271 5.33333836,4.80510384 C5.17369341,4.70159728 5.02982475,4.63511086 5.02982475,4.63511086 L5.02982475,4.63511086 C4.90236723,4.55326447 4.54728006,4.48691486 4.54728006,4.48691486 L4.54728006,4.48691486 L3.95983436,4.48691486 L2.95278458,4.48691486 L0.183397683,4.48691486 L0.183397683,9.28355506 Z" id="Combined-Shape" fill="url(#linearGradient-12)"></path>
                        <path d="M7.23274614,12.5027114 L6.05785473,15.6169699 C5.94666783,15.4985172 5.8900131,15.4237093 5.8900131,15.2481761 L5.8900131,9.2350789 L7.23274614,9.2350789 L7.23274614,12.5027114 Z M9.58252896,12.0109863 L10.5056579,9.2350789 C10.731145,9.34087092 10.9254844,9.62347946 10.925262,9.88999808 L10.925262,12.5078893 L9.75037059,15.6169699 C9.62183853,15.4957275 9.58252896,15.4838503 9.58252896,15.2930813 L9.58252896,12.0109863 Z M12.6036783,9.2350789 L13.7785697,9.2350789 L11.5804905,15.2403026 C11.4670799,15.6066048 11.1223358,15.9480005 10.7574204,15.9480005 C10.7574204,15.9480005 10.2767106,15.9480005 10.2538955,15.9480005 L12.6036783,9.2350789 Z M8.59111947,9.92945766 C8.70475248,9.56251173 9.04954954,9.2350789 9.41468733,9.2350789 C9.41468733,9.2350789 9.8342914,9.2350789 9.91821222,9.2350789 L7.94556831,15.2403026 C7.8319353,15.6066048 7.4300423,15.9480005 7.06490451,15.9480005 C7.06490451,15.9480005 6.5700522,15.9484297 6.56137962,15.9480005 L8.59111947,9.92945766 Z" id="Combined-Shape" fill="#FFFFFF"></path>
                    </g>
                </g>
            </g>
        </g>
    </g>
</svg>