<?xml version="1.0" encoding="UTF-8"?>
<svg width="76px" height="76px" viewBox="0 0 76 76" version="1.1" xmlns="http://www.w3.org/2000/svg" xmlns:xlink="http://www.w3.org/1999/xlink">
    <!-- Generator: Sketch 43.2 (39069) - http://www.bohemiancoding.com/sketch -->
    <title>outlook_sync.icon</title>
    <desc>Created with Sketch.</desc>
    <defs>
        <path d="M48.75,1.0909148e-15 C58,1.0909148e-15 64,6 64,15.25 L64,48.75 C64,58 58,64 48.75,64 L15.25,64 C6,64 -7.10542736e-15,58 -7.10542736e-15,48.75 L-7.10542736e-15,15.25 C-7.10542736e-15,6 6,1.0909148e-15 15.25,1.0909148e-15 L48.75,1.0909148e-15 Z" id="path-1"></path>
        <filter x="-15.6%" y="-12.5%" width="131.2%" height="131.2%" filterUnits="objectBoundingBox" id="filter-2">
            <feOffset dx="0" dy="2" in="SourceAlpha" result="shadowOffsetOuter1"></feOffset>
            <feGaussianBlur stdDeviation="3" in="shadowOffsetOuter1" result="shadowBlurOuter1"></feGaussianBlur>
            <feColorMatrix values="0 0 0 0 0.501960784   0 0 0 0 0.556862745   0 0 0 0 0.584313725  0 0 0 0.16 0" type="matrix" in="shadowBlurOuter1"></feColorMatrix>
        </filter>
    </defs>
    <g id="Page-1" stroke="none" stroke-width="1" fill="none" fill-rule="evenodd">
        <g id="utility" transform="translate(-234.000000, -604.000000)">
            <g id="outlook_sync_box" transform="translate(192.000000, 544.000000)">
                <g id="outlook_sync.icon" transform="translate(48.000000, 64.000000)">
                    <g id="bg">
                        <use fill="black" fill-opacity="1" filter="url(#filter-2)" xlink:href="#path-1"></use>
                        <use fill="#FFFFFF" fill-rule="evenodd" xlink:href="#path-1"></use>
                    </g>
                    <g id="OutlookSync_1024px-01" transform="translate(12.800000, 12.800000)" fill-rule="nonzero">
                        <g id="Vrstva_1">
                            <g id="Group">
                                <path d="M35.3596808,-2.16893387e-18 L4.0249346,-2.16893387e-18 C1.80202523,1.51052043e-06 1.51052043e-06,1.80202523 -1.40980702e-16,4.0249346 L-1.40980702e-16,35.3596808 C-1.76163859e-06,36.4271603 0.424052065,37.4509192 1.17887411,38.2057413 C1.93369615,38.9605633 2.95745504,39.3846171 4.0249346,39.3846154 L35.3596808,39.3846154 C36.4271603,39.3846171 37.4509192,38.9605633 38.2057413,38.2057413 C38.9605633,37.4509192 39.3846171,36.4271603 39.3846154,35.3596808 L39.3846154,4.0249346 C39.3846139,1.80202523 37.5825902,1.51052043e-06 35.3596808,-1.40980702e-16 L35.3596808,-2.16893387e-18 Z M25.6532095,34.9350916 C25.3710693,34.7339631 25.1060312,34.5098649 24.8608004,34.2650842 C23.2727764,32.6767668 22.6715421,30.3590009 23.2719043,28.1811044 L22.3725339,27.7079811 L25.5981074,25.8166744 L25.4622804,29.4525288 L24.5894799,28.9402854 C24.2994997,30.5638689 24.6949794,31.9601289 25.7665719,33.0938124 C27.2563923,34.6701796 29.1198164,35.0540026 31.3052792,34.2371134 L31.5789351,34.13423 L32.1539438,35.3914815 L31.880288,35.5258342 C31.1939559,35.8633131 30.2814793,36.1043204 29.2766093,36.1043204 C27.975875,36.1055091 26.7079114,35.696352 25.6532106,34.9350916 L25.6532095,34.9350916 Z M33.4883712,26.8431262 C32.0516017,24.8867313 29.364582,24.3257241 27.2394413,25.5389652 L27.2394413,25.5386706 L26.9689913,25.6934255 L26.2354551,24.428312 L26.6647396,24.2053611 C26.7935527,24.1359984 26.9019636,24.0779972 27.0182478,24.0278822 C29.2946426,23.0498258 31.4387239,23.280933 33.3901687,24.7133296 C35.7662277,26.4569815 36.5548409,29.653138 35.2862277,32.346569 C35.3518074,32.4095199 35.4135916,32.4721883 35.4774146,32.5374609 L35.9445787,33.0058042 L32.6716784,34.1396962 L33.4493722,30.5875399 L34.1712023,31.2405845 C34.3230409,30.8050284 34.4082269,30.3490381 34.4238785,29.8880402 C34.4732884,28.7954575 34.1427127,27.7194911 33.4883712,26.8431262 Z M10.5821218,31.6230064 C9.96487033,31.493567 9.34823267,31.3609952 8.72977739,31.2376479 C8.62835575,31.2174175 8.59375394,31.1763438 8.60319961,31.0813941 C8.60611087,31.0520373 8.6036294,31.0221281 8.6036294,30.9924767 C8.6036294,23.3808692 8.60240111,15.7692534 8.59994452,8.1576295 C8.59985856,7.9925935 8.64298471,7.92927375 8.81012122,7.89786608 C10.1709933,7.64213138 11.5299259,7.37601758 12.8893718,7.11271619 C14.2441515,6.85031176 15.5988944,6.58773945 16.9536004,6.32499927 C18.3083923,6.06297566 19.6632907,5.80145973 21.0182955,5.54045148 C22.1117395,5.32905898 23.2050811,5.11710541 24.2983201,4.90459077 C24.9175248,4.7844126 25.5368275,4.66477519 26.1554923,4.54190691 C26.256386,4.521861 26.2945618,4.55684337 26.2902517,4.65465358 C26.2880637,4.70397031 26.2901779,4.75348357 26.2901779,4.80291087 C26.2901901,9.76529426 26.2901942,14.7276731 26.29019,19.6900474 L26.29019,21.3621861 C22.8324653,22.6208379 20.3630042,25.9366802 20.3630042,29.829608 C20.3616332,31.2354506 20.6908309,32.6219204 21.3240229,33.877095 C20.24124,33.6492555 19.1583883,33.4217597 18.0754676,33.1946077 C15.5778412,32.6699707 13.0800593,32.1461036 10.5821218,31.6230064 Z" id="Shape" fill="#0274D1"></path>
                                <path d="M18.8947642,17.1831107 C18.2501826,16.1776387 16.8901212,16.1697528 16.1903883,16.9971442 C15.8877933,17.3548902 15.6939534,17.7662152 15.5741808,18.2153713 C15.3582687,19.0285757 15.3472379,19.8543949 15.4638539,20.6817739 C15.5395055,21.2191852 15.7049838,21.7298071 16.0185967,22.1821085 C16.4787841,22.8424494 17.1517273,23.111941 17.8987382,22.918089 C18.4424506,22.7762575 18.7986247,22.4058936 19.0523569,21.923647 C19.4116876,21.2396734 19.4841811,20.4958074 19.4999416,19.5990775 C19.4857545,19.4146966 19.4699952,19.0884681 19.4305911,18.7669693 C19.3628253,18.2027698 19.2052325,17.6685152 18.8947642,17.1831107 Z" id="Shape" fill="#FFFFFF"></path>
                                <path d="M20.3630031,29.8296084 C20.3630031,25.9366802 22.8324642,22.6208383 26.2901888,21.3621865 L26.2901888,19.6900478 C26.2901888,14.7276644 26.2901848,9.76528554 26.2901767,4.80291126 C26.2901767,4.75348513 26.2880641,4.7039707 26.2902505,4.65465397 C26.2945618,4.55684337 26.256386,4.521861 26.1554911,4.5419073 C25.5368268,4.66477558 24.917524,4.78441299 24.2983189,4.90459116 C23.2050223,5.11679453 22.1116808,5.3287481 21.0182943,5.54045187 C19.6634656,5.80237727 18.3085673,6.0638932 16.9535992,6.32499966 C15.598758,6.58703551 14.2440152,6.84960781 12.8893706,7.11271658 C11.5299243,7.37601719 10.1709933,7.64213099 8.81011966,7.89786569 C8.64298315,7.92927375 8.599857,7.99259311 8.59994295,8.15762911 C8.60418071,15.7692489 8.605409,23.3808646 8.60362784,30.9924763 C8.60362784,31.0221277 8.60610891,31.0520373 8.60319805,31.0813937 C8.59375238,31.1763423 8.6283538,31.2174171 8.72977582,31.2376475 C9.34823111,31.3609948 9.96486877,31.4935666 10.5821202,31.623006 C13.0799061,32.1468318 15.5776879,32.6706989 18.0754657,33.1946073 C19.1583215,33.4220662 20.2411732,33.649562 21.3240209,33.8770946 C20.6908293,32.6219202 20.3616319,31.2354507 20.3630031,29.8296084 L20.3630031,29.8296084 Z M19.6086842,24.2891933 C19.063387,24.7210065 18.4377342,24.9448053 17.744302,25.0015285 C16.8144695,25.0771802 15.9665899,24.8723098 15.2290372,24.2939221 C14.417405,23.6572265 13.9304283,22.8062023 13.6546352,21.8259368 C13.4749854,21.1874036 13.3931553,20.5253292 13.411933,19.8622711 C13.3961737,18.8457686 13.5269767,17.9064779 13.8957531,17.0129035 C14.2708446,16.101987 14.8271578,15.3297582 15.7002561,14.827023 C16.2282096,14.5228558 16.8018684,14.3888961 17.4117622,14.3731368 C18.0894347,14.3573775 18.7277148,14.4771505 19.3139763,14.8254507 C20.095662,15.2903549 20.6110007,15.9837863 20.9687467,16.8032918 C21.2571546,17.465205 21.3989876,18.1617934 21.4509945,18.8820146 C21.520345,19.8275942 21.4825131,20.7653001 21.2350941,21.6856748 C20.9592877,22.7179487 20.4612806,23.6178227 19.6086842,24.289194 L19.6086842,24.2891933 Z" id="Shape" fill="#FFFFFF"></path>
                                <path d="M21.4509933,18.8820146 C21.3989884,18.1617934 21.2571534,17.465205 20.9687455,16.8032918 C20.6109996,15.9837863 20.0956609,15.2903545 19.3139751,14.8254507 C18.7277136,14.4771505 18.0894336,14.3573775 17.4117611,14.3731368 C16.8018669,14.3888961 16.2282081,14.5228558 15.7002549,14.827023 C14.8271582,15.329759 14.2708435,16.101987 13.8957519,17.0129035 C13.5269755,17.9064764 13.3961725,18.845767 13.4119318,19.8622711 C13.3931541,20.5253295 13.4749842,21.1874041 13.654634,21.8259376 C13.9304272,22.8062046 14.4174039,23.6572288 15.229036,24.2939229 C15.9665887,24.8723106 16.8144684,25.077181 17.7443009,25.0015293 C18.4377323,24.9448057 19.0633858,24.7210073 19.608683,24.289194 C20.4612794,23.6178231 20.9592862,22.7179487 21.2350918,21.6856748 C21.4825104,20.7653001 21.5203438,19.8275942 21.4509933,18.8820146 Z M19.0523569,21.9236482 C18.7986231,22.405896 18.4424506,22.7762567 17.8987382,22.9180902 C17.1517277,23.1119426 16.4787841,22.8424506 16.0185967,22.1821097 C15.7049838,21.7298083 15.5395055,21.2191863 15.4638539,20.681775 C15.3472379,19.8543961 15.3582679,19.0285769 15.5741808,18.2153725 C15.6939534,17.7662156 15.8877937,17.354889 16.1903883,16.9971454 C16.8901212,16.1697559 18.2501826,16.1776399 18.8947642,17.1831119 C19.2052306,17.6685163 19.3628249,18.202771 19.4305911,18.766972 C19.4699952,19.0884704 19.4857545,19.4146981 19.4999416,19.5990802 C19.4841823,20.4958085 19.4116872,21.2396745 19.0523569,21.9236482 L19.0523569,21.9236482 Z" id="Shape" fill="#0274D1"></path>
                                <path d="M33.4493722,30.5875388 L32.6716784,34.139695 L35.9445787,33.005803 L35.4774146,32.5374597 C35.4135916,32.4721872 35.3518074,32.4095187 35.2862277,32.3465678 C36.5548413,29.6531368 35.7662277,26.4569807 33.3901675,24.7133296 C31.4387227,23.280933 29.2946415,23.0498258 27.0182466,24.0278822 C26.9019624,24.0779972 26.7935516,24.1359984 26.6647385,24.2053611 L26.235454,24.428312 L26.9689901,25.6934255 L27.2394401,25.5386706 L27.2394401,25.5389652 C29.3645804,24.3257241 32.0516005,24.8867313 33.48837,26.8431262 C34.1427117,27.7194906 34.4732878,28.7954566 34.4238785,29.8880391 C34.4082269,30.349037 34.3230409,30.8050273 34.1712023,31.2405833 L33.4493722,30.5875388 Z" id="Shape" fill="#FFFFFF"></path>
                                <path d="M32.1539438,35.3914815 L31.5789339,34.13423 L31.305278,34.2371134 C29.1198152,35.0540026 27.2563911,34.6701796 25.7665707,33.0938124 C24.6949787,31.9601289 24.2994989,30.5638693 24.5894787,28.9402854 L25.4622808,29.4525284 L25.5981077,25.816674 L22.3725343,27.7079807 L23.2719047,28.181104 C22.6715425,30.3590005 23.2727768,32.6767648 24.8608008,34.2650839 C25.1060316,34.5098645 25.3710697,34.7339627 25.6532099,34.9350912 C26.7079106,35.6963524 27.9758745,36.1055103 29.2766093,36.104322 C30.2814797,36.104322 31.1939563,35.8633147 31.880288,35.5258358 L32.1539438,35.3914815 Z" id="Shape" fill="#FFFFFF"></path>
                            </g>
                        </g>
                    </g>
                </g>
            </g>
        </g>
    </g>
</svg>