<?xml version="1.0" encoding="UTF-8"?>
<svg width="76px" height="76px" viewBox="0 0 76 76" version="1.1" xmlns="http://www.w3.org/2000/svg" xmlns:xlink="http://www.w3.org/1999/xlink">
    <!-- Generator: Sketch 43.2 (39069) - http://www.bohemiancoding.com/sketch -->
    <title>webadmin.icon</title>
    <desc>Created with Sketch.</desc>
    <defs>
        <path d="M48.75,1.0909148e-15 C58,1.0909148e-15 64,6 64,15.25 L64,48.75 C64,58 58,64 48.75,64 L15.25,64 C6,64 7.10542736e-15,58 7.10542736e-15,48.75 L7.10542736e-15,15.25 C7.10542736e-15,6 6,1.0909148e-15 15.25,1.0909148e-15 L48.75,1.0909148e-15 Z" id="path-1"></path>
        <filter x="-15.6%" y="-12.5%" width="131.2%" height="131.2%" filterUnits="objectBoundingBox" id="filter-2">
            <feOffset dx="0" dy="2" in="SourceAlpha" result="shadowOffsetOuter1"></feOffset>
            <feGaussianBlur stdDeviation="3" in="shadowOffsetOuter1" result="shadowBlurOuter1"></feGaussianBlur>
            <feColorMatrix values="0 0 0 0 0.501960784   0 0 0 0 0.556862745   0 0 0 0 0.584313725  0 0 0 0.16 0" type="matrix" in="shadowBlurOuter1"></feColorMatrix>
        </filter>
    </defs>
    <g id="Page-1" stroke="none" stroke-width="1" fill="none" fill-rule="evenodd">
        <g id="utility" transform="translate(-234.000000, -1635.000000)">
            <g id="webadmin_box" transform="translate(192.000000, 1575.000000)">
                <g id="webadmin.icon" transform="translate(48.000000, 64.000000)">
                    <g id="bg">
                        <use fill="black" fill-opacity="1" filter="url(#filter-2)" xlink:href="#path-1"></use>
                        <use fill="#FFFFFF" fill-rule="evenodd" xlink:href="#path-1"></use>
                    </g>
                    <g id="webadmin" transform="translate(10.000000, 10.000000)">
                        <path d="M22,2 C10.96,2 2,10.96 2,22 C2,33.04 10.96,42 22,42 C33.04,42 42,33.04 42,22 C42,10.96 33.04,2 22,2 Z M22,40.72 C11.68,40.72 3.28,32.32 3.28,22 C3.28,11.68 11.68,3.28 22,3.28 C32.32,3.28 40.72,11.68 40.72,22 C40.72,32.32 32.32,40.72 22,40.72 Z" id="Shape" fill="#008ACF" fill-rule="nonzero"></path>
                        <circle id="Oval-3" fill="#008ACF" cx="22" cy="22" r="22"></circle>
                        <g id="webadmin_sketch_exp" transform="translate(9.000000, 13.000000)" fill="#FFFFFF">
                            <path d="M1.5,1.99742191 L1.5,17.0025781 C1.5,17.2791708 1.72103916,17.5 1.99700466,17.5 L24.0029953,17.5 C24.2769343,17.5 24.5,17.2769563 24.5,17.0025781 L24.5,1.99742191 C24.5,1.72082915 24.2789608,1.5 24.0029953,1.5 L1.99700466,1.5 C1.72306567,1.5 1.5,1.72304366 1.5,1.99742191 Z M0,1.99742191 C0,0.894276248 0.894978851,0 1.99700466,0 L24.0029953,0 C25.1059106,0 26,0.890925393 26,1.99742191 L26,17.0025781 C26,18.1057238 25.1050211,19 24.0029953,19 L1.99700466,19 C0.89408944,19 0,18.1090746 0,17.0025781 L0,1.99742191 Z" id="Rectangle-2" fill-rule="nonzero"></path>
                            <rect id="Rectangle-3" x="1" y="4" width="24" height="1"></rect>
                            <rect id="Rectangle-4" x="7" y="5" width="1" height="13"></rect>
                            <rect id="Rectangle-5" x="10" y="7" width="13" height="1"></rect>
                            <rect id="Rectangle-5" x="10" y="9" width="13" height="1"></rect>
                            <rect id="Rectangle-5" x="10" y="11" width="13" height="1"></rect>
                            <rect id="Rectangle-5" x="10" y="13" width="13" height="1"></rect>
                        </g>
                    </g>
                </g>
            </g>
        </g>
    </g>
</svg>