<?xml version="1.0" encoding="UTF-8"?>
<svg width="76px" height="76px" viewBox="0 0 76 76" version="1.1" xmlns="http://www.w3.org/2000/svg" xmlns:xlink="http://www.w3.org/1999/xlink">
    <!-- Generator: Sketch 43.2 (39069) - http://www.bohemiancoding.com/sketch -->
    <title>webdav.icon</title>
    <desc>Created with Sketch.</desc>
    <defs>
        <path d="M48.75,1.0909148e-15 C58,1.0909148e-15 64,6 64,15.25 L64,48.75 C64,58 58,64 48.75,64 L15.25,64 C6,64 7.10542736e-15,58 7.10542736e-15,48.75 L7.10542736e-15,15.25 C7.10542736e-15,6 6,1.0909148e-15 15.25,1.0909148e-15 L48.75,1.0909148e-15 Z" id="path-1"></path>
        <filter x="-15.6%" y="-12.5%" width="131.2%" height="131.2%" filterUnits="objectBoundingBox" id="filter-2">
            <feOffset dx="0" dy="2" in="SourceAlpha" result="shadowOffsetOuter1"></feOffset>
            <feGaussianBlur stdDeviation="3" in="shadowOffsetOuter1" result="shadowBlurOuter1"></feGaussianBlur>
            <feColorMatrix values="0 0 0 0 0.501960784   0 0 0 0 0.556862745   0 0 0 0 0.584313725  0 0 0 0.16 0" type="matrix" in="shadowBlurOuter1"></feColorMatrix>
        </filter>
        <linearGradient x1="50%" y1="0%" x2="50%" y2="100%" id="linearGradient-3">
            <stop stop-color="#FFFFFF" offset="0%"></stop>
            <stop stop-color="#FFFFFF" offset="100%"></stop>
        </linearGradient>
        <linearGradient x1="50%" y1="-25.7600253%" x2="50%" y2="100%" id="linearGradient-4">
            <stop stop-color="#F2F2F2" stop-opacity="0" offset="0%"></stop>
            <stop stop-color="#EBF1F3" offset="100%"></stop>
        </linearGradient>
        <rect id="path-5" x="0" y="0" width="34" height="41" rx="3"></rect>
        <linearGradient x1="0%" y1="50%" x2="100%" y2="50%" id="linearGradient-6">
            <stop stop-color="#2A87E7" offset="0%"></stop>
            <stop stop-color="#46C7E5" offset="100%"></stop>
        </linearGradient>
        <linearGradient x1="22.8416817%" y1="22.3764131%" x2="93.2700766%" y2="91.5443702%" id="linearGradient-7">
            <stop stop-color="#2A87E7" offset="0%"></stop>
            <stop stop-color="#46C7E5" offset="100%"></stop>
        </linearGradient>
    </defs>
    <g id="Page-1" stroke="none" stroke-width="1" fill="none" fill-rule="evenodd">
        <g id="utility" transform="translate(-234.000000, -2787.000000)">
            <g id="webdav_box" transform="translate(192.000000, 2727.000000)">
                <g id="webdav.icon" transform="translate(48.000000, 64.000000)">
                    <g id="bg">
                        <use fill="black" fill-opacity="1" filter="url(#filter-2)" xlink:href="#path-1"></use>
                        <use fill="#FFFFFF" fill-rule="evenodd" xlink:href="#path-1"></use>
                    </g>
                    <g id="Page-1" transform="translate(15.000000, 11.000000)">
                        <rect id="Rectangle-6" fill="url(#linearGradient-3)" x="1" y="1" width="32" height="40"></rect>
                        <rect id="Rectangle-8" fill="#A3C0D4" opacity="0.550000012" x="1" y="21" width="32" height="1"></rect>
                        <g id="Rectangle-7">
                            <use fill="url(#linearGradient-4)" fill-rule="evenodd" xlink:href="#path-5"></use>
                            <rect stroke="#CDDBE5" stroke-width="1" x="0.5" y="0.5" width="33" height="40" rx="3"></rect>
                        </g>
                        <rect id="Rectangle-9" fill="#FFFFFF" opacity="0.592957428" x="1" y="22" width="32" height="1"></rect>
                        <path d="M6,28 C6,28.5522847 6.43945834,29 7.00246167,29 L26.9975383,29 C27.5511826,29 28,28.5561352 28,28 L28,28 C28,27.4477153 27.5605417,27 26.9975383,27 L7.00246167,27 C6.44881738,27 6,27.4438648 6,28 L6,28 Z" id="Fill-2" fill="url(#linearGradient-6)"></path>
                        <path d="M6,35 C6,35.5522847 6.43945834,36 7.00246167,36 L26.9975383,36 C27.5511826,36 28,35.5561352 28,35 L28,35 C28,34.4477153 27.5605417,34 26.9975383,34 L7.00246167,34 C6.44881738,34 6,34.4438648 6,35 L6,35 Z" id="Fill-2" fill="url(#linearGradient-6)"></path>
                        <path d="M28.75,12.9990588 C28.75,15.6181712 26.6822904,17.75 24.118375,17.75 L8.589125,17.75 C6.73999624,17.75 5.25,16.2151135 5.25,14.3331765 C5.25,12.6450828 6.44727729,11.2375171 8.02781911,10.964307 C8.61812483,8.63478553 10.6563863,6.93993283 13.0659536,6.91567553 C14.2953359,5.25615016 16.2103424,4.25 18.29525,4.25 C20.9198017,4.25 23.2321095,5.85288148 24.2734431,8.25213625 C26.7649135,8.33602858 28.75,10.4340965 28.75,12.9990588 Z M8.50939424,12.4110507 C8.51035806,12.4113082 8.51304306,12.4118031 8.51661081,12.4122348 C8.51440741,12.4118768 8.51203535,12.4114859 8.50939424,12.4110507 Z M6.75,14.3331765 C6.75,15.3964867 7.57855088,16.25 8.589125,16.25 L24.118375,16.25 C25.8434391,16.25 27.25,14.799822 27.25,12.9990588 C27.25,11.1995287 25.8432696,9.74952941 24.118375,9.74952941 C24.1025734,9.74952941 24.0777529,9.75206868 24.0048298,9.76210528 C23.9222349,9.77335849 23.8846845,9.77791167 23.8358125,9.78209322 L23.2496926,9.83224252 L23.0613531,9.27494568 C22.3517018,7.17508617 20.4558983,5.75 18.29525,5.75 C16.5766081,5.75 15.0046315,6.64284844 14.0672997,8.1042147 L13.8244901,8.48277199 L13.376187,8.44690525 C13.3263996,8.44292198 13.2888277,8.43829952 13.2242211,8.42914294 C13.1430546,8.41736913 13.1248992,8.41541176 13.118375,8.41541176 C11.2435591,8.41541176 9.66206015,9.85172858 9.39527182,11.776389 L9.29961315,12.4664884 L8.60434545,12.4218723 C7.5574612,12.4376833 6.75,13.2822918 6.75,14.3331765 Z M8.589125,12.4163529 C8.53967226,12.4139847 8.52543905,12.413303 8.51661081,12.4122348 C8.52804872,12.4140931 8.53494143,12.4150651 8.55132882,12.4167507 C8.56389815,12.4164859 8.5764973,12.4163529 8.589125,12.4163529 Z" id="Stroke-4" fill="url(#linearGradient-7)" fill-rule="nonzero"></path>
                    </g>
                </g>
            </g>
        </g>
    </g>
</svg>