<?xml version="1.0" encoding="UTF-8"?>
<svg width="316px" height="199px" viewBox="0 0 316 199" version="1.1" xmlns="http://www.w3.org/2000/svg" xmlns:xlink="http://www.w3.org/1999/xlink">
    <!-- Generator: Sketch 55.1 (78136) - https://sketchapp.com -->
    <title>error</title>
    <desc>Created with Sketch.</desc>
    <g id="Page-1" stroke="none" stroke-width="1" fill="none" fill-rule="evenodd">
        <g id="Popup---reload" transform="translate(-1122.000000, -408.000000)" fill-rule="nonzero">
            <g id="Group-40" transform="translate(803.000000, 187.000000)">
                <g id="error" transform="translate(319.000000, 221.000000)">
                    <g id="Group" opacity="0.3" transform="translate(97.815920, 84.864048)" fill="#A1D7FA">
                        <polygon id="Shape" points="2.98179104 0.0446223565 2.93376451 0.0446223565 3.0358209 0.0446223565"></polygon>
                        <path d="M2.93976783,0.0566465257 C1.32495662,0.0796573577 0.0279957396,1.39725881 0.028159204,3.01459215 L0.028159204,36.976858 C1.95256609,36.6164085 3.90562149,36.4312814 5.86338308,36.4237462 L5.86338308,36.4237462 C5.86845393,43.0524638 3.83065005,49.5212328 0.028159204,54.9469789 L0.028159204,65.7687311 L5.94742952,65.7687311 L5.94742952,17.7562236 C3.95480221,12.0685868 2.93788433,6.08419816 2.93976783,0.0566465257 L2.93976783,0.0566465257 Z" id="Shape"></path>
                        <path d="M56.3872968,53.5822356 L56.3872968,53.5822356 C56.3872968,24.0636691 32.5173053,0.12111648 3.04182421,0.0746827795 L2.93976783,0.0746827795 C2.93976783,29.6260882 26.8609783,53.5822356 56.3692869,53.5822356 L56.3872968,53.5822356 Z" id="Shape"></path>
                    </g>
                    <path d="M284.066965,184.619094 L89.5595025,184.619094 L85.6573466,182.21426 L105.888524,48.8602115 C106.331329,45.2424823 109.398983,42.5237332 113.038474,42.5234743 L290.178342,40.1907855 C295.737413,40.1907855 301.140398,43.3170695 300.203881,50.6157402 L284.066965,184.619094 Z" id="Shape" fill="#A1D7FA"></path>
                    <path d="M290.526534,41.008429 C293.588226,41.008429 296.229685,42.0244713 297.784544,43.7920242 C299.159303,45.3551662 299.687595,47.4714199 299.35141,50.0866767 L283.004378,183.416677 L89.8656716,183.416677 L86.9300498,181.613051 L107.40136,48.6618127 L107.40136,48.6257402 C107.77331,45.5946233 110.355296,43.3243279 113.404677,43.3471299 L290.538541,41.0144411 L290.526534,41.008429 Z M290.538541,39.8120242 L113.380663,42.1387009 C109.741172,42.1389597 106.673518,44.8577089 106.230713,48.4754381 L85.6633499,182.21426 L89.5655058,184.619094 L284.072968,184.619094 L300.54607,50.2369789 C301.482587,42.9383082 296.079602,39.8120242 290.520531,39.8120242 L290.538541,39.8120242 Z" id="Shape" fill="#1C88DC"></path>
                    <path d="M280.170813,182.21426 L85.6633499,182.21426 L102.35257,46.0706042 C102.795375,42.452875 105.86303,39.7338671 109.502521,39.7338671 L289.493964,39.7338671 C291.557201,39.7338671 293.521351,40.620096 294.888596,42.1675354 C296.255842,43.7149749 296.894941,45.7752319 296.643914,47.8261329 L280.170813,182.21426 Z" id="Shape" fill="#BDE7F4"></path>
                    <path d="M289.493964,40.9362833 C291.214246,40.9362833 292.852219,41.6737746 293.99233,42.9638789 C295.132442,44.2539831 295.665132,45.9719169 295.455257,47.6818429 L279.102222,181.011843 L86.9960862,181.011843 L103.517214,46.2148943 C103.887286,43.1997775 106.445129,40.9348566 109.478507,40.9362833 L289.493964,40.9362833 L289.493964,40.9362833 Z M289.493964,39.7338671 L109.478507,39.7338671 C105.839017,39.7338671 102.771362,42.452875 102.328557,46.0706042 L85.6633499,182.21426 L280.170813,182.21426 L296.643914,47.832145 C296.894941,45.781244 296.255842,43.720987 294.888596,42.1735475 C293.521351,40.6261081 291.557201,39.7400259 289.493964,39.7398792 L289.493964,39.7338671 Z" id="Shape" fill="#1C88DC"></path>
                    <path d="M272.408524,176.009873 L94.2540962,176.009873 C93.3902981,176.016254 92.5655908,175.649723 91.9908429,175.003914 C91.4160949,174.358105 91.1470274,173.495628 91.2524378,172.637009 L106.632935,47.3812387 C106.81891,45.8656802 108.109904,44.7305325 109.634594,44.7418484 L287.765008,44.7418484 C288.628806,44.7354685 289.453514,45.1019994 290.028262,45.7478084 C290.60301,46.3936174 290.872077,47.2560942 290.766667,48.114713 L275.368159,173.370483 C275.184129,174.870111 273.917198,175.999918 272.408524,176.009873 Z" id="Shape" fill="#F3F9FF"></path>
                    <polygon id="Shape" fill="#1C88DC" points="255.815357 193.853656 239.00607 193.853656 240.578939 181.029879 257.388226 181.029879"></polygon>
                    <polygon id="Shape" fill="#A1D7FA" points="252.615589 193.853656 235.806302 193.853656 237.379171 181.029879 254.188458 181.029879"></polygon>
                    <path d="M256.031476,182.232296 L254.752769,192.651239 L237.163051,192.651239 L238.441758,182.232296 L256.031476,182.232296 L256.031476,182.232296 Z M257.388226,181.029879 L237.379171,181.029879 L235.806302,193.853656 L255.815357,193.853656 L257.358209,181.029879 L257.388226,181.029879 Z" id="Shape" fill="#1C88DC"></path>
                    <polygon id="Shape" fill="#1C88DC" points="127.87267 193.853656 111.063383 193.853656 112.630249 181.029879 129.439536 181.029879"></polygon>
                    <polygon id="Shape" fill="#A1D7FA" points="124.666899 193.853656 107.857612 193.853656 109.430481 181.029879 126.239768 181.029879"></polygon>
                    <path d="M128.082786,182.232296 L126.80408,192.651239 L109.214362,192.651239 L110.493068,182.232296 L128.082786,182.232296 L128.082786,182.232296 Z M129.439536,181.029879 L109.430481,181.029879 L107.875622,193.859668 L127.866667,193.859668 L129.439536,181.035891 L129.439536,181.029879 Z" id="Shape" fill="#1C88DC"></path>
                    <path d="M54.2479934,188.629154 L284.373134,188.629154 L284.373134,188.629154 C284.373134,193.832194 280.161389,198.050091 274.965937,198.050091 L54.2479934,198.050091 L54.2479934,188.629154 Z" id="Shape" fill="#A1D7FA"></path>
                    <path d="M272.366501,198.645287 L53.6476617,198.645287 L53.6476617,188.027946 L284.973466,188.027946 L284.973466,188.629154 C284.973466,194.899758 280.260862,198.645287 272.366501,198.645287 Z M54.848325,197.44287 L272.366501,197.44287 C275.710348,197.44287 283.364577,196.625227 283.772803,189.22435 L54.848325,189.22435 L54.848325,197.44287 Z" id="Shape" fill="#1C88DC"></path>
                    <path d="M10.4237811,188.629154 L242.493997,188.629154 L242.493997,188.629154 C242.493997,193.832194 238.282251,198.050091 233.086799,198.050091 L19.8249751,198.050091 C14.6295235,198.050091 10.4177778,193.832194 10.4177778,188.629154 L10.4177778,188.629154 L10.4237811,188.629154 Z" id="Shape" fill="#BDE7F4"></path>
                    <path d="M230.487363,198.645287 L22.4304146,198.645287 C14.5360531,198.645287 9.82344942,194.899758 9.82344942,188.623142 L9.82344942,188.021934 L243.094328,188.021934 L243.094328,188.623142 C243.094328,194.899758 238.381725,198.645287 230.487363,198.645287 Z M11.0361194,189.230363 C11.426335,196.631239 19.0865672,197.448882 22.4424212,197.448882 L230.487363,197.448882 C233.831211,197.448882 241.485439,196.631239 241.893665,189.230363 L11.0361194,189.230363 Z" id="Shape" fill="#1C88DC"></path>
                    <path d="M103.343118,188.629154 L103.343118,188.629154 C103.343118,190.78148 104.411708,192.530997 105.744444,192.530997 L147.16733,192.530997 C148.48806,192.530997 149.568657,190.78148 149.568657,188.629154 L103.343118,188.629154 Z" id="Shape" fill="#A1D7FA"></path>
                    <path d="M147.179337,193.132205 L105.756451,193.132205 C104.081526,193.132205 102.754793,191.15423 102.754793,188.629154 L102.754793,188.027946 L150.180995,188.027946 L150.180995,188.629154 C150.174992,191.15423 148.860265,193.132205 147.179337,193.132205 Z M103.955456,189.230363 C104.123549,190.847613 104.95801,191.929789 105.714428,191.929789 L147.137313,191.929789 C147.893731,191.929789 148.728192,190.847613 148.896285,189.230363 L103.955456,189.230363 Z" id="Shape" fill="#1C88DC"></path>
                    <rect id="Rectangle-path" fill="#1C88DC" x="0" y="197.44287" width="311" height="1.20241692"></rect>
                    <path d="M196.328491,80.7483082 L196.448557,80.7483082 C213.678076,80.808429 226.056915,94.3175831 224.063814,110.86284 C222.070713,127.408097 206.474096,140.748912 189.298607,140.748912 L189.178541,140.748912 C171.949022,140.688792 159.570182,127.179637 161.563284,110.634381 C163.556385,94.0891239 179.153002,80.7483082 196.328491,80.7483082 L196.328491,80.7483082 Z M196.328491,78.3434743 L196.328491,78.3434743 C177.988358,78.3434743 161.323151,92.7003323 159.179967,110.345801 C158.062486,118.559981 160.554463,126.85604 166.011741,133.089517 C171.702886,139.546495 179.921426,143.123686 189.154527,143.153746 L189.280597,143.153746 C207.62073,143.153746 224.285937,128.796888 226.429121,111.15142 C227.546602,102.93724 225.054625,94.6411801 219.597347,88.4077039 C213.906202,81.9507251 205.687662,78.3735347 196.454561,78.3434743 L196.328491,78.3434743 Z" id="Shape" fill="#A6D2ED"></path>
                    <path d="M197.325041,110.766647 L206.744245,102.698429 C208.143018,101.496012 208.377148,99.5541088 207.272537,98.3516918 C206.167927,97.1492749 204.138806,97.1492749 202.746036,98.3516918 L193.332836,106.413897 L185.88272,98.2795468 C184.778109,97.0771299 182.748988,97.0771299 181.356219,98.2795468 C179.963449,99.4819637 179.723317,101.423867 180.827927,102.626284 L188.278043,110.760634 L178.858839,118.828852 C177.460066,120.031269 177.225937,121.973172 178.330547,123.175589 C179.435158,124.378006 181.464279,124.378006 182.857048,123.175589 L192.276252,115.107372 L199.726368,123.247734 C200.830978,124.450151 202.8601,124.450151 204.252869,123.247734 C205.645638,122.045317 205.885771,120.103414 204.781161,118.900997 L197.325041,110.766647 Z" id="Shape" fill="#008ACF"></path>
                    <path d="M300.636119,35.8079758 C300.421215,35.8088322 300.222247,35.6945809 300.114425,35.5084093 C300.006603,35.3222377 300.006376,35.0925477 300.113831,34.9061631 L307.653997,21.8298792 C307.756211,21.6341988 307.957321,21.5103895 308.177816,21.5073453 C308.398311,21.5044118 308.602694,21.6227246 308.710159,21.8155627 C308.817624,22.0084008 308.810871,22.2447196 308.69257,22.4310876 L301.182421,35.5073716 C301.070604,35.7018172 300.859966,35.817721 300.636119,35.8079758 Z" id="Shape" fill="#A1D7FA"></path>
                    <path d="M305.798972,43.6116616 C305.507666,43.6113196 305.258644,43.4015904 305.208357,43.1142382 C305.158069,42.8268859 305.321031,42.5448481 305.594859,42.4453172 L314.930017,39.0424773 C315.238588,38.9404913 315.572175,39.1028912 315.682699,39.4089045 C315.793224,39.7149179 315.640561,40.0534525 315.338242,40.1727492 L305.985075,43.5755891 C305.925339,43.5974074 305.862522,43.6095833 305.798972,43.6116616 Z" id="Shape" fill="#A1D7FA"></path>
                    <path d="M292.177446,35.0324169 C291.924688,35.0323092 291.699072,34.8736663 291.613134,34.6356193 L288.32932,25.6174924 C288.227483,25.3084708 288.389646,24.974396 288.695213,24.8637103 C289.00078,24.7530246 289.338821,24.9059104 289.457944,25.2086707 L292.741758,34.2267976 C292.80826,34.4110078 292.780983,34.6161134 292.668657,34.7764718 C292.556331,34.9368301 292.37304,35.0324169 292.177446,35.0324169 L292.177446,35.0324169 Z" id="Shape" fill="#A1D7FA"></path>
                    <polygon id="Shape" fill="#BDE7F4" points="90.8081924 156.181934 99.8131675 142.835106 104.237612 136.269909 102.610713 142.907251 109.124312 133.967281 116.712504 125.321903 110.607131 135.073505 110.955323 136.985347 109.124312 136.269909 103.76335 144.825106 101.404046 143.13571"></polygon>
                    <polygon id="Shape" fill="#BDE7F4" points="266.255124 73.846435 275.2601 60.4996073 279.684544 53.940423 278.051642 60.5777644 284.571244 51.6377946 292.159436 42.9864048 286.054063 52.738006 286.402255 54.655861 284.571244 53.940423 279.204279 62.4896073 276.850978 60.8062236"></polygon>
                    <polygon id="Shape" fill="#BDE7F4" points="269.827098 112.179486 276.959038 102.271571 280.470978 97.4077946 279.180265 102.331692 284.343118 95.7003625 290.358441 89.2794562 285.513765 96.518006 285.79592 97.936858 284.343118 97.4077946 280.092769 103.750544 278.225738 102.50003"></polygon>
                    <g id="Group" opacity="0.2" transform="translate(164.306799, 6.613293)" fill="#A1D7FA">
                        <path d="M69.3923383,89.8088163 L1.55485904,89.8088163 C1.2468025,89.8158826 0.951387041,89.6858705 0.748472627,89.4536296 C0.545558213,89.2213887 0.456099006,88.9109016 0.504278607,88.6061027 L11.2922388,0.601208459 C11.3156995,0.353705071 11.4782213,0.141346627 11.7107731,0.0543322317 C11.943325,-0.0326821636 12.205074,0.020926006 12.3848425,0.192386707 L16.4370813,5.25456193 C16.6181161,5.44656022 16.9030608,5.49777884 17.1394693,5.38081571 L26.6487231,0.721450151 C27.0014845,0.533338301 27.4245852,0.533338301 27.7773466,0.721450151 L39.0215589,7.28063444 C39.3482921,7.45758368 39.7384087,7.47312234 40.0781426,7.32271903 L50.8060697,2.77758308 C51.1683758,2.61766243 51.5861163,2.64690199 51.9226866,2.85574018 L61.1978109,9.14438066 C61.5343812,9.35321886 61.9521217,9.38245842 62.3144279,9.22253776 L73.4505804,4.50305136 C73.5452866,4.46297013 73.6482804,4.44646706 73.7507463,4.45495468 L79.8921393,4.98401813 C80.18219,5.00557643 80.4499237,5.14794837 80.6302203,5.3765052 C80.8105169,5.60506203 80.8868536,5.89885841 80.8406633,6.18643505 L70.7370813,88.6121148 C70.638254,89.2849454 70.0711515,89.7894911 69.3923383,89.8088163 L69.3923383,89.8088163 Z" id="Shape"></path>
                    </g>
                    <path d="M228.296153,90.4100248 L160.458673,90.4100248 C160.150617,90.417091 159.855201,90.2870789 159.652287,90.054838 C159.449372,89.8225972 159.359913,89.5121101 159.408093,89.2073112 L170.196053,1.20241692 C170.219514,0.95491353 170.382036,0.742555086 170.614587,0.655540691 C170.847139,0.568526296 171.108888,0.622134465 171.288657,0.793595166 L175.340896,5.85577039 C175.52193,6.04776868 175.806875,6.09898729 176.043284,5.98202417 L185.552537,1.32265861 C185.905299,1.13454676 186.328399,1.13454676 186.681161,1.32265861 L197.925373,7.8818429 C198.252106,8.05879214 198.642223,8.0743308 198.981957,7.92392749 L209.709884,3.37879154 C210.07219,3.21887089 210.489931,3.24811045 210.826501,3.45694864 L220.101625,9.74558912 C220.438195,9.95442732 220.855936,9.98366688 221.218242,9.82374622 L232.354395,5.10425982 C232.449101,5.06417859 232.552095,5.04767552 232.654561,5.05616314 L238.795954,5.58522659 C239.086004,5.60678489 239.353738,5.74915682 239.534035,5.97771365 C239.714331,6.20627048 239.790668,6.50006687 239.744478,6.7876435 L229.640896,89.2133233 C229.542068,89.8861539 228.974966,90.3906995 228.296153,90.4100248 Z" id="Shape" fill="#D9F1FF"></path>
                    <path d="M228.296153,91.0111259 L160.458673,91.0111259 C159.979998,91.0181983 159.521914,90.816259 159.20398,90.4578248 C158.889108,90.0939724 158.74488,89.6125102 158.807761,89.1351662 L169.613731,1.1302719 C169.679622,0.613506585 170.048841,0.186862206 170.550249,0.0480966767 C170.988907,-0.0813156476 171.462266,0.0656399377 171.750912,0.420845921 L175.767131,5.44093656 L185.276385,0.787583082 C185.810511,0.514760492 186.445187,0.52603005 186.96932,0.817643505 L198.207529,7.36480363 C198.372504,7.4446197 198.564843,7.4446197 198.729818,7.36480363 L209.457745,2.81966767 C210.005884,2.57334954 210.641494,2.62318531 211.144677,2.95193353 L220.419801,9.24057402 C220.591353,9.32835732 220.794551,9.32835732 220.966103,9.24057402 L232.144279,4.55114804 C232.33342,4.47004172 232.539642,4.4369979 232.74461,4.45495468 L238.886003,4.98401813 C239.33439,5.01839192 239.748975,5.23576903 240.032637,5.58522659 C240.318596,5.94414491 240.444515,6.40507281 240.380829,6.85978852 L230.235224,89.2794562 C230.10727,90.2584321 229.281918,90.9954244 228.296153,91.0111259 L228.296153,91.0111259 Z M170.850415,1.20241692 C170.820771,1.21324787 170.798331,1.23796856 170.790381,1.26854985 L159.984411,89.2734441 C159.963132,89.4084857 160.000243,89.5462153 160.086468,89.6522054 C160.177742,89.7499188 160.307197,89.8026555 160.440663,89.7969807 L228.278143,89.7969807 C228.656908,89.7806954 228.971447,89.4984564 229.028557,89.123142 L239.132139,6.69746224 C239.152605,6.56806266 239.120144,6.43586306 239.04209,6.33072508 C238.962274,6.23667578 238.847032,6.18005935 238.723914,6.17441088 L232.600531,5.65135952 L221.446368,10.376858 C220.898229,10.6231761 220.262618,10.5733404 219.759436,10.2445921 L210.484312,3.96196375 C210.31276,3.87418045 210.109562,3.87418045 209.93801,3.96196375 L199.210083,8.47703927 C198.697402,8.70184662 198.109498,8.67518564 197.619204,8.40489426 L186.374992,1.85773414 C186.20021,1.76579789 185.991465,1.76579789 185.816683,1.85773414 L176.313433,6.52311178 C175.827004,6.77742761 175.229301,6.65721147 174.87864,6.23453172 L170.850415,1.20241692 Z" id="Shape" fill="#1C88DC"></path>
                    <path d="M187.557645,59.1108157 C187.438211,60.8141901 186.746265,62.42685 185.594561,63.6860121 C184.470739,64.7715907 182.952339,65.3494252 181.392239,65.2852266 C179.643273,65.2852266 178.366567,64.7521551 177.562123,63.6860121 C176.757678,62.6198691 176.477523,61.0887915 176.721658,59.0927795 C176.836614,57.3871648 177.531555,55.7724626 178.690746,54.5175831 C179.821288,53.4445651 181.336694,52.8743741 182.893068,52.9364048 C184.646036,52.9364048 185.922742,53.4674723 186.723184,54.5296073 C187.523626,55.5917422 187.80178,57.1188117 187.557645,59.1108157 Z M179.231045,59.1108157 C179.027684,60.1250868 179.151729,61.1778476 179.58524,62.116858 C180.021428,62.8153419 180.813197,63.208317 181.632371,63.1329003 C183.561437,63.1329003 184.692062,61.7841893 185.024245,59.0867674 C185.356429,56.3893454 184.555987,55.0386304 182.622919,55.0346224 C181.739927,55.0009695 180.891058,55.3783023 180.323648,56.0566767 C179.675987,56.94904 179.298744,58.0093683 179.237048,59.1108157 L179.231045,59.1108157 Z" id="Shape" fill="#1C88DC"></path>
                    <path d="M197.493134,60.5176435 C197.39183,61.8300603 196.842832,63.0676411 195.938275,64.0226888 C195.061417,64.8744303 193.875193,65.3305012 192.654461,65.2852266 C191.896529,65.3006126 191.150943,65.09146 190.511277,64.6840181 C189.911981,64.2908425 189.463365,63.7059416 189.238574,63.0246828 C188.976172,62.2101827 188.906298,61.3457707 189.034461,60.4996073 C189.131785,59.1920893 189.676753,57.958281 190.577313,57.0065861 C191.459369,56.1610924 192.647183,55.7117554 193.867131,55.7620846 C194.624882,55.7481241 195.370065,55.9571637 196.010315,56.3632931 C196.608448,56.7523643 197.057124,57.3331029 197.283018,58.0106042 C197.547012,58.8185025 197.618961,59.6769787 197.493134,60.5176435 Z M191.489818,60.5176435 C191.355574,61.2078824 191.415857,61.9219196 191.663914,62.5797885 C191.911043,63.0579515 192.426104,63.3349619 192.96063,63.2771903 C193.5305,63.3076601 194.077116,63.0475249 194.413433,62.5858006 C194.803122,61.9640833 195.034036,61.2558755 195.085804,60.5236556 C195.219832,59.8393908 195.159516,59.1311957 194.911708,58.4795468 C194.658099,58.0096146 194.145085,57.7408402 193.614992,57.8001813 C193.045899,57.7681924 192.498488,58.0231216 192.156186,58.4795468 C191.755806,59.0890612 191.516218,59.790259 191.459801,60.5176435 L191.489818,60.5176435 Z" id="Shape" fill="#1C88DC"></path>
                    <path d="M203.664544,65.2852266 C202.743675,65.3383547 201.869478,64.8751413 201.39529,64.0828097 L201.269221,64.0828097 C201.269221,64.8483484 201.257214,65.2912387 201.233201,65.4114804 L200.776949,69.1269486 L198.375622,69.1269486 L199.996517,55.9003625 L201.929585,55.9003625 L202.121692,57.1027795 L202.229751,57.1027795 C202.824364,56.231188 203.817347,55.7181508 204.871211,55.7380363 C205.805729,55.679148 206.689194,56.1696359 207.134461,56.9945619 C207.65097,58.079448 207.806668,59.3015622 207.578706,60.481571 C207.486221,61.3663451 207.24254,62.228611 206.858308,63.0306949 C206.550491,63.6881514 206.079174,64.2553859 205.489552,64.678006 C204.95778,65.0630309 204.320661,65.2750143 203.664544,65.2852266 L203.664544,65.2852266 Z M203.880663,57.7761329 C203.364484,57.7457532 202.863396,57.9566951 202.523914,58.347281 C202.140667,58.9041373 201.914597,59.5542585 201.869552,60.2290634 L201.833532,60.4996073 C201.685148,61.2056448 201.739261,61.939319 201.989619,62.615861 C202.241281,63.0559927 202.728609,63.3059069 203.232305,63.253142 C204.300896,63.253142 204.947253,62.329285 205.171376,60.481571 C205.302734,59.8033133 205.253034,59.1023512 205.027297,58.4494864 C204.823942,58.0070601 204.365181,57.7400609 203.880663,57.782145 L203.880663,57.7761329 Z" id="Shape" fill="#1C88DC"></path>
                    <path d="M215.425041,62.399426 C215.356677,63.2576718 214.918309,64.0434952 214.224378,64.5517523 C213.364564,65.0936459 212.356868,65.3522451 211.342786,65.2912387 C210.805227,65.2987003 210.268267,65.2523778 209.7399,65.1529607 C209.32532,65.069083 208.922239,64.935872 208.539237,64.7561631 L208.791376,62.688006 C209.246639,62.9212277 209.725666,63.1046526 210.220166,63.2351057 C210.686464,63.3726443 211.168961,63.4474494 211.654959,63.4575529 C212.519436,63.4575529 212.983693,63.1950252 213.047728,62.6699698 C213.080327,62.500685 213.038788,62.3255311 212.933665,62.189003 C212.777746,62.0200887 212.595225,61.8779208 212.393367,61.7681571 C212.133223,61.6118429 211.781028,61.4294763 211.336783,61.2210574 C210.843646,61.0121646 210.381157,60.7370977 209.962023,60.4034139 C209.685575,60.1762103 209.477711,59.8764493 209.361692,59.5376737 C209.254403,59.146155 209.231888,58.7361973 209.295655,58.3352568 C209.369592,57.5666204 209.786662,56.8726991 210.430282,56.4474622 C211.221978,55.9651661 212.140283,55.7326359 213.065738,55.7801208 C214.110001,55.7724441 215.14036,56.0200913 216.067396,56.501571 L215.130879,58.3051964 C214.752169,58.1209522 214.36333,57.9583649 213.966235,57.8182175 C213.59913,57.6925628 213.213554,57.6295613 212.825605,57.6318429 C212.125218,57.6318429 211.749011,57.8322457 211.696982,58.2330514 C211.659502,58.4694414 211.765608,58.7055779 211.967131,58.8342598 C212.40368,59.107779 212.866188,59.3373572 213.347894,59.5196375 C213.849738,59.7233816 214.320579,59.9965847 214.746667,60.3312689 C215.021281,60.5626239 215.228646,60.8637424 215.346998,61.2030211 C215.463892,61.5906233 215.490589,61.9998882 215.425041,62.399426 L215.425041,62.399426 Z" id="Shape" fill="#1C88DC"></path>
                    <path d="M216.757778,63.9505438 C216.784081,63.5563382 216.955161,63.1858363 217.238043,62.9104532 C217.535073,62.6625646 217.91449,62.5359076 218.30063,62.5557402 C218.658566,62.5260556 219.010974,62.6584017 219.261161,62.9164653 C219.4819,63.2123825 219.564993,63.5890373 219.489287,63.9505438 C219.456522,64.3390652 219.283674,64.7023625 219.003018,64.9725982 C218.716067,65.2274648 218.341667,65.3610666 217.958441,65.3453474 C217.595491,65.3772074 217.23773,65.242298 216.985904,64.9786103 C216.765435,64.6848766 216.682283,64.3101432 216.757778,63.9505438 L216.757778,63.9505438 Z M219.435257,61.1429003 L217.532206,61.1429003 L218.132537,53.1287915 L220.83403,53.1287915 L219.435257,61.1429003 Z" id="Shape" fill="#1C88DC"></path>
                    <path d="M186.771211,34.9963444 L190.301161,31.8640483 C190.552129,31.6672667 190.714667,31.3786234 190.752954,31.0617291 C190.791241,30.7448349 190.702135,30.4256992 190.505274,30.1746526 C190.037679,29.7124174 189.285937,29.7124174 188.818342,30.1746526 L185.318408,33.3069486 L182.562886,30.1626284 C182.095291,29.7003933 181.343549,29.7003933 180.875954,30.1626284 C180.624985,30.3594101 180.462448,30.6480534 180.424161,30.9649476 C180.385874,31.2818419 180.474979,31.6009776 180.671841,31.8520242 L183.427363,34.9963444 L179.897413,38.1406647 C179.646445,38.3374463 179.483907,38.6260896 179.44562,38.9429839 C179.407333,39.2598781 179.496439,39.5790138 179.6933,39.8300604 C180.160895,40.2922956 180.912637,40.2922956 181.380232,39.8300604 L184.880166,36.673716 L187.635688,39.8180363 C188.103283,40.2802714 188.855025,40.2802714 189.32262,39.8180363 C189.573588,39.6212546 189.736126,39.3326113 189.774413,39.015717 C189.8127,38.6988228 189.723595,38.3796871 189.526733,38.1286405 L186.771211,34.9963444 Z" id="Shape" fill="#008ACF"></path>
                    <path d="M219.789453,34.9963444 L223.319403,31.8640483 C223.570371,31.6672667 223.732909,31.3786234 223.771196,31.0617291 C223.809483,30.7448349 223.720377,30.4256992 223.523516,30.1746526 C223.055921,29.7124174 222.304179,29.7124174 221.836584,30.1746526 L218.33665,33.3069486 L215.581128,30.1626284 C215.113533,29.7003933 214.361791,29.7003933 213.894196,30.1626284 C213.643228,30.3594101 213.48069,30.6480534 213.442403,30.9649476 C213.404116,31.2818419 213.493221,31.6009776 213.690083,31.8520242 L216.445605,34.9963444 L212.915655,38.1406647 C212.664687,38.3374463 212.502149,38.6260896 212.463862,38.9429839 C212.425575,39.2598781 212.514681,39.5790138 212.711542,39.8300604 C213.179137,40.2922956 213.930879,40.2922956 214.398474,39.8300604 L217.898408,36.673716 L220.65393,39.8180363 C221.121525,40.2802714 221.873267,40.2802714 222.340862,39.8180363 C222.59183,39.6212546 222.754368,39.3326113 222.792655,39.015717 C222.830942,38.6988228 222.741837,38.3796871 222.544975,38.1286405 L219.789453,34.9963444 Z" id="Shape" fill="#008ACF"></path>
                    <path d="M296.151642,26.1645921 L296.151642,25.7377341 C296.143298,25.4034411 296.21972,25.0724866 296.373765,24.7758006 C296.584906,24.4334173 296.862544,24.1369748 297.190216,23.9040483 C297.47574,23.7083761 297.730661,23.4713184 297.946633,23.2006344 C298.066004,23.0230865 298.1288,22.8134584 298.126733,22.599426 C298.139498,22.3768043 298.04039,22.1625078 297.862587,22.0282779 C297.647958,21.8858575 297.393298,21.8163034 297.136186,21.8298792 C296.478981,21.862734 295.839904,22.0568015 295.275158,22.3950151 L294.674826,21.1324773 C295.451249,20.660614 296.342042,20.4110772 297.250249,20.4110272 C297.90043,20.3719869 298.542015,20.5754523 299.051244,20.9821752 C299.491677,21.3616582 299.734881,21.9218439 299.711609,22.5032326 C299.721988,22.8857166 299.628626,23.2638632 299.441459,23.597432 C299.1602,24.0109731 298.803817,24.3678762 298.390879,24.6495468 C298.144229,24.8186232 297.922017,25.0209285 297.730514,25.2507553 C297.630951,25.4196257 297.58295,25.6139996 297.592438,25.8098792 L297.592438,26.1585801 L296.151642,26.1645921 Z M295.977546,28.1365559 C295.957759,27.8688643 296.046481,27.6044756 296.223682,27.4030816 C296.418187,27.2266272 296.676319,27.1375612 296.938076,27.1565861 C297.197027,27.1396651 297.45138,27.2311046 297.640464,27.4090937 C297.971013,27.8331013 297.971013,28.4279863 297.640464,28.851994 C297.456051,29.0346951 297.203093,29.1307846 296.94408,29.1165257 C296.682318,29.1328081 296.425619,29.0391286 296.235688,28.858006 C296.056612,28.6618631 295.963616,28.4019604 295.977546,28.1365559 L295.977546,28.1365559 Z" id="Shape" fill="#A1D7FA"></path>
                    <path d="M308.668557,33.5414199 C308.873049,33.3667381 309.139327,33.282185 309.406965,33.3069486 C309.656757,33.3651877 309.872918,33.5210507 310.007297,33.7398187 C310.170925,33.9399131 310.244783,34.1987941 310.21141,34.4552568 C310.062569,34.9740046 309.579306,35.3239513 309.040763,35.3029607 C308.793085,35.2550272 308.575993,35.1071895 308.440431,34.894139 C308.274343,34.6928052 308.198348,34.4318731 308.230315,34.1726888 C308.285081,33.911547 308.443198,33.6837858 308.668557,33.5414199 L308.668557,33.5414199 Z M311.219967,33.6977341 L310.439536,32.621571 L314.82796,29.0864653 L315.93257,30.6135347 L311.219967,33.6977341 Z" id="Shape" fill="#A1D7FA"></path>
                </g>
            </g>
        </g>
    </g>
</svg>