<?xml version="1.0" encoding="UTF-8"?>
<svg width="13px" height="16px" viewBox="0 0 13 16" version="1.1" xmlns="http://www.w3.org/2000/svg" xmlns:xlink="http://www.w3.org/1999/xlink">
    <!-- Generator: Sketch 63 (92445) - https://sketch.com -->
    <title>android logo copy 6</title>
    <desc>Created with Sketch.</desc>
    <g id="Dashboard" stroke="none" stroke-width="1" fill="none" fill-rule="evenodd">
        <g id="Dashboard-16:9-User_Mobile-devices-2A" transform="translate(-506.000000, -505.000000)" fill="#7EBC42">
            <g id="window" transform="translate(425.000000, 150.000000)">
                <g id="Group-35" transform="translate(81.000000, 351.000000)">
                    <path d="M5.66080988,19.0770916 C5.66080988,19.5868368 5.25683753,20 4.75843173,20 C4.26015269,20 3.85605359,19.5868368 3.85605359,19.0770916 L3.856,16.771 L2.77241393,16.7714413 C2.49240925,16.7714413 2.26513519,16.5392557 2.26513519,16.2528806 L2.265,12.506 L2.2572763,12.5060204 L2.2572763,8.93378561 L10.7427237,8.93378561 L10.7427237,12.5060204 L10.734,12.506 L10.7346113,16.2528806 C10.7346113,16.5392557 10.5075908,16.7714413 10.2275861,16.7714413 L9.143,16.771 L9.14394641,19.0770916 C9.14394641,19.5868368 8.73984731,20 8.24144151,20 C7.74303572,20 7.33906337,19.5868368 7.33906337,19.0770916 L7.339,16.771 L5.66,16.771 L5.66080988,19.0770916 Z M12.0974951,8.6384653 C12.5959009,8.6384653 13,9.05175816 13,9.5615033 L13,13.7090812 C13,14.2188263 12.5959009,14.6319896 12.0974951,14.6319896 C11.5990893,14.6319896 11.195117,14.2188263 11.195117,13.7090812 L11.195117,9.5615033 C11.195117,9.05175816 11.5990893,8.6384653 12.0974951,8.6384653 Z M0.902378143,8.6384653 C1.4009107,8.6384653 1.80488304,9.05175816 1.80488304,9.5615033 L1.80488304,13.7090812 C1.80488304,14.2188263 1.4009107,14.6319896 0.902378143,14.6319896 C0.404099104,14.6319896 7.57616192e-13,14.2188263 7.57616192e-13,13.7090812 L7.57616192e-13,9.5615033 C7.57616192e-13,9.05175816 0.404099104,8.6384653 0.902378143,8.6384653 Z M9.22354937,4.028072 C9.26537895,4.0584078 9.28705428,4.10028158 9.27197028,4.12206113 L8.54737615,5.16866347 C10.6240381,6.12169441 10.7076122,8.42274406 10.7076122,8.42274406 L2.2923878,8.42274406 C2.2923878,8.42274406 2.35160912,6.10072621 4.44392403,5.1557503 L3.72777621,4.12206113 C3.71281896,4.10028158 3.73449429,4.0584078 3.77632387,4.028072 C3.81764643,3.99799549 3.86378572,3.99086528 3.87886972,4.01264482 L3.87886972,4.01264482 L4.61829652,5.08213028 C5.12651845,4.88202024 5.74570466,4.76046739 6.50006338,4.76283824 C7.24953944,4.76520499 7.86565499,4.89049852 8.37211319,5.09342226 L9.12087676,4.01264482 C9.13596076,3.99086528 9.18210006,3.99799549 9.22354937,4.028072 Z M4.653224,6.02984584 C4.37347283,6.02984584 4.1467058,6.2617721 4.1467058,6.54788795 C4.1467058,6.8340038 4.37347283,7.06593006 4.653224,7.06593006 C4.93284841,7.06593006 5.1597422,6.8340038 5.1597422,6.54788795 C5.1597422,6.2617721 4.93284841,6.02984584 4.653224,6.02984584 Z M8.346776,6.02984584 C8.06702483,6.02984584 7.8402578,6.2617721 7.8402578,6.54788795 C7.8402578,6.8340038 8.06702483,7.06593006 8.346776,7.06593006 C8.62627366,7.06593006 8.8532942,6.8340038 8.8532942,6.54788795 C8.8532942,6.2617721 8.62627366,6.02984584 8.346776,6.02984584 Z" id="android-logo-copy-6"></path>
                </g>
            </g>
        </g>
    </g>
</svg>