<svg xmlns="http://www.w3.org/2000/svg" width="33" height="32" viewBox="0 0 33 32">
    <g fill="none" transform="translate(2 6)">
        <path fill="#5586FF" d="M17.084 11.242l11.092 5.593c.377.217.84.217 1.216 0s.608-.618.608-1.053V4.218c0-.435-.232-.836-.608-1.053-.376-.217-.84-.217-1.216 0L17.084 9.136c-.377.218-.608.619-.608 1.053 0 .435.231.836.608 1.053z"/>
        <rect width="24" height="20" fill="#3DD8B4" rx="2.202"/>
        <rect width="4" height="4" x="4" y="8" fill="#2AA689" rx="2"/>
        <rect width="4" height="4" x="10" y="8" fill="#2AA689" rx="2"/>
        <rect width="4" height="4" x="16" y="8" fill="#2AA689" rx="2"/>
    </g>
</svg>
