<?xml version="1.0" encoding="UTF-8"?>
<svg width="13px" height="16px" viewBox="0 0 13 16" version="1.1" xmlns="http://www.w3.org/2000/svg" xmlns:xlink="http://www.w3.org/1999/xlink">
    <!-- Generator: Sketch 63 (92445) - https://sketch.com -->
    <title>apple logo copy 4</title>
    <desc>Created with Sketch.</desc>
    <g id="Dashboard" stroke="none" stroke-width="1" fill="none" fill-rule="evenodd">
        <g id="Dashboard-16:9-User_Mobile-devices-2A" transform="translate(-506.000000, -465.000000)" fill="#333333">
            <g id="window" transform="translate(425.000000, 150.000000)">
                <g id="Group-33" transform="translate(81.000000, 311.000000)">
                    <path d="M9.45309751,7.8474558 C11.6945066,7.8474558 12.5762484,9.44772259 12.5762484,9.44772259 C12.5762484,9.44772259 10.8516664,10.3323994 10.8516664,12.4790904 C10.8516664,14.9007677 13,15.7352941 13,15.7352941 C13,15.7352941 11.4982176,19.9765018 9.46975837,19.9765018 C8.53806022,19.9765018 7.8137845,19.3465198 6.83210379,19.3465198 C5.8317451,19.3465198 4.83898334,20 4.19243209,20 C2.34011684,20 -2.16715534e-13,15.9768468 -2.16715534e-13,12.7429322 C-2.16715534e-13,9.56113933 1.98078198,7.89203397 3.83862465,7.89203397 C5.04640576,7.89203397 5.98365753,8.59088083 6.61155701,8.59088083 C7.15059859,8.59088083 8.15095727,7.8474558 9.45309751,7.8474558 Z M9.67720175,4 C9.67720175,4 9.89381908,5.30270227 8.85298709,6.55761969 C7.74158222,7.8975931 6.47829111,7.6783295 6.47829111,7.6783295 C6.47829111,7.6783295 6.24110968,6.62448694 7.17280782,5.39235801 C8.22055564,4.00678135 9.67720175,4 9.67720175,4 Z" id="apple-logo-copy-4"></path>
                </g>
            </g>
        </g>
    </g>
</svg>