<?xml version="1.0" encoding="utf-8"?>
<!DOCTYPE svg PUBLIC "-//W3C//DTD SVG 1.1//EN" "http://www.w3.org/Graphics/SVG/1.1/DTD/svg11.dtd">
<svg version="1.1" xmlns="http://www.w3.org/2000/svg" xmlns:xlink="http://www.w3.org/1999/xlink" width="1536" height="1536" viewBox="0 0 1536 1536">

<path fill="#231f20" d="M991.999 407.2l-22.399 20.3-169.601-159.9v596h-31.999v-596l-166.399 159.9-22.399-20.3 188.8-183.199h32l192 183.199z"></path>
<path fill="#000" d="M1395.2 64.001h-1251.2c-44.8 0-79.999 35.2-79.999 79.999v995.2c0 41.6 35.2 76.8 79.999 76.8h496v223.999h-192v31.999h672v-31.999h-192v-223.999h467.2c44.801 0 76.901-32.1 76.901-73.7l0.199-998.299c-3.3-44.8-35.501-79.999-77.1-79.999v0zM144 96h1251.2c25.601 0 44.8 22.399 44.8 48v847.999h-1344v-847.999c0-25.601 22.399-48 48-48zM895.999 1440h-223.999v-223.999h223.999v223.999zM1395.2 1183.999h-1251.2c-25.601 0-48-22.399-48-48v-112h1344v112c0 25.601-19.2 48-44.8 48z"></path>
</svg>
