<svg xmlns="http://www.w3.org/2000/svg" xmlns:xlink="http://www.w3.org/1999/xlink" width="148" height="108" viewBox="0 0 148 108">
    <defs>
        <linearGradient id="br9za2duia" x1="37.309%" x2="105.148%" y1="50%" y2="50%">
            <stop offset="0%" stop-color="#D9DCF1" stop-opacity=".8"/>
            <stop offset="100%" stop-color="#D9DCF1" stop-opacity="0"/>
        </linearGradient>
        <linearGradient id="nfs3yzavkb" x1="0%" x2="100%" y1="50%" y2="50%">
            <stop offset="0%" stop-color="#F4F3FB"/>
            <stop offset="42.442%" stop-color="#EBEAFB"/>
            <stop offset="46.832%" stop-color="#EFEFFC"/>
            <stop offset="50.203%" stop-color="#F7F7FD"/>
            <stop offset="50.837%" stop-color="#F2F2FC"/>
            <stop offset="52.488%" stop-color="#EBEBFB"/>
            <stop offset="57.077%" stop-color="#E9E9FB"/>
            <stop offset="100%" stop-color="#DFDFFA"/>
        </linearGradient>
        <linearGradient id="r0z0294xmc" x1="42.436%" x2="55.854%" y1="165.184%" y2="10.742%">
            <stop offset="0%" stop-color="#FFF"/>
            <stop offset="100%" stop-color="#FFF" stop-opacity=".4"/>
        </linearGradient>
        <linearGradient id="3n72t2je3e" x1="0%" x2="122.128%" y1="50%" y2="49.999%">
            <stop offset="0%" stop-color="#292929"/>
            <stop offset="79.842%" stop-color="#4B4B4B"/>
            <stop offset="100%" stop-color="#FCFCFF"/>
        </linearGradient>
        <linearGradient id="22h71mznff" x1="0%" x2="100%" y1="50%" y2="50%">
            <stop offset="0%" stop-color="#F1F0FB"/>
            <stop offset="100%" stop-color="#FCFCFF"/>
        </linearGradient>
        <linearGradient id="hermuk4kcg" x1="3.289%" x2="71.444%" y1="21.062%" y2="42.796%">
            <stop offset="0%"/>
            <stop offset="99.937%" stop-opacity=".2"/>
        </linearGradient>
        <linearGradient id="kub0nntgfi" x1="123.251%" x2="-33.969%" y1="45.151%" y2="47.042%">
            <stop offset="0%" stop-color="#4539FF"/>
            <stop offset="100%" stop-color="#8E3EC3"/>
        </linearGradient>
        <linearGradient id="g8076ect6j" x1="0%" x2="100%" y1="50%" y2="50%">
            <stop offset="0%" stop-color="#F4F3FB"/>
            <stop offset="42.442%" stop-color="#EBEAFB"/>
            <stop offset="46.832%" stop-color="#EFEFFC"/>
            <stop offset="50.203%" stop-color="#F7F7FD"/>
            <stop offset="50.837%" stop-color="#F2F2FC"/>
            <stop offset="52.488%" stop-color="#EBEBFB"/>
            <stop offset="57.077%" stop-color="#E9E9FB"/>
            <stop offset="100%" stop-color="#DFDFFA"/>
        </linearGradient>
        <linearGradient id="k8edsxyemk" x1="0%" x2="100%" y1="50%" y2="50%">
            <stop offset="0%" stop-color="#F1F0FB"/>
            <stop offset="100%" stop-color="#FCFCFF"/>
        </linearGradient>
        <linearGradient id="kltam6s5fl" x1="0%" x2="100%" y1="50%" y2="50%">
            <stop offset="0%" stop-color="#F4F3FB"/>
            <stop offset="20.25%" stop-color="#EBEAFB"/>
            <stop offset="64.338%" stop-color="#E9E9FB"/>
            <stop offset="100%" stop-color="#DFDFFA"/>
        </linearGradient>
        <linearGradient id="qm0k89c5un" x1="50%" x2="50%" y1="0%" y2="100%">
            <stop offset="0%" stop-color="#50C9FF"/>
            <stop offset="100%" stop-color="#B99EFF"/>
        </linearGradient>
        <linearGradient id="3d6daw617o" x1="0%" x2="100%" y1="50%" y2="50%">
            <stop offset="0%" stop-color="#F1F0FB"/>
            <stop offset="100%" stop-color="#FCFCFF"/>
        </linearGradient>
        <linearGradient id="kgpfhcd7sq" x1="1.407%" x2="100%" y1="50%" y2="50%">
            <stop offset="0%" stop-color="#7575FF"/>
            <stop offset="100%" stop-color="#A440FF"/>
        </linearGradient>
        <linearGradient id="plnkqzq9mr" x1="148.473%" x2="-33.969%" y1="58.335%" y2="43.855%">
            <stop offset="0%" stop-color="#4539FF"/>
            <stop offset="100%" stop-color="#8E3EC3"/>
        </linearGradient>
        <linearGradient id="lr8py0xn7u" x1="2.79%" x2="71.424%" y1="53.369%" y2="46.526%">
            <stop offset="0%" stop-color="#D9E2FC" stop-opacity="0"/>
            <stop offset="100%" stop-color="#FFF"/>
        </linearGradient>
        <linearGradient id="zrxxjbgxzA" x1="80.683%" x2="21.988%" y1="65.313%" y2="31.959%">
            <stop offset="0%" stop-color="#D9E2FC"/>
            <stop offset="100%" stop-color="#FFF"/>
        </linearGradient>
        <linearGradient id="dyufmndczB" x1="148.322%" x2="-33.84%" y1="74.44%" y2="31.98%">
            <stop offset="0%" stop-color="#100E2E"/>
            <stop offset="100%" stop-color="#8E3EC3"/>
        </linearGradient>
        <linearGradient id="1v8ut3gtvC" x1="170.729%" x2="-33.969%" y1="5.886%" y2="32.319%">
            <stop offset="0%" stop-color="#4539FF"/>
            <stop offset="100%" stop-color="#8E3EC3"/>
        </linearGradient>
        <linearGradient id="3vy3gfts6D" x1="35.765%" x2="93.912%" y1="92.739%" y2="4.966%">
            <stop offset=".095%" stop-color="#FFF" stop-opacity="0"/>
            <stop offset="60.028%" stop-color="#FFF" stop-opacity=".4"/>
            <stop offset="100%" stop-color="#FFF" stop-opacity=".1"/>
        </linearGradient>
        <path id="y61kwm8e2d" d="M99.288 33.692l-44.5 25.69c-2.475 1.429-5.524 1.429-8 0l-44.5-25.69C1.05 32.978.286 31.657.286 30.228c0-1.429.762-2.75 2-3.464L46.789 1.072c2.475-1.43 5.524-1.43 8 0l44.5 25.692c1.237.715 2 2.035 2 3.464 0 1.43-.763 2.75-2 3.464z"/>
        <path id="ggto1268mm" d="M49.778 19.531c0 7.866-11.031 14.242-24.64 14.242C11.532 33.773.5 27.397.5 19.531v-5.18C.5 6.484 11.531.107 25.139.107c13.608 0 24.639 6.377 24.639 14.242v5.181z"/>
        <path id="1w8avkr8mx" d="M12.015 5.092L.183 10.886"/>
        <path id="lpnifv46uz" d="M6.337.441l5.26 3.272c1.058.057 1.986.46 1.986 1.243 0 .847-1.087 1.25-2.25 1.25s-2.25-.403-2.25-1.25l.002.052-4.797-3.032c-.57-.36-1.645-1.11-.38-1.682.845-.382 1.654-.333 2.429.147z"/>
        <filter id="isx3lkgpes" width="105.2%" height="108.9%" x="-2.6%" y="-4.5%" filterUnits="objectBoundingBox">
            <feGaussianBlur in="SourceAlpha" result="shadowBlurInner1" stdDeviation=".5"/>
            <feOffset dx="-1" dy="1" in="shadowBlurInner1" result="shadowOffsetInner1"/>
            <feComposite in="shadowOffsetInner1" in2="SourceAlpha" k2="-1" k3="1" operator="arithmetic" result="shadowInnerInner1"/>
            <feColorMatrix in="shadowInnerInner1" values="0 0 0 0 0 0 0 0 0 0 0 0 0 0 0 0 0 0 0.20864292 0"/>
        </filter>
        <filter id="759a2f7bnw" width="159.7%" height="214.1%" x="-30.4%" y="-41.2%" filterUnits="objectBoundingBox">
            <feMorphology in="SourceAlpha" operator="dilate" radius="1.22" result="shadowSpreadOuter1"/>
            <feOffset dy="1" in="shadowSpreadOuter1" result="shadowOffsetOuter1"/>
            <feMorphology in="SourceAlpha" radius="1.22" result="shadowInner"/>
            <feOffset dy="1" in="shadowInner" result="shadowInner"/>
            <feComposite in="shadowOffsetOuter1" in2="shadowInner" operator="out" result="shadowOffsetOuter1"/>
            <feGaussianBlur in="shadowOffsetOuter1" result="shadowBlurOuter1" stdDeviation=".5"/>
            <feColorMatrix in="shadowBlurOuter1" values="0 0 0 0 0.188235294 0 0 0 0 0.0745098039 0 0 0 0 0.337254902 0 0 0 0.400322334 0"/>
        </filter>
        <filter id="ynms232jzy" width="139%" height="164.9%" x="-19.5%" y="-16.2%" filterUnits="objectBoundingBox">
            <feOffset dy="1" in="SourceAlpha" result="shadowOffsetOuter1"/>
            <feGaussianBlur in="shadowOffsetOuter1" result="shadowBlurOuter1" stdDeviation=".5"/>
            <feColorMatrix in="shadowBlurOuter1" values="0 0 0 0 0.188235294 0 0 0 0 0.0745098039 0 0 0 0 0.337254902 0 0 0 0.399748689 0"/>
        </filter>
        <ellipse id="kqrc7co7sp" cx="24.838" cy="14.022" rx="19.17" ry="11.195"/>
        <ellipse id="c7z3ei4tct" cx="23.965" cy="14.727" rx="18.052" ry="10.542"/>
    </defs>
    <g fill="none" fill-rule="evenodd">
        <path fill="#4E2371" d="M99.75 16.75L113.75 25 113.75 23.5 109.5 16 101.5 14.75z" transform="translate(4 10)"/>
        <g>
            <path fill="url(#br9za2duia)" fill-rule="nonzero" d="M71.017 91.918c1.404 0 2.784-.37 4-1.072l44.5-25.69c1.238-.714 2-2.034 2-3.464 0-1.429-.762-2.75-2-3.464l-44.5-25.692c-1.216-.703-2.596-1.072-4-1.072H51c-1.404 0-2.784.37-4 1.072L2.5 58.228c-1.238.715-2 2.035-2 3.464 0 1.43.763 2.75 2 3.465l44.502 25.69c1.216.701 2.595 1.07 4 1.07h20.015z" transform="translate(4 10) translate(19)"/>
            <path fill="url(#nfs3yzavkb)" fill-rule="nonzero" d="M101.502 61.69c.008 1.433-.757 2.757-2 3.467l-44.5 25.69c-2.476 1.428-5.525 1.428-8 0L2.5 65.156c-1.243-.71-2.008-2.033-2-3.465V30.228c-.008-1.43.757-2.755 2-3.464L47.002 1.072c2.475-1.43 5.524-1.43 8 0l44.5 25.692c1.242.709 2.007 2.032 2 3.463V61.69z" transform="translate(4 10) translate(19)"/>
            <path fill="url(#r0z0294xmc)" fill-rule="nonzero" d="M4.501 1.072l44.5 25.692c1.243.709 2.008 2.032 2 3.463V61.69c.009 1.432-.756 2.756-2 3.466l-44.5 25.69c-1.387.8-2.955 1.152-4.501 1.055V.016C1.546-.081 3.114.27 4.501 1.072z" transform="translate(4 10) translate(19) matrix(-1 0 0 1 51.002 0)"/>
            <path fill="#E5E5F1" d="M76.501 64.101v5.042l-1.001.636v-5.04l1.001-.638zm2.999-3.924c1.104-.703 2-.37 2 .744v5.04l-1 .637v-5.041c0-.557-.449-.723-1-.372-.551.35-1 1.088-1 1.644v5.042l-1 .636v-5.041c0-1.114.896-2.587 2-3.29zm4-.529v5.041l-1 .637v-5.042l1-.636zm1.5-7.004c.171-.109.338-.197.5-.267 1.141-.493 2-.022 2 1.197 0 1.392-1.119 3.233-2.5 4.111-1.209.77-2.218.545-2.45-.457l1.042-.663c.207.454.757.526 1.408.112.827-.526 1.5-1.633 1.5-2.467 0-.834-.673-1.084-1.5-.558l-11 6.999c-.827.526-1.5 1.633-1.5 2.467 0 .834.673 1.084 1.5.558.651-.414 1.201-1.187 1.408-1.904l1.042-.663c-.232 1.298-1.241 2.806-2.45 3.575-1.381.879-2.5.462-2.5-.93 0-1.219.859-2.783 2-3.742.162-.136.329-.26.5-.37l11-6.998z" transform="translate(4 10) translate(19)"/>
            <g transform="translate(4 10) translate(19) translate(.216)">
                <mask id="ht0asf0oth" fill="#fff">
                    <use xlink:href="#y61kwm8e2d"/>
                </mask>
                <g fill-rule="nonzero">
                    <use fill="url(#3n72t2je3e)" xlink:href="#y61kwm8e2d"/>
                    <use fill="url(#22h71mznff)" xlink:href="#y61kwm8e2d"/>
                </g>
                <path fill="url(#hermuk4kcg)" fill-opacity=".3" fill-rule="nonzero" d="M53.557 23.5c13.405 0 24.273 5.133 24.273 11.466 0 6.332-10.868 11.465-24.273 11.465-4.41 0-8.544-.555-12.108-1.526l.195-.237-.589.713c-3.848 4.697-7.105 9.32-9.771 13.869C19.138 79.969 2.002 90.626 2.002 90.626c-5.133 2.658-9.54 2.7-13.218.124-1.097-.767-2.555-3.235-2.75-4.5-.25-1.62.969-2.048 1.25-2.75.5-1.25.75-1.25 2-2.5s16.5-3.75 27.276-26.588c2.312-4.898 6.437-10.57 12.376-17.017l.37-.402-.13.142-.245-.142c-.358-.204-.578-.585-.576-.997v-2.67c-.002-.413.218-.794.576-.999l.793-.518c.206-.12.426-.204.652-.254 3.072-4.666 12.289-8.055 23.18-8.055zm10.971-10.191l3.028 1.748c1.595-.53 3.812-.998 6.728-1.057 1.66-.034 4.16.8 7.5 2.5l8.505 4.016c.327.155.487.53.373.873-.125.374-.53.576-.904.451l-.378-.117c-1.143-.33-2.38-.462-3.71-.396-4.137.205-6.781 1.97-7.751 2.744v.305c.003.412-.217.794-.575.998l-.793.518c-.713.412-1.59.412-2.304 0l-12.816-7.399c-.358-.204-.578-.585-.576-.997v-2.67c-.002-.413.218-.794.576-.999l.793-.518c.713-.412 1.591-.412 2.304 0z" mask="url(#ht0asf0oth)"/>
            </g>
            <path fill="#FFF" fill-rule="nonzero" d="M99.501 33.692l-44.5 25.69c-2.475 1.429-5.524 1.429-8 0l-44.5-25.69C1.454 33.097.74 32.056.556 30.868c-.266 1.634.51 3.262 1.946 4.085l44.5 25.688c2.474 1.429 5.523 1.429 7.998 0l44.497-25.688c1.437-.823 2.212-2.45 1.947-4.085-.183 1.188-.899 2.229-1.944 2.824z" transform="translate(4 10) translate(19)"/>
        </g>
        <path fill="#662F94" d="M101 11.5c-3.34-1.7-5.84-2.534-7.5-2.5-7.039.142-10 2.672-10 2.672l13.218 7.76s2.85-2.842 8.168-3.105c1.479-.074 2.841.098 4.088.513.11.037 1.535 2.34 4.276 6.91l1.25.75-3.879-7.542c-.403-.783-1.053-1.412-1.849-1.788L101 11.5z" transform="translate(4 10)"/>
        <path fill="url(#kub0nntgfi)" d="M101 10c-3.015-1.514-5.01-2.55-7.5-2.5-7.039.142-10 2.672-10 2.672l13.218 7.76s2.85-2.842 8.168-3.105c1.895-.094 3.35.113 4.364.623-3.49-2.624-6.24-4.44-8.25-5.45z" transform="translate(4 10)"/>
        <g fill-rule="nonzero">
            <path fill="url(#g8076ect6j)" d="M17.136 11.376c.002.412-.218.794-.576.998l-.792.518c-.713.412-1.591.412-2.304 0L.647 5.493C.29 5.29.07 4.908.071 4.496v-2.67C.07 1.412.29 1.031.649.826L1.44.31c.713-.412 1.592-.412 2.304 0l12.816 7.4c.358.203.579.584.576.996v2.671z" transform="translate(4 10) translate(80 8)"/>
            <path fill="url(#k8edsxyemk)" d="M16.561 9.703l-.792.518c-.713.412-1.59.412-2.304 0L.65 2.823c-.357-.206-.576-.586-.576-.998 0-.411.22-.792.576-.998L1.44.31c.713-.412 1.592-.412 2.304 0l12.816 7.4c.357.205.576.585.576.997 0 .411-.22.792-.576.997z" transform="translate(4 10) translate(80 8)"/>
            <path fill="#FFF" d="M16.56 9.703l-.792.518c-.713.412-1.59.412-2.304 0L.648 2.823C.347 2.65.14 2.352.088 2.009c-.076.471.147.94.56 1.177l12.816 7.398c.713.411 1.591.411 2.304 0l.791-.517c.414-.238.638-.706.561-1.177-.053.342-.259.642-.56.813z" transform="translate(4 10) translate(80 8)"/>
        </g>
        <g transform="translate(4 10) translate(45.5 9.5)">
            <g fill-rule="nonzero">
                <use fill="url(#kltam6s5fl)" xlink:href="#ggto1268mm"/>
                <use fill="url(#qm0k89c5un)" xlink:href="#ggto1268mm"/>
            </g>
            <g transform="translate(.244)">
                <ellipse cx="24.838" cy="14.266" fill="url(#3d6daw617o)" fill-rule="nonzero" opacity=".4" rx="24.582" ry="14.266"/>
                <g fill-rule="nonzero">
                    <use fill="url(#kgpfhcd7sq)" xlink:href="#kqrc7co7sp"/>
                    <use fill="url(#plnkqzq9mr)" xlink:href="#kqrc7co7sp"/>
                    <use fill="#000" filter="url(#isx3lkgpes)" xlink:href="#kqrc7co7sp"/>
                </g>
            </g>
            <path fill="#FFF" fill-rule="nonzero" d="M25.139 28.483c-13.346 0-24.206-6.11-24.62-13.738-.007.15-.019.299-.019.45 0 7.835 11.031 14.187 24.639 14.187 13.608 0 24.639-6.352 24.639-14.187 0-.151-.012-.3-.02-.45-.413 7.627-11.273 13.738-24.62 13.738z" opacity=".4"/>
            <mask id="jdlxki6g0v" fill="#fff">
                <use xlink:href="#c7z3ei4tct"/>
            </mask>
            <use fill="url(#lr8py0xn7u)" fill-rule="nonzero" opacity=".102" xlink:href="#c7z3ei4tct"/>
            <g mask="url(#jdlxki6g0v)">
                <g transform="translate(13.917 8.294)">
                    <g stroke-linecap="round" stroke-linejoin="round">
                        <use fill="#000" filter="url(#759a2f7bnw)" xlink:href="#1w8avkr8mx"/>
                        <use stroke="#FFF" stroke-width="2.439" xlink:href="#1w8avkr8mx"/>
                    </g>
                    <g fill-rule="nonzero">
                        <use fill="#000" filter="url(#ynms232jzy)" xlink:href="#lpnifv46uz"/>
                        <use fill="url(#zrxxjbgxzA)" xlink:href="#lpnifv46uz"/>
                    </g>
                    <path stroke="#FFF" stroke-linecap="round" stroke-width=".5" d="M10.49 4.635L26.591 6.587"/>
                    <ellipse cx="11.344" cy="4.922" fill="#50469B" fill-rule="nonzero" rx="1.5" ry="1"/>
                    <circle cx="11.344" cy="4.696" r="1" fill="#FFF" fill-rule="nonzero"/>
                </g>
            </g>
        </g>
        <g transform="translate(4 10) translate(0 31.5)">
            <g fill-rule="nonzero">
                <path fill="url(#g8076ect6j)" d="M17.136 11.376c.002.412-.218.794-.576.998l-.792.518c-.713.412-1.591.412-2.304 0L.647 5.493C.29 5.29.07 4.908.071 4.496v-2.67C.07 1.412.29 1.031.649.826L1.44.31c.713-.412 1.592-.412 2.304 0l12.816 7.4c.358.203.579.584.576.996v2.671z" transform="translate(42.5)"/>
                <path fill="url(#k8edsxyemk)" d="M16.561 9.703l-.792.518c-.713.412-1.59.412-2.304 0L.65 2.823c-.357-.206-.576-.586-.576-.998 0-.411.22-.792.576-.998L1.44.31c.713-.412 1.592-.412 2.304 0l12.816 7.4c.357.205.576.585.576.997 0 .411-.22.792-.576.997z" transform="translate(42.5)"/>
                <path fill="#FFF" d="M16.56 9.703l-.792.518c-.713.412-1.59.412-2.304 0L.648 2.823C.347 2.65.14 2.352.088 2.009c-.076.471.147.94.56 1.177l12.816 7.398c.713.411 1.591.411 2.304 0l.791-.517c.414-.238.638-.706.561-1.177-.053.342-.259.642-.56.813z" transform="translate(42.5)"/>
            </g>
            <g>
                <path fill="url(#dyufmndczB)" d="M43.68 1.324C37.459 8.007 33.157 13.87 30.778 18.912 20 41.75 4.75 44.25 3.5 45.5S2 46.75 1.5 48c-.28.702-1.5 1.13-1.25 2.75.195 1.265 1.654 3.733 2.75 4.5 3.679 2.575 8.085 2.534 13.218-.124 0 0 17.137-10.657 29.282-31.376C48.333 18.917 51.833 14 56 9V7.25L43.68 1.324z" transform="translate(0 4)"/>
                <path fill="url(#1v8ut3gtvC)" d="M43.5.25C37.988 6.492 34.155 11.409 32 15 17.75 38.75 5.565 41.749 3 45.25c-2.565 3.501-4.75 6 .25 9 3.333 2 7.656 1.56 12.968-1.319 0 0 16.677-9.708 28.282-30.431 2.333-4.167 6.167-9.25 11.5-15.25l-12.5-7z" transform="translate(0 4)"/>
                <path fill="url(#3vy3gfts6D)" d="M43.5.25C37.99 6.488 34.157 11.404 32 15 17.75 38.75 3 45.75 3 45.75 1.808 49.884 1.808 52.3 3 53c1.746 1.025 6.152 1.002 13.218-.069 0 0 16.282-9.931 28.282-30.431 2.274-3.885 6.108-8.969 11.5-15.25l-12.5-7z" opacity=".4" transform="translate(0 4)"/>
            </g>
            <circle cx="15" cy="49" r="1" fill="#4C2574"/>
            <circle cx="19.5" cy="45.5" r="1" fill="#4C2574"/>
            <circle cx="23.5" cy="42.5" r="1" fill="#4C2574"/>
            <circle cx="27" cy="39" r="1" fill="#4C2574"/>
            <circle cx="31" cy="34" r="1" fill="#4C2574"/>
        </g>
    </g>
</svg>
