<?xml version="1.0" encoding="UTF-8" standalone="no"?>
<svg width="64px" height="64px" viewBox="0 0 64 64" version="1.1" xmlns="http://www.w3.org/2000/svg" xmlns:xlink="http://www.w3.org/1999/xlink">
    <g stroke="none" stroke-width="1" fill="none" fill-rule="evenodd">
        <g fill="#000000">
            <g transform="translate(4.000000, 12.000000)">
                <path d="M28,30.1045513 C28,36.702453 31.9999811,40.0014038 37.3333333,40.0014038 C42.888848,40.0014038 47.9999057,35.6715309 47.9999057,30.3107358 C47.9999057,25.9808628 44.4443815,22.681912 40.2222379,22.681912 L38.6667044,22.681912 C40.666695,16.2901948 48.0000377,9.27992426 56,5.36242015 L50.6666478,0.00162506104 C38.8888669,5.774789 28,18.352039 28,30.1045513 L28,30.1045513 L28,30.1045513 Z"></path>
                <path d="M0,30.1045513 C0,36.702453 4.18890725,40.0014038 9.25986212,40.0014038 C14.7716443,40.0014038 19.8424681,35.6715309 19.8424681,30.3107358 C19.8424681,25.9808628 16.3149328,22.681912 12.3464392,22.681912 L10.8031506,22.681912 C12.7873974,16.2901948 19.8424681,9.27992426 28,5.36242015 L22.4882179,0.00162506104 C10.8031506,5.774789 0.000131042584,18.352039 0.000131042584,30.1045513 L0.000131042584,30.1045513 L0,30.1045513 Z"></path>
            </g>
        </g>
    </g>
</svg>