<svg xmlns="http://www.w3.org/2000/svg" width="22" height="22" viewBox="0 0 22 22">
    <g fill="none">
        <path fill="#00AFFF" d="M18.238.271H3.68C1.868.271.4 1.725.4 3.518v12.366c0 1.793 1.468 3.247 3.28 3.247h2.755v2.268l5.564-2.269h6.24c1.81 0 3.28-1.453 3.28-3.246V3.518c0-1.793-1.47-3.247-3.28-3.247z"/>
        <path fill="#00AFFF" d="M18.256.247H3.662C1.846.247.374 1.707.374 3.509v12.426c0 1.801 1.472 3.262 3.288 3.262h14.594c1.816 0 3.288-1.46 3.288-3.262V3.509c0-1.802-1.472-3.262-3.288-3.262z"/>
        <path fill="#FFF" d="M15.883 10.716c.669-.457 1.067-1.217 1.064-2.027 0-1.342-1.06-2.43-2.365-2.43-1.307 0-2.366 1.089-2.366 2.43-.003.796.382 1.544 1.031 2.004-.968.376-1.655.868-2.03 1.452-.59-.593-1.408-1.002-2.102-1.264.858-.522 1.381-1.455 1.379-2.46 0-1.584-1.25-2.869-2.793-2.869-1.543 0-2.792 1.285-2.792 2.87-.003 1.01.524 1.946 1.389 2.467-1.873.688-2.9 1.729-2.9 3.002h.856c0-1.065 1.256-1.983 3.447-2.521l.01-.002c1.038.23 3.435 1.067 3.435 2.523h.857c-.003-.197-.031-.392-.086-.582-.034-.13-.08-.258-.136-.381.226-.728 1.218-1.351 2.802-1.742.521.14 3.038.915 3.08 2.665 0 .014.006.026.006.04h.856c0-1.714-1.512-2.687-2.642-3.175zM14.58 7.138c.832 0 1.51.696 1.51 1.552 0 .855-.678 1.551-1.51 1.551-.833 0-1.51-.696-1.51-1.551 0-.856.678-1.552 1.51-1.552zM7.7 6.43c1.069 0 1.938.893 1.938 1.991s-.869 1.992-1.938 1.992c-1.07 0-1.939-.894-1.939-1.992 0-1.098.87-1.99 1.939-1.99z"/>
    </g>
</svg>
