<svg xmlns="http://www.w3.org/2000/svg" xmlns:xlink="http://www.w3.org/1999/xlink" width="108" height="108" viewBox="0 0 108 108">
    <defs>
        <linearGradient id="lxrxe671ya" x1="0%" x2="100%" y1="50%" y2="50%">
            <stop offset="40%" stop-color="#D9DCF1"/>
            <stop offset="100%" stop-color="#D9DCF1" stop-opacity=".2"/>
        </linearGradient>
        <linearGradient id="s227fh028b" x1="0%" x2="100%" y1="50%" y2="50%">
            <stop offset="0%" stop-color="#F4F3FB"/>
            <stop offset="20.25%" stop-color="#EBEAFB"/>
            <stop offset="37.192%" stop-color="#EFEFFC"/>
            <stop offset="50.203%" stop-color="#F7F7FD"/>
            <stop offset="56.787%" stop-color="#EDEDFC"/>
            <stop offset="64.338%" stop-color="#E9E9FB"/>
            <stop offset="100%" stop-color="#DFDFFA"/>
        </linearGradient>
        <linearGradient id="l91oumidtc" x1="0%" x2="100%" y1="50%" y2="50%">
            <stop offset="0%" stop-color="#F1F0FB"/>
            <stop offset="100%" stop-color="#FCFCFF"/>
        </linearGradient>
        <linearGradient id="ame3rv8lhd" x1="0%" x2="100%" y1="50%" y2="50%">
            <stop offset="0%" stop-color="#B9C0EA"/>
            <stop offset="40.255%" stop-color="#8071D0"/>
            <stop offset="48.298%" stop-color="#8855C9"/>
            <stop offset="56.661%" stop-color="#8071D0"/>
            <stop offset="100%" stop-color="#B9C0EA"/>
        </linearGradient>
        <linearGradient id="x6r88wg66e" x1="-.029%" x2="100.014%" y1="49.928%" y2="49.928%">
            <stop offset="0%" stop-color="#B9C0EA"/>
            <stop offset="40%" stop-color="#8071D0"/>
            <stop offset="48%" stop-color="#8855C9"/>
            <stop offset="57%" stop-color="#8071D0"/>
            <stop offset="100%" stop-color="#B9C0EA"/>
        </linearGradient>
        <linearGradient id="j6lvx2lt6f" x1="37.541%" x2="64.933%" y1="92.078%" y2="48.48%">
            <stop offset="0%" stop-color="#AAAFD0" stop-opacity=".8"/>
            <stop offset="100%" stop-color="#D9DCF1" stop-opacity="0"/>
        </linearGradient>
        <linearGradient id="u86g5l7y1h" x1="0%" x2="100%" y1="50%" y2="50%">
            <stop offset="0%" stop-color="#F4F3FB"/>
            <stop offset="42.442%" stop-color="#EBEAFB"/>
            <stop offset="46.832%" stop-color="#EFEFFC"/>
            <stop offset="50.203%" stop-color="#F7F7FD"/>
            <stop offset="50.837%" stop-color="#F2F2FC"/>
            <stop offset="52.488%" stop-color="#EBEBFB"/>
            <stop offset="57.077%" stop-color="#E9E9FB"/>
            <stop offset="100%" stop-color="#DFDFFA"/>
        </linearGradient>
        <linearGradient id="62jmgld4si" x1="0%" x2="100%" y1="50%" y2="50%">
            <stop offset="0%" stop-color="#F1F0FB"/>
            <stop offset="100%" stop-color="#FCFCFF"/>
        </linearGradient>
        <linearGradient id="d60bsq4dmj" x1="47.948%" x2="69.594%" y1="103.816%" y2="-1.435%">
            <stop offset="1.336%" stop-color="#DFDDF5"/>
            <stop offset="36.781%" stop-color="#F2F1FC"/>
            <stop offset="39.884%" stop-color="#FFF"/>
            <stop offset="57.096%" stop-color="#F1F0FB"/>
            <stop offset="90.05%" stop-color="#EAE9F7"/>
            <stop offset="100%" stop-color="#FFF"/>
        </linearGradient>
        <linearGradient id="xi137hid4k" x1="15.524%" x2="111.112%" y1="16.371%" y2="100%">
            <stop offset="0%" stop-color="#4539FF"/>
            <stop offset="100%" stop-color="#8E3EC3"/>
        </linearGradient>
        <linearGradient id="tgiiglhwxl" x1="11.665%" x2="68.507%" y1="44.317%" y2="185.354%">
            <stop offset="0%" stop-color="#FFF" stop-opacity=".24"/>
            <stop offset="100%" stop-color="#FFF" stop-opacity="0"/>
        </linearGradient>
        <linearGradient id="ikw4an8mln" x1="13.527%" x2="84.327%" y1="50%" y2="76.562%">
            <stop offset="0%" stop-color="#82FEFF" stop-opacity=".161"/>
            <stop offset="100%" stop-color="#FFF" stop-opacity=".2"/>
        </linearGradient>
        <linearGradient id="w0i5x1x4tp" x1="65.483%" x2="17.561%" y1="40.161%" y2="39.066%">
            <stop offset="0%" stop-color="#F7E2D8"/>
            <stop offset="47.716%" stop-color="#F9ECE5"/>
            <stop offset="100%" stop-color="#F9EDE7"/>
        </linearGradient>
        <linearGradient id="jo8do4md3q" x1="72.988%" x2="1.837%" y1="40.161%" y2="39.066%">
            <stop offset="0%" stop-color="#F7E2D8"/>
            <stop offset="47.716%" stop-color="#F9ECE5"/>
            <stop offset="100%" stop-color="#F9EDE7"/>
        </linearGradient>
        <linearGradient id="m58ptmcp7r" x1="74.389%" x2="-1.097%" y1="40.161%" y2="39.066%">
            <stop offset="0%" stop-color="#F7E2D8"/>
            <stop offset="47.716%" stop-color="#F9ECE5"/>
            <stop offset="100%" stop-color="#F9EDE7"/>
        </linearGradient>
        <linearGradient id="f5okc55r6s" x1="88.343%" x2="-30.334%" y1="48.197%" y2="47.996%">
            <stop offset="0%" stop-color="#F7E2D8"/>
            <stop offset="47.716%" stop-color="#F9ECE5"/>
            <stop offset="100%" stop-color="#F9EDE7"/>
        </linearGradient>
        <linearGradient id="eapr37ax4t" x1="69.233%" x2="9.704%" y1="40.161%" y2="39.066%">
            <stop offset="0%" stop-color="#F7E2D8"/>
            <stop offset="47.716%" stop-color="#F9ECE5"/>
            <stop offset="100%" stop-color="#F9EDE7"/>
        </linearGradient>
        <linearGradient id="8swh29nsxu" x1="0%" x2="106.302%" y1="48.831%" y2="51.904%">
            <stop offset="0%" stop-color="#F7E2D8"/>
            <stop offset="47.716%" stop-color="#F9ECE5"/>
            <stop offset="100%" stop-color="#F9EDE7"/>
        </linearGradient>
        <path id="m67h38or2m" d="M6.54 60.049L.177 27.417C-.219 25.204.821 23.1 2.905 21.9L39.932.498C41.076-.108 42.05-.14 43.32.286c1.27.424 2.19 1.205 2.475 2.412l6.366 32.634c.396 2.213-.045 4.375-2.13 5.576L12.554 62.502c-1.144.606-2.5.662-3.69.153-1.164-.419-2.038-1.4-2.323-2.606z"/>
        <path id="30i49hkjiv" d="M11.434 11.786C8.54 6.59 9.33 8.268 7.811 9.888 6.294 11.508.603 10.937.603 10.937S-1.673 3.217 2.785.93C7.242-1.356 11.55.108 14.11 10.59c0 0 .737 2.72 1.686 3.672 0 0-3.035-.095-4.363-2.477z"/>
        <path id="32c64fbgxx" d="M11.698 14.477s-.711.598-4.163.897c-1.882.163-6.038.135-7.138-.598-.603-.401-.505-.724.297-1.494.663-.636.517-1.087.595-1.793.38-3.43 5.336-5.982 7.613-5.41 2.276.571 6.07 3.43 7.018 4.193.948.762 2.188 1.862 1.43 5.102-.76 3.24-1.597 4.298-2.543 6.923-.094.26-1.324-1.26-1.324-2.142 0-.882.892-2.092.297-2.988-.594-.897-1.487.299-1.784-.598-.298-.896.199-2.05-.298-2.092z"/>
        <filter id="yezlz8k49g" width="94.5%" height="99%" x="1.7%" y=".2%" filterUnits="objectBoundingBox">
            <feGaussianBlur in="SourceGraphic" stdDeviation=".18"/>
        </filter>
    </defs>
    <g fill="none" fill-rule="evenodd">
        <g>
            <g>
                <g fill-rule="nonzero" transform="translate(-99 -49) translate(99 49) translate(0 21.6) translate(6.75 18.9)">
                    <path fill="url(#lxrxe671ya)" d="M7.596 14.603c-3.464 0-6.273-1.653-6.273-3.692 0-2.04 2.809-3.693 6.273-3.693h1.827c3.464 0 6.273 1.653 6.273 3.693 0 2.039-2.809 3.692-6.273 3.692H7.596z"/>
                    <path fill="url(#s227fh028b)" d="M13.533 10.234c0 2.334-2.386 4.186-6.352 4.186S.653 12.568.653 10.234L0 4.227C0 1.892 3.215 0 7.181 0s7.181 1.892 7.181 4.227l-.829 6.007z"/>
                    <ellipse cx="7.181" cy="4.227" fill="url(#l91oumidtc)" rx="7.181" ry="4.227"/>
                    <path fill="#FFF" d="M7.181 8.453c-3.89 0-7.055-1.82-7.175-4.092C.003 4.405 0 4.45 0 4.494 0 6.83 3.215 8.721 7.181 8.721s7.181-1.892 7.181-4.227c0-.044-.003-.089-.005-.133-.12 2.272-3.286 4.092-7.176 4.092z"/>
                    <path fill="url(#ame3rv8lhd)" d="M7.181 14.153c-3.89 0-6.401-1.78-6.522-4.053-.002.045-.006.09-.006.134 0 2.334 2.562 4.186 6.528 4.186 3.966 0 6.352-1.852 6.352-4.186 0-.045-.003-.09-.005-.134-.12 2.272-2.457 4.053-6.347 4.053z"/>
                    <g transform="translate(.653 .32)">
                        <ellipse cx="6.459" cy="4.037" fill="#3F2692" rx="6.459" ry="3.8"/>
                        <path fill="url(#x6r88wg66e)" d="M6.459.237c3.5 0 6.346 1.64 6.458 3.686V3.8c0-2.104-2.893-3.8-6.458-3.8C2.893 0 .009 1.696.009 3.8v.123C.121 1.876 2.968.237 6.46.237z"/>
                    </g>
                </g>
                <path fill="#97E496" d="M14.712 18.793c1.219-4.57 3.144-7.185 5.774-7.847 3.946-.993 4.754 1.04 5.203 2.109.449 1.068.081 3.503-2.545 4.221-1.75.48-4.554 2.324-8.41 5.535l-.445 1.125-.486-.2.91-4.943z" transform="translate(-99 -49) translate(99 49) translate(0 21.6)"/>
                <path fill="#3EC2A7" d="M12.754 18.78c-1.605-4.445-3.746-6.88-6.423-7.305-4.015-.638-4.647 1.458-5.003 2.563-.356 1.105.219 3.497 2.896 3.98 1.785.32 4.735 1.91 8.85 4.766l.541 1.08.467-.242-1.328-4.843z" transform="translate(-99 -49) translate(99 49) translate(0 21.6)"/>
                <path fill="#97E496" d="M14.29 14.83C14.159 8.426 12.47 4.35 9.23 2.603 4.37-.017 2.655 2.381 1.723 3.634.79 4.888.492 8.207 3.708 10.026c2.145 1.212 5.232 4.57 9.263 10.071l.224 1.626.702-.1.394-6.792z" transform="translate(-99 -49) translate(99 49) translate(0 21.6)"/>
                <path fill="#3EC2A7" d="M12.14 16.41c-.83-7.16.416-11.973 3.739-14.437 4.984-3.695 7.249-1.297 8.473-.049 1.224 1.248 2.062 4.9-1.223 7.44-2.19 1.695-5.098 5.93-8.723 12.705v1.848h-.793L12.14 16.41z" transform="translate(-99 -49) translate(99 49) translate(0 21.6)"/>
            </g>
            <g>
                <path fill="url(#j6lvx2lt6f)" fill-rule="nonzero" d="M57.275 1.596L3.381 32.754c-1.076.622-1.444 1.998-.822 3.074.198.343.484.628.827.825l37.675 21.634c1.955 1.123 4.361 1.115 6.309-.02l49.601-28.904c2.148-1.251 2.874-4.007 1.623-6.154-.4-.686-.975-1.255-1.666-1.647L61.75 1.58c-1.389-.79-3.092-.783-4.475.017z" filter="url(#yezlz8k49g)" transform="translate(-99 -49) translate(99 49) translate(1.8) translate(4.271 46.373)"/>
                <g fill-rule="nonzero">
                    <g>
                        <path fill="url(#u86g5l7y1h)" d="M76.348 30.845c.008 1.317-.695 2.536-1.84 3.188l-24.377 14.03c-2.276 1.314-5.081 1.314-7.358 0L1.838 24.431c-1.144-.652-1.847-1.87-1.84-3.187L0 18.213c-.007-1.316.696-2.534 1.84-3.186L26.215.986c2.277-1.315 5.082-1.315 7.359 0L74.51 24.628c1.144.652 1.847 1.87 1.84 3.185l-.003 3.032z" transform="translate(-99 -49) translate(99 49) translate(1.8) translate(0 44.97)"/>
                        <path fill="url(#62jmgld4si)" d="M74.514 31L50.137 45.03c-2.277 1.315-5.081 1.315-7.358 0L1.844 21.4c-1.139-.658-1.84-1.872-1.84-3.187 0-1.314.701-2.53 1.84-3.186L26.222.995C28.5-.32 31.304-.32 33.581.995l40.933 23.633c1.139.657 1.84 1.872 1.84 3.186 0 1.315-.701 2.53-1.84 3.187z" transform="translate(-99 -49) translate(99 49) translate(1.8) translate(0 44.97)"/>
                        <path stroke="#AAD" stroke-width=".5" d="M40.314 28.939l-9.91 5.519c-.135.078-.302.078-.438 0l-13.179-7.53c-.067-.039-.11-.11-.11-.19 0-.077.043-.15.11-.189l9.91-5.519c.136-.078.303-.078.439 0l13.178 7.53c.068.039.11.111.11.19 0 .078-.042.15-.11.189z" transform="translate(-99 -49) translate(99 49) translate(1.8) translate(0 44.97)"/>
                        <path fill="#FFF" d="M74.511 31L50.134 45.03c-2.277 1.315-5.082 1.315-7.358 0L1.84 21.4C.88 20.852.22 19.895.053 18.8c-.244 1.504.47 3.001 1.79 3.758l40.933 23.63c2.276 1.314 5.081 1.314 7.358 0L74.508 32.16c1.322-.758 2.035-2.255 1.79-3.758-.168 1.093-.826 2.05-1.787 2.598z" transform="translate(-99 -49) translate(99 49) translate(1.8) translate(0 44.97)"/>
                    </g>
                    <path fill="url(#d60bsq4dmj)" d="M40.456 68.495c-1.27-.448-2.222-1.513-2.525-2.824l-7.026-36.024c-.43-2.397.7-4.676 2.963-5.977L74.368.442c1.24-.663 2.53-.46 4.005-.166l3.48 1.167c1.268.447 2.22 1.512 2.523 2.823l7.039 36.026c.43 2.398-.7 4.677-2.963 5.978L47.75 69.663c-1.24.662-2.714.724-4.004.167l-3.291-1.335z" transform="translate(-99 -49) translate(99 49) translate(1.8) matrix(-1 0 0 1 122.32 0)"/>
                    <path fill="url(#xi137hid4k)" d="M38.54 66.336l-6.909-35.352c-.43-2.397.7-4.675 2.963-5.977l40.2-23.186c1.242-.655 2.3-.69 3.68-.23 1.379.46 2.377 1.307 2.686 2.614l6.912 35.354c.43 2.397-.05 4.74-2.312 6.04L45.07 68.995c-1.243.656-2.714.717-4.006.166-1.264-.454-2.214-1.517-2.523-2.824z" transform="translate(-99 -49) translate(99 49) translate(1.8) matrix(-1 0 0 1 119.756 0)"/>
                    <path fill="url(#tgiiglhwxl)" d="M31.735 13.647L51.972 1.92c1.242-.656 2.3-.69 3.68-.23 1.379.46 2.377 1.306 2.686 2.613l6.912 35.354-33.515-26.009z" transform="translate(-99 -49) translate(99 49) translate(1.8) matrix(-1 0 0 1 96.985 0)"/>
                    <path fill="#FFF" d="M81.407 65.31l6.716-34.328c.43-2.398-.7-4.676-2.962-5.977L44.472 1.608c-1.035-.562-2.25-.694-3.381-.368 1.402-.825 3.13-.868 4.57-.113l40.686 23.395c2.263 1.301 3.392 3.58 2.963 5.977l-6.983 35.27c-.23 1.15-1.581 2.792-3.22 3.22.92-.69 1.84-1.38 2.3-3.68z" transform="translate(-99 -49) translate(99 49) translate(1.8)"/>
                    <g fill="#D5D5EE">
                        <path d="M47.817 23.72c-.006.075-.053.145-.124.181l-1.517.793c-.142.074-.31.073-.44-.003l-2.347-1.372c-.066-.038-.103-.108-.097-.184l.018-.243c.005-.076.052-.145.123-.182l1.517-.793c.142-.074.31-.073.44.003l2.349 1.373c.065.038.102.108.096.183l-.018.244z" transform="translate(-99 -49) translate(99 49) translate(1.8) translate(17.54 50.5)"/>
                        <path d="M47.711 23.658l-1.517.793c-.142.074-.31.073-.44-.004l-2.347-1.372c-.066-.038-.103-.108-.097-.183.005-.075.052-.145.123-.182l1.518-.793c.141-.074.31-.073.44.004l2.348 1.372c.065.038.102.108.096.183-.006.076-.053.145-.124.182z" transform="translate(-99 -49) translate(99 49) translate(1.8) translate(17.54 50.5)"/>
                        <path d="M47.711 23.658l-1.517.793c-.142.074-.31.073-.44-.004l-2.348-1.372c-.055-.032-.09-.087-.096-.15-.02.087.016.173.092.217l2.347 1.372c.13.076.298.077.44.003l1.517-.792c.082-.043.131-.129.123-.215-.014.063-.058.117-.118.148zM15.424 1.845c-.003.075-.05.145-.12.182l-1.521.793c-.142.074-.313.073-.447-.002l-2.421-1.362c-.068-.038-.108-.108-.104-.183l.012-.242c.003-.075.049-.145.12-.182l1.521-.794c.142-.074.313-.073.448.002l2.422 1.363c.068.038.107.107.103.182l-.013.243z" transform="translate(-99 -49) translate(99 49) translate(1.8) translate(17.54 50.5)"/>
                        <path d="M15.316 1.784l-1.521.793c-.142.075-.312.074-.447-.002l-2.422-1.362c-.067-.038-.107-.107-.103-.182.004-.075.05-.144.12-.182l1.522-.793c.142-.075.312-.074.447.002l2.422 1.362c.068.038.107.107.103.183-.004.075-.05.144-.121.181z" transform="translate(-99 -49) translate(99 49) translate(1.8) translate(17.54 50.5)"/>
                        <path d="M15.316 1.784l-1.521.793c-.142.075-.313.074-.447-.002l-2.422-1.362c-.057-.031-.094-.086-.102-.149-.018.086.02.172.1.215l2.42 1.362c.135.076.306.077.447.003l1.521-.794c.083-.043.13-.128.12-.214-.014.063-.056.117-.116.148zM10.111 4.994c-.003.075-.049.144-.12.181l-1.514.793c-.141.074-.311.073-.446-.003l-2.42-1.362c-.068-.037-.108-.107-.104-.182l.01-.243c.003-.075.049-.144.12-.18l1.514-.794c.142-.074.312-.073.447.002L10.02 4.57c.067.038.106.107.103.182l-.012.243z" transform="translate(-99 -49) translate(99 49) translate(1.8) translate(17.54 50.5)"/>
                        <path d="M10.003 4.933l-1.515.792c-.141.074-.31.074-.445-.002L5.62 4.36c-.067-.038-.107-.108-.103-.183.003-.075.049-.144.12-.18l1.514-.793c.141-.075.312-.074.446.002l2.422 1.362c.067.038.106.107.103.183-.004.075-.05.144-.12.18z" transform="translate(-99 -49) translate(99 49) translate(1.8) translate(17.54 50.5)"/>
                        <path d="M10.002 4.933l-1.514.792c-.141.074-.311.074-.446-.002L5.622 4.36c-.058-.032-.095-.087-.103-.15-.018.087.021.172.1.216l2.42 1.362c.135.076.305.077.446.002L10 5c.082-.043.13-.128.119-.214-.013.062-.056.117-.116.148zM7.466 6.523c-.003.075-.049.144-.12.181l-1.51.792c-.142.074-.311.073-.446-.003L2.97 6.131c-.068-.037-.108-.107-.104-.182l.01-.242c.003-.075.048-.145.119-.181l1.511-.793c.141-.074.311-.073.446.002l2.421 1.363c.068.038.107.107.104.182l-.011.243z" transform="translate(-99 -49) translate(99 49) translate(1.8) translate(17.54 50.5)"/>
                        <path d="M7.357 6.462l-1.51.792c-.142.074-.312.073-.446-.003L2.98 5.89c-.067-.038-.107-.107-.104-.182.003-.075.049-.144.12-.181l1.51-.793c.142-.074.312-.073.447.003l2.42 1.362c.068.038.107.108.104.183-.004.075-.05.144-.12.18z" transform="translate(-99 -49) translate(99 49) translate(1.8) translate(17.54 50.5)"/>
                        <path d="M7.357 6.462l-1.511.792c-.141.074-.31.073-.445-.003L2.98 5.89c-.057-.031-.095-.086-.102-.149-.019.086.02.172.1.215l2.42 1.362c.134.076.304.077.445.003l1.51-.792c.083-.043.13-.128.119-.214-.013.062-.055.117-.115.148zM12.065 2.985c-.003.075-.049.144-.12.181l-1.518.793c-.141.074-.311.074-.446-.002l-1.72-.971c-.067-.038-.107-.108-.103-.183l.011-.242c.003-.075.049-.145.12-.181l1.518-.794c.142-.074.312-.073.447.002l1.72.972c.068.037.107.107.103.182l-.012.243z" transform="translate(-99 -49) translate(99 49) translate(1.8) translate(17.54 50.5)"/>
                        <path d="M11.957 2.924l-1.518.793c-.142.074-.312.073-.446-.003l-1.72-.97c-.068-.039-.107-.108-.104-.183.004-.075.05-.144.12-.181l1.518-.794c.142-.074.313-.073.447.003l1.72.97c.068.039.107.108.103.183-.003.075-.05.145-.12.182z" transform="translate(-99 -49) translate(99 49) translate(1.8) translate(17.54 50.5)"/>
                        <path d="M11.957 2.924l-1.518.793c-.142.074-.312.073-.447-.003l-1.72-.97c-.056-.032-.094-.087-.101-.15-.019.086.02.172.099.215l1.72.971c.134.076.304.077.446.003l1.517-.793c.083-.043.13-.128.12-.214-.014.062-.057.117-.116.148zM20.868 5.019c-.003.075-.05.145-.121.181l-1.52.794c-.142.074-.312.073-.446-.003l-1.71-.972c-.068-.038-.107-.107-.103-.183l.013-.242c.003-.075.05-.145.12-.182l1.522-.794c.142-.074.312-.073.446.003l1.711.973c.068.037.106.107.102.182l-.014.243z" transform="translate(-99 -49) translate(99 49) translate(1.8) translate(17.54 50.5)"/>
                        <path d="M20.76 4.958l-1.52.793c-.142.075-.312.074-.446-.002l-1.71-.973c-.068-.038-.107-.107-.103-.182.004-.075.05-.144.121-.182l1.521-.793c.142-.075.312-.074.447.002l1.71.973c.067.038.106.107.102.182-.004.075-.05.145-.121.182z" transform="translate(-99 -49) translate(99 49) translate(1.8) translate(17.54 50.5)"/>
                        <path d="M20.76 4.958l-1.52.793c-.142.074-.312.074-.446-.002l-1.711-.973c-.057-.031-.094-.086-.1-.149-.02.086.019.172.097.216l1.71.972c.134.076.304.077.446.002l1.52-.793c.083-.043.13-.128.12-.214-.013.062-.056.117-.116.148zM18.14 3.459c-.004.075-.05.144-.121.181l-1.521.793c-.142.075-.312.074-.446-.002l-1.715-.972c-.067-.037-.107-.107-.102-.182l.012-.243c.003-.075.05-.144.12-.181l1.521-.794c.143-.075.313-.074.447.002l1.716.972c.067.038.106.108.102.183l-.013.243z" transform="translate(-99 -49) translate(99 49) translate(1.8) translate(17.54 50.5)"/>
                        <path d="M18.032 3.397l-1.521.794c-.142.074-.312.073-.447-.003l-1.714-.971c-.068-.038-.107-.108-.103-.183.004-.075.05-.144.12-.181l1.522-.794c.142-.074.312-.073.447.002l1.715.972c.067.038.106.108.102.183-.004.075-.05.144-.121.181z" transform="translate(-99 -49) translate(99 49) translate(1.8) translate(17.54 50.5)"/>
                        <path d="M18.031 3.397l-1.52.794c-.142.074-.312.073-.447-.003l-1.715-.971c-.056-.032-.094-.087-.1-.15-.02.086.02.172.097.216l1.715.972c.134.075.304.076.446.002l1.52-.793c.083-.043.131-.129.12-.214-.013.062-.056.116-.116.147zM23.59 6.58c-.003.076-.05.145-.121.182l-1.52.793c-.143.075-.312.074-.446-.002l-1.706-.973c-.068-.038-.106-.108-.102-.183l.013-.243c.004-.075.05-.144.122-.181l1.52-.794c.143-.075.313-.074.446.002l1.707.974c.068.037.106.107.102.182l-.014.243z" transform="translate(-99 -49) translate(99 49) translate(1.8) translate(17.54 50.5)"/>
                        <path d="M23.483 6.52l-1.52.792c-.143.075-.313.074-.446-.002l-1.707-.973c-.067-.038-.106-.108-.101-.183.004-.075.05-.144.12-.181l1.522-.794c.142-.074.312-.073.446.003l1.707.973c.066.038.105.107.1.183-.004.075-.05.144-.121.181z" transform="translate(-99 -49) translate(99 49) translate(1.8) translate(17.54 50.5)"/>
                        <path d="M23.483 6.52l-1.521.792c-.142.075-.312.074-.445-.002l-1.707-.973c-.057-.032-.094-.087-.1-.15-.02.087.019.173.096.216l1.707.973c.134.076.303.077.445.003l1.52-.794c.083-.042.131-.128.121-.214-.013.063-.056.117-.116.148zM26.306 8.143c-.004.075-.05.144-.122.181l-1.52.793c-.142.075-.312.074-.445-.002l-1.702-.974c-.067-.037-.106-.107-.101-.182l.013-.243c.004-.075.05-.145.122-.182l1.52-.794c.143-.074.313-.073.446.003l1.703.974c.067.038.106.107.1.183l-.014.243z" transform="translate(-99 -49) translate(99 49) translate(1.8) translate(17.54 50.5)"/>
                        <path d="M26.199 8.081l-1.52.794c-.143.074-.312.073-.446-.003l-1.702-.973c-.067-.038-.106-.108-.101-.183.004-.075.05-.145.121-.182l1.521-.793c.142-.075.312-.074.446.002l1.702.974c.067.038.105.108.1.183-.004.075-.05.144-.121.181z" transform="translate(-99 -49) translate(99 49) translate(1.8) translate(17.54 50.5)"/>
                        <path d="M26.199 8.081l-1.521.794c-.142.074-.312.073-.445-.003l-1.703-.973c-.056-.032-.093-.087-.1-.15-.019.086.02.172.097.216l1.702.973c.134.076.303.077.445.003l1.52-.793c.083-.043.131-.129.122-.215-.014.063-.057.117-.117.148zM29.016 9.706c-.005.075-.051.144-.123.181l-1.52.794c-.142.074-.311.073-.444-.003l-1.699-.974c-.067-.038-.105-.108-.1-.183l.014-.243c.004-.075.05-.144.122-.181l1.52-.794c.143-.075.312-.074.445.002l1.7.975c.066.038.105.107.1.183l-.015.243z" transform="translate(-99 -49) translate(99 49) translate(1.8) translate(17.54 50.5)"/>
                        <path d="M28.908 9.644l-1.52.794c-.142.074-.312.073-.445-.003l-1.698-.974c-.067-.038-.105-.108-.1-.183.004-.075.05-.144.12-.181l1.522-.794c.142-.074.312-.073.445.003l1.699.974c.066.038.104.108.1.183-.005.075-.052.144-.123.181z" transform="translate(-99 -49) translate(99 49) translate(1.8) translate(17.54 50.5)"/>
                        <path d="M28.908 9.644l-1.52.794c-.142.074-.312.073-.445-.003l-1.698-.974c-.057-.032-.093-.087-.1-.15-.02.087.018.173.096.216l1.698.974c.133.076.303.077.444.003l1.521-.793c.082-.043.13-.129.121-.215-.014.063-.057.117-.117.148zM31.718 11.27c-.004.075-.05.145-.122.181l-1.52.794c-.143.074-.312.073-.444-.003l-1.695-.975c-.066-.037-.105-.107-.1-.183l.015-.243c.004-.075.05-.144.122-.181l1.52-.794c.143-.074.312-.073.445.003l1.695.975c.067.037.105.107.1.183l-.016.243z" transform="translate(-99 -49) translate(99 49) translate(1.8) translate(17.54 50.5)"/>
                        <path d="M31.611 11.208l-1.52.794c-.142.074-.311.073-.444-.003l-1.695-.975c-.066-.038-.104-.107-.1-.183.005-.075.051-.144.122-.181l1.521-.794c.142-.074.312-.073.445.003l1.694.975c.067.038.105.108.1.183-.005.075-.052.144-.123.181z" transform="translate(-99 -49) translate(99 49) translate(1.8) translate(17.54 50.5)"/>
                        <path d="M31.611 11.208l-1.52.794c-.142.074-.312.073-.444-.003l-1.695-.975c-.056-.031-.092-.086-.099-.149-.02.086.018.172.095.216l1.695.974c.132.076.301.077.443.003l1.52-.793c.083-.043.132-.129.122-.215-.014.063-.057.117-.117.148zM34.415 12.835c-.005.075-.052.144-.123.181l-1.52.794c-.142.074-.311.073-.444-.003l-1.69-.975c-.067-.038-.105-.108-.1-.183l.016-.243c.004-.076.05-.145.122-.182l1.52-.794c.143-.074.312-.073.445.003l1.69.976c.067.037.105.107.1.183l-.016.243z" transform="translate(-99 -49) translate(99 49) translate(1.8) translate(17.54 50.5)"/>
                        <path d="M34.308 12.773l-1.52.794c-.143.074-.312.073-.444-.003l-1.69-.975c-.067-.038-.105-.108-.1-.183.005-.076.051-.145.122-.182l1.521-.793c.142-.075.312-.074.444.002l1.69.976c.067.038.105.107.1.183-.005.075-.052.144-.123.181z" transform="translate(-99 -49) translate(99 49) translate(1.8) translate(17.54 50.5)"/>
                        <path d="M34.308 12.773l-1.52.794c-.143.074-.312.073-.444-.003l-1.69-.975c-.057-.032-.093-.087-.1-.15-.02.086.018.172.095.216l1.69.975c.133.076.302.077.444.003l1.52-.793c.083-.043.131-.129.122-.215-.014.063-.057.117-.117.148zM37.105 14.4c-.005.076-.052.145-.124.182l-1.52.793c-.142.075-.31.074-.443-.002l-1.686-.976c-.066-.038-.104-.108-.099-.183l.016-.243c.004-.076.051-.145.122-.182l1.521-.794c.142-.074.311-.073.444.003l1.686.976c.067.038.104.108.099.183l-.016.243z" transform="translate(-99 -49) translate(99 49) translate(1.8) translate(17.54 50.5)"/>
                        <path d="M36.998 14.34l-1.52.792c-.143.075-.311.074-.443-.003l-1.687-.975c-.066-.038-.104-.108-.099-.183.005-.076.052-.145.123-.182l1.52-.793c.143-.075.312-.074.444.002l1.687.976c.066.038.103.108.098.183-.005.076-.052.145-.123.182z" transform="translate(-99 -49) translate(99 49) translate(1.8) translate(17.54 50.5)"/>
                        <path d="M36.998 14.34l-1.52.792c-.143.075-.311.074-.443-.003l-1.687-.975c-.056-.032-.092-.087-.098-.15-.02.086.017.172.094.216l1.686.976c.132.076.3.077.443.003l1.52-.794c.083-.042.131-.128.123-.214-.015.063-.058.117-.118.148zM39.788 15.967c-.005.076-.052.145-.123.182l-1.52.793c-.143.075-.311.073-.443-.003l-1.682-.976c-.066-.038-.104-.108-.099-.183l.017-.243c.004-.076.051-.145.122-.182l1.521-.794c.142-.074.311-.073.443.003l1.683.977c.066.038.103.108.098.183l-.017.243z" transform="translate(-99 -49) translate(99 49) translate(1.8) translate(17.54 50.5)"/>
                        <path d="M39.682 15.906l-1.52.793c-.143.074-.311.073-.443-.003l-1.683-.976c-.066-.038-.103-.108-.098-.183.005-.076.052-.145.123-.182l1.52-.793c.143-.075.311-.074.443.002l1.683.977c.066.038.103.108.098.183-.005.075-.052.145-.123.182z" transform="translate(-99 -49) translate(99 49) translate(1.8) translate(17.54 50.5)"/>
                        <path d="M39.682 15.906l-1.521.793c-.142.074-.31.073-.442-.003l-1.683-.976c-.056-.032-.092-.087-.097-.15-.02.086.016.172.093.216l1.682.976c.132.076.3.078.442.003l1.52-.793c.083-.043.132-.128.123-.214-.014.062-.058.117-.117.148zM42.465 17.535c-.005.075-.052.145-.124.182l-1.52.793c-.142.074-.31.073-.442-.003l-1.678-.977c-.066-.038-.103-.108-.098-.183l.017-.243c.005-.076.052-.145.123-.182l1.52-.794c.143-.074.311-.073.443.003l1.679.977c.066.038.103.108.097.184l-.017.243z" transform="translate(-99 -49) translate(99 49) translate(1.8) translate(17.54 50.5)"/>
                        <path d="M42.359 17.473l-1.52.794c-.143.074-.311.073-.442-.003l-1.679-.977c-.066-.038-.103-.108-.098-.183.005-.076.052-.145.123-.182l1.52-.794c.143-.074.312-.073.443.003l1.679.977c.066.038.103.108.097.184-.005.075-.052.144-.123.181z" transform="translate(-99 -49) translate(99 49) translate(1.8) translate(17.54 50.5)"/>
                        <path d="M42.359 17.473l-1.521.794c-.142.074-.31.073-.442-.003l-1.678-.977c-.056-.032-.092-.087-.097-.15-.02.086.016.172.092.216l1.679.977c.131.076.3.077.441.003l1.52-.793c.083-.043.132-.129.124-.215-.015.063-.058.117-.118.148zM45.135 19.103c-.005.076-.052.145-.124.182l-1.52.793c-.142.075-.31.073-.441-.003l-1.674-.977c-.066-.038-.103-.108-.098-.183l.018-.244c.005-.075.052-.145.123-.181l1.52-.794c.143-.075.311-.074.442.003l1.675.978c.066.038.103.108.097.183l-.018.243z" transform="translate(-99 -49) translate(99 49) translate(1.8) translate(17.54 50.5)"/>
                        <path d="M45.03 19.042l-1.521.793c-.142.074-.31.073-.441-.003l-1.675-.977c-.065-.039-.103-.108-.097-.184.005-.075.052-.144.123-.181l1.52-.794c.143-.074.312-.073.443.003l1.674.978c.066.038.103.108.097.183-.005.075-.052.145-.123.182z" transform="translate(-99 -49) translate(99 49) translate(1.8) translate(17.54 50.5)"/>
                        <path d="M45.03 19.042l-1.521.793c-.142.074-.31.073-.441-.003l-1.675-.977c-.055-.032-.091-.087-.097-.15-.02.086.016.172.093.216l1.674.977c.13.076.299.078.44.003l1.521-.793c.083-.043.132-.128.124-.214-.015.062-.059.117-.119.148zM47.8 20.673c-.006.075-.053.145-.125.182l-1.52.793c-.142.074-.31.073-.44-.004l-1.67-.977c-.067-.038-.104-.108-.098-.184l.018-.243c.005-.076.052-.145.124-.182l1.52-.794c.142-.074.31-.073.441.003l1.671.979c.066.038.103.108.097.183l-.019.244z" transform="translate(-99 -49) translate(99 49) translate(1.8) translate(17.54 50.5)"/>
                        <path d="M47.694 20.611l-1.52.793c-.143.075-.31.073-.441-.003l-1.67-.978c-.066-.038-.103-.108-.098-.183.006-.075.053-.145.124-.182l1.52-.793c.143-.075.31-.073.442.003l1.67.978c.066.038.103.108.097.183-.006.076-.053.145-.124.182z" transform="translate(-99 -49) translate(99 49) translate(1.8) translate(17.54 50.5)"/>
                        <path d="M47.694 20.611l-1.521.793c-.142.075-.31.073-.44-.003l-1.671-.978c-.055-.032-.09-.087-.096-.15-.021.087.015.173.091.217l1.67.977c.131.077.3.078.441.004l1.52-.793c.083-.043.132-.129.124-.215-.015.063-.058.117-.118.148zM50.457 22.243c-.006.075-.053.145-.125.182l-1.52.793c-.142.074-.31.073-.44-.003l-1.666-.979c-.066-.038-.103-.108-.096-.183l.018-.244c.005-.075.052-.145.124-.181l1.52-.794c.142-.075.31-.073.441.003l1.667.98c.065.037.102.107.096.182l-.02.244z" transform="translate(-99 -49) translate(99 49) translate(1.8) translate(17.54 50.5)"/>
                        <path d="M50.352 22.181l-1.521.794c-.142.074-.31.073-.44-.004l-1.667-.978c-.065-.038-.102-.108-.096-.184.006-.075.053-.144.124-.181l1.52-.794c.143-.074.31-.073.441.003l1.667.98c.065.037.102.107.096.183-.006.075-.053.144-.124.181z" transform="translate(-99 -49) translate(99 49) translate(1.8) translate(17.54 50.5)"/>
                        <path d="M50.351 22.181l-1.52.794c-.142.074-.31.073-.44-.004l-1.667-.978c-.055-.032-.09-.087-.096-.15-.02.086.016.172.091.216l1.667.979c.13.076.298.077.44.003l1.52-.793c.082-.043.132-.129.124-.215-.015.063-.059.117-.119.148zM15.559 8.08c-.004.075-.05.144-.121.181l-1.514.792c-.141.075-.31.074-.445-.002l-1.71-.973c-.067-.037-.106-.107-.102-.182l.011-.243c.004-.075.05-.144.12-.181l1.515-.793c.141-.074.311-.073.445.002l1.711.973c.067.038.106.108.102.183l-.012.243z" transform="translate(-99 -49) translate(99 49) translate(1.8) translate(17.54 50.5)"/>
                        <path d="M15.45 8.018l-1.514.793c-.141.074-.31.073-.444-.003l-1.711-.972c-.067-.038-.106-.108-.102-.183.003-.075.049-.144.12-.181l1.514-.793c.142-.074.312-.073.446.003l1.71.972c.067.038.106.108.102.183-.004.075-.05.144-.12.181z" transform="translate(-99 -49) translate(99 49) translate(1.8) translate(17.54 50.5)"/>
                        <path d="M15.45 8.018l-1.514.793c-.141.074-.31.073-.445-.003l-1.71-.972c-.057-.032-.094-.087-.101-.15-.02.087.02.172.098.216l1.71.972c.134.076.303.077.445.003l1.514-.792c.082-.043.13-.128.12-.214-.014.062-.057.116-.117.147zM12.83 6.52c-.003.074-.049.144-.12.18l-1.514.793c-.141.074-.31.073-.445-.003L9.037 6.52c-.068-.038-.107-.108-.103-.183l.01-.242c.004-.076.05-.145.12-.182l1.515-.793c.142-.074.312-.073.446.003l1.715.972c.067.038.106.107.102.183l-.012.242z" transform="translate(-99 -49) translate(99 49) translate(1.8) translate(17.54 50.5)"/>
                        <path d="M12.722 6.458l-1.514.792c-.141.075-.311.074-.445-.002l-1.715-.972c-.067-.038-.106-.107-.103-.182.004-.075.05-.144.12-.182l1.514-.792c.142-.075.312-.074.446.002l1.715.972c.067.038.106.108.103.183-.004.075-.05.144-.12.181z" transform="translate(-99 -49) translate(99 49) translate(1.8) translate(17.54 50.5)"/>
                        <path d="M12.722 6.458l-1.514.792c-.142.075-.311.074-.446-.002l-1.714-.972c-.057-.031-.094-.086-.101-.149-.02.086.02.172.098.215l1.714.972c.135.076.304.077.446.003l1.514-.793c.082-.043.13-.128.119-.214-.014.063-.056.117-.116.148zM18.28 9.64c-.003.076-.05.146-.12.182l-1.515.793c-.141.074-.31.073-.444-.003l-1.706-.973c-.067-.038-.106-.107-.102-.183l.012-.242c.004-.075.05-.145.12-.181l1.515-.794c.142-.074.311-.073.445.003l1.707.974c.067.037.106.107.101.182l-.013.243z" transform="translate(-99 -49) translate(99 49) translate(1.8) translate(17.54 50.5)"/>
                        <path d="M18.173 9.58l-1.515.792c-.141.074-.31.073-.444-.003l-1.706-.972c-.067-.038-.106-.108-.103-.183.004-.075.05-.144.12-.181l1.515-.793c.142-.074.312-.073.445.003l1.707.973c.067.038.105.107.101.182-.004.075-.05.145-.12.182z" transform="translate(-99 -49) translate(99 49) translate(1.8) translate(17.54 50.5)"/>
                        <path d="M18.172 9.58l-1.514.792c-.141.074-.31.073-.444-.003l-1.707-.972c-.056-.032-.093-.087-.1-.15-.02.086.02.172.097.216l1.706.973c.134.075.303.077.445.002l1.514-.792c.082-.043.13-.128.12-.214-.014.062-.057.117-.117.148zM20.995 11.203c-.003.075-.05.145-.12.182l-1.515.792c-.141.074-.31.073-.443-.003l-1.702-.973c-.068-.038-.106-.108-.102-.183l.013-.243c.003-.075.05-.144.12-.18l1.515-.794c.141-.074.31-.073.444.003l1.703.974c.067.037.105.107.1.182l-.013.243z" transform="translate(-99 -49) translate(99 49) translate(1.8) translate(17.54 50.5)"/>
                        <path d="M20.888 11.142l-1.514.792c-.142.075-.31.074-.444-.002l-1.702-.974c-.067-.038-.106-.108-.102-.183.004-.075.05-.144.12-.18l1.515-.794c.142-.074.311-.073.445.003l1.702.974c.067.038.105.107.101.183-.004.075-.05.144-.121.18z" transform="translate(-99 -49) translate(99 49) translate(1.8) translate(17.54 50.5)"/>
                        <path d="M20.888 11.142l-1.515.792c-.14.075-.31.074-.443-.002l-1.703-.974c-.056-.032-.093-.086-.1-.149-.019.086.02.172.097.215l1.702.974c.133.076.303.077.444.003l1.514-.793c.082-.043.13-.128.12-.214-.014.063-.057.117-.116.148zM23.704 12.766c-.004.076-.05.145-.121.182l-1.514.792c-.142.074-.31.073-.443-.003l-1.698-.974c-.067-.037-.106-.107-.101-.183l.013-.242c.004-.075.05-.145.12-.182l1.515-.793c.142-.074.31-.073.444.003l1.699.975c.066.037.105.107.1.183l-.014.242z" transform="translate(-99 -49) translate(99 49) translate(1.8) translate(17.54 50.5)"/>
                        <path d="M23.597 12.705l-1.514.792c-.142.075-.31.074-.444-.002l-1.698-.974c-.067-.038-.105-.108-.1-.183.003-.075.05-.144.12-.182l1.514-.792c.142-.074.311-.073.444.003l1.699.974c.066.038.105.107.1.183-.004.075-.05.144-.121.181z" transform="translate(-99 -49) translate(99 49) translate(1.8) translate(17.54 50.5)"/>
                        <path d="M23.597 12.705l-1.515.792c-.14.075-.31.074-.443-.002l-1.698-.974c-.056-.032-.093-.087-.1-.15-.02.086.02.172.096.216l1.699.974c.132.076.301.077.443.003l1.514-.793c.082-.042.13-.128.12-.214-.014.063-.057.117-.116.148zM26.406 14.33c-.004.076-.05.145-.121.182l-1.514.792c-.142.074-.31.073-.443-.003l-1.694-.974c-.067-.038-.105-.108-.1-.183l.013-.243c.004-.075.05-.144.122-.181l1.514-.793c.141-.075.31-.074.443.002l1.695.976c.066.037.105.107.1.183l-.015.242z" transform="translate(-99 -49) translate(99 49) translate(1.8) translate(17.54 50.5)"/>
                        <path d="M26.3 14.27l-1.515.791c-.141.075-.31.074-.443-.002l-1.694-.975c-.066-.038-.105-.108-.1-.183.004-.075.05-.144.12-.181l1.515-.793c.142-.074.31-.073.444.003l1.694.975c.066.038.104.107.1.183-.005.075-.05.144-.122.181z" transform="translate(-99 -49) translate(99 49) translate(1.8) translate(17.54 50.5)"/>
                        <path d="M26.3 14.27l-1.515.791c-.141.075-.31.074-.443-.002l-1.694-.975c-.056-.032-.093-.087-.1-.15-.019.087.02.172.096.216l1.694.975c.133.076.302.077.443.003l1.514-.793c.082-.042.13-.128.12-.214-.013.063-.056.117-.116.148zM29.102 15.895c-.004.076-.05.145-.122.182l-1.514.792c-.141.074-.31.073-.442-.003l-1.69-.975c-.066-.038-.105-.108-.1-.183l.015-.243c.004-.075.05-.144.12-.181l1.515-.793c.142-.074.31-.073.443.003l1.69.976c.067.037.105.107.1.182l-.015.243z" transform="translate(-99 -49) translate(99 49) translate(1.8) translate(17.54 50.5)"/>
                        <path d="M28.995 15.834l-1.514.792c-.141.075-.31.073-.442-.003l-1.69-.975c-.067-.038-.105-.108-.1-.183.004-.075.05-.144.121-.181l1.515-.793c.141-.074.31-.073.442.003l1.69.976c.067.038.105.107.1.182-.004.076-.05.145-.122.182z" transform="translate(-99 -49) translate(99 49) translate(1.8) translate(17.54 50.5)"/>
                        <path d="M28.995 15.834l-1.514.792c-.141.075-.31.073-.442-.003l-1.69-.975c-.056-.032-.093-.086-.1-.15-.019.087.019.173.096.216l1.69.976c.132.076.3.077.442.003l1.514-.793c.082-.042.13-.128.12-.214-.013.063-.056.117-.116.148zM31.791 17.461c-.004.076-.05.145-.122.182l-1.514.792c-.14.074-.31.073-.441-.003l-1.686-.976c-.067-.038-.105-.107-.1-.183l.015-.243c.004-.075.05-.144.122-.181l1.514-.793c.142-.074.31-.073.442.003l1.687.976c.066.038.104.108.099.183l-.016.243z" transform="translate(-99 -49) translate(99 49) translate(1.8) translate(17.54 50.5)"/>
                        <path d="M31.685 17.4l-1.514.792c-.142.074-.31.073-.442-.003l-1.686-.976c-.066-.038-.104-.107-.1-.183.005-.075.051-.144.122-.181l1.514-.793c.142-.074.31-.073.443.003l1.686.976c.066.038.104.108.099.183-.005.075-.051.145-.122.182z" transform="translate(-99 -49) translate(99 49) translate(1.8) translate(17.54 50.5)"/>
                        <path d="M31.685 17.4l-1.514.792c-.142.074-.31.073-.442-.003l-1.686-.976c-.056-.031-.092-.086-.099-.149-.02.086.018.172.095.216l1.686.975c.132.076.3.078.441.003l1.514-.792c.082-.043.13-.128.122-.214-.015.062-.058.117-.117.148zM34.474 19.028c-.004.075-.051.145-.122.182l-1.514.792c-.141.074-.31.073-.441-.003l-1.682-.977c-.066-.037-.104-.107-.099-.183l.015-.243c.005-.075.051-.144.122-.181l1.514-.793c.142-.074.31-.073.442.003l1.683.977c.066.038.104.108.098.183l-.016.243z" transform="translate(-99 -49) translate(99 49) translate(1.8) translate(17.54 50.5)"/>
                        <path d="M34.368 18.966l-1.514.793c-.141.074-.31.073-.441-.003l-1.682-.977c-.066-.038-.104-.107-.1-.183.005-.075.052-.144.122-.181l1.515-.793c.141-.074.31-.073.442.003l1.682.977c.066.038.103.108.098.183-.005.075-.051.144-.122.181z" transform="translate(-99 -49) translate(99 49) translate(1.8) translate(17.54 50.5)"/>
                        <path d="M34.368 18.966l-1.514.793c-.142.074-.31.073-.441-.003l-1.683-.977c-.055-.031-.091-.086-.098-.149-.02.086.018.172.094.216l1.682.976c.132.076.3.077.441.003l1.514-.792c.082-.043.13-.128.122-.214-.014.062-.057.117-.117.147zM37.15 20.596c-.004.075-.05.144-.122.181l-1.514.792c-.141.075-.31.073-.44-.003l-1.678-.977c-.066-.037-.104-.107-.099-.183l.016-.243c.005-.075.051-.145.122-.181l1.514-.793c.142-.075.31-.073.442.003l1.678.977c.066.038.104.108.098.183l-.016.244z" transform="translate(-99 -49) translate(99 49) translate(1.8) translate(17.54 50.5)"/>
                        <path d="M37.045 20.534l-1.514.792c-.142.075-.31.073-.441-.003l-1.678-.977c-.066-.038-.104-.108-.099-.183.005-.075.052-.144.122-.181l1.515-.793c.141-.074.31-.073.441.003l1.678.977c.066.038.103.108.098.183-.005.076-.052.145-.122.182z" transform="translate(-99 -49) translate(99 49) translate(1.8) translate(17.54 50.5)"/>
                        <path d="M37.044 20.534l-1.514.792c-.141.075-.309.073-.44-.003l-1.678-.977c-.056-.031-.092-.086-.098-.15-.02.087.017.173.093.217l1.678.976c.132.077.3.078.44.004l1.515-.793c.082-.042.13-.128.122-.214-.015.063-.058.117-.118.148zM39.82 22.164c-.004.075-.051.145-.122.182l-1.514.792c-.142.074-.31.073-.44-.003l-1.674-.978c-.066-.038-.103-.108-.098-.183l.016-.243c.005-.075.052-.145.123-.182l1.514-.793c.141-.074.31-.073.44.004l1.675.978c.066.037.103.107.097.183l-.017.243z" transform="translate(-99 -49) translate(99 49) translate(1.8) translate(17.54 50.5)"/>
                        <path d="M39.715 22.103l-1.514.792c-.142.074-.31.073-.44-.004l-1.675-.977c-.065-.038-.103-.108-.098-.183.006-.075.052-.144.123-.182l1.514-.792c.142-.074.31-.073.441.003l1.674.978c.066.038.103.108.098.183-.006.075-.052.144-.123.182z" transform="translate(-99 -49) translate(99 49) translate(1.8) translate(17.54 50.5)"/>
                        <path d="M39.715 22.103l-1.515.792c-.14.074-.309.073-.44-.004l-1.674-.977c-.055-.032-.09-.087-.097-.15-.02.087.017.173.093.217l1.674.977c.13.076.299.077.44.003l1.514-.792c.082-.043.13-.128.122-.214-.014.062-.058.117-.117.148zM42.484 23.733c-.005.076-.052.145-.123.182l-1.514.792c-.141.075-.309.073-.44-.003l-1.67-.978c-.065-.038-.102-.108-.097-.183l.017-.243c.005-.076.052-.145.123-.182l1.514-.793c.141-.074.31-.073.44.003l1.67.979c.066.038.103.108.097.183l-.017.243z" transform="translate(-99 -49) translate(99 49) translate(1.8) translate(17.54 50.5)"/>
                        <path d="M42.378 23.672l-1.514.792c-.14.074-.309.073-.44-.003l-1.67-.978c-.065-.038-.102-.108-.097-.183.005-.076.052-.145.123-.182l1.514-.792c.142-.075.31-.073.44.003l1.67.978c.066.038.103.108.098.183-.006.075-.053.145-.124.182z" transform="translate(-99 -49) translate(99 49) translate(1.8) translate(17.54 50.5)"/>
                        <path d="M42.378 23.672l-1.514.792c-.141.074-.309.073-.44-.003l-1.67-.978c-.055-.032-.09-.087-.096-.15-.02.086.016.172.092.216l1.67.978c.13.076.298.078.44.003l1.513-.792c.082-.043.131-.128.123-.214-.015.062-.058.117-.118.148zM45.14 25.304c-.004.075-.051.145-.122.181l-1.514.793c-.142.074-.309.072-.44-.004l-1.665-.978c-.066-.038-.103-.108-.097-.184l.017-.243c.005-.075.052-.145.123-.182l1.514-.792c.142-.075.31-.073.44.003l1.666.979c.066.038.103.108.097.183l-.018.244z" transform="translate(-99 -49) translate(99 49) translate(1.8) translate(17.54 50.5)"/>
                        <path d="M45.036 25.242l-1.514.792c-.142.075-.31.073-.44-.003l-1.666-.979c-.065-.038-.102-.108-.096-.183.005-.075.052-.144.122-.182l1.515-.792c.141-.074.309-.073.44.003l1.666.979c.065.038.102.108.096.183-.006.076-.053.145-.123.182z" transform="translate(-99 -49) translate(99 49) translate(1.8) translate(17.54 50.5)"/>
                        <path d="M45.036 25.242l-1.515.792c-.14.075-.308.073-.439-.003l-1.666-.979c-.055-.031-.09-.087-.096-.15-.02.087.016.173.092.217l1.666.978c.13.077.297.078.439.004l1.513-.793c.083-.042.131-.128.123-.214-.014.063-.058.117-.117.148zM3.895 7.57c-.003.076-.048.145-.12.182l-1.507.791c-.14.074-.31.073-.445-.003L.104 7.57C.037 7.531-.003 7.461 0 7.386l.01-.242C.012 7.07.058 7 .128 6.964l1.508-.792c.141-.075.311-.074.446.002l1.72.972c.067.037.107.107.103.182l-.01.242z" transform="translate(-99 -49) translate(99 49) translate(1.8) translate(17.54 50.5)"/>
                        <path d="M3.786 7.51L2.28 8.3c-.141.075-.31.074-.445-.002l-1.72-.97C.047 7.288.007 7.22.01 7.144.013 7.07.058 7 .129 6.964l1.508-.792c.14-.074.31-.073.445.003l1.72.97c.067.039.107.108.103.183-.003.075-.048.144-.119.181z" transform="translate(-99 -49) translate(99 49) translate(1.8) translate(17.54 50.5)"/>
                        <path d="M3.786 7.51l-1.508.79c-.14.075-.31.074-.445-.002l-1.719-.97c-.057-.032-.095-.087-.102-.15-.019.086.021.172.1.215l1.719.971c.134.076.304.077.445.003l1.507-.792c.082-.042.129-.127.118-.213-.013.062-.055.116-.115.147zM9.36 10.69c-.003.075-.048.144-.119.181l-1.508.792c-.14.074-.31.073-.443-.003l-1.711-.972c-.068-.038-.107-.108-.104-.183l.011-.242c.003-.075.048-.145.12-.181l1.507-.792c.14-.075.31-.074.445.002l1.711.973c.067.038.107.107.103.182l-.012.243z" transform="translate(-99 -49) translate(99 49) translate(1.8) translate(17.54 50.5)"/>
                        <path d="M9.252 10.629l-1.507.791c-.141.074-.31.073-.444-.003l-1.712-.972c-.067-.038-.106-.107-.103-.182.004-.075.049-.144.12-.181l1.507-.792c.141-.074.31-.073.445.003l1.711.972c.067.038.106.108.103.183-.004.075-.05.144-.12.18z" transform="translate(-99 -49) translate(99 49) translate(1.8) translate(17.54 50.5)"/>
                        <path d="M9.252 10.629l-1.508.791c-.14.074-.31.073-.443-.003l-1.712-.972c-.056-.031-.094-.086-.101-.149-.019.086.02.172.099.215l1.71.973c.135.075.304.076.444.002l1.508-.791c.082-.043.129-.128.118-.214-.013.062-.055.117-.115.148zM6.63 9.13c-.002.075-.048.144-.118.18l-1.508.792c-.14.075-.31.073-.444-.002l-1.715-.972c-.068-.038-.107-.107-.104-.182l.01-.243c.003-.075.048-.144.119-.18l1.508-.793c.14-.074.31-.073.445.003l1.716.972c.067.038.106.107.103.182l-.011.243z" transform="translate(-99 -49) translate(99 49) translate(1.8) translate(17.54 50.5)"/>
                        <path d="M6.523 9.069l-1.508.791c-.14.074-.31.073-.445-.003l-1.715-.971c-.067-.038-.107-.108-.104-.183.004-.075.049-.144.12-.18l1.507-.792c.141-.075.31-.074.445.002l1.716.972c.067.038.106.107.103.182-.003.075-.049.144-.12.182z" transform="translate(-99 -49) translate(99 49) translate(1.8) translate(17.54 50.5)"/>
                        <path d="M6.522 9.069l-1.507.791c-.141.074-.31.073-.445-.003l-1.715-.971c-.057-.032-.094-.087-.102-.15-.018.087.021.172.1.216l1.714.971c.135.076.304.077.445.003l1.507-.791c.082-.043.129-.128.118-.214-.013.062-.055.117-.115.148zM12.084 12.251c-.004.075-.05.144-.12.181l-1.508.792c-.14.074-.31.073-.443-.003l-1.707-.973c-.067-.038-.106-.107-.103-.182l.012-.243c.003-.075.048-.144.119-.181l1.508-.792c.14-.074.31-.073.444.003l1.707.973c.067.038.106.107.102.182l-.011.243z" transform="translate(-99 -49) translate(99 49) translate(1.8) translate(17.54 50.5)"/>
                        <path d="M11.976 12.19l-1.508.791c-.14.074-.31.073-.443-.003l-1.708-.972c-.067-.038-.106-.108-.102-.183.003-.075.049-.144.119-.181l1.508-.792c.14-.074.31-.073.444.003l1.708.973c.066.038.105.108.102.183-.004.075-.05.144-.12.18z" transform="translate(-99 -49) translate(99 49) translate(1.8) translate(17.54 50.5)"/>
                        <path d="M11.976 12.19l-1.508.791c-.14.074-.31.073-.443-.003l-1.708-.972c-.056-.032-.094-.087-.1-.15-.02.086.02.172.097.216l1.707.973c.134.075.303.076.444.002l1.507-.791c.082-.043.13-.128.119-.214-.014.062-.056.117-.115.148zM26.229 20.38c-.004.075-.05.144-.121.181l-1.508.791c-.14.074-.308.073-.44-.003l-12.911-7.318c-.067-.037-.106-.107-.102-.182l.012-.243c.003-.075.049-.144.12-.18l1.507-.793c.14-.074.31-.073.443.003l12.915 7.318c.066.038.104.107.1.183l-.015.243z" transform="translate(-99 -49) translate(99 49) translate(1.8) translate(17.54 50.5)"/>
                        <path d="M26.122 20.318l-1.507.791c-.141.075-.31.073-.441-.003L11.26 13.79c-.067-.038-.106-.108-.102-.183.003-.075.049-.144.12-.18l1.507-.792c.141-.075.31-.073.444.002l12.914 7.318c.066.038.104.108.1.183-.005.075-.051.144-.122.181z" transform="translate(-99 -49) translate(99 49) translate(1.8) translate(17.54 50.5)"/>
                        <path d="M26.122 20.318l-1.508.791c-.14.075-.308.073-.44-.003L11.26 13.79c-.057-.032-.094-.087-.1-.149-.02.086.02.171.097.215l12.912 7.317c.132.077.3.078.44.004l1.508-.792c.082-.042.13-.128.12-.214-.014.063-.056.117-.116.148zM29.184 22.085c-.004.075-.05.145-.121.182l-1.508.79c-.14.075-.308.074-.44-.002l-1.681-.977c-.066-.037-.104-.107-.1-.183l.015-.242c.004-.076.05-.145.12-.182l1.508-.792c.141-.074.31-.073.441.003l1.682.977c.067.038.104.108.1.183l-.016.243z" transform="translate(-99 -49) translate(99 49) translate(1.8) translate(17.54 50.5)"/>
                        <path d="M29.078 22.024l-1.508.791c-.14.074-.308.073-.44-.003l-1.682-.977c-.066-.038-.103-.107-.099-.182.004-.076.05-.145.12-.182l1.509-.791c.14-.075.309-.073.44.003l1.683.976c.065.038.103.108.098.183-.004.075-.05.145-.12.182z" transform="translate(-99 -49) translate(99 49) translate(1.8) translate(17.54 50.5)"/>
                        <path d="M29.078 22.024l-1.508.791c-.14.074-.308.073-.44-.003l-1.682-.977c-.055-.031-.092-.086-.098-.149-.02.086.018.172.094.216l1.682.976c.132.076.3.077.44.003l1.508-.791c.081-.043.13-.128.12-.214-.014.062-.057.117-.116.148zM31.86 23.653c-.004.075-.05.144-.122.181l-1.507.792c-.14.074-.308.072-.44-.004l-1.677-.977c-.066-.037-.104-.107-.099-.183l.015-.243c.004-.075.05-.144.121-.181l1.508-.792c.14-.074.309-.073.44.003l1.678.978c.066.038.104.107.099.183l-.016.243z" transform="translate(-99 -49) translate(99 49) translate(1.8) translate(17.54 50.5)"/>
                        <path d="M31.754 23.591l-1.508.792c-.14.074-.308.072-.44-.004l-1.677-.977c-.066-.038-.103-.107-.099-.183.005-.075.05-.144.121-.181l1.508-.792c.141-.074.309-.072.44.004l1.678.977c.066.038.104.108.099.183-.005.075-.051.144-.122.181z" transform="translate(-99 -49) translate(99 49) translate(1.8) translate(17.54 50.5)"/>
                        <path d="M31.754 23.591l-1.508.792c-.14.074-.308.072-.44-.004l-1.677-.977c-.056-.031-.092-.086-.098-.149-.02.086.018.172.094.216l1.678.976c.13.077.298.078.44.004l1.507-.791c.081-.043.13-.128.12-.215-.014.063-.057.117-.116.148zM34.53 25.221c-.005.076-.052.145-.122.182l-1.508.791c-.14.074-.308.073-.439-.003l-1.673-.978c-.066-.038-.104-.108-.099-.183l.016-.243c.004-.075.05-.145.121-.181l1.508-.792c.14-.074.308-.073.44.003l1.674.978c.065.038.103.108.097.183l-.016.243z" transform="translate(-99 -49) translate(99 49) translate(1.8) translate(17.54 50.5)"/>
                        <path d="M34.424 25.16l-1.508.791c-.14.074-.308.073-.439-.003l-1.674-.978c-.065-.038-.103-.108-.098-.183.005-.075.05-.144.121-.181l1.508-.792c.141-.074.309-.073.44.004l1.674.977c.065.038.103.108.098.183-.005.075-.052.145-.122.182z" transform="translate(-99 -49) translate(99 49) translate(1.8) translate(17.54 50.5)"/>
                        <path d="M34.424 25.16l-1.508.791c-.14.074-.308.073-.44-.003l-1.673-.978c-.055-.032-.091-.087-.097-.15-.02.087.017.173.093.217l1.674.977c.13.076.298.077.439.003l1.507-.79c.082-.044.13-.129.121-.215-.014.062-.057.117-.116.148zM37.192 26.79c-.004.076-.051.145-.122.182l-1.507.791c-.14.075-.308.073-.439-.003l-1.67-.978c-.065-.038-.102-.108-.097-.183l.016-.243c.004-.076.05-.145.122-.182l1.507-.792c.141-.074.309-.073.44.004l1.67.978c.065.038.102.108.097.183l-.017.244z" transform="translate(-99 -49) translate(99 49) translate(1.8) translate(17.54 50.5)"/>
                        <path d="M37.087 26.73l-1.508.79c-.14.074-.308.073-.438-.003l-1.67-.978c-.065-.038-.103-.108-.098-.183.005-.075.051-.145.122-.182l1.508-.791c.14-.074.308-.073.439.003l1.67.978c.065.038.102.108.097.184-.005.075-.052.144-.122.181z" transform="translate(-99 -49) translate(99 49) translate(1.8) translate(17.54 50.5)"/>
                        <path d="M37.087 26.73l-1.508.79c-.14.074-.308.073-.438-.003l-1.67-.978c-.055-.032-.091-.087-.097-.15-.02.086.017.172.093.216l1.67.978c.13.076.297.078.438.004l1.507-.792c.082-.042.13-.128.121-.214-.014.063-.057.117-.116.148zM39.849 28.36c-.005.076-.052.146-.123.182l-1.507.792c-.14.074-.308.072-.438-.004l-1.665-.978c-.066-.038-.103-.108-.098-.184l.017-.243c.004-.075.05-.144.122-.181l1.507-.792c.141-.074.308-.073.439.003l1.666.98c.065.037.102.107.097.183l-.017.243z" transform="translate(-99 -49) translate(99 49) translate(1.8) translate(17.54 50.5)"/>
                        <path d="M39.744 28.3l-1.508.79c-.14.075-.308.073-.438-.003l-1.666-.978c-.065-.039-.102-.108-.097-.184.005-.075.051-.144.122-.181l1.508-.792c.14-.074.308-.073.438.004l1.666.978c.065.039.102.108.097.184-.005.075-.052.144-.122.181z" transform="translate(-99 -49) translate(99 49) translate(1.8) translate(17.54 50.5)"/>
                        <path d="M39.743 28.3l-1.507.79c-.14.075-.308.073-.438-.003l-1.666-.978c-.055-.032-.09-.087-.096-.15-.02.086.016.172.092.216l1.665.978c.13.077.298.078.438.004l1.508-.791c.081-.043.13-.128.121-.215-.014.063-.057.117-.117.148zM14.802 4.544c-.003.075-.05.145-.12.182l-1.518.793c-.142.074-.312.073-.446-.003l-1.716-.972c-.067-.037-.106-.107-.103-.182l.012-.243c.003-.075.05-.144.12-.18l1.518-.795c.142-.074.312-.073.447.003l1.716.972c.067.038.106.107.102.183l-.012.242z" transform="translate(-99 -49) translate(99 49) translate(1.8) translate(17.54 50.5)"/>
                        <path d="M14.694 4.483l-1.518.793c-.142.074-.312.073-.446-.002l-1.716-.972c-.067-.038-.106-.108-.103-.183.004-.075.05-.144.12-.18l1.518-.794c.142-.074.313-.073.447.002l1.716.972c.067.038.106.108.102.183-.003.075-.05.144-.12.181z" transform="translate(-99 -49) translate(99 49) translate(1.8) translate(17.54 50.5)"/>
                        <path d="M14.693 4.483l-1.517.793c-.142.074-.312.073-.446-.003l-1.716-.971c-.057-.032-.094-.087-.101-.149-.02.086.02.171.098.215l1.716.972c.134.075.304.076.445.002l1.518-.793c.082-.043.13-.128.12-.214-.014.063-.057.117-.117.148zM20.256 7.665c-.004.076-.05.145-.122.182l-1.517.793c-.142.074-.311.073-.445-.003l-1.707-.973c-.067-.037-.106-.107-.102-.182l.012-.243c.004-.075.05-.144.121-.181l1.518-.794c.142-.074.312-.073.446.003l1.707.973c.068.038.106.108.102.183l-.013.242z" transform="translate(-99 -49) translate(99 49) translate(1.8) translate(17.54 50.5)"/>
                        <path d="M20.148 7.604l-1.518.793c-.141.074-.311.073-.445-.002l-1.707-.973c-.067-.038-.106-.108-.102-.183.004-.075.05-.144.12-.181l1.518-.793c.142-.075.312-.074.446.002l1.708.973c.067.038.105.108.101.183-.004.075-.05.144-.121.181z" transform="translate(-99 -49) translate(99 49) translate(1.8) translate(17.54 50.5)"/>
                        <path d="M20.148 7.604l-1.518.793c-.142.074-.311.073-.445-.002l-1.708-.973c-.056-.032-.093-.087-.1-.15-.02.087.02.172.097.216l1.708.973c.133.076.303.077.444.002l1.518-.793c.082-.042.13-.128.12-.214-.014.063-.057.117-.116.148zM17.532 6.104c-.004.076-.05.145-.121.182l-1.517.793c-.142.074-.312.073-.446-.003l-1.711-.972c-.068-.038-.107-.107-.103-.183l.013-.242c.003-.075.049-.145.12-.182l1.518-.793c.142-.074.312-.074.446.002l1.712.973c.067.038.106.108.102.183l-.013.242z" transform="translate(-99 -49) translate(99 49) translate(1.8) translate(17.54 50.5)"/>
                        <path d="M17.424 6.043l-1.518.793c-.141.074-.311.073-.445-.002l-1.712-.973c-.067-.038-.106-.107-.102-.182.003-.075.05-.144.12-.182l1.518-.793c.142-.074.312-.073.446.003l1.712.972c.067.038.106.108.102.183-.004.075-.05.144-.121.181z" transform="translate(-99 -49) translate(99 49) translate(1.8) translate(17.54 50.5)"/>
                        <path d="M17.424 6.043l-1.518.793c-.142.074-.311.073-.445-.002l-1.712-.973c-.057-.031-.094-.086-.101-.149-.019.086.02.172.098.216l1.711.972c.134.076.304.077.446.002l1.517-.793c.082-.042.13-.128.12-.214-.014.063-.056.117-.116.148zM22.973 9.227c-.004.076-.05.145-.122.182l-1.517.793c-.142.074-.311.073-.444-.003l-1.704-.973c-.067-.038-.106-.108-.101-.183l.013-.243c.004-.075.05-.144.121-.181l1.518-.794c.141-.074.311-.073.445.003l1.704.974c.067.038.105.107.1.183l-.013.242z" transform="translate(-99 -49) translate(99 49) translate(1.8) translate(17.54 50.5)"/>
                        <path d="M22.865 9.166l-1.517.793c-.142.074-.311.073-.445-.003L19.2 8.983c-.067-.038-.106-.108-.102-.183.004-.075.05-.144.121-.181l1.518-.793c.142-.074.312-.073.445.002l1.704.974c.067.038.105.108.1.183-.003.075-.05.144-.12.181z" transform="translate(-99 -49) translate(99 49) translate(1.8) translate(17.54 50.5)"/>
                        <path d="M22.865 9.166l-1.518.793c-.141.074-.31.073-.444-.003L19.2 8.983c-.056-.032-.093-.086-.1-.149-.019.086.02.172.097.215l1.703.974c.134.076.303.077.445.002l1.517-.793c.082-.042.13-.128.12-.214-.013.063-.056.117-.116.148zM25.683 10.79c-.003.076-.05.145-.121.182l-1.518.793c-.141.074-.31.073-.443-.003l-1.7-.974c-.067-.038-.105-.107-.1-.183l.013-.242c.004-.076.05-.145.121-.182l1.518-.793c.142-.075.311-.074.445.002l1.7.975c.066.037.105.107.1.182l-.015.243z" transform="translate(-99 -49) translate(99 49) translate(1.8) translate(17.54 50.5)"/>
                        <path d="M25.576 10.73l-1.517.792c-.142.074-.311.073-.444-.003l-1.7-.974c-.066-.038-.105-.107-.1-.182.003-.076.05-.145.12-.182l1.518-.793c.142-.074.312-.073.445.003l1.7.974c.066.038.104.107.1.183-.004.075-.05.144-.122.181z" transform="translate(-99 -49) translate(99 49) translate(1.8) translate(17.54 50.5)"/>
                        <path d="M25.576 10.73l-1.518.792c-.141.074-.31.073-.443-.003l-1.7-.974c-.056-.031-.093-.086-.1-.149-.02.086.02.172.096.216l1.7.973c.133.076.302.077.444.003l1.517-.793c.082-.042.13-.128.12-.214-.013.063-.056.117-.116.148zM28.388 12.354c-.004.075-.051.145-.122.182l-1.518.793c-.141.074-.31.073-.443-.003l-1.695-.975c-.067-.037-.105-.107-.1-.183l.014-.242c.004-.076.05-.145.121-.182l1.518-.793c.142-.075.31-.074.444.002l1.696.975c.066.038.105.108.1.183l-.015.243z" transform="translate(-99 -49) translate(99 49) translate(1.8) translate(17.54 50.5)"/>
                        <path d="M28.28 12.293l-1.517.793c-.141.074-.31.073-.443-.003l-1.696-.975c-.066-.038-.105-.107-.1-.182.004-.076.05-.145.121-.182l1.518-.793c.142-.074.311-.073.444.003l1.696.974c.066.038.104.108.1.183-.005.075-.051.145-.122.182z" transform="translate(-99 -49) translate(99 49) translate(1.8) translate(17.54 50.5)"/>
                        <path d="M28.28 12.293l-1.517.793c-.142.074-.31.073-.443-.003l-1.696-.975c-.056-.031-.093-.086-.1-.149-.019.086.02.172.096.216l1.696.974c.132.076.301.077.443.003l1.517-.793c.083-.043.13-.128.121-.214-.014.062-.057.117-.116.148zM31.085 13.919c-.004.075-.05.145-.122.182l-1.517.792c-.142.075-.31.073-.443-.003l-1.691-.975c-.067-.037-.105-.107-.1-.183l.015-.242c.004-.076.05-.145.122-.182l1.517-.793c.142-.075.311-.074.444.002l1.691.976c.067.038.105.108.1.183l-.016.243z" transform="translate(-99 -49) translate(99 49) translate(1.8) translate(17.54 50.5)"/>
                        <path d="M30.979 13.858l-1.518.792c-.141.075-.31.074-.443-.003l-1.691-.975c-.067-.038-.105-.107-.1-.182.004-.076.05-.145.122-.182l1.517-.793c.142-.074.311-.073.444.003l1.692.975c.066.038.104.108.099.183-.005.075-.051.144-.122.182z" transform="translate(-99 -49) translate(99 49) translate(1.8) translate(17.54 50.5)"/>
                        <path d="M30.979 13.858l-1.518.792c-.142.075-.31.074-.443-.003l-1.691-.975c-.056-.031-.093-.086-.1-.149-.019.086.019.172.096.216l1.691.975c.133.076.301.077.443.003l1.517-.793c.082-.043.13-.128.122-.214-.015.062-.058.117-.117.148zM33.777 15.484c-.005.076-.051.145-.123.182l-1.517.793c-.142.074-.31.073-.442-.003l-1.687-.976c-.067-.037-.105-.107-.1-.183l.015-.243c.005-.075.051-.144.122-.181l1.518-.794c.142-.074.31-.073.443.003l1.688.976c.066.038.104.108.099.183l-.016.243z" transform="translate(-99 -49) translate(99 49) translate(1.8) translate(17.54 50.5)"/>
                        <path d="M33.67 15.423l-1.517.793c-.142.074-.31.073-.443-.003l-1.687-.976c-.066-.038-.104-.107-.1-.183.005-.075.052-.144.123-.181l1.517-.793c.142-.074.311-.073.443.003l1.688.975c.066.038.104.108.099.183-.005.076-.052.145-.123.182z" transform="translate(-99 -49) translate(99 49) translate(1.8) translate(17.54 50.5)"/>
                        <path d="M33.67 15.423l-1.517.793c-.142.074-.31.073-.443-.003l-1.687-.976c-.056-.031-.092-.086-.099-.149-.02.086.018.172.095.216l1.687.975c.132.076.3.077.442.003l1.518-.793c.082-.042.13-.128.121-.214-.014.063-.057.117-.117.148zM36.462 17.051c-.005.075-.052.145-.123.182l-1.517.792c-.142.075-.31.074-.442-.003l-1.683-.976c-.067-.038-.104-.108-.1-.183l.017-.243c.004-.075.05-.145.122-.181l1.517-.794c.142-.074.31-.073.443.003l1.684.977c.066.038.103.108.098.183l-.016.243z" transform="translate(-99 -49) translate(99 49) translate(1.8) translate(17.54 50.5)"/>
                        <path d="M36.355 16.99l-1.517.792c-.142.075-.31.073-.442-.003l-1.683-.976c-.066-.038-.104-.108-.1-.183.006-.075.052-.144.123-.181l1.518-.793c.142-.075.31-.074.442.003l1.684.976c.066.038.103.108.098.183-.005.075-.052.144-.123.182z" transform="translate(-99 -49) translate(99 49) translate(1.8) translate(17.54 50.5)"/>
                        <path d="M36.355 16.99l-1.517.792c-.142.075-.31.073-.442-.003l-1.684-.976c-.055-.032-.091-.087-.097-.15-.02.087.017.173.093.217l1.684.976c.131.076.3.077.441.003l1.518-.793c.082-.043.13-.128.122-.214-.015.062-.058.117-.118.148zM39.14 18.618c-.005.076-.052.145-.123.182l-1.517.793c-.142.074-.31.073-.441-.003l-1.68-.977c-.066-.038-.103-.108-.098-.183l.016-.243c.005-.076.052-.145.123-.182l1.517-.793c.142-.075.31-.073.442.003l1.68.977c.066.038.103.108.098.183l-.017.243z" transform="translate(-99 -49) translate(99 49) translate(1.8) translate(17.54 50.5)"/>
                        <path d="M39.034 18.557l-1.517.793c-.142.074-.31.073-.442-.003l-1.68-.977c-.065-.038-.103-.108-.098-.183.005-.075.052-.145.123-.182l1.518-.793c.141-.074.31-.073.442.003l1.68.977c.065.038.102.108.097.183-.005.075-.052.145-.123.182z" transform="translate(-99 -49) translate(99 49) translate(1.8) translate(17.54 50.5)"/>
                        <path d="M39.034 18.557l-1.518.793c-.141.074-.31.073-.441-.003l-1.68-.977c-.055-.032-.09-.087-.097-.15-.02.086.017.172.093.216l1.68.977c.131.076.3.077.44.003l1.518-.793c.082-.043.131-.128.122-.214-.014.062-.057.117-.117.148zM41.812 20.187c-.005.075-.052.144-.123.181l-1.518.793c-.141.074-.31.073-.44-.003l-1.675-.977c-.066-.038-.104-.108-.098-.184l.017-.243c.004-.075.051-.145.122-.181l1.518-.794c.142-.074.31-.073.441.003l1.676.978c.066.038.103.108.097.183l-.017.244z" transform="translate(-99 -49) translate(99 49) translate(1.8) translate(17.54 50.5)"/>
                        <path d="M41.706 20.125l-1.517.793c-.142.074-.31.073-.441-.003l-1.675-.978c-.066-.038-.103-.107-.098-.183.005-.075.052-.144.122-.181l1.518-.793c.142-.075.31-.073.442.003l1.675.977c.066.038.103.108.097.183-.005.076-.052.145-.123.182z" transform="translate(-99 -49) translate(99 49) translate(1.8) translate(17.54 50.5)"/>
                        <path d="M41.706 20.125l-1.517.793c-.142.074-.31.073-.441-.003l-1.676-.978c-.055-.031-.09-.086-.097-.15-.02.087.017.173.093.217l1.675.977c.131.076.3.077.44.003l1.518-.792c.082-.043.131-.129.123-.215-.015.063-.058.117-.118.148zM44.477 21.756c-.005.075-.052.145-.123.182l-1.517.792c-.142.074-.31.073-.44-.003l-1.672-.978c-.065-.038-.103-.108-.097-.183l.017-.243c.005-.076.052-.145.123-.182l1.518-.793c.142-.075.31-.074.44.003l1.672.978c.066.038.103.108.097.183l-.018.244z" transform="translate(-99 -49) translate(99 49) translate(1.8) translate(17.54 50.5)"/>
                        <path d="M44.372 21.694l-1.518.793c-.141.074-.309.073-.44-.003l-1.671-.978c-.066-.038-.103-.108-.098-.183.006-.076.053-.145.123-.182l1.518-.793c.142-.074.31-.073.441.003l1.672.978c.065.038.102.108.096.183-.005.076-.052.145-.123.182z" transform="translate(-99 -49) translate(99 49) translate(1.8) translate(17.54 50.5)"/>
                        <path d="M44.372 21.694l-1.518.793c-.141.074-.31.073-.44-.003l-1.671-.978c-.056-.032-.091-.087-.097-.15-.02.086.016.172.092.216l1.671.978c.131.076.299.078.44.003l1.518-.792c.082-.043.13-.129.123-.215-.015.063-.059.117-.118.148zM12.913 9.609c-.004.075-.05.144-.12.18l-1.511.793c-.141.074-.31.073-.445-.003l-1.71-.972c-.067-.038-.106-.108-.102-.183l.011-.242c.003-.075.049-.145.12-.181l1.51-.793c.142-.074.312-.073.446.003l1.71.973c.068.037.107.107.102.182l-.011.243z" transform="translate(-99 -49) translate(99 49) translate(1.8) translate(17.54 50.5)"/>
                        <path d="M12.805 9.547l-1.512.792c-.14.075-.31.073-.444-.002l-1.71-.973c-.067-.038-.106-.107-.103-.182.004-.075.05-.144.12-.181l1.511-.793c.141-.074.311-.073.445.003l1.71.973c.067.037.106.107.103.182-.004.075-.05.144-.12.181z" transform="translate(-99 -49) translate(99 49) translate(1.8) translate(17.54 50.5)"/>
                        <path d="M12.804 9.547l-1.51.792c-.142.075-.311.073-.445-.002l-1.71-.973c-.057-.031-.094-.086-.101-.149-.02.086.02.172.098.215l1.71.973c.134.076.303.077.444.002l1.51-.791c.083-.043.13-.128.12-.214-.014.062-.056.116-.116.147zM10.185 8.048c-.003.075-.05.145-.12.181l-1.511.792c-.141.075-.31.074-.445-.002l-1.714-.972c-.067-.038-.107-.107-.103-.183l.01-.242c.004-.075.05-.144.12-.181l1.511-.793c.142-.074.311-.073.446.003l1.714.972c.068.038.107.108.103.183l-.011.242z" transform="translate(-99 -49) translate(99 49) translate(1.8) translate(17.54 50.5)"/>
                        <path d="M10.076 7.987l-1.51.792c-.142.074-.311.073-.445-.003l-1.715-.971c-.067-.038-.106-.108-.103-.183.003-.075.049-.144.12-.181l1.51-.792c.142-.074.312-.074.446.002l1.715.972c.067.038.106.108.102.183-.003.075-.049.144-.12.18z" transform="translate(-99 -49) translate(99 49) translate(1.8) translate(17.54 50.5)"/>
                        <path d="M10.076 7.987l-1.51.792c-.142.074-.311.073-.446-.003l-1.714-.971c-.057-.032-.094-.087-.102-.15-.018.086.021.172.1.216l1.713.971c.135.076.304.077.445.003l1.511-.792c.082-.043.13-.128.118-.214-.013.063-.055.117-.115.148zM15.634 11.17c-.004.075-.05.144-.12.181l-1.511.792c-.141.074-.31.073-.444-.003l-1.706-.973c-.067-.037-.106-.107-.102-.182l.012-.243c.003-.075.049-.144.12-.18l1.51-.794c.142-.074.311-.073.445.003l1.707.974c.067.037.106.107.101.182l-.012.243z" transform="translate(-99 -49) translate(99 49) translate(1.8) translate(17.54 50.5)"/>
                        <path d="M15.526 11.109l-1.51.792c-.142.074-.311.073-.445-.003l-1.706-.973c-.067-.038-.106-.108-.102-.183.004-.075.05-.144.12-.18l1.511-.793c.141-.074.31-.073.445.003l1.706.973c.067.038.105.107.102.182-.004.075-.05.145-.12.182z" transform="translate(-99 -49) translate(99 49) translate(1.8) translate(17.54 50.5)"/>
                        <path d="M15.526 11.109l-1.511.792c-.141.074-.31.073-.444-.003l-1.706-.973c-.057-.032-.094-.087-.1-.149-.02.086.02.171.097.215l1.706.973c.133.076.303.077.444.003l1.51-.792c.082-.043.13-.128.12-.214-.014.062-.056.117-.116.148zM18.349 12.732c-.004.075-.05.145-.12.182l-1.512.791c-.14.075-.31.074-.443-.002l-1.702-.974c-.067-.038-.106-.107-.101-.183l.012-.242c.003-.075.05-.145.12-.181l1.511-.793c.141-.074.31-.073.444.003l1.703.974c.066.038.105.107.1.183l-.012.242z" transform="translate(-99 -49) translate(99 49) translate(1.8) translate(17.54 50.5)"/>
                        <path d="M18.241 12.67l-1.51.793c-.142.074-.31.073-.444-.003l-1.702-.973c-.067-.038-.106-.108-.102-.183.004-.075.05-.144.12-.181l1.511-.793c.142-.074.311-.073.444.003l1.703.974c.066.038.105.108.1.183-.003.075-.049.144-.12.18z" transform="translate(-99 -49) translate(99 49) translate(1.8) translate(17.54 50.5)"/>
                        <path d="M18.241 12.67l-1.51.793c-.142.074-.31.073-.444-.003l-1.702-.973c-.057-.032-.094-.087-.1-.15-.02.086.019.172.096.216l1.702.973c.134.076.303.077.444.003l1.51-.792c.082-.043.13-.128.12-.214-.014.063-.056.117-.116.148zM21.057 14.295c-.004.076-.05.145-.12.182l-1.511.792c-.141.074-.31.073-.443-.003l-1.698-.974c-.067-.038-.105-.108-.101-.183l.013-.243c.003-.075.05-.144.12-.181l1.511-.793c.141-.074.31-.073.444.003l1.698.975c.067.038.105.107.1.183l-.013.242z" transform="translate(-99 -49) translate(99 49) translate(1.8) translate(17.54 50.5)"/>
                        <path d="M20.95 14.234l-1.511.792c-.141.074-.31.073-.443-.003l-1.698-.974c-.066-.038-.105-.108-.101-.183.004-.075.05-.144.12-.181l1.511-.792c.142-.074.31-.073.444.003l1.698.974c.067.038.105.108.1.183-.003.075-.05.144-.12.181z" transform="translate(-99 -49) translate(99 49) translate(1.8) translate(17.54 50.5)"/>
                        <path d="M20.95 14.234l-1.511.792c-.141.074-.31.073-.443-.003l-1.698-.974c-.056-.032-.093-.087-.1-.15-.02.087.02.172.097.216l1.698.974c.132.076.301.077.442.003l1.511-.792c.082-.042.13-.128.12-.214-.014.063-.057.117-.116.148zM23.76 15.86c-.005.075-.051.144-.122.18l-1.51.793c-.142.074-.31.073-.443-.003l-1.694-.975c-.066-.038-.105-.108-.1-.183l.013-.242c.004-.076.05-.145.12-.182l1.512-.792c.14-.075.31-.073.443.003l1.694.975c.067.038.105.107.1.183l-.014.242z" transform="translate(-99 -49) translate(99 49) translate(1.8) translate(17.54 50.5)"/>
                        <path d="M23.652 15.798l-1.51.792c-.142.074-.31.073-.443-.003l-1.694-.975c-.067-.038-.105-.107-.1-.182.003-.076.05-.145.12-.182l1.511-.792c.141-.074.31-.073.443.003l1.694.975c.066.038.105.108.1.183-.004.075-.05.144-.12.181z" transform="translate(-99 -49) translate(99 49) translate(1.8) translate(17.54 50.5)"/>
                        <path d="M23.652 15.798l-1.51.792c-.142.074-.31.073-.443-.003l-1.694-.975c-.056-.031-.093-.086-.1-.149-.02.086.02.172.096.216l1.694.974c.133.076.301.077.442.003l1.511-.792c.082-.042.13-.128.12-.214-.014.063-.056.117-.116.148zM26.455 17.424c-.004.076-.05.145-.122.182l-1.51.792c-.141.074-.31.073-.442-.003l-1.69-.976c-.066-.037-.105-.107-.1-.182l.014-.243c.004-.075.05-.145.12-.182l1.512-.792c.14-.074.31-.073.442.003l1.69.976c.067.037.105.107.1.183l-.014.242z" transform="translate(-99 -49) translate(99 49) translate(1.8) translate(17.54 50.5)"/>
                        <path d="M26.348 17.363l-1.511.792c-.141.074-.31.073-.442-.003l-1.69-.975c-.066-.038-.104-.108-.1-.183.004-.075.05-.144.12-.182l1.512-.792c.141-.074.31-.073.443.003l1.69.976c.066.038.104.107.1.183-.005.075-.051.144-.122.181z" transform="translate(-99 -49) translate(99 49) translate(1.8) translate(17.54 50.5)"/>
                        <path d="M26.348 17.363l-1.511.792c-.141.074-.31.073-.442-.003l-1.69-.975c-.056-.032-.092-.087-.099-.15-.02.086.019.172.095.216l1.69.975c.133.076.3.077.442.003l1.51-.792c.083-.042.13-.128.121-.214-.014.063-.057.117-.116.148zM29.144 18.99c-.005.076-.051.145-.122.182l-1.51.792c-.142.074-.31.073-.442-.004l-1.685-.975c-.067-.038-.105-.108-.1-.183l.014-.243c.004-.075.05-.145.121-.182l1.511-.792c.142-.074.31-.073.442.003l1.687.976c.066.038.104.108.099.183l-.015.243z" transform="translate(-99 -49) translate(99 49) translate(1.8) translate(17.54 50.5)"/>
                        <path d="M29.037 18.929l-1.51.792c-.142.074-.31.073-.442-.003l-1.686-.976c-.066-.038-.104-.108-.1-.183.005-.075.051-.144.122-.182l1.51-.792c.142-.074.31-.073.443.004l1.686.975c.066.038.104.108.099.183-.005.076-.051.145-.122.182z" transform="translate(-99 -49) translate(99 49) translate(1.8) translate(17.54 50.5)"/>
                        <path d="M29.037 18.929l-1.51.792c-.142.074-.31.073-.442-.003l-1.686-.976c-.056-.032-.092-.087-.099-.15-.02.086.018.172.095.216l1.686.976c.132.076.3.077.441.003l1.51-.792c.083-.043.13-.128.121-.214-.013.062-.056.117-.116.148zM31.826 20.557c-.004.075-.05.145-.122.182l-1.51.791c-.141.074-.31.073-.44-.003l-1.683-.976c-.066-.038-.104-.108-.099-.183l.015-.243c.004-.075.05-.145.121-.182l1.511-.792c.142-.074.31-.073.442.003l1.682.977c.066.038.104.108.099.183l-.016.243z" transform="translate(-99 -49) translate(99 49) translate(1.8) translate(17.54 50.5)"/>
                        <path d="M31.72 20.496l-1.51.791c-.142.075-.31.073-.441-.003l-1.683-.976c-.065-.038-.103-.108-.099-.183.005-.075.051-.144.122-.182l1.51-.792c.142-.074.31-.073.442.004l1.682.976c.066.038.104.108.099.183-.005.075-.051.144-.122.182z" transform="translate(-99 -49) translate(99 49) translate(1.8) translate(17.54 50.5)"/>
                        <path d="M31.72 20.496l-1.511.791c-.141.075-.309.073-.44-.003l-1.683-.976c-.055-.032-.092-.087-.098-.15-.02.086.018.172.094.216l1.682.976c.132.077.3.078.44.004l1.511-.792c.082-.043.13-.128.121-.214-.014.062-.057.117-.116.148zM34.502 22.125c-.004.075-.05.144-.122.181l-1.51.792c-.141.074-.31.073-.44-.003l-1.678-.977c-.066-.038-.104-.108-.099-.183l.016-.243c.004-.076.05-.145.121-.182l1.511-.792c.141-.074.31-.073.441.003l1.678.977c.066.038.104.108.098.184l-.016.243z" transform="translate(-99 -49) translate(99 49) translate(1.8) translate(17.54 50.5)"/>
                        <path d="M34.396 22.063l-1.51.792c-.141.074-.31.073-.44-.003l-1.679-.977c-.065-.038-.103-.108-.098-.183.004-.075.05-.145.121-.182l1.512-.792c.14-.074.309-.073.44.003l1.678.977c.066.039.104.108.099.184-.005.075-.052.144-.123.181z" transform="translate(-99 -49) translate(99 49) translate(1.8) translate(17.54 50.5)"/>
                        <path d="M34.396 22.063l-1.51.792c-.142.074-.31.073-.44-.003l-1.679-.977c-.055-.032-.091-.087-.097-.15-.02.086.017.172.093.216l1.678.977c.131.076.299.077.44.003l1.51-.792c.083-.042.131-.128.122-.214-.014.063-.057.117-.117.148zM37.172 23.693c-.005.075-.051.145-.122.182l-1.511.791c-.141.075-.309.073-.44-.003l-1.673-.977c-.066-.038-.104-.108-.098-.183l.016-.244c.004-.075.05-.144.121-.181l1.511-.792c.142-.075.31-.073.44.003l1.675.978c.066.038.103.108.098.183l-.017.243z" transform="translate(-99 -49) translate(99 49) translate(1.8) translate(17.54 50.5)"/>
                        <path d="M37.066 23.632l-1.51.791c-.142.075-.31.073-.44-.003l-1.674-.977c-.066-.038-.103-.108-.098-.184.005-.075.051-.144.122-.181l1.51-.792c.142-.074.31-.073.441.003l1.674.978c.066.038.103.108.098.183-.005.075-.052.144-.123.182z" transform="translate(-99 -49) translate(99 49) translate(1.8) translate(17.54 50.5)"/>
                        <path d="M37.066 23.632l-1.51.791c-.142.075-.31.073-.44-.003l-1.674-.977c-.056-.032-.092-.087-.098-.15-.02.086.017.172.094.216l1.673.977c.131.077.299.078.44.004l1.51-.792c.082-.043.13-.128.122-.214-.014.062-.057.117-.117.148zM42.667 26.918c-.005.076-.052.145-.123.182l-1.511.792c-.141.074-.308.073-.438-.004l-4.502-2.634c-.065-.037-.103-.107-.097-.183l.016-.243c.005-.075.051-.145.122-.181l1.511-.793c.141-.074.309-.073.44.003l4.503 2.635c.065.038.102.108.096.183l-.017.243z" transform="translate(-99 -49) translate(99 49) translate(1.8) translate(17.54 50.5)"/>
                        <path d="M42.561 26.857l-1.51.791c-.141.075-.309.073-.439-.003l-4.502-2.634c-.066-.038-.103-.108-.098-.183.005-.075.052-.144.122-.181l1.511-.792c.142-.075.31-.073.44.003l4.503 2.634c.065.038.102.108.096.183-.005.075-.052.145-.123.182z" transform="translate(-99 -49) translate(99 49) translate(1.8) translate(17.54 50.5)"/>
                        <path d="M42.561 26.857l-1.51.791c-.142.075-.309.073-.44-.003l-4.501-2.634c-.056-.031-.091-.087-.097-.15-.02.087.016.173.092.217l4.502 2.633c.13.077.298.078.439.004l1.51-.792c.082-.043.13-.128.123-.214-.015.062-.058.117-.118.148z" transform="translate(-99 -49) translate(99 49) translate(1.8) translate(17.54 50.5)"/>
                    </g>
                </g>
                <g transform="translate(-99 -49) translate(99 49) translate(1.8) translate(33.3 4.05)">
                    <mask id="8x7ejnh8yo" fill="#fff">
                        <use xlink:href="#m67h38or2m"/>
                    </mask>
                    <use fill="url(#ikw4an8mln)" fill-rule="nonzero" transform="matrix(-1 0 0 1 52.387 0)" xlink:href="#m67h38or2m"/>
                    <g mask="url(#8x7ejnh8yo)" opacity=".889">
                        <g>
                            <g>
                                <path fill="url(#w0i5x1x4tp)" d="M28.64 26.34s-1.138 3.633-.89 8.15c.046.846.649 1.848.703 2.746.465 7.74 1.41 13.68-1.407 13.659-2.757-.028-5.67 2.175-8.642.655-2.528-1.292-3.952-3.713-3.988-4.453l.004.186c.486-4.505.699-7.967.64-10.388-.032-1.302-.381-3.424-1.048-6.365-.241-.029-2.045 7.098-2.278 7.03-1.049-.305-2.362-1.67-2.822-2.296-.571-.778.642-9.71.642-9.71.627-4.387 1.751-8.863 3.693-9.516.257-.22.544-.404.852-.546 1.96-.541 3.315.102 6.206-.097l5.066.599 6.783 2.33-3.515 8.017z" transform="rotate(12 -53.247 21.602) rotate(-4 170.315 5.18)"/>
                                <path fill="url(#jo8do4md3q)" d="M25.787 16.974l-.522-4.199h-.01c-.046-.566-.36-1.075-.845-1.368-1.054-.764-2.685-.933-3.64-.402-.373.185-.619.557-.644.974h-.014l-.5 4.03c-.093.595.24 1.27 1.01 1.818 1.267.917 3.227 1.142 4.372.49.515-.239.828-.775.783-1.343h.01z" transform="rotate(12 -53.247 21.602) rotate(-4 170.315 5.18)"/>
                                <path fill="url(#m58ptmcp7r)" d="M27.028 6.932c-.733-2.237.096-3.872-2.353-4.09-5.257-.467-5.851-1.518-6.354-2.272-.17-.265-.435-.454-.74-.526-.196-.045-.399-.038-.59.019-.82 1.424-1.116 4.206-1.36 5.832-.035.669.201 1.557.15 2.107-.144 1.318-.015 1.402.511 2.617.298.678.542.87 1.058 1.4.402.504.778 1.027 1.127 1.568.998 1.641 2.727 1.64 5.918.044.044-.03.095-.062.152-.095 1.13-.534 2.092-1.368 2.782-2.412.213-1.402.11-2.835-.3-4.192z" transform="rotate(12 -53.247 21.602) rotate(-4 170.315 5.18)"/>
                                <path fill="#FFF" d="M16.257 15.41c-.042-.283-.388-.357-.651-.364-.435-.013-1.318.238-2.06.772-.448.322-.318 3.716-.374 5.366-.06 1.766-.362 3.332-.629 4.75-.946 5.025 1.766 4.617 2.027 9.428.262 4.812-1.046 4.658-.971 5.73 0 0-.294 3.505 4.185 3.783 1.239.077 1.78.681 3.222.825 1.611.161 3.89.256 6.23.438 2.342.183 3.765-.109 4.852-1.157.523-.505-.327-2.046-.407-2.725-.321-2.72-5.435-7.888-1.226-12.368.812-1.341 5.266-7.12 3.396-10.247-1.083-1.574-1.901-2.31-3.5-2.7-.539-.135-1.105.08-1.419.539-1.8 2.6-7.085 7.679-9.157 7.592-2.549-.107-3.111-6.938-3.518-9.663z" transform="rotate(12 -53.247 21.602) rotate(-4 170.315 5.18)"/>
                                <path fill="url(#f5okc55r6s)" d="M13.997 32.782c-.272-1.676-1.721-2.03-4.112-2.309-2.391-.278-5.76-.74-7.173-.834-.928-.063.468 2.023.983 1.996.515-.027 8.805 2.97 8.857 2.976 0 0 1.673-.718 1.445-1.829z" transform="rotate(12 -53.247 21.602) rotate(-4 170.315 5.18) scale(1 -1) rotate(-71 -36.826 0)"/>
                                <path fill="url(#eapr37ax4t)" d="M35.1 36.632c-.202-.547-.065-6.84-1.574-13.108-.22-.915-.626-2.105-1.178-3.23-.819-1.669-1.958-3.194-3.287-3.46-1.482-.296-2.064 1.253-1.747 4.648.524 1.42.829 2.373.913 2.861.637 3.686 2.713 10.696 2.458 10.914-2.172 1.856-7.508 7.589-8.474 7.731-.89.132-2.29-.625-3.77-.718-.938.063-1.87.21-2.782.44-.268.085-.53.187-.784.306-.088.047-.149.131-.166.23-.017.097.011.197.077.272.027.027.056.053.086.076l-.102.045c-.432.191-.699.33-.904.4-.1.12-.092.296.017.407.124.153.325.219.515.17.064-.017.137-.046.227-.075 2.138-.673 2.526-.33 2.526-.33-.371.076-.841.092-1.182.149-.34.057-1.591.466-1.591.466s-.178.058-.368.143c-.209.093-.17.144-.145.268.105.222.345.347.586.306.57-.141 1.151-.24 1.737-.298.596.028.372-.024 1.62-.008-.25.051-.821.312-1.019.353-.198.041-1.585.736-1.623.96-.039.222.142.36.476.363.335.002 1.729-.586 2.504-.586.704-.073 1.415-.015 2.098.171 1.311.294 2.361-1.072 2.874-1.097.514-.025 10.62-6.358 10.673-6.353 0 0 1.54-1.3 1.31-2.416z" transform="rotate(12 -53.247 21.602) rotate(-4 170.315 5.18) rotate(16 24.46 31.856)"/>
                                <path fill="url(#8swh29nsxu)" d="M7.261 22.861c-.893.134-2.766-.785-4.25-.873-.944.064-3.02.796-2.99.82-.033.014-.074.026-.103.045-.512.33-.512.33-.748.514s-.707.551-.523.785c.183.235.419.051.654-.133.472-.367 1.036-.471 1.126-.5.808-.255.542-.252.939-.109.396.144 0 0-.355.17-.354.17-.686.923-.686.923l-.125.316c-.126.316-.004.395.021.52.184.233.42.05.42.05.47-.367.478-.994 1.066-1.053.44.02.524.06.83.17.11.039.251.196.444.212-.252.052-.896.252-1.131.436-.236.183-.433.397-.36.739.074.342.23.379.466.195.236-.183.416-.522 1.084-.505.706-.074 1.064.16 2.273-.074 1.21-.236 1.355-.631 3.231-.85.42-.048 1.502-1.559-.087-1.6-.667-.017-.928-.237-1.196-.198z" transform="rotate(12 -53.247 21.602) rotate(-4 170.315 5.18) scale(1 -1) rotate(-69 -31.105 0)"/>
                            </g>
                            <g transform="rotate(12 -53.247 21.602) translate(13.384)">
                                <g transform="translate(12.756 .002)">
                                    <mask id="70gz9jzpqw" fill="#fff">
                                        <use xlink:href="#30i49hkjiv"/>
                                    </mask>
                                    <use fill="#513951" fill-rule="nonzero" xlink:href="#30i49hkjiv"/>
                                    <path fill="#5D465E" fill-rule="nonzero" d="M2.785.929c4.01-2.058 8.352-.5 10.731 7.27-.781-.263-.482-.343-1.487-1.195-1.162-.985-3.332-3.45-5.056-2.69-1.944.858-2.142 1.358-2.948 2.573-.585.88-2.486 1.967-2.73 4.1-.423-.026-.692-.052-.692-.052S-1.673 3.216 2.785.929z" mask="url(#70gz9jzpqw)"/>
                                    <path fill="#EBA200" fill-rule="nonzero" d="M-.165 6.108C1.568 6.853 2.757 7.55 3.404 8.2c.51.512 1.134 1.404 1.872 2.674-1.114.145-2.239.193-3.362.144L.25 9.346c-.144-.814-.282-1.894-.415-3.238z" mask="url(#70gz9jzpqw)"/>
                                </g>
                                <mask id="yuue08s7my" fill="#fff">
                                    <use xlink:href="#32c64fbgxx"/>
                                </mask>
                                <use fill="#513951" fill-rule="nonzero" xlink:href="#32c64fbgxx"/>
                                <path fill="#5D465E" fill-rule="nonzero" d="M8.902 6.079c2.276.571 6.07 3.43 7.018 4.193.84.602 1.507 1.417 1.932 2.362-.438.2-.892.366-1.356.496-.853.215-3.2-1.215-4.766-1.62-1.564-.405-1.707-1.381-2.916-2.453-1.21-1.073-1.92-.072-4.766 1.786-1.307.854-1.543 2.173-1.422 3.353-.938-.5-1.462-1.536-1.312-2.59.38-3.43 5.311-6.1 7.588-5.527z" mask="url(#yuue08s7my)"/>
                            </g>
                            <path fill="#FFA5A5" fill-rule="nonzero" d="M21.539 21.871c-.731 0-1.33.157-1.669.498-.367.37-.254.868.085 1.135.132.103.289.172.472.226.312.091.679.13.947.075.317-.063.677-.303.884-.567.47-.602.12-1.367-.72-1.367z" transform="rotate(12 -53.247 21.602)"/>
                        </g>
                    </g>
                </g>
            </g>
        </g>
        <path stroke="#596A7C" stroke-dasharray="11 10" stroke-width="2" d="M184.876 35.053c-19.44-12.625-46.092-12.346-69.235-.72" transform="translate(-99 -49)"/>
    </g>
</svg>
